<?xml version="1.0" encoding="UTF-8" standalone="no"?>
<!-- Created with Inkscape (http://www.inkscape.org/) -->

<svg
   xmlns:dc="http://purl.org/dc/elements/1.1/"
   xmlns:cc="http://creativecommons.org/ns#"
   xmlns:rdf="http://www.w3.org/1999/02/22-rdf-syntax-ns#"
   xmlns:svg="http://www.w3.org/2000/svg"
   xmlns="http://www.w3.org/2000/svg"
   xmlns:sodipodi="http://sodipodi.sourceforge.net/DTD/sodipodi-0.dtd"
   xmlns:inkscape="http://www.inkscape.org/namespaces/inkscape"
   width="600"
   height="600"
   id="svg2"
   version="1.1"
   inkscape:version="0.48.2 r9819"
   sodipodi:docname="pompe_dessin.svg">
  <defs
     id="defs4" />
  <sodipodi:namedview
     id="base"
     pagecolor="#e0e0e1"
     bordercolor="#666666"
     borderopacity="1.0"
     inkscape:pageopacity="1"
     inkscape:pageshadow="2"
     inkscape:zoom="1"
     inkscape:cx="92.585541"
     inkscape:cy="254.25531"
     inkscape:document-units="px"
     inkscape:current-layer="layer1"
     showgrid="true"
     showguides="true"
     inkscape:guide-bbox="true"
     inkscape:window-width="1680"
     inkscape:window-height="964"
     inkscape:window-x="0"
     inkscape:window-y="30"
     inkscape:window-maximized="1">
    <inkscape:grid
       type="xygrid"
       id="grid3753"
       empspacing="5"
       visible="true"
       enabled="true"
       snapvisiblegridlinesonly="true" />
    <sodipodi:guide
       orientation="1,0"
       position="300,620"
       id="guide3755" />
    <sodipodi:guide
       orientation="0,1"
       position="-50,300"
       id="guide3757" />
  </sodipodi:namedview>
  <metadata
     id="metadata7">
    <rdf:RDF>
      <cc:Work
         rdf:about="">
        <dc:format>image/svg+xml</dc:format>
        <dc:type
           rdf:resource="http://purl.org/dc/dcmitype/StillImage" />
        <dc:title></dc:title>
      </cc:Work>
    </rdf:RDF>
  </metadata>
  <g
     inkscape:label="Calque 1"
     inkscape:groupmode="layer"
     id="layer1"
     transform="translate(0,-452.36218)">
    <path
       style="fill:#000000"
       d="m 336.85628,1038.8278 c -7.46333,-3.4582 -8.20783,-4.5817 -10.49012,-15.8307 -1.33395,-6.5747 4.64497,-3.9511 -87.79187,-38.52278 -84.0246,-31.42545 -86.4536,-32.22843 -89.45564,-29.57192 -4.93889,4.37042 -19.64474,5.73989 -26.95717,2.51035 -4.66263,-2.05926 -8.16333,-6.34308 -11.04878,-13.52049 -2.32304,-5.77838 -5.59364,-10.50617 -7.26799,-10.50617 -1.67436,0 -8.169671,-2.72326 -14.434024,-6.05172 -8.250417,-4.38368 -12.86135,-8.89311 -16.728861,-16.36064 l -5.339106,-10.30893 10.031154,11.18986 c 7.003416,7.81236 13.676819,12.45895 22.109471,15.39449 8.325636,2.89828 12.685786,5.90825 14.033506,9.68783 2.24473,6.29519 6.59714,8.5681 16.40705,8.5681 5.97681,0 6.51755,-0.50689 3.99633,-3.746 -1.60367,-2.0603 -4.34125,-3.16277 -6.08351,-2.44991 -3.57897,1.46434 -11.88387,-15.68299 -11.96648,-24.70753 -0.0548,-5.98147 3.18623,-6.78624 12.35723,-3.06848 4.84415,1.96374 5.62989,3.46233 4.448,8.4833 -1.90047,8.07363 0.70572,18.91511 4.02172,16.72996 1.42857,-0.9414 1.93241,-0.60661 1.14124,0.75833 -1.45087,2.50306 5.9159,6.99276 17.39982,10.60439 4.72873,1.48715 6.15564,1.24828 5.33283,-0.89276 -0.61786,-1.60775 -1.83915,-4.82275 -2.71394,-7.14441 -2.29156,-6.08168 4.51113,-8.07455 11.32146,-3.31668 3.07203,2.1462 7.60704,3.9022 10.07779,3.9022 2.47074,0 5.12448,1.0907 5.89719,2.42379 0.7727,1.33309 3.67432,2.4238 6.44802,2.4238 2.77369,0 7.31839,1.69926 10.09932,3.77611 2.78093,2.07688 5.92668,3.20252 6.99057,2.50146 1.06389,-0.70108 3.8752,0.29175 6.24738,2.20629 2.37217,1.91453 6.17044,3.51565 8.44061,3.55806 2.27018,0.0424 6.36198,1.37352 9.09289,2.95803 2.73091,1.58454 6.9246,3.05161 9.31928,3.26016 5.59512,0.4873 12.69519,9.82203 12.69519,16.69086 0,4.2614 2.27593,6.10436 11.36611,9.20384 6.25136,2.13152 11.35504,3.70311 11.34152,3.49238 -0.0137,-0.21063 -1.5563,-5.7668 -3.42834,-12.34688 -3.91874,-13.77401 -1.99505,-16.83777 8.19421,-13.05051 7.16137,2.66184 13.594,9.25959 9.02783,9.25959 -4.1119,0 -1.79696,22.97687 2.33724,23.19853 1.7688,0.095 6.88547,1.8737 11.37031,3.953 4.48486,2.0793 10.62255,4.5848 13.63933,5.5678 6.91834,2.2543 13.44132,8.2734 13.44132,12.4032 0,1.7417 4.34398,4.4138 9.65325,5.9381 7.85061,2.254 11.7772,2.0585 21.0273,-1.0467 6.25575,-2.1001 18.26584,-4.8571 26.68912,-6.1267 15.55191,-2.3439 19.48406,-4.502 41.15132,-22.58586 13.93146,-11.6274 9.68408,-11.87289 -7.68186,-0.44402 -12.44104,8.18768 -14.43155,8.73028 -31.58841,8.61028 -10.07087,-0.07 -20.09105,-1.1904 -22.26705,-2.4888 -2.69256,-1.6066 1.92787,-1.9307 14.4644,-1.0145 16.3318,1.1936 19.80824,0.6683 30.65571,-4.63213 6.72922,-3.2881 17.15616,-10.52368 23.17099,-16.07907 6.01484,-5.5554 11.69073,-10.10073 12.61309,-10.10073 0.92238,0 5.72465,-4.09016 10.67173,-9.08924 4.94707,-4.99909 13.59248,-12.32415 19.212,-16.2779 5.61954,-3.95377 16.50008,-12.40677 24.17899,-18.78444 7.67891,-6.3777 14.83957,-11.59364 15.91255,-11.59097 1.073,0.002 2.17936,3.46385 2.4586,7.69154 0.27925,4.22771 1.61853,8.86104 2.97621,10.29632 1.77089,1.87212 2.04049,1.41087 0.95401,-1.63204 -0.83298,-2.33291 -0.46735,-4.24165 0.8125,-4.24165 1.27984,0 2.68645,1.1498 3.12578,2.55512 1.01289,3.23997 19.50213,7.77998 22.80912,5.60077 1.48388,-0.97781 1.8278,-0.51028 0.85685,1.16481 -0.94646,1.63284 -0.22345,2.7983 1.73609,2.7983 1.84692,0 5.14396,0.7307 7.32672,1.6238 2.70578,1.10707 3.44562,0.72144 2.32499,-1.2119 -0.90404,-1.55965 -0.56038,-2.8357 0.76368,-2.8357 1.32407,0 2.4074,-2.67547 2.4074,-5.94546 0,-9.42344 4.58081,-18.08848 8.8075,-16.66018 3.19345,1.07917 3.23221,0.89608 0.28539,-1.34838 -1.87541,-1.42842 -5.3281,-1.95981 -7.67265,-1.18088 -2.85478,0.94846 -3.73045,0.4978 -2.65106,-1.36438 1.1409,-1.96832 -0.203,-2.29495 -4.60081,-1.11807 -4.11,1.09987 -5.71211,0.79908 -4.73379,-0.88871 0.93855,-1.6192 -0.31318,-2.0516 -3.42625,-1.18359 -3.14311,0.8764 -4.36795,0.44106 -3.40983,-1.2119 3.86705,-6.67146 -8.49714,0.91299 -12.7407,7.81542 -4.41514,7.1815 -5.0739,7.47543 -8.90836,3.97479 -2.27737,-2.07912 -4.14066,-4.46673 -4.14066,-5.30585 0,-2.67211 12.48992,-15.45748 18.28427,-18.71679 3.07151,-1.72771 13.76816,-9.63009 23.77033,-17.56084 l 18.18578,-14.41952 1.16982,-15.12504 c 0.95425,-12.33767 0.43058,-15.91328 -2.84153,-19.40212 -4.7371,-5.05088 -8.90684,-5.64338 -7.2464,-1.02968 1.33134,3.6992 -5.13948,10.44548 -7.55186,7.87332 -0.87128,-0.92899 -0.0793,-2.70379 1.75986,-3.94398 1.83919,-1.24018 2.66045,-2.27161 1.82501,-2.29201 -0.83545,-0.0194 -3.00265,-0.64415 -4.816,-1.3861 -2.06,-0.84285 -3.7557,0.52124 -4.51955,3.6357 -1.65187,6.73513 -4.88184,6.2701 -9.5828,-1.3797 -3.16896,-5.15685 -3.3389,-6.74144 -0.89558,-8.35152 1.65853,-1.09291 2.27788,-2.77355 1.3764,-3.73476 -0.90149,-0.96123 -2.24002,-1.10692 -2.97447,-0.32382 -2.14583,2.28795 -5.37114,19.24746 -5.43004,28.55248 -0.045,7.09235 -2.11979,10.74109 -12.06015,21.20824 -6.60324,6.95318 -12.96173,12.64215 -14.12998,12.64215 -1.16823,0 3.21145,-5.7605 9.73261,-12.8011 11.28408,-12.18284 11.97497,-13.67539 14.30527,-30.90344 1.34671,-9.95629 2.45845,-19.7384 2.47052,-21.73804 0.0358,-5.8978 -4.62409,-75.08306 -6.1217,-90.89246 -1.26111,-13.31282 -13.02101,-92.74408 -16.06152,-108.48616 -1.5301,-7.92214 -5.46795,-6.49474 -5.46795,1.98204 0,3.25406 -1.08333,5.91645 -2.40739,5.91645 -1.32407,0 -1.77516,-1.09071 -1.00244,-2.4238 0.78342,-1.35157 -0.91705,-2.40737 -3.84398,-2.38667 -3.99398,0.0282 -4.47631,0.5585 -2.01737,2.21789 3.00588,2.0285 4.55608,13.05112 10.0796,71.67086 l 1.14193,12.11899 -3.07369,-9.69519 c -3.00956,-9.49286 -3.08202,-9.54345 -3.47157,-2.4238 -0.36552,6.67977 -0.65096,6.38397 -3.50822,-3.6357 l -3.11036,-10.9071 1.0603,10.30115 c 0.58317,5.66563 1.57584,14.93666 2.20598,20.60229 0.98851,8.88815 0.81268,9.46995 -1.28194,4.24165 -2.78606,-6.95432 -11.11234,-43.14651 -12.82509,-55.74738 -0.6342,-4.66581 -1.55765,-8.93776 -2.05215,-9.49321 -1.96505,-2.20734 -0.71331,11.63546 2.56916,28.41159 1.90548,9.73857 2.8818,18.71176 2.16963,19.94043 -0.7122,1.22865 -0.1589,6.73203 1.22949,12.22971 3.59292,14.2269 0.90872,14.79865 -3.16037,0.67319 -3.75016,-13.01825 -4.36193,-10.49166 -1.67346,6.9112 4.31622,27.93942 -4.19038,0.0863 -15.32833,-50.18961 -3.57412,-16.13326 -2.88367,-0.45296 0.80286,18.23295 1.88132,9.53588 2.92713,18.18923 2.32407,19.22967 -0.60309,1.04042 0.33117,7.76009 2.07609,14.93257 1.74495,7.17246 2.87892,13.35399 2.51995,13.73674 -1.35424,1.44395 -8.07509,-16.20616 -8.24694,-21.65796 -0.0986,-3.13126 -0.67394,-4.39851 -1.27831,-2.81616 -0.60436,1.58235 -0.0159,9.12933 1.31006,16.77104 1.32488,7.64171 1.98741,14.34341 1.47226,14.89267 -1.06944,1.14028 -11.08446,-33.02625 -15.9044,-54.25825 -1.77493,-7.81863 -3.28735,-12.03426 -3.36095,-9.36808 -0.0736,2.66618 0.9101,9.67685 2.18599,15.57926 1.27592,5.90241 2.69007,16.26416 3.14257,23.02609 0.45251,6.76194 1.59062,14.91909 2.52914,18.12699 1.20215,4.10907 0.93948,5.3272 -0.88892,4.12233 -1.42742,-0.94063 -3.60831,-5.20135 -4.84642,-9.46826 -1.83855,-6.33632 -2.05458,-4.87087 -1.17879,7.99667 l 1.0723,15.7547 -5.69123,-19.3904 c -11.13057,-37.92281 -14.52311,-53.19056 -12.16438,-54.74487 1.41105,-0.92986 0.91683,-2.97555 -1.28643,-5.32476 -4.64382,-4.95142 -4.63016,-9.95786 0.0228,-8.05442 2.29761,0.94009 3.237,0.37631 2.59686,-1.55852 -0.55161,-1.66727 -2.68298,-2.87991 -4.73639,-2.69476 -5.25886,0.47418 -4.63675,-2.99149 1.38127,-7.695 l 5.11475,-3.99755 -5.68306,1.7374 c -7.61483,2.328 -5.51672,0.43314 6.81967,-6.15903 10.06453,-5.37814 10.16028,-5.38368 5.93763,-0.34339 -3.52738,4.21038 -3.77941,5.78128 -1.41494,8.81901 1.5823,2.03285 3.7411,7.23419 4.79734,11.55851 1.86567,7.63831 1.89598,7.65516 1.06291,0.59101 -0.47165,-3.99927 -1.49046,-10.2952 -2.26406,-13.99096 -1.00224,-4.7881 -0.41476,-7.12536 2.0439,-8.13132 1.89772,-0.77648 2.91138,-2.34173 2.25256,-3.47836 -1.53382,-2.64613 10.53406,-9.22922 14.29501,-7.798 1.56284,0.59472 2.84153,-0.005 2.84153,-1.33155 0,-2.37446 20.71114,-18.38551 31.82511,-24.60286 l 5.68305,-3.1792 -4.54645,5.57549 -4.54644,5.5755 5.72634,-3.92288 c 7.37033,-5.04963 7.1152,-13.34423 -1.20792,-39.24506 -10.43277,-32.46589 -14.96791,-38.43714 -34.88304,-45.92904 -28.39439,-10.68172 -217.33239,-52.23379 -237.50796,-52.23379 -19.55706,0 -37.19965,5.87381 -91.89906,30.59628 -33.32486,15.06182 -40.47789,19.30733 -45.69701,27.1224 -4.938185,7.39443 -18.487955,49.82933 -18.487955,57.90023 0,4.04003 4.390324,6.32969 26.710355,13.93016 14.6907,5.00251 29.26773,10.01126 32.39341,11.13054 3.12568,1.11929 21.53878,6.49773 40.91799,11.95206 158.32642,44.56146 173.21785,46.77511 235.06359,34.94282 6.41401,-1.22713 8.43169,-0.92856 7.2699,1.07579 -1.02843,1.77425 -0.38304,2.27308 1.79039,1.38381 1.86916,-0.76477 3.78562,-3.20638 4.25879,-5.42578 1.17448,-5.50902 10.13598,25.25105 13.16736,45.19671 1.35507,8.91583 3.92736,23.20802 5.71624,31.76045 1.78887,8.5524 2.86786,15.95994 2.39776,16.46118 -2.0248,2.15893 -9.10696,-22.08205 -14.30916,-48.97764 -3.09417,-15.99707 -6.39076,-29.92474 -7.32574,-30.95038 -0.93497,-1.02565 -5.92526,-0.27529 -11.08951,1.66746 -15.28606,5.75048 -45.36277,9.45063 -64.21786,7.9003 -10.605,-0.87196 -45.64904,-9.15855 -88.52908,-20.93377 -39.03653,-10.71976 -71.64776,-19.40595 -72.46937,-19.30263 -0.82159,0.10326 3.62094,2.20021 9.8723,4.65975 10.47637,4.12184 10.81015,4.48659 4.26394,4.65974 -3.90618,0.10337 -11.06684,-1.28782 -15.91255,-3.09141 -4.84571,-1.8036 -15.68077,-4.64692 -24.0779,-6.31851 -8.39713,-1.67158 -16.4409,-4.54674 -17.87503,-6.38924 -1.43414,-1.8425 -3.49513,-2.7651 -4.57998,-2.05022 -1.08484,0.71489 -8.38532,-0.8951 -16.22328,-3.57772 -7.83797,-2.68263 -20.38855,-6.72444 -27.89018,-8.98181 -7.501636,-2.25736 -15.799714,-6.16159 -18.440195,-8.67605 -4.783179,-4.55491 -4.490612,-4.48038 -6.311654,4.62559 -5.818777,29.09631 -12.781623,82.5318 -14.836556,120.69209 -1.006145,18.68421 -3.519843,48.70726 -4.844804,66.76445 -2.773898,37.80401 -1.861527,42.19245 10.667203,51.30845 6.972043,5.07289 40.066746,21.22107 59.908056,29.23143 2.21598,0.89463 2.39098,1.44362 0.4998,1.56796 -1.60051,0.10519 -8.76115,-2.38451 -15.91255,-5.53281 -7.15139,-3.14827 -20.455871,-8.71225 -29.565528,-12.36435 -9.41907,-3.77616 -20.078339,-10.17521 -24.713214,-14.83601 -7.908356,-7.95258 -8.120844,-8.6286 -7.160775,-22.78073 0.544195,-8.02171 0.551124,-14.58492 0.01542,-14.58492 -0.535713,0 -5.971475,2.90013 -12.079462,6.44472 -14.108244,8.1873 -15.09534,13.28549 -1.346204,6.95283 5.033303,-2.31826 5.755574,-1.58116 7.484981,7.63863 1.650067,8.79681 -1.674336,10.8958 -13.905175,8.77953 -7.217855,-1.24886 -8.156996,-2.17194 -7.265984,-7.14167 0.669269,-3.73333 -0.04721,-5.70744 -2.071397,-5.70744 -3.785263,0 -12.187488,8.6335 -12.187488,12.52297 0,1.55525 0.620369,2.16629 1.378594,1.35783 0.758226,-0.80843 3.476411,0.61398 6.040403,3.16093 2.564004,2.54695 11.215524,6.95623 19.225619,9.79838 8.010084,2.84214 14.164577,5.59323 13.676632,6.11347 -1.191743,1.2707 -29.519003,-8.7924 -32.251303,-11.45708 -4.039944,-3.93993 -5.796717,-2.12109 -5.796717,6.00152 0,9.16715 4.604098,14.71409 15.607893,18.80413 4.046021,1.50387 6.958582,3.15847 6.472366,3.6769 -1.452267,1.54847 -16.102066,-4.34168 -20.216769,-8.12843 C 12.955655,868.7741 10.999668,861.82708 10,851.87399 8.0566918,832.5257 9.2242588,830.90386 35.21025,816.85497 c 22.171494,-11.98666 20.44273,-7.10014 22.656775,-64.04191 1.43738,-36.9674 7.772216,-93.75087 15.142511,-135.73275 2.574392,-14.66399 5.444712,-31.56999 6.378479,-37.56889 3.54757,-22.791 13.341699,-49.57876 21.027575,-57.51221 7.99525,-8.2528 30.56132,-20.20863 72.04361,-38.16971 58.95086,-25.52466 62.87858,-25.36289 210.46468,8.66851 11.25245,2.59467 25.06227,5.72076 30.6885,6.94688 33.34493,7.26681 74.35877,19.96739 82.08461,25.41879 9.74054,6.87295 13.66172,13.82598 21.85391,38.75123 12.27371,37.34362 30.1009,164.38945 30.16212,214.95101 0.0325,26.93481 1.42227,30.78181 12.23672,33.8748 15.81503,4.52317 26.77114,10.18034 30.05026,15.51646 4.2253,6.87576 1.11797,36.27988 -4.29218,40.61633 -2.06249,1.65312 -11.36427,9.0046 -20.67067,16.3366 l -16.9207,13.33089 17.42547,6.26017 c 13.89576,4.99212 17.83516,7.49525 19.44803,12.35752 2.62064,7.90037 0.0918,21.97418 -5.20031,28.94273 l -4.16923,5.48981 -18.6128,-5.43879 c -10.23704,-2.99133 -20.56849,-4.77697 -22.95879,-3.96805 -2.39028,0.80889 -7.86986,0.43328 -12.17685,-0.83471 -7.25301,-2.13532 -8.81041,-1.50472 -21.10539,8.54564 -7.30097,5.96809 -25.54989,20.52439 -40.55315,32.34734 -15.00327,11.82295 -30.85899,24.65504 -35.23495,28.51574 -16.96314,14.9657 -18.13851,15.4018 -46.03273,17.0798 -3.83341,0.2305 -6.25136,1.7582 -6.25136,3.9495 0,4.8738 -11.76345,10.9902 -20.91442,10.8745 -4.12547,-0.052 -10.84113,-1.6426 -14.92369,-3.5344 z m -51.68094,-44.84673 c -0.77272,-1.33309 -1.85605,-2.4238 -2.40739,-2.4238 -0.55135,0 -1.00245,1.09071 -1.00245,2.4238 0,1.33309 1.08333,2.42379 2.40739,2.42379 1.32406,0 1.77516,-1.0907 1.00245,-2.42379 z m -3.8796,-17.78015 c -3.00281,-6.15165 -3.75277,-4.33094 -2.32987,5.65642 0.99342,6.97289 1.50039,7.61854 2.8548,3.6357 0.90579,-2.66358 0.66955,-6.84502 -0.52493,-9.29212 z m 184.00427,-4.67364 c 4.20231,-3.09466 7.3409,-7.49962 7.31569,-10.2675 -0.0387,-4.2441 -0.38892,-4.38175 -2.81339,-1.10562 -1.52308,2.0581 -7.59526,7.63771 -13.49375,12.39914 -5.89847,4.76143 -10.06855,9.35652 -9.26685,10.21132 0.80169,0.85483 3.58181,-0.10447 6.17805,-2.13161 2.59624,-2.02719 8.03235,-6.12477 12.08025,-9.10573 z m -218.05083,4.26504 c -1.42656,-3.33835 -2.89848,-5.74482 -3.27095,-5.3477 -1.38311,1.47476 2.01777,11.41745 3.90533,11.41745 1.07765,0 0.79218,-2.73138 -0.63438,-6.06975 z m -15.49456,-6.04925 c -1.45285,-2.89452 -3.15305,-4.71741 -3.77818,-4.05087 -0.62514,0.66655 0.0521,3.58015 1.50496,6.47467 1.45286,2.89453 3.15305,4.71742 3.77818,4.05087 0.62514,-0.66654 -0.052,-3.58014 -1.50496,-6.47467 z m -15.84478,-4.71261 c -3.5752,-7.1228 -6.84413,-8.29003 -3.83334,-1.36877 1.44593,3.32395 3.43215,6.05208 4.41385,6.06248 0.98169,0.01 0.72045,-2.10177 -0.58051,-4.69371 z m -13.7071,-2.09552 c 0,-1.0783 -1.61029,-4.07775 -3.57841,-6.66545 -1.96812,-2.5877 -3.14881,-3.6142 -2.62373,-2.28111 0.52507,1.33309 1.59177,4.33254 2.37045,6.66545 1.4546,4.35796 3.83169,5.7731 3.83169,2.28111 z m 278.20043,-6.64865 c 0.77628,-2.15699 0.39519,-3.1299 -0.89341,-2.28075 -1.23594,0.81445 -2.24718,2.50718 -2.24718,3.76159 0,3.48647 1.62937,2.7182 3.14059,-1.48084 z m -295.00638,-2.49615 c -0.75891,-2.10866 -1.37982,-4.29008 -1.37982,-4.8476 0,-0.5575 -0.92719,-1.01366 -2.06041,-1.01366 -1.13322,0 -1.52539,2.18142 -0.87148,4.8476 0.6539,2.66618 2.20201,4.8476 3.44022,4.8476 1.23821,0 1.63039,-1.72526 0.87149,-3.83394 z m -15.01916,-2.9742 c 0,-1.0783 -1.55105,-4.07775 -3.44678,-6.66545 -3.19615,-4.36281 -3.25226,-4.22024 -0.77172,1.96054 2.67651,6.66906 4.2185,8.38887 4.2185,4.70491 z m 326.48289,-5.91681 c 13.46347,-10.80735 12.5147,-13.33567 -1.37132,-3.65433 -6.22891,4.34279 -11.34365,8.71401 -11.36611,9.71383 -0.0738,3.28667 2.79363,1.92253 12.73743,-6.0595 z m 77.25078,-13.2804 c -0.75536,-0.80541 -1.29264,0.62616 -1.19394,3.18123 0.10913,2.82361 0.64773,3.39793 1.37339,1.46439 0.65666,-1.74969 0.57592,-3.84022 -0.17936,-4.64562 z m -446.92487,-2.61698 c 0,-3.74448 -1.47121,-8.92535 -3.26935,-11.51305 -2.944,-4.23672 -3.06251,-3.74014 -1.19084,4.99029 1.14317,5.33236 2.1029,10.51323 2.13273,11.51305 0.0298,0.99981 0.56571,1.81785 1.19084,1.81785 0.62514,0 1.13662,-3.06366 1.13662,-6.80814 z m 390.99414,-0.46326 c 0,-2.66618 -0.35294,-4.8476 -0.78428,-4.8476 -0.43137,0 -2.63581,2.18142 -4.89878,4.8476 -3.99353,4.7051 -3.97048,4.8476 0.78428,4.8476 3.38329,0 4.89878,-1.49965 4.89878,-4.8476 z m 18.18577,-20.60229 c 2.93643,-3.33273 4.82748,-6.0595 4.20235,-6.0595 -0.62514,0 -3.53914,2.72677 -6.47557,6.0595 -2.93643,3.33272 -4.82749,6.0595 -4.20235,6.0595 0.62513,0 3.53913,-2.72678 6.47557,-6.0595 z m 34.09832,-86.04487 c -4.47852,-3.08596 -9.745,-3.08596 -7.95627,0 0.77271,1.33309 3.6462,2.4071 6.38552,2.38669 4.04913,-0.0303 4.3429,-0.47652 1.57075,-2.38669 z M 460.5823,709.79062 c -0.6306,-1.66636 -1.14658,-0.30297 -1.14658,3.02975 0,3.33272 0.51598,4.69611 1.14658,3.02975 0.63062,-1.66636 0.63062,-4.39314 0,-6.0595 z m -2.21173,-15.75469 c -0.57178,-2.33291 -1.0396,-0.42417 -1.0396,4.24165 0,4.66581 0.46782,6.57455 1.0396,4.24164 0.57177,-2.3329 0.57177,-6.15039 0,-8.48329 z m 18.18578,-2.4238 c -0.57178,-2.33291 -1.03961,-0.42417 -1.03961,4.24165 0,4.66581 0.46783,6.57455 1.03961,4.24164 0.57176,-2.3329 0.57176,-6.15039 0,-8.48329 z m 15.91255,-9.6952 c -0.57178,-2.33291 -1.03961,-0.42416 -1.03961,4.24165 0,4.66581 0.46783,6.57455 1.03961,4.24165 0.57176,-2.33291 0.57176,-6.15039 0,-8.4833 z m -36.56513,-4.7971 c -0.75539,-0.80541 -1.29265,0.62614 -1.19395,3.18124 0.10914,2.82358 0.64774,3.39792 1.3734,1.46437 0.65666,-1.74968 0.57592,-3.8402 -0.17936,-4.64561 z m 18.18577,0 c -0.75539,-0.80541 -1.29264,0.62614 -1.19394,3.18124 0.10914,2.82358 0.64774,3.39792 1.3734,1.46437 0.65666,-1.74968 0.57592,-3.8402 -0.17937,-4.64561 z m 38.77687,-1.2624 c -0.63062,-1.66636 -1.14659,-0.30297 -1.14659,3.02975 0,3.33273 0.51597,4.69611 1.14659,3.02975 0.63062,-1.66636 0.63062,-4.39313 0,-6.0595 z m -22.86432,-8.43279 c -0.75539,-0.80542 -1.29264,0.62614 -1.19394,3.18123 0.10914,2.82358 0.64774,3.39793 1.3734,1.46438 0.65666,-1.74968 0.57592,-3.84021 -0.17937,-4.64561 z m 16.03024,-3.73233 c -0.62271,-1.64099 -1.09426,0.28851 -1.04793,4.28778 0.0464,3.99927 0.5558,5.34189 1.13215,2.98362 0.57636,-2.35828 0.53846,-5.63041 -0.0844,-7.2714 z m -129.41051,6.15459 c -4.71641,-0.5247 -11.87706,-0.5159 -15.91255,0.0196 -4.03552,0.53545 -0.17664,0.96474 8.57526,0.95399 8.75191,-0.0109 12.05368,-0.44885 7.33729,-0.97354 z m 134.03286,-9.74416 c -0.57178,-2.33291 -1.03962,-0.42417 -1.03962,4.24165 0,4.66581 0.46784,6.57455 1.03962,4.24165 0.57176,-2.33291 0.57176,-6.15039 0,-8.4833 z m -166.94389,7.48401 c -1.56284,-0.6724 -4.12022,-0.6724 -5.68306,0 -1.56284,0.67239 -0.28415,1.22253 2.84153,1.22253 3.12568,0 4.40437,-0.55014 2.84153,-1.22253 z m 53.37746,-0.0744 c -2.21178,-0.61454 -5.28063,-0.57412 -6.81967,0.0898 -1.53903,0.66393 0.27058,1.16674 4.02139,1.11734 3.75082,-0.0494 5.01005,-0.59261 2.79828,-1.20714 z m 56.5423,-4.93528 c -0.75539,-0.80541 -1.29265,0.62614 -1.19394,3.18124 0.10913,2.82358 0.64773,3.39792 1.37338,1.46437 0.65667,-1.74968 0.57593,-3.8402 -0.17935,-4.64561 z m -44.1384,2.53542 c -1.64099,-0.70017 -3.60165,-0.61406 -4.35701,0.19136 -0.75538,0.80541 0.58726,1.37827 2.9836,1.27302 2.64818,-0.11634 3.18683,-0.69063 1.37341,-1.46438 z m 78.23672,-14.65441 c -0.75539,-0.80542 -1.29264,0.62614 -1.19394,3.18123 0.10914,2.82358 0.64774,3.39793 1.37339,1.46438 0.65667,-1.74968 0.57592,-3.84021 -0.17935,-4.64561 z m 16.03024,-3.73233 c -0.6227,-1.64099 -1.09426,0.28851 -1.04793,4.28778 0.0464,3.99927 0.55581,5.34189 1.13216,2.98362 0.57635,-2.35828 0.53846,-5.63041 -0.0844,-7.2714 z m -27.39634,1.30853 c -0.7554,-0.80542 -1.29265,0.62614 -1.19395,3.18123 0.10913,2.82358 0.64773,3.39793 1.37339,1.46438 0.65666,-1.74968 0.57592,-3.84021 -0.17936,-4.64561 z m 31.94279,-6.15612 c -0.62271,-1.641 -1.09427,0.2885 -1.04794,4.28777 0.0464,3.99927 0.5558,5.34189 1.13216,2.98362 0.57635,-2.35828 0.53845,-5.63041 -0.0844,-7.27139 z m -33.97604,-3.98345 c -0.35116,-5.19937 -1.19862,-6.42212 -3.21651,-4.6409 -2.12847,1.87883 -2.13326,3.45381 -0.0204,7.0593 3.56685,6.08976 3.80085,5.91499 3.238,-2.4184 z m 17.9458,0.44435 c -0.7554,-0.80542 -1.29265,0.62614 -1.19394,3.18123 0.10914,2.82358 0.64772,3.39793 1.37338,1.46438 0.65668,-1.74968 0.57592,-3.84021 -0.17935,-4.64561 z m 9.09289,-4.8476 c -0.7554,-0.80542 -1.29265,0.62614 -1.19395,3.18124 0.10913,2.82358 0.64773,3.39792 1.37339,1.46437 0.65666,-1.74968 0.57592,-3.84021 -0.17936,-4.64561 z m -310.10535,2.53541 c -1.64098,-0.70016 -3.60163,-0.61405 -4.35701,0.19136 -0.75537,0.80542 0.58725,1.37827 2.98361,1.27303 2.64817,-0.11634 3.18683,-0.69064 1.3734,-1.46437 z m 298.50244,-7.95289 c 0,-6.19254 -0.44396,-6.71147 -3.21457,-3.75735 -2.6343,2.80881 -2.68663,4.10572 -0.28994,7.18483 3.71698,4.77537 3.50451,4.98317 3.50451,-3.42748 z m 16.14935,0.56988 c -0.7554,-0.80542 -1.29265,0.62614 -1.19395,3.18124 0.10914,2.82358 0.64774,3.39792 1.3734,1.46437 0.65666,-1.74968 0.57592,-3.8402 -0.17937,-4.64561 z m -330.56435,2.53542 c -1.64097,-0.70017 -3.60163,-0.61406 -4.357,0.19136 -0.75537,0.80541 0.58725,1.37826 2.9836,1.27302 2.64818,-0.11634 3.18683,-0.69063 1.3734,-1.46438 z m -15.91255,-4.8476 c -1.64097,-0.70016 -3.60163,-0.61406 -4.35701,0.19136 -0.75536,0.80541 0.58726,1.37827 2.98361,1.27302 2.64818,-0.11634 3.18683,-0.69063 1.3734,-1.46438 z m -9.09289,-2.4238 c -1.64097,-0.70016 -3.60163,-0.61406 -4.357,0.19136 -0.75537,0.80541 0.58725,1.37827 2.9836,1.27303 2.64818,-0.11635 3.18684,-0.69064 1.3734,-1.46439 z m -15.91255,-4.8476 c -1.64097,-0.70016 -3.60163,-0.61406 -4.35701,0.19136 -0.75536,0.80542 0.58726,1.37827 2.98361,1.27303 2.64818,-0.11635 3.18684,-0.69064 1.3734,-1.46439 z m 367.83571,-4.57433 c 0,-0.66654 -2.0459,-0.0445 -4.54645,1.38247 -2.50054,1.42689 -4.54644,3.13971 -4.54644,3.80626 0,0.66654 2.0459,0.0445 4.54644,-1.38246 2.50055,-1.4269 4.54645,-3.13972 4.54645,-3.80627 z m -387.58431,-1.04133 c -2.50055,-1.1457 -6.08088,-2.08309 -7.95629,-2.08309 -2.14928,0 -1.72909,0.77008 1.13661,2.08309 2.50055,1.14569 6.08087,2.08308 7.95628,2.08308 2.14929,0 1.7291,-0.77007 -1.1366,-2.08308 z m -14.775951,-4.8476 c -1.875408,-1.29226 -4.432787,-2.34957 -5.683059,-2.34957 -1.250272,0 -0.738794,1.05731 1.136614,2.34957 1.875408,1.29226 4.432787,2.34957 5.683056,2.34957 1.25027,0 0.7388,-1.05731 -1.136611,-2.34957 z m -13.639334,-8.4833 c -6.261572,-7.10664 -6.819661,-7.29328 -6.819661,-2.28076 0,2.07831 0.907043,3.18103 2.015649,2.45049 1.108605,-0.73053 3.279767,0.2958 4.824787,2.28076 1.545021,1.98496 3.373678,3.60901 4.063665,3.60901 0.689986,0 -1.148019,-2.72677 -4.08444,-6.0595 z m 238.688285,357.6803 c -29.38139,-10.52629 -52.30217,-19.23357 -50.93505,-19.34953 1.36711,-0.11585 8.52776,2.01326 15.91255,4.73153 7.45435,2.74386 15.95484,4.32834 19.10995,3.56206 4.54126,-1.10293 4.99797,-0.83909 2.27322,1.31324 -2.7363,2.16142 -2.28726,2.44486 2.27323,1.43494 3.12568,-0.69222 11.30927,-0.27978 18.18576,0.91651 l 12.50272,2.17504 -14.77593,-0.94031 -14.77594,-0.94034 26.14204,9.64236 c 14.37813,5.3033 32.79123,11.09739 40.91799,12.87578 13.22668,2.89438 13.82254,3.25877 5.68306,3.47541 -5.81802,0.15488 -28.3328,-6.65095 -62.5136,-18.89669 z m 63.34065,5.28362 c -0.26543,-5.71493 -0.45005,-5.88777 -1.29472,-1.2119 -0.69936,3.87151 -2.5879,5.45355 -6.5101,5.45355 -3.03873,0 -5.52495,-1.13854 -5.52495,-2.53006 0,-1.39153 1.68405,-2.20956 3.74231,-1.81785 5.85826,1.1149 6.15797,-4.55258 0.32879,-6.21748 -2.86425,-0.81808 -11.77164,-1.50232 -19.79423,-1.52053 -22.28764,-0.0506 -15.2789,-2.25595 8.45289,-2.65978 16.65094,-0.28336 20.90958,-1.0756 20.90958,-3.88988 0,-6.54236 7.92153,-2.24596 8.67422,4.70462 0.5511,5.08894 -0.08,6.30343 -2.7149,5.2253 -2.43776,-0.99742 -3.32935,0.0608 -3.07574,3.65056 0.37056,5.24512 4.89203,6.86473 7.34591,2.6313 0.77271,-1.33309 2.49277,-2.4238 3.82234,-2.4238 1.52439,0 1.37202,1.34305 -0.4125,3.6357 -1.55646,1.99963 -5.26203,3.63569 -8.23462,3.63569 -4.30553,0 -5.46768,-1.3556 -5.71428,-6.66544 z m -130.38459,-0.5782 c -0.7964,-1.37396 0.11615,-1.78028 2.13905,-0.95258 3.93817,1.61132 4.65872,3.34863 1.38885,3.34863 -1.17649,0 -2.76405,-1.07823 -3.5279,-2.39605 z m 180.76762,-8.97395 c 0.0673,-2.10783 -0.025,-2.03388 44.26524,-35.48684 16.25353,-12.27649 40.11286,-30.85254 53.02074,-41.28011 12.90785,-10.42755 23.95348,-18.44244 24.54581,-17.81088 1.45426,1.55058 -15.31537,16.6731 -30.83618,27.8075 -6.94763,4.98413 -22.86155,17.3409 -35.36427,27.45951 -18.97762,15.35884 -38.87868,30.19445 -52.8524,39.39983 -1.56284,1.02953 -2.81336,0.98949 -2.77894,-0.089 z m -19.38498,-5.5966 c 6.24929,-2.86328 9.83844,-2.86328 5.68306,0 -1.87541,1.29228 -4.94425,2.28962 -6.81966,2.21632 -2.24835,-0.0877 -1.86118,-0.8428 1.1366,-2.21632 z M 540.91278,930.9623 c 0,-1.33309 1.02296,-2.4238 2.27323,-2.4238 1.25027,0 2.27321,1.09071 2.27321,2.4238 0,1.33309 -1.02294,2.4238 -2.27321,2.4238 -1.25027,0 -2.27323,-1.09071 -2.27323,-2.4238 z M 157.87491,895.8296 c -15.04605,-5.20247 -22.28846,-8.56488 -21.12354,-9.80696 1.0207,-1.08831 31.31345,10.16718 33.43683,12.42372 1.52562,1.62127 -2.57955,0.74885 -12.31329,-2.61676 z m 352.34938,-6.07189 c 2.26297,-2.66617 4.62596,-4.84759 5.2511,-4.84759 0.62514,0 -0.71491,2.18142 -2.97788,4.84759 -2.26297,2.66618 -4.62596,4.8476 -5.2511,4.8476 -0.62513,0 0.71491,-2.18142 2.97788,-4.8476 z M 58.989769,888.5458 c -3.12568,-1.90515 -4.599891,-3.50258 -3.276016,-3.54979 1.323886,-0.0473 4.392731,1.51548 6.819672,3.47272 5.61253,4.5263 3.819885,4.5653 -3.543656,0.0771 z M 257.89667,840.57836 c -8.7519,-2.77971 -16.42403,-5.66735 -17.04916,-6.41698 -0.62514,-0.74961 -2.4153,-1.47203 -3.97814,-1.60533 -1.56284,-0.13331 -3.86448,-0.40599 -5.11475,-0.60595 -1.25027,-0.19997 -2.27322,-3.54779 -2.27322,-7.43959 0,-6.97228 -0.12161,-7.04021 -8.29539,-4.63384 -8.10991,2.38759 -26.70629,-0.93253 -29.1861,-5.21073 -1.50413,-2.59492 3.31418,-19.4364 5.5607,-19.4364 1.08012,0 8.43052,2.14598 16.33422,4.76882 9.25847,3.07244 15.15275,3.93465 16.56974,2.4238 2.86069,-3.05018 14.92938,-3.048 14.92938,0.002 0,1.29123 1.57301,1.70412 3.49556,0.9175 1.92254,-0.78662 7.80449,0.24093 13.07102,2.28373 5.26651,2.04268 13.30874,4.38545 17.87164,5.20613 11.15418,2.00622 14.19803,6.40389 12.21873,17.65335 -3.45058,19.61142 -6.77534,20.78861 -34.15423,12.09277 z m 22.02184,-0.95236 c -1.64099,-0.70016 -3.60165,-0.61407 -4.35702,0.19124 -0.75537,0.8054 0.58727,1.37827 2.98361,1.27303 2.64818,-0.11635 3.18683,-0.69064 1.37341,-1.46437 z m -27.70489,-6.5308 c 0,-0.50331 -1.79016,-2.41205 -3.97814,-4.24165 -3.60547,-3.01489 -3.68587,-2.92916 -0.85828,0.91513 2.96967,4.03744 4.83642,5.3214 4.83642,3.32652 z m 33.3162,-11.85595 c -0.62271,-1.64098 -1.09426,0.28851 -1.04793,4.28778 0.0464,3.99927 0.5558,5.34191 1.13215,2.98362 0.57636,-2.35828 0.53846,-5.63041 -0.0844,-7.2714 z m -13.75701,1.30852 c -0.7554,-0.80541 -1.29265,0.62616 -1.19394,3.18123 0.10913,2.82361 0.64772,3.39793 1.37338,1.46439 0.65666,-1.74969 0.57592,-3.84022 -0.17936,-4.64562 z m -8.5482,-4.17425 c 0.42982,-2.34769 -0.28016,-5.40046 -1.57773,-6.78399 -1.63016,-1.73813 -1.96535,-0.90953 -1.08468,2.68125 1.10177,4.4922 0.31406,5.19675 -5.81023,5.19675 -3.89664,0 -7.08486,0.81803 -7.08495,1.81785 -1e-4,0.99982 3.32449,1.71406 7.38797,1.58725 5.13386,-0.16021 7.62656,-1.53303 8.16962,-4.49911 z m -25.35655,-10.41904 c -0.57178,-2.3329 -1.03961,-0.42416 -1.03961,4.24165 0,4.66582 0.46783,6.57456 1.03961,4.24165 0.57176,-2.33291 0.57176,-6.15039 0,-8.4833 z m -95.42924,-86.95701 c 5.88828,0.86054 11.6152,2.53408 12.7265,3.719 1.11129,1.1849 1.6641,8.11362 1.22845,15.39719 l -0.79207,13.24279 8.40446,2.38712 8.40448,2.38713 1.51864,-12.95996 c 6.07072,27.19144 1.32945,29.87668 0.55104,32.48633 l -0.69286,11.51297 -9.66119,-0.4589 -9.66119,-0.45889 0,9.06338 C 100,762.36218 140,732.36218 142.43882,720.99747 z m 6.8599,73.62612 c 1.86592,-10.00653 2.17855,-10.30529 10.93158,-10.44575 8.88118,-0.14252 9.02057,-0.28611 9.69529,-9.98603 0.593,-8.52486 -0.0152,-10.04129 -4.54644,-11.33536 -9.71124,-2.7734 -10.91407,-1.90954 -10.91407,7.83833 0,11.79602 -4.02571,15.8522 -12.3742,12.46788 -21.61094,-5.01844 2.0918,37.76616 7.20784,11.46093 z m 125.64711,-8.94619 c 0,1.41176 1.02296,1.89274 2.27323,1.06884 5.43618,-3.52915 -2.16883,-4.91431 -2.27323,-1.06884 z m -124.67828,-18.9275 0.7877,-11.51305 -8.52459,-0.55039 c -22.49208,1.13576 5.78126,37.97263 7.73689,12.06344 z m 1.76454,-30.06037 c 0.12421,-4.9978 -1.31903,-6.97802 -6.48541,-8.89832 -5.54668,14.57097 -11.75208,17.54786 -3.01602,20.81423 6.97748,2.51786 9.21235,-0.28492 9.50143,-11.91591 z m 83.13237,-82.04034 c -0.77272,-1.33309 -0.38198,-2.4238 0.8683,-2.4238 1.25027,0 2.90543,1.09071 3.67814,2.4238 0.77271,1.33309 0.38197,2.4238 -0.8683,2.4238 -1.25028,0 -2.90543,-1.09071 -3.67814,-2.4238 z m 68.19664,-99.60807 c -10.00217,-2.55208 -25.34642,-6.33035 -34.09832,-8.39616 -8.75191,-2.06583 -28.69424,-7.24111 -44.3163,-11.50064 -34.47248,-9.39928 -36.76065,-12.61999 -15.46729,-21.77088 7.87553,-3.38454 23.37183,-10.61156 34.43619,-16.06005 11.06436,-5.44848 21.98742,-9.90634 24.27346,-9.90634 2.28602,0 19.31859,3.81783 37.85013,8.48406 38.51712,9.69861 55.92264,13.88171 80.86304,19.43396 25.91495,5.76923 24.4758,8.78831 -13.63933,28.61287 -35.32737,18.37456 -39.07204,18.96938 -69.90158,11.10318 z m 57.56385,-10.59418 c 11.47427,-5.95458 20.8623,-11.34033 20.8623,-11.96836 0,-0.62803 -1.79015,-1.13584 -3.97813,-1.12846 -8.47487,0.0286 -38.10422,-8.98029 -38.61244,-11.74018 -0.29544,-1.60416 3.06823,-3.63152 7.49394,-4.51677 10.11684,-2.02366 9.04043,-3.15105 -5.31942,-5.5714 -8.50158,-1.43295 -11.17277,-1.18896 -10.40291,0.9502 0.56974,1.58302 3.79774,2.47125 7.17334,1.97383 l 6.13746,-0.90438 -5.53465,2.56313 c -3.04405,1.40971 -6.75545,2.06362 -8.24756,1.45311 -1.49212,-0.61049 -3.6832,-0.0755 -4.86904,1.18892 -2.97549,3.17259 -26.07774,-2.14166 -29.50346,-6.78672 -1.47965,-2.00631 -3.59974,-3.04852 -4.71133,-2.31602 -2.80133,1.84599 -33.35902,-5.19102 -34.19828,-7.8754 -0.37506,-1.19959 -4.76234,-0.47205 -9.74957,1.61675 -6.51787,2.72989 -8.24377,4.41022 -6.13774,5.9757 1.97213,1.46598 1.37973,1.71768 -1.81229,0.76999 -2.90342,-0.86202 -11.27697,1.77956 -21.59561,6.8127 l -16.85343,8.22063 10.22949,3.21792 c 5.62623,1.76986 15.85573,3.13665 22.73223,3.0373 7.97687,-0.11525 10.85695,0.48271 7.95627,1.65187 -4.03997,1.62834 -3.78673,2.02879 2.27322,3.5947 3.75081,0.9692 18.07212,4.78684 31.82511,8.48362 55.64444,14.95713 58.43814,14.99985 84.8425,1.29732 z m -65.52012,-0.29611 -7.95628,-3.48239 7.67213,1.243 c 4.21967,0.68364 8.5672,1.24299 9.66119,1.24299 1.09399,0 1.98907,1.09071 1.98907,2.4238 0,3.06617 -1.54206,2.87251 -11.36611,-1.4274 z m 72.55367,-29.3484 c 0.52093,-0.40348 -1.84106,-0.73359 -5.24891,-0.73359 -3.55186,0 -5.59651,1.03437 -4.79116,2.4238 0.77271,1.33309 0.32161,2.4238 -1.00244,2.4238 -1.32406,0 -2.40739,1.11586 -2.40739,2.47968 0,1.96774 6.52753,-1.23232 13.4499,-6.59369 z m -41.86517,-5.4068 c 0,-1.90373 -2.91666,-4.29301 -6.48146,-5.30954 -6.21368,-1.77187 -6.32287,-1.66138 -2.64317,2.67396 3.65303,4.30394 3.527,4.57629 -2.61143,5.64316 -4.2168,0.7329 -3.30173,1.00548 2.64317,0.78736 6.21741,-0.22813 9.09289,-1.42821 9.09289,-3.79494 z"
       id="path5689"
       inkscape:connector-curvature="0"
       sodipodi:nodetypes="csssssssscssssssssssssssssssscsssssscssscssssccsscsssssssscssssssssssssssssssssssssscssssscsssssscsssscssssscsscssscsssscscssssscsscscssssssssscscscssscsssssssccsssccccssssssssssssssssssssscscsssssssssssscssssssssscsscsscssssssssssssssssssscscssccsssssscsccsssssssssscsscssscsscssccsscssssssssssssssssssssssssccsccssscsssssssssssssscsssssssssssssssssccsccccsccssssccsccccscccccccsssssssssssscccccsccscccccccsccccsccccscccsccccccccccscccscccssssccsccsscssscssscssscsscscsssssssssssssssssscssscscccsssssssssssssscsssssssssscsssssscsscsssssssssssssssccsccccsssssssssscsscccccccssssccsccccsccsssscsssssscsscccccccccccsssscccccccccsccssssssssssssssssssscsscscscsssssssscssssssscsssscsssscssssss" />
    <path
       style="fill:none;stroke:#000000;stroke-width:1px;stroke-linecap:butt;stroke-linejoin:miter;stroke-opacity:1"
       d="M 75,460 60,435 30,425"
       id="path5691"
       inkscape:connector-curvature="0"
       transform="translate(0,452.36218)"
       sodipodi:nodetypes="ccc" />
    <path
       style="fill:#ffffff;fill-opacity:1;stroke:none"
       d="m 340.60635,574.58812 c -5.34324,-1.84435 -9.02081,-4.93302 -9.02081,-7.57629 0,-3.17346 -8.51841,-8.40786 -23.29564,-14.31472 -8.99565,-3.59581 -15.75212,-6.89077 -16.54577,-8.06897 -0.73777,-1.09526 -1.58254,-5.50947 -1.87726,-9.80935 -0.44187,-6.44687 -0.25046,-8.05483 1.09141,-9.16848 0.89499,-0.74278 1.62726,-1.89197 1.62726,-2.55375 0,-3.07461 -10.79561,-9.48465 -16.05,-9.52991 -5.60316,-0.0483 -6.18813,3.82332 -2.60302,17.22804 1.2871,4.8125 2.00368,8.75 1.59239,8.75 -1.73007,0 -15.23249,-4.96204 -17.44213,-6.40985 -1.50989,-0.98932 -2.65737,-2.97234 -3.08571,-5.33258 -1.58465,-8.73164 -7.09313,-15.33728 -14.40591,-17.27522 -2.4719,-0.65508 -6.0719,-1.97767 -8,-2.9391 -1.92809,-0.96143 -5.71926,-2.29013 -8.42482,-2.95266 -2.70556,-0.66253 -6.79509,-2.30394 -9.08786,-3.64759 -2.29276,-1.34365 -5.30994,-2.443 -6.70484,-2.443 -1.39491,0 -4.50537,-1.09104 -6.91215,-2.42453 -2.40677,-1.3335 -6.17595,-2.73826 -8.37595,-3.12169 -2.2,-0.38343 -5.35,-1.50122 -7,-2.48398 -1.65,-0.98276 -5.01746,-2.32361 -7.48325,-2.97967 -2.46579,-0.65606 -6.61333,-2.27223 -9.21676,-3.59148 -9.35385,-4.73996 -14.11042,-2.36425 -11.28723,5.6375 0.81798,2.31842 1.48724,4.60873 1.48724,5.08958 0,1.42512 -3.14336,1.00744 -9,-1.19591 -7.15233,-2.6908 -11.9846,-5.9866 -11.99317,-8.17982 -0.004,-1.05743 -0.76764,-1.75 -1.92928,-1.75 -2.98436,0 -4.42513,-5.79837 -3.60786,-14.51986 0.65075,-6.94442 0.56412,-7.41145 -1.64134,-8.84882 -3.90615,-2.54577 -11.65282,-4.23499 -13.62008,-2.96996 -2.68815,1.72859 -2.10271,11.45141 1.12219,18.63706 3.93406,8.7658 6.33823,11.70158 9.58265,11.70158 2.48151,0 6.08689,2.56399 6.08689,4.32874 0,0.36919 -2.33292,0.67126 -5.18428,0.67126 -6.9162,0 -12.95135,-2.96418 -15.06666,-7.40003 -2.0456,-4.28968 -6.38802,-7.47539 -15.100407,-11.07805 -8.697082,-3.59633 -16.760249,-9.53287 -23.212786,-17.09049 -6.382575,-7.47567 -11.554437,-15.95886 -10.84948,-17.79595 0.885551,-2.30771 -4.436506,-5.2518 -16.60481,-9.18555 -11.796622,-3.81359 -25.942485,-10.19959 -29.275909,-13.2163 -3.241616,-2.93362 -4.848524,-7.17649 -4.848524,-12.80202 0,-2.96529 0.25298,-5.80077 0.562177,-6.30107 0.309197,-0.50029 3.37884,0.57741 6.821428,2.39489 5.589292,2.95081 26.257451,10.47457 28.774196,10.47457 1.856919,0 0.985828,-2.04256 -1.264944,-2.96608 -19.28682,-7.91364 -25.169273,-10.65157 -30.116154,-14.01725 -3.226385,-2.19512 -6.263885,-3.74532 -6.75,-3.44488 -3.0954906,1.91312 1.504389,-5.82747 5.599867,-9.42335 5.444507,-4.78034 7.699104,-4.00592 6.84623,2.35156 -0.221352,1.65 -0.002,3.59504 0.487511,4.32232 2.16546,3.21744 17.870503,4.34687 20.726807,1.49056 2.855866,-2.85586 0.210651,-17.31288 -3.167756,-17.31288 -0.716355,0 -3.585783,0.9 -6.376505,2 -5.829672,2.29784 -6,2.32759 -6,1.04804 0,-1.17972 6.341383,-5.53414 15.282939,-10.4943 l 6.782938,-3.76271 -0.282938,13.85448 c -0.254817,12.47745 -0.07864,14.20237 1.772506,17.35449 2.642139,4.49902 11.893485,11.94154 20.328683,16.354 8.214387,4.29696 49.402561,21.20057 53.984361,22.15516 6.58497,1.37193 2.69781,-1.6029 -8.39238,-6.42266 -27.265388,-11.84945 -47.277379,-22.33908 -54.17921,-28.39897 -5.996115,-5.26466 -7.250102,-9.34906 -7.272509,-23.68753 -0.01074,-6.875 0.421037,-18.35 0.959513,-25.5 0.538475,-7.15 2.342958,-31.85711 4.009961,-54.90469 1.667004,-23.04758 3.720828,-48.02258 4.564054,-55.5 3.392118,-30.08005 10.680224,-77.70679 12.377521,-80.88532 0.510085,-0.95524 1.659563,-0.51859 4.429362,1.68257 2.057282,1.63492 7.429316,4.38172 11.937855,6.10399 12.567693,4.80089 42.353743,13.99756 47.556513,14.68342 2.55246,0.33649 5.76583,1.36758 7.14083,2.29132 3.6565,2.45646 7.09211,3.61373 21,7.0737 6.875,1.71035 16.1,4.14753 20.5,5.41596 15.64584,4.51037 27.57197,4.19597 17.31989,-0.45659 -2.37594,-1.07824 -3.69467,-1.97032 -2.93051,-1.9824 0.76416,-0.0121 23.48916,5.87689 50.5,13.08661 50.8468,13.57198 75.30004,19.56069 91.61062,22.43586 17.13865,3.02113 49.42027,0.21112 69.5,-6.04975 11.61924,-3.62289 12.14939,-3.51822 13.95594,2.75532 0.8315,2.8875 3.33628,13.8 5.56619,24.25 7.05268,33.0509 12.18678,50.5 14.85877,50.5 1.22954,0 1.0991,-0.9123 -5.0043,-35 -6.2336,-34.81494 -12.38555,-58.68335 -15.37702,-59.65993 -0.54977,-0.17948 -1.76615,1.02058 -2.70307,2.6668 -1.81607,3.19094 -3.79651,3.96983 -3.79651,1.49313 0,-2.03319 -2.15559,-1.92388 -18.54025,0.94018 -32.29609,5.64541 -50.42621,5.5268 -82.84074,-0.54195 -53.91776,-10.09465 -208.958,-54.50092 -234.153377,-67.06567 -2.628962,-1.31105 -5.249088,-3.12749 -5.822504,-4.03654 -1.358403,-2.15352 0.99014,-12.28588 7.601667,-32.79602 6.603,-20.483686 9.748334,-26.960653 15.564924,-32.051756 10.77674,-9.432583 89.3466,-44.269742 111.19028,-49.30075 15.17531,-3.495159 21.77099,-3.234046 50.5,1.999213 37.39436,6.811734 138.15888,29.05283 176.11521,38.872759 46.90787,12.135844 51.96769,15.648861 61.61443,42.778744 7.9146,22.25853 12.73299,42.70179 10.06463,42.70179 -3.34444,0 -29.46375,18.30173 -36.24044,25.39357 -1.89855,1.98684 -4.42593,3.60643 -5.62787,3.60643 -5.43539,0 -14.42596,5.65095 -14.42596,9.06733 0,0.94528 -0.675,1.97771 -1.5,2.2943 -0.9422,0.36155 -1.5,-0.0103 -1.5,-1 0,-2.01404 -1.28017,-1.53053 -11.74674,4.43671 -8.70323,4.96192 -10.3616,6.87333 -5.03998,5.809 l 3.21328,-0.64265 -3.21328,3.31526 c -3.71429,3.83218 -4.20744,6.72005 -1.14754,6.72005 2.49345,0 5.93426,1.72407 5.93426,2.97345 0,0.49669 -1.21987,0.81836 -2.71081,0.71481 -3.63533,-0.25247 -4.07257,2.30814 -1.19043,6.97154 1.68543,2.72707 2.30931,5.41953 2.4886,10.73984 0.26032,7.72468 3.94765,22.76147 12.89869,52.60036 l 5.54961,18.5 -0.50449,-12.5 -0.50449,-12.5 2.56317,5.25 c 2.95403,6.05059 6.07407,7.31961 5.01838,2.04113 -0.35298,-1.76487 -1.30684,-8.62737 -2.1197,-15.25 -0.81286,-6.62262 -2.218,-16.89095 -3.12252,-22.81851 -0.90453,-5.92755 -1.39973,-11.02223 -1.10046,-11.3215 0.29927,-0.29927 0.84411,0.95055 1.21075,2.77737 2.91347,14.51676 14.12232,51.82151 15.57065,51.82151 1.28885,0 1.17955,-2.79757 -0.54695,-14 -1.35415,-8.78645 -1.94082,-17.59206 -0.8328,-12.5 1.11261,5.11318 5.8375,17.67397 7.01626,18.65226 1.89955,1.57649 1.72257,-1.95876 -0.68346,-13.65226 -1.1,-5.34609 -2,-11.97191 -2,-14.72405 0,-2.75214 -1.14505,-11.76981 -2.54456,-20.03927 -2.58629,-15.2819 -2.97654,-23.16795 -0.60556,-12.23668 0.71577,3.3 3.72067,15.75005 6.67756,27.66677 7.5729,30.51996 11.07279,37.58462 8.50218,17.162 -0.65742,-5.22302 -1.00513,-9.68659 -0.77269,-9.91904 0.23245,-0.23244 0.9913,1.49278 1.68634,3.83382 3.95641,13.32605 7.01162,14.25086 4.54841,1.3768 -0.82043,-4.28796 -1.49168,-10.50799 -1.49168,-13.82229 0,-3.3143 -1.09649,-12.61222 -2.43664,-20.66203 -2.76488,-16.60769 -4.05845,-26.87141 -3.29399,-26.13603 0.28587,0.275 1.67264,6.80282 3.08171,14.50626 3.07716,16.82305 11.1375,49.38232 12.58285,50.82767 1.98271,1.98271 1.98228,1.95267 -0.32074,-22.55375 l -0.59018,-6.28018 1.73849,4.67928 c 2.14342,5.76916 3.2385,6.96836 3.2385,3.5464 0,-5.01258 1.65817,-3.56474 3.90421,3.409 1.24533,3.86662 2.47794,6.8165 2.73913,6.55531 0.66245,-0.66245 -5.35508,-60.1053 -7.25733,-71.68999 -0.85797,-5.225 -2.22779,-10.54548 -3.04404,-11.82328 -1.43528,-2.24684 -1.39129,-2.31264 1.33696,-2 2.04607,0.23447 2.82143,0.87271 2.82239,2.32328 7.2e-4,1.1 0.66489,2 1.47592,2 1.55342,0 2.58042,-2.54124 3.53614,-8.75 0.31749,-2.0625 0.95226,-3.75 1.41061,-3.75 1.72027,0 3.06495,6.29142 7.48063,35 8.07518,52.50085 11.45414,79.91471 13.55831,110 4.12926,59.03985 4.07574,56.92658 1.88446,74.40848 -1.09673,8.74967 -2.86721,18.2422 -3.9344,21.09452 -1.25367,3.35075 -4.77899,8.45739 -9.96162,14.43004 -8.62739,9.94253 -11.50138,13.85028 -10.7436,14.60807 0.87502,0.87501 9.46146,-6.3518 15.73448,-13.24296 9.43001,-10.35926 10.66589,-13.02356 11.96696,-25.79815 1.58617,-15.57385 4.45883,-25.46529 6.73466,-23.18946 0.37246,0.37246 -0.07,1.50289 -0.98333,2.51207 -0.9133,1.00918 -1.66054,2.73479 -1.66054,3.83469 0,2.55312 5.52426,10.94616 7.77258,11.80892 1.79601,0.6892 5.22742,-2.5631 5.22742,-4.95456 0,-2.10838 2.34058,-3.36495 5.23338,-2.8096 l 2.73338,0.52474 -1.9885,2.52797 c -2.56779,3.26442 -1.03746,5.87913 2.37675,4.06087 3.21184,-1.71048 4.57781,-3.95068 4.61319,-7.56564 0.0384,-3.9233 0.9326,-4.0458 4.93701,-0.6763 4.61559,3.88376 5.40639,7.95864 4.28647,22.08756 -0.53018,6.68869 -1.24203,12.61119 -1.58189,13.1611 -0.80552,1.30336 -28.94049,23.23675 -38.60979,30.09933 -11.24317,7.97959 -21,17.96588 -21,21.49385 0,1.22391 6.33053,7.58446 7.54865,7.58446 0.73781,0 3.43866,-2.57452 6.00189,-5.72115 6.29713,-7.73039 13.76739,-13.1557 12.08783,-8.77885 -0.45206,1.17805 0.2762,1.5 3.39301,1.5 2.64156,0 3.88502,0.41798 3.71862,1.25 -0.1791,0.89552 1.09702,1.15571 4.5,0.91749 3.89164,-0.27242 4.75,-0.0327 4.75,1.32662 0,1.24167 0.81774,1.61435 3.25,1.48119 5.90481,-0.32328 6.44479,-0.0831 4.03917,1.79694 -2.88884,2.25763 -5.09527,7.72665 -5.90838,14.64492 -0.35971,3.06059 -1.26755,6.07389 -2.01741,6.69622 -0.74986,0.62233 -1.36338,2.02519 -1.36338,3.11747 0,1.64263 -0.45237,1.87243 -2.61666,1.32923 -1.43917,-0.36121 -3.9259,-0.91859 -5.52606,-1.23862 -2.10002,-0.42001 -2.76643,-1.0325 -2.39548,-2.20167 0.43271,-1.36385 -0.47171,-1.646 -5.72394,-1.78566 -7.27378,-0.19341 -13.69964,-2.28274 -17.90573,-5.82193 -3.82099,-3.21515 -4.82849,-3.16573 -4.84744,0.2378 -0.0255,4.58062 -1.74096,0.62366 -3.02186,-6.9704 -1.25638,-7.44863 -1.94418,-8.39513 -4.93672,-6.79358 -4.05551,2.17045 -48.45402,37.26557 -57.89397,45.76271 -5.34725,4.8132 -11.72699,10.20586 -14.17721,11.9837 -2.45021,1.77783 -8.05493,6.18622 -12.45493,9.79642 -10.05694,8.25172 -19.15439,13.71624 -27.5,16.51826 -5.9874,2.01026 -7.69503,2.12912 -21.65363,1.50719 -10.31243,-0.45948 -15.36338,-0.3358 -15.81017,0.38713 -1.22535,1.98266 4.90824,3.20243 18.9638,3.77129 18.75032,0.75886 22.18086,-0.068 36.78876,-8.86736 6.48382,-3.90565 12.02209,-6.86784 12.30728,-6.58265 1.24991,1.24991 -23.82275,21.1712 -31.14144,24.74319 -2.22496,1.08593 -10.54996,3.30961 -18.5,4.94152 -7.95003,1.6319 -18.5046,4.10574 -23.4546,5.49742 -10.70382,3.00934 -15.1519,3.12779 -22.47919,0.59859 l 0,0 z m 52.42919,-50.8843 c -0.5225,-0.46248 -5,-1.8719 -9.95,-3.13205 -12.01164,-3.05788 -36.20041,-10.89966 -51,-16.53374 l -12,-4.5683 12.5,0.63368 c 6.875,0.34852 12.25424,0.38212 11.95386,0.0747 -1.05407,-1.0789 -19.52548,-3.62539 -26.3263,-3.62937 -5.99521,-0.004 -6.71354,-0.19549 -5.62756,-1.50402 1.08451,-1.30676 0.4204,-1.5 -5.15506,-1.5 -4.66951,0 -9.88772,-1.08812 -19.29935,-4.02436 -13.66746,-4.26399 -18.36221,-4.77033 -10.04559,-1.08346 15.0413,6.66802 81.7686,29.97311 97.5,34.05273 7.57038,1.96322 19.21135,2.77323 17.45,1.21422 l 0,-3e-5 z m 9.28129,-9.63313 c 2.14691,-2.49593 2.27538,-4.526 0.28642,-4.526 -0.47534,0 -2.27943,1.19079 -4.00908,2.64619 -2.69566,2.26825 -3.34479,2.44622 -4.54491,1.2461 -0.77005,-0.77005 -1.52691,-2.52333 -1.6819,-3.89619 -0.23348,-2.06798 0.14697,-2.49856 2.21818,-2.51045 2.25339,-0.0129 2.52927,-0.46211 2.79677,-4.55352 0.24192,-3.70036 -0.16503,-5.03745 -2.20225,-7.23565 -3.08043,-3.32383 -5.36138,-3.43988 -6.54267,-0.33286 -0.49425,1.29998 -1.72061,2.69727 -2.72525,3.10507 -1.00463,0.40781 -9.9266,1.15969 -19.8266,1.67085 -9.9,0.51116 -18.62691,1.14946 -19.39313,1.41846 -3.31997,1.16552 0.92587,1.84571 15.76683,2.52585 16.13834,0.73961 20.47308,1.81096 19.8909,4.91615 -0.17704,0.94425 -1.66753,1.61499 -4.02292,1.81037 -4.42356,0.36692 -5.08305,2.72914 -1.17658,4.21438 3.85009,1.4638 6.22177,1.18838 8.38375,-0.9736 1.93179,-1.93179 1.95485,-1.92961 2.63478,0.25 1.00093,3.20861 2.39168,3.83785 7.38337,3.34059 3.25865,-0.32461 5.08844,-1.16744 6.76429,-3.11574 l 0,0 z m -138.73129,-2.326 c 0,-1.41318 -2.34521,-3.2 -4.2,-3.2 -1.76454,0 -2.45016,2.01651 -1.13333,3.33333 0.9415,0.9415 5.33333,0.83171 5.33333,-0.13333 z m 183.63373,-13.86972 c 11.14668,-7.58082 22.79259,-16.36693 61.36627,-46.29699 45.19982,-35.07143 53.8184,-42.54823 51.60135,-44.76528 -0.9592,-0.9592 -7.9128,4.14461 -46.60135,34.20448 -35.52655,27.60309 -68.95099,53.38914 -73.10623,56.39948 -1.91032,1.38396 -2.64777,5.12803 -1.01004,5.12803 0.48605,0 3.97355,-2.10138 7.75,-4.66972 z m -21.85186,-1.97237 c 3.31211,-2.09853 1.83172,-3.36409 -2.53973,-2.17117 -4.06257,1.10864 -6.24214,2.51061 -6.24214,4.01516 0,1.25198 5.82639,0.0286 8.78187,-1.84399 l 0,0 z m 119.71813,-17.35791 c 0,-1.56144 -0.646,-2.59702 -1.75302,-2.81021 -1.97949,-0.38122 -3.26679,2.01323 -2.35699,4.38412 0.95373,2.4854 4.11001,1.27672 4.11001,-1.57391 z m -374.74185,-32.25 c -0.89675,-2.74389 -31.71213,-14.12936 -33.47381,-12.36768 -1.35304,1.35305 5.32597,4.48559 21.71566,10.18493 10.56934,3.67537 12.35425,4.00672 11.75815,2.18275 z m 341.62549,-7.75288 c 3.57176,-3.95351 4.48988,-5.99712 2.69428,-5.99712 -1.07113,0 -8.07792,7.96273 -8.07792,9.18 0,1.77929 1.93317,0.63638 5.38364,-3.18288 z M 285.74534,392.45917 c 3.40289,-1.82117 6.06721,-9.45818 6.58278,-18.86886 0.45935,-8.38437 0.4143,-8.59472 -2.3872,-11.14751 -1.63037,-1.48564 -5.64399,-3.34446 -9.35538,-4.33274 -3.575,-0.95196 -10.75711,-3.04361 -15.96024,-4.6481 -5.20314,-1.6045 -11.56749,-2.91727 -14.14301,-2.91727 -3.23997,0 -4.86012,-0.46216 -5.25838,-1.5 -0.77196,-2.01171 -9.34345,-2.00193 -14.38779,0.0164 -3.62657,1.45107 -4.34926,1.35992 -16.77023,-2.11511 -19.14058,-5.35497 -17.15978,-5.37829 -19.6477,0.2313 -1.365,3.07772 -2.19071,7.05564 -2.2457,10.81874 l -0.087,5.95134 5,1.96013 c 5.44176,2.13332 22.19461,2.90043 28.12235,1.28772 l 3.12235,-0.84947 0.72402,5.84947 c 0.83762,6.76723 1.82988,8.34947 5.23611,8.34947 1.35297,0 5.46037,1.3083 9.12756,2.90733 5.93756,2.58899 17.12761,6.28563 27.16761,8.97483 4.88776,1.30917 12.74268,1.32592 15.1598,0.0323 l 5e-5,3e-5 z M 146.5601,349.57013 c 1.08601,-1.08601 2.26406,-3.12801 2.61789,-4.53777 0.6148,-2.44956 0.74894,-2.494 3.02544,-1.00238 l 2.38211,1.56082 0,-4.67412 0,-4.67411 10,0.60922 10,0.60923 0.0146,-5.20816 c 0.008,-2.8645 0.72943,-7.23317 1.60317,-9.70817 1.71178,-4.84891 1.38702,-15.24415 -0.79191,-25.34799 -0.8855,-4.10607 -1.27085,-4.74598 -1.89815,-3.15201 -0.4329,1.1 -0.81872,3.70162 -0.85737,5.78138 -0.0387,2.07977 -0.63279,3.9928 -1.32029,4.25118 -0.6875,0.25839 -4.175,-0.3585 -7.75,-1.37085 l -6.5,-1.84065 -0.24476,-12.41053 c -0.29619,-15.01604 -0.55168,-16.26892 -3.601,-17.65828 -3.39233,-1.54565 -11.65429,-2.6622 -11.65429,-1.57501 0,0.49739 -2.70404,5.16098 -6.00897,10.36355 -11.88089,18.70269 -12.91823,31.57099 -3.67276,45.56104 2.95239,4.46748 3.20437,5.33051 2.02666,6.94112 -1.9066,2.60744 -1.67022,6.15365 0.74239,11.13743 2.14729,4.43572 6.1376,8.31962 8.54754,8.31962 0.75083,0 2.25369,-0.88855 3.3397,-1.97456 z m 133.02544,-17.56062 c 0,-1.67289 -3.55134,-1.99978 -4.5296,-0.41693 -0.35619,0.57633 -0.38943,1.72074 -0.0738,2.54312 0.44844,1.16862 1.0139,1.25969 2.58861,0.41693 1.10811,-0.59307 2.01479,-1.73747 2.01479,-2.54312 z m -39.6246,-130.24234 c -0.59381,-0.94737 -2.0462,-1.86628 -3.22753,-2.04203 -3.03397,-0.45138 -2.9473,3.57727 0.10213,4.74729 2.90147,1.11326 4.59827,-0.35544 3.1254,-2.70526 l 0,0 z m 104.26926,-96.3397 c 11.52869,-3.56056 51.56354,-24.488846 57.58497,-30.102648 3.65581,-3.408319 3.40963,-6.71697 -0.6439,-8.654063 -1.60285,-0.765966 -9.47785,-2.956852 -17.5,-4.868634 -8.02215,-1.911782 -34.61073,-8.348108 -59.08573,-14.302947 -24.475,-5.954838 -47.50177,-11.345642 -51.17061,-11.979562 -6.65346,-1.149622 -6.69458,-1.14232 -16,2.841248 -19.8318,8.489823 -57.43681,26.437083 -59.57939,28.434691 -7.74426,7.22028 0.78511,10.371163 84.25,31.123273 38.58921,9.594542 37.59181,9.393162 47.14466,9.518772 5.72217,0.0752 10.18368,-0.52264 15,-2.01013 z"
       id="path5705"
       inkscape:connector-curvature="0"
       transform="translate(0,452.36218)" />
    <path
       style="fill:#999999;fill-opacity:1;stroke:none"
       d="m 315.88518,100.01151 c -6.10198,-1.115931 -70.02995,-17.495075 -74.20314,-19.01177 -1.10327,-0.400973 -0.99632,-0.809784 0.5,-1.911146 2.59473,-1.909838 1.28207,-2.251455 -11.17398,-2.908023 -9.4337,-0.497257 -27.43007,-4.1132 -27.41636,-5.508666 0.007,-0.760878 20.75343,-10.500702 26.86957,-12.614745 2.40665,-0.831858 6.14947,-1.512469 8.31739,-1.512469 3.50163,0 3.86997,-0.225857 3.29953,-2.023169 -0.53514,-1.686081 0.16174,-2.381298 4.18261,-4.172624 5.98569,-2.666664 9.22836,-2.659881 16.66189,0.03485 7.54595,2.735481 19.87463,5.269357 25.86401,5.315751 2.89891,0.02246 5.18465,0.605132 5.93889,1.513936 3.43836,4.142974 19.62037,8.93445 27.00296,7.995549 12.46188,-1.584873 17.14682,-2.637743 20.47511,-4.601483 2.56342,-1.512455 4.51921,-1.971922 6.52167,-1.532108 3.94225,0.865864 3.58033,2.11162 -0.85523,2.943737 -4.9477,0.928193 -9.49793,3.357861 -9.05344,4.834222 0.9079,3.01554 19.52497,9.444424 34.7144,11.987645 l 7.41006,1.240691 -2.67434,1.752292 c -6.07992,3.983714 -29.62333,15.715151 -35.39969,17.639299 -7.15269,2.38261 -15.93841,2.55787 -26.98191,0.53823 l 0,0 z m -8.64301,-5.966819 c 0.69137,-2.224043 -1.54546,-3.441361 -8.18156,-4.452529 -3.83629,-0.584549 -7.98757,-1.292937 -9.22507,-1.574196 -4.70121,-1.068489 -1.96167,1.275659 5,4.278367 7.11702,3.069712 11.79111,3.728391 12.40663,1.748358 l 0,0 z"
       id="path5707"
       inkscape:connector-curvature="0"
       transform="translate(0,452.36218)" />
    <path
       style="fill:#999999;fill-opacity:1;stroke:none"
       d="m 143.82632,336.28114 c -2.81951,-2.33005 -5.15212,-4.52612 -5.18358,-4.88015 -0.0315,-0.35404 1.84059,-0.2173 4.16012,0.30386 8.54444,1.91981 11.07074,-0.78789 12.16253,-13.03585 0.36161,-4.05663 0.92026,-7.80088 1.24144,-8.32056 0.78029,-1.26253 8.26655,-4.6e-4 11.25349,1.89716 2.23773,1.42165 2.3468,1.9448 1.88985,9.06506 -0.58192,9.0675 -1.68015,10.22724 -9.70576,10.24934 -6.72953,0.0185 -7.83227,0.64003 -9.44155,5.32111 l -1.25016,3.63648 -5.12638,-4.23645 z"
       id="path5709"
       inkscape:connector-curvature="0"
       transform="translate(0,452.36218)" />
    <path
       style="fill:#999999;fill-opacity:1;stroke:none"
       d="m 139.91599,320.29469 c -9.35468,-10.42919 -5.80746,-19.12898 6.96677,-17.08644 l 3.79721,0.60716 -0.65757,7.11464 c -0.75411,8.15913 -2.4754,11.61464 -5.7856,11.61464 -1.26645,0 -3.21081,-1.0125 -4.32081,-2.25 z"
       id="path5711"
       inkscape:connector-curvature="0"
       transform="translate(0,452.36218)" />
    <path
       style="fill:#999999;fill-opacity:1;stroke:none"
       d="m 141.83554,295.0732 c -1.7875,-0.78758 -3.25,-1.85698 -3.25,-2.37644 0,-1.54877 7.16281,-16.15207 7.92246,-16.15207 0.38523,0 1.68527,0.91753 2.88898,2.03896 2.50459,2.33338 2.87081,8.1294 0.88212,13.96104 -1.37375,4.0284 -3.55611,4.68192 -8.44356,2.52851 z"
       id="path5713"
       inkscape:connector-curvature="0"
       transform="translate(0,452.36218)" />
  </g>
</svg>
