<?xml version="1.0" encoding="UTF-8" standalone="no"?>
<!-- Created with Inkscape (http://www.inkscape.org/) -->

<svg
   xmlns:dc="http://purl.org/dc/elements/1.1/"
   xmlns:cc="http://creativecommons.org/ns#"
   xmlns:rdf="http://www.w3.org/1999/02/22-rdf-syntax-ns#"
   xmlns:svg="http://www.w3.org/2000/svg"
   xmlns="http://www.w3.org/2000/svg"
   xmlns:sodipodi="http://sodipodi.sourceforge.net/DTD/sodipodi-0.dtd"
   xmlns:inkscape="http://www.inkscape.org/namespaces/inkscape"
   width="600"
   height="600"
   id="svg2"
   version="1.1"
   inkscape:version="0.48.3.1 r9886"
   sodipodi:docname="doc_base.svg">
  <defs
     id="defs4" />
  <sodipodi:namedview
     id="base"
     pagecolor="#e0e0e1"
     bordercolor="#666666"
     borderopacity="1.0"
     inkscape:pageopacity="1"
     inkscape:pageshadow="2"
     inkscape:zoom="1.2483333"
     inkscape:cx="149.79973"
     inkscape:cy="304.55128"
     inkscape:document-units="px"
     inkscape:current-layer="layer1"
     showgrid="true"
     showguides="true"
     inkscape:guide-bbox="true"
     inkscape:window-width="1680"
     inkscape:window-height="996"
     inkscape:window-x="0"
     inkscape:window-y="25"
     inkscape:window-maximized="1">
    <inkscape:grid
       type="xygrid"
       id="grid3753"
       empspacing="5"
       visible="true"
       enabled="true"
       snapvisiblegridlinesonly="true" />
    <sodipodi:guide
       orientation="1,0"
       position="300,620"
       id="guide3755" />
    <sodipodi:guide
       orientation="0,1"
       position="-50,300"
       id="guide3757" />
  </sodipodi:namedview>
  <metadata
     id="metadata7">
    <rdf:RDF>
      <cc:Work
         rdf:about="">
        <dc:format>image/svg+xml</dc:format>
        <dc:type
           rdf:resource="http://purl.org/dc/dcmitype/StillImage" />
        <dc:title></dc:title>
      </cc:Work>
    </rdf:RDF>
  </metadata>
  <g
     inkscape:label="Calque 1"
     inkscape:groupmode="layer"
     id="layer1"
     transform="translate(0,-452.36218)">
    <g
       transform="matrix(0.92752734,0,0,1.1816875,-37.284637,279.81423)"
       id="g3829">
      <path
         inkscape:connector-curvature="0"
         id="path3025"
         d="m 200.71429,457.36218 -37.85715,-91.42857 -27.14285,-35 -12.85715,82.14286 -9.28571,17.85714 L 95,413.79075 l 13.57143,-130.71428 20.71428,-2.14286 65,59.28571 L 225,418.79075"
         style="fill:#d4aa00;fill-opacity:1;stroke:#000000;stroke-width:1px;stroke-linecap:butt;stroke-linejoin:miter;stroke-opacity:1" />
      <path
         inkscape:connector-curvature="0"
         id="path3027"
         d="m 220,411.6479 31.42857,-98.57143 -5.71428,-7.85715 2.85714,-5.71428 47.14286,-10 48.57142,2.14286 18.57143,12.85714 10.71429,67.85714 45,-32.85714 -7.85714,-18.57143 22.14285,13.57143 89.28572,0 -21.42857,-27.85714 56.42857,1.42857 34.28571,37.85714 -89.28571,5 -63.57143,6.42857 -26.42857,20 L 460,395.21932 470,406.6479 387.14286,475.93361 315,475.21932 l -4.28571,-46.42857 -33.57143,-27.14285 -33.57143,8.57142 z"
         style="fill:#d4aa00;fill-opacity:1;stroke:#000000;stroke-width:4;stroke-linecap:butt;stroke-linejoin:miter;stroke-miterlimit:4;stroke-opacity:1;stroke-dasharray:none" />
      <path
         transform="matrix(1.1458304,0,0,1.1221776,-32.246273,-64.724009)"
         d="m 305,471.29074 c 0,26.23353 -21.10657,47.5 -47.14285,47.5 -26.03628,0 -47.14286,-21.26647 -47.14286,-47.5 0,-26.23352 21.10658,-47.5 47.14286,-47.5 26.03628,0 47.14285,21.26648 47.14285,47.5 z"
         sodipodi:ry="47.5"
         sodipodi:rx="47.142857"
         sodipodi:cy="471.29074"
         sodipodi:cx="257.85715"
         id="path3021"
         style="fill:#d4aa00;stroke:#000000;stroke-width:20;stroke-miterlimit:4;stroke-opacity:1;stroke-dasharray:none"
         sodipodi:type="arc" />
      <path
         d="m 503.57143,468.43362 c 0,29.78393 -25.10403,53.92857 -56.07143,53.92857 -30.9674,0 -56.07143,-24.14464 -56.07143,-53.92857 0,-29.78392 25.10403,-53.92857 56.07143,-53.92857 30.9674,0 56.07143,24.14465 56.07143,53.92857 z"
         sodipodi:ry="53.92857"
         sodipodi:rx="56.07143"
         sodipodi:cy="468.43362"
         sodipodi:cx="447.5"
         id="path3023"
         style="fill:#d4aa00;stroke:#000000;stroke-width:20;stroke-miterlimit:4;stroke-opacity:1;stroke-dasharray:none"
         sodipodi:type="arc" />
      <path
         inkscape:connector-curvature="0"
         id="path3797"
         d="M 550.71429,244.50504 560,306.6479 l 32.14286,36.42857 85,-85 -19.28572,7.85714 L 610,254.50504 l -22.14286,5 -15,-22.85714 z"
         style="fill:#000000;fill-opacity:1;stroke:#000000;stroke-width:1px;stroke-linecap:butt;stroke-linejoin:miter;stroke-opacity:1" />
      <path
         inkscape:connector-curvature="0"
         id="path3801"
         d="M 111.42857,432.36218 89.285714,413.79075 60,430.93361 51.428571,448.07647 72.142857,491.6479 75,482.36218 l 7.142857,7.85714 0.714286,-7.85714 7.857143,7.85714 L 90,481.6479 l 8.571429,7.14285 0,-19.28571 3.571431,-19.28572 11.42857,-12.14285 z"
         style="fill:#000000;fill-opacity:1;stroke:#000000;stroke-width:1px;stroke-linecap:butt;stroke-linejoin:miter;stroke-opacity:1" />
      <rect
         ry="15.961432"
         rx="18.5"
         y="311.64792"
         x="259.28571"
         height="62.857143"
         width="93.571426"
         id="rect3803"
         style="fill:#000000;fill-opacity:1;stroke:#000000;stroke-width:4;stroke-miterlimit:4;stroke-opacity:1;stroke-dasharray:none" />
      <path
         inkscape:connector-curvature="0"
         id="path3805"
         d="m 415.71429,318.79075 82.14285,-9.28571 7.85715,10.71428 z"
         style="fill:#000000;fill-opacity:1;stroke:#000000;stroke-width:1px;stroke-linecap:butt;stroke-linejoin:miter;stroke-opacity:1" />
      <path
         inkscape:connector-curvature="0"
         id="path3807"
         d="M 472.14286,359.50504 415,406.6479 502.85714,357.36218 z"
         style="fill:#000000;fill-opacity:1;stroke:#000000;stroke-width:1px;stroke-linecap:butt;stroke-linejoin:miter;stroke-opacity:1" />
    </g>
  </g>
</svg>
