<?xml version="1.0" encoding="UTF-8" standalone="no"?>
<!-- Created with Inkscape (http://www.inkscape.org/) -->

<svg
   xmlns:dc="http://purl.org/dc/elements/1.1/"
   xmlns:cc="http://creativecommons.org/ns#"
   xmlns:rdf="http://www.w3.org/1999/02/22-rdf-syntax-ns#"
   xmlns:svg="http://www.w3.org/2000/svg"
   xmlns="http://www.w3.org/2000/svg"
   version="1.2"
   width="600"
   height="600"
   id="svg2">
  <defs
     id="defs4" />
  <metadata
     id="metadata7">
    <rdf:RDF>
      <cc:Work
         rdf:about="">
        <dc:format>image/svg+xml</dc:format>
        <dc:type
           rdf:resource="http://purl.org/dc/dcmitype/StillImage" />
        <dc:title></dc:title>
      </cc:Work>
    </rdf:RDF>
  </metadata>
  <rect
     width="579.95844"
     height="270.52496"
     ry="10.07578"
     x="10.041562"
     y="189.47504"
     id="rect2991"
     style="fill:#ffffff;fill-opacity:1;stroke:#000000;stroke-width:9.68126202;stroke-linecap:butt;stroke-linejoin:round;stroke-miterlimit:4;stroke-opacity:1;stroke-dasharray:none;stroke-dashoffset:0" />
  <g
     transform="translate(0,20)"
     id="layer2" />
  <g
     transform="matrix(1.8451657,0,0,2.0238276,-12.301502,-300.94797)"
     id="flowRoot2987"
     style="font-size:144px;font-style:normal;font-variant:normal;font-weight:normal;font-stretch:normal;fill:#808080;fill-opacity:1;stroke:none;font-family:Liberation Mono;-inkscape-font-specification:Liberation Mono">
    <path
       d="m 119.4375,333.06573 c -8e-5,4.82815 -0.98446,8.92971 -2.95312,12.30469 -1.96883,3.37501 -4.61727,6.14063 -7.94532,8.29688 -3.32819,2.10937 -7.19537,3.65625 -11.60156,4.64062 -4.406304,0.98438 -9.046924,1.47656 -13.921875,1.47656 l -33.1875,0 0,-94.85156 28.96875,0 c 5.484329,10e-5 10.382762,0.44541 14.695312,1.33594 4.312441,0.89072 7.968683,2.27353 10.968753,4.14844 2.99993,1.82821 5.27336,4.19539 6.82031,7.10156 1.59368,2.90633 2.39055,6.37507 2.39063,10.40625 -8e-5,2.62507 -0.39852,5.13288 -1.19532,7.52344 -0.75007,2.34381 -1.92194,4.47662 -3.51562,6.39843 -1.54695,1.87506 -3.49226,3.51568 -5.83594,4.92188 -2.34381,1.35942 -5.109435,2.36724 -8.296875,3.02344 3.984315,0.42192 7.499935,1.28911 10.546875,2.60156 3.09368,1.31254 5.6718,3.00004 7.73438,5.0625 2.06242,2.01566 3.63273,4.35941 4.71093,7.03125 1.07805,2.62503 1.61711,5.4844 1.61719,8.57812 m -19.26562,-43.45312 c -7e-5,-5.01555 -1.781315,-8.57805 -5.343755,-10.6875 -3.515678,-2.15617 -8.812548,-3.23429 -15.890625,-3.23438 l -15.679688,0 0,29.25 15.820313,0 c 3.796831,6e-5 7.031202,-0.3515 9.703125,-1.05468 2.671822,-0.74995 4.851507,-1.7812 6.539062,-3.09375 1.687442,-1.35932 2.906191,-2.97651 3.65625,-4.85157 0.796814,-1.87493 1.195248,-3.9843 1.195318,-6.32812 m 5.69531,42.25781 c -7e-5,-2.95309 -0.60944,-5.4609 -1.82813,-7.52344 -1.17194,-2.06246 -2.85944,-3.74996 -5.062498,-5.0625 -2.156308,-1.35933 -4.757868,-2.3437 -7.804687,-2.95312 -3.046925,-0.60933 -6.445359,-0.91402 -10.195313,-0.91406 l -17.71875,0 0,33.60937 18.703125,0 c 3.421829,10e-6 6.585888,-0.2578 9.492188,-0.77344 2.953069,-0.56249 5.484316,-1.49998 7.59375,-2.8125 2.156185,-1.31248 3.820245,-3.07029 4.992185,-5.27343 1.21869,-2.20311 1.82806,-4.96873 1.82813,-8.29688"
       id="path3773" />
    <path
       d="m 202.19531,351.9798 c 0.70305,0 1.40617,-0.0469 2.10938,-0.14063 0.70304,-0.0937 1.38273,-0.21093 2.03906,-0.35156 l 0,7.875 c -1.59383,0.375 -3.18758,0.65625 -4.78125,0.84375 -1.54695,0.1875 -3.21101,0.28125 -4.99219,0.28125 -2.39069,0 -4.45319,-0.30469 -6.1875,-0.91406 -1.68756,-0.65625 -3.07037,-1.61719 -4.14844,-2.88282 -1.07818,-1.31249 -1.89849,-2.90624 -2.46093,-4.78125 -0.56256,-1.92186 -0.91412,-4.14842 -1.05469,-6.67968 l -0.42188,0 c -1.31255,2.43751 -2.76567,4.64063 -4.35937,6.60937 -1.5938,1.96876 -3.42192,3.65625 -5.48438,5.0625 -2.06254,1.35938 -4.42973,2.41406 -7.10156,3.16406 -2.67191,0.75 -5.74222,1.125 -9.21094,1.125 -7.40627,0 -12.98439,-2.01562 -16.73437,-6.04687 -3.75001,-4.03124 -5.62501,-9.56249 -5.625,-16.59375 -1e-5,-5.0156 0.91405,-9.11716 2.74219,-12.30469 1.87498,-3.23434 4.31248,-5.76559 7.3125,-7.59375 2.99998,-1.82808 6.39841,-3.09371 10.19531,-3.79687 3.84372,-0.74996 7.73434,-1.1484 11.67187,-1.19532 l 16.59375,-0.28125 0,-4.14843 c -5e-5,-3.14058 -0.32818,-5.81245 -0.98437,-8.01563 -0.60943,-2.20306 -1.57037,-3.98431 -2.88281,-5.34375 -1.26568,-1.35931 -2.88287,-2.34368 -4.85157,-2.95312 -1.96879,-0.65619 -4.26566,-0.98431 -6.89062,-0.98438 -2.34379,7e-5 -4.4766,0.18757 -6.39844,0.5625 -1.87503,0.32819 -3.49222,0.961 -4.85156,1.89844 -1.3594,0.89069 -2.4844,2.13287 -3.375,3.72656 -0.84378,1.54694 -1.40628,3.51568 -1.6875,5.90625 l -13.21875,-1.19531 c 0.46874,-2.99994 1.33592,-5.74213 2.60156,-8.22656 1.31249,-2.53119 3.14061,-4.71087 5.48438,-6.53907 2.34372,-1.82805 5.27341,-3.2343 8.78906,-4.21875 3.56247,-1.03117 7.85153,-1.54679 12.86719,-1.54687 9.37495,8e-5 16.40619,2.2032 21.09375,6.60937 4.7343,4.35944 7.10149,10.68756 7.10156,18.98438 l 0,32.76562 c -7e-5,3.75002 0.49212,6.58595 1.47656,8.50782 0.9843,1.875 2.8593,2.8125 5.625,2.8125 M 159.375,351.55792 c 3.89059,10e-6 7.26558,-0.72655 10.125,-2.17969 2.85933,-1.49999 5.22651,-3.37498 7.10156,-5.625 1.92182,-2.24998 3.35151,-4.73435 4.28906,-7.45312 0.93745,-2.71873 1.4062,-5.32029 1.40625,-7.80469 l 0,-6.25781 -13.35937,0.28125 c -2.57817,0.0469 -5.17973,0.25785 -7.80469,0.63281 -2.57816,0.32816 -4.9219,1.05472 -7.03125,2.17969 -2.06252,1.12503 -3.75002,2.76565 -5.0625,4.92187 -1.31252,2.10941 -1.96877,4.94534 -1.96875,8.50782 -2e-5,3.84376 1.03123,6.93751 3.09375,9.28125 2.10935,2.34375 5.17966,3.51563 9.21094,3.51562 m 6.75,-76.21875 -21.09375,-16.17187 0,-2.03907 13.85156,0 15.96094,16.80469 0,1.40625 -8.71875,0"
       id="path3775" />
    <path
       d="m 288.53906,350.43292 c -1.68757,1.12501 -3.65632,2.32032 -5.90625,3.58594 -2.20319,1.26563 -4.66413,2.4375 -7.38281,3.51562 -2.71881,1.03125 -5.69537,1.89844 -8.92969,2.60157 -3.18755,0.70312 -6.60942,1.05468 -10.26562,1.05468 -6.28129,0 -11.74222,-1.21875 -16.38282,-3.65625 -4.64064,-2.48437 -8.48439,-5.90624 -11.53125,-10.26562 -3.04688,-4.35936 -5.32032,-9.53904 -6.82031,-15.53906 -1.50001,-6.04685 -2.25001,-12.65621 -2.25,-19.82813 -1e-5,-7.82807 0.72656,-14.74212 2.17969,-20.74219 1.45311,-6.0468 3.70311,-11.10929 6.75,-15.1875 3.04686,-4.12491 6.91404,-7.24209 11.60156,-9.35156 4.68747,-2.10928 10.24215,-3.16397 16.66406,-3.16406 4.68746,9e-5 8.78901,0.60947 12.30469,1.82812 3.56244,1.21885 6.63275,2.88291 9.21094,4.99219 2.62493,2.06259 4.80462,4.52352 6.53906,7.38281 1.78118,2.81258 3.2343,5.83602 4.35938,9.07032 l -12.02344,3.9375 c -1.78131,-5.15618 -4.31256,-9.14055 -7.59375,-11.95313 -3.23443,-2.85929 -7.45318,-4.28898 -12.65625,-4.28906 -4.21879,8e-5 -7.80472,0.82039 -10.75781,2.46094 -2.95316,1.59383 -5.36722,3.98445 -7.24219,7.17187 -1.82815,3.1407 -3.16409,7.05476 -4.00781,11.74219 -0.7969,4.64068 -1.19534,10.00786 -1.19532,16.10156 -2e-5,12.56254 1.96873,22.10159 5.90625,28.61719 3.98435,6.51564 10.00778,9.77344 18.07032,9.77344 2.24995,0 4.33588,-0.1875 6.25781,-0.5625 1.9687,-0.42187 3.72651,-0.89062 5.27344,-1.40625 1.59369,-0.56249 2.95306,-1.12499 4.07812,-1.6875 1.17181,-0.60937 2.06244,-1.12499 2.67188,-1.54688 l 0,-23.625 -20.60157,0 0,-11.25 33.67969,0 0,40.21875"
       id="path3777" />
  </g>
</svg>
