<?xml version="1.0" encoding="UTF-8" standalone="no"?>
<!-- Created with Inkscape (http://www.inkscape.org/) -->

<svg
   xmlns:dc="http://purl.org/dc/elements/1.1/"
   xmlns:cc="http://creativecommons.org/ns#"
   xmlns:rdf="http://www.w3.org/1999/02/22-rdf-syntax-ns#"
   xmlns:svg="http://www.w3.org/2000/svg"
   xmlns="http://www.w3.org/2000/svg"
   version="1.2"
   width="600"
   height="600"
   id="svg2">
  <defs
     id="defs4" />
  <metadata
     id="metadata7">
    <rdf:RDF>
      <cc:Work
         rdf:about="">
        <dc:format>image/svg+xml</dc:format>
        <dc:type
           rdf:resource="http://purl.org/dc/dcmitype/StillImage" />
        <dc:title></dc:title>
      </cc:Work>
    </rdf:RDF>
  </metadata>
  <g
     transform="translate(0,20)"
     id="layer2"
     style="display:inline">
    <path
       d="m 280,260 a 240,240 0 1 1 -480,0 240,240 0 1 1 480,0 z"
       transform="matrix(1.1863636,0,0,1.1863636,252.54545,-28.454527)"
       id="path4053"
       style="fill:#ffffff;fill-opacity:1;stroke:#000000;stroke-width:8.88888931;stroke-linejoin:round;stroke-miterlimit:4;stroke-opacity:1;stroke-dasharray:none" />
    <path
       d="m 570,280 30,0 0,0 0,0"
       id="path4072"
       style="fill:none;stroke:#000000;stroke-width:10;stroke-linecap:butt;stroke-linejoin:round;stroke-miterlimit:4;stroke-opacity:1;stroke-dasharray:none" />
    <path
       d="m 0,280 30,0 0,0 0,0"
       id="path4074"
       style="fill:none;stroke:#000000;stroke-width:10;stroke-linecap:butt;stroke-linejoin:round;stroke-miterlimit:4;stroke-opacity:1;stroke-dasharray:none" />
    <path
       d="M 130,505 130,50"
       id="path4157"
       style="fill:none;stroke:#000000;stroke-width:10.0554018;stroke-linecap:butt;stroke-linejoin:round;stroke-miterlimit:4;stroke-opacity:1;stroke-dasharray:none" />
    <path
       d="M 470,505 470,50"
       id="path4159"
       style="fill:none;stroke:#000000;stroke-width:10.0554018;stroke-linecap:butt;stroke-linejoin:round;stroke-miterlimit:4;stroke-opacity:1;stroke-dasharray:none" />
  </g>
  <g
     id="layer3"
     style="display:inline">
    <g
       transform="scale(0.78696188,1.2707096)"
       id="text3383"
       style="font-size:318.11791992px;font-style:normal;font-variant:normal;font-weight:normal;font-stretch:normal;fill:#808080;fill-opacity:1;stroke:none;font-family:Liberation Mono;-inkscape-font-specification:Liberation Mono">
      <path
         d="m 267.891,271.4982 c -1.8e-4,10.66611 -2.17481,19.72708 -6.5239,27.18293 -4.34944,7.45591 -10.20024,13.56559 -17.55241,18.32906 -7.35248,4.65994 -15.89568,8.07722 -25.62962,10.25185 -9.73419,2.17463 -19.98603,3.26195 -30.75554,3.26195 l -73.31624,0 0,-209.54154 63.99638,0 c 12.11572,2.1e-4 22.9371,0.98397 32.46418,2.95129 9.52684,1.96773 17.60405,5.02257 24.23164,9.16453 6.62731,4.0388 11.64967,9.26827 15.06711,15.68843 3.52067,6.42052 5.28109,14.08351 5.28126,22.98899 -1.7e-4,5.79918 -0.88038,11.33931 -2.64063,16.62042 -1.65703,5.17784 -4.24588,9.88954 -7.76655,14.13512 -3.41744,4.14228 -7.71492,7.76667 -12.89248,10.87317 -5.17784,3.00318 -11.28752,5.22959 -18.32906,6.67923 8.80196,0.9321 16.5685,2.84785 23.29966,5.74725 6.83441,2.89962 12.52987,6.62756 17.08641,11.18384 4.5562,4.45291 8.02526,9.6306 10.40718,15.5331 2.38156,5.79909 3.57243,12.11588 3.57261,18.95038 m -42.5607,-95.99457 c -1.4e-4,-11.08011 -3.93518,-18.95021 -11.80516,-23.61031 -7.76666,-4.7633 -19.46826,-7.14504 -35.10481,-7.14523 l -34.63881,0 0,64.6177 34.94948,0 c 8.38777,1.3e-4 15.53299,-0.77653 21.43568,-2.32996 5.90246,-1.65674 10.71771,-3.93493 14.44578,-6.83457 3.72782,-3.00293 6.42022,-6.57554 8.07721,-10.71784 1.76029,-4.14201 2.64049,-8.80194 2.64063,-13.97979 m 12.58181,93.35394 c -1.5e-4,-6.52383 -1.34635,-12.06396 -4.0386,-16.62042 -2.589,-4.55629 -6.31694,-8.28423 -11.18384,-11.18383 -4.76361,-3.00297 -10.51085,-5.1776 -17.24174,-6.5239 -6.73112,-1.34611 -14.23878,-2.01921 -22.523,-2.0193 l -39.14341,0 0,74.24822 41.31805,0 c 7.55934,3e-5 14.54923,-0.56952 20.96968,-1.70864 6.52378,-1.24262 12.11569,-3.3137 16.77575,-6.21324 4.76335,-2.89948 8.43951,-6.78275 11.02851,-11.64983 2.69225,-4.86699 4.03845,-10.97667 4.0386,-18.32906"
         id="path4304" />
      <path
         d="m 450.71561,313.28224 c 1.55314,2e-5 3.10644,-0.10353 4.65993,-0.31066 1.55313,-0.20709 3.05466,-0.46597 4.5046,-0.77665 l 0,17.39707 c -3.52102,0.82843 -7.04185,1.44976 -10.56251,1.86397 -3.41745,0.41422 -7.09361,0.62133 -11.0285,0.62133 -5.28141,0 -9.83778,-0.6731 -13.66913,-2.01931 -3.72809,-1.44975 -6.78293,-3.57261 -9.16453,-6.36857 -2.38188,-2.8995 -4.19407,-6.42033 -5.43659,-10.56251 -1.24278,-4.24569 -2.01943,-9.1645 -2.32996,-14.75644 l -0.93199,0 c -2.89964,5.38483 -6.10981,10.25187 -9.63052,14.60111 -3.52095,4.34928 -7.55956,8.07722 -12.11582,11.18384 -4.55648,3.00306 -9.78595,5.33303 -15.68843,6.98989 -5.90267,1.65686 -12.68545,2.48529 -20.34837,2.4853 -16.36158,-10e-6 -28.6845,-4.45282 -36.96878,-13.35847 -8.28434,-8.90563 -12.4265,-21.12499 -12.42648,-36.65812 -2e-5,-11.08022 2.01928,-20.14119 6.05791,-27.18293 4.14213,-7.14514 9.52693,-12.73705 16.15442,-16.77575 6.62741,-4.03851 14.13507,-6.83446 22.523,-8.38787 8.49136,-1.65677 17.08633,-2.53697 25.78495,-2.64063 l 36.65812,-0.62132 0,-9.16453 c -1.3e-4,-6.938 -0.725,-12.84058 -2.17463,-17.70774 -1.34633,-4.8669 -3.46918,-8.80195 -6.36858,-11.80516 -2.79607,-3.00292 -6.36868,-5.17755 -10.71784,-6.5239 -4.34937,-1.44961 -9.42351,-2.17448 -15.22244,-2.17463 -5.17778,1.5e-4 -9.88949,0.41436 -14.13512,1.24264 -4.14223,0.72503 -7.71484,2.12301 -10.71784,4.19394 -3.00313,1.96767 -5.48842,4.71185 -7.45589,8.23255 -1.86403,3.41741 -3.10667,7.76668 -3.72794,13.0478 l -29.20223,-2.64063 c 1.03551,-6.62732 2.95126,-12.68522 5.74725,-18.17372 2.89947,-5.59177 6.93807,-10.40703 12.11581,-14.44579 5.17766,-4.03844 11.64977,-7.14506 19.41638,-9.31986 7.87003,-2.27802 17.34522,-3.41711 28.42558,-3.41728 20.71069,1.7e-4 36.24377,4.8672 46.5993,14.60111 10.45881,9.63067 15.68828,23.61045 15.68843,41.93938 l 0,72.38425 c -1.5e-4,8.28436 1.08717,14.54937 3.26196,18.79505 2.17447,4.14218 6.31663,6.21326 12.42648,6.21324 m -94.59659,-0.93198 c 8.5949,2e-5 16.05078,-1.60507 22.36767,-4.81526 6.31668,-3.31371 11.54616,-7.45586 15.68843,-12.42648 4.24559,-4.97056 7.40399,-10.45891 9.47519,-16.46509 2.07095,-6.00608 3.10649,-11.75332 3.10662,-17.24175 l 0,-13.82446 -29.51289,0.62133 c -5.69557,0.10363 -11.44281,0.56963 -17.24175,1.39798 -5.69554,0.72496 -10.87324,2.33004 -15.5331,4.81526 -4.55643,2.48537 -8.28437,6.10976 -11.18383,10.87317 -2.89956,4.65999 -4.34932,10.925 -4.34927,18.79505 -5e-5,8.49147 2.27814,15.32603 6.83457,20.5037 4.65987,5.17772 11.44265,7.76657 20.34836,7.76655 m 14.91178,-168.37882 -46.59931,-35.72614 0,-4.5046 30.60021,0 35.26014,37.12412 0,3.10662 -19.26104,0"
         id="path4306" />
      <path
         d="m 641.4621,309.86496 c -3.72811,2.48532 -8.07738,5.12594 -13.04781,7.92188 -4.86719,2.79597 -10.30377,5.38482 -16.30975,7.76655 -6.00627,2.2782 -12.58195,4.19394 -19.72704,5.74725 -7.04179,1.55331 -14.60123,2.32996 -22.67833,2.32997 -13.87632,-10e-6 -25.94035,-2.69241 -36.19213,-8.07722 -10.2519,-5.48835 -18.74332,-13.04778 -25.47428,-22.67832 -6.73105,-9.63049 -11.75341,-21.0732 -15.06711,-34.32816 -3.31375,-13.35839 -4.97061,-27.95949 -4.9706,-43.80334 -10e-6,-17.2934 1.60507,-32.5676 4.81527,-45.82265 3.21014,-13.35831 8.18073,-24.54213 14.91177,-33.5515 6.73097,-9.11256 15.27417,-15.9989 25.62962,-20.65903 10.35533,-4.65972 22.62647,-6.98968 36.81345,-6.98989 10.35529,2.1e-4 19.41626,1.34641 27.18293,4.0386 7.86997,2.69261 14.65275,6.36878 20.34836,11.0285 5.79887,4.55657 10.61413,9.99315 14.44579,16.30976 3.93488,6.21342 7.14505,12.89264 9.63052,20.0377 l -26.5616,8.69854 c -3.9352,-11.39078 -9.52711,-20.19286 -16.77575,-26.40627 -7.14535,-6.31661 -16.4652,-9.47501 -27.95959,-9.4752 -9.31995,1.9e-4 -17.24182,1.81239 -23.76564,5.43659 -6.52397,3.52102 -11.857,8.80226 -15.9991,15.84376 -4.03866,6.93828 -6.98995,15.58503 -8.85386,25.94028 -1.76047,10.25198 -2.64068,22.1089 -2.64063,35.57081 -5e-5,27.75255 4.34921,48.82577 13.0478,63.21972 8.80202,14.39403 22.1087,21.59103 39.92008,21.59101 4.97048,2e-5 9.57863,-0.41419 13.82446,-1.24265 4.34914,-0.93196 8.23242,-1.9675 11.64982,-3.10662 3.52071,-1.24262 6.52377,-2.48527 9.0092,-3.72794 2.58871,-1.34617 4.55624,-2.48527 5.90258,-3.41729 l 0,-52.19122 -45.51199,0 0,-24.85296 74.40356,0 0,88.84934"
         id="path4308" />
    </g>
  </g>
  <g
     id="layer4" />
</svg>
