<?xml version="1.0" encoding="UTF-8" standalone="no"?>
<!-- Created with Inkscape (http://www.inkscape.org/) -->

<svg
   xmlns:dc="http://purl.org/dc/elements/1.1/"
   xmlns:cc="http://creativecommons.org/ns#"
   xmlns:rdf="http://www.w3.org/1999/02/22-rdf-syntax-ns#"
   xmlns:svg="http://www.w3.org/2000/svg"
   xmlns="http://www.w3.org/2000/svg"
   version="1.1"
   width="600"
   height="600"
   id="svg2">
  <defs
     id="defs4" />
  <metadata
     id="metadata7">
    <rdf:RDF>
      <cc:Work
         rdf:about="">
        <dc:format>image/svg+xml</dc:format>
        <dc:type
           rdf:resource="http://purl.org/dc/dcmitype/StillImage" />
        <dc:title></dc:title>
      </cc:Work>
    </rdf:RDF>
  </metadata>
  <g
     transform="translate(0,-452.36218)"
     id="layer1"
     style="display:inline">
    <rect
       width="579.95844"
       height="270.52496"
       rx="90"
       ry="120.52496"
       x="10.041562"
       y="641.83722"
       id="rect2991"
       style="fill:#ffffff;fill-opacity:1;stroke:#000000;stroke-width:9.68126202;stroke-linecap:butt;stroke-linejoin:round;stroke-miterlimit:4;stroke-opacity:1;stroke-dasharray:none;stroke-dashoffset:0" />
    <path
       d="m 0,300 40,0"
       transform="translate(0,472.36218)"
       id="path3784"
       style="fill:none;stroke:#000000;stroke-width:10;stroke-linecap:butt;stroke-linejoin:miter;stroke-miterlimit:4;stroke-opacity:1;stroke-dasharray:none" />
    <path
       d="m 565,772.36218 35,0"
       id="path3786"
       style="fill:none;stroke:#000000;stroke-width:10;stroke-linecap:butt;stroke-linejoin:miter;stroke-miterlimit:4;stroke-opacity:1;stroke-dasharray:none" />
    <path
       d="m 290,385 a 75,65 0 1 1 -150,0 75,65 0 1 1 150,0 z"
       transform="matrix(1.1,0,0,1.2307691,221,298.51608)"
       id="path3864"
       style="fill:none;stroke:#000000;stroke-width:8.59439564;stroke-linejoin:miter;stroke-miterlimit:4;stroke-opacity:1;stroke-dasharray:none;display:inline" />
    <path
       d="m 290,385 a 75,65 0 1 1 -150,0 75,65 0 1 1 150,0 z"
       transform="matrix(1.1,0,0,1.2307691,-86.5,298.51607)"
       id="path4263"
       style="fill:none;stroke:#000000;stroke-width:8.59439564;stroke-linejoin:miter;stroke-miterlimit:4;stroke-opacity:1;stroke-dasharray:none;display:inline" />
  </g>
  <g
     transform="translate(0,20)"
     id="layer2" />
</svg>
