<?xml version="1.0" encoding="UTF-8" standalone="no"?>
<!-- Created with Inkscape (http://www.inkscape.org/) -->

<svg
   xmlns:dc="http://purl.org/dc/elements/1.1/"
   xmlns:cc="http://creativecommons.org/ns#"
   xmlns:rdf="http://www.w3.org/1999/02/22-rdf-syntax-ns#"
   xmlns:svg="http://www.w3.org/2000/svg"
   xmlns="http://www.w3.org/2000/svg"
   xmlns:sodipodi="http://sodipodi.sourceforge.net/DTD/sodipodi-0.dtd"
   xmlns:inkscape="http://www.inkscape.org/namespaces/inkscape"
   width="600"
   height="600"
   id="svg2"
   version="1.1"
   inkscape:version="0.48.2 r9819"
   sodipodi:docname="fs_cloison_1a.svg">
  <defs
     id="defs4" />
  <sodipodi:namedview
     id="base"
     pagecolor="#c8c8c8"
     bordercolor="#666666"
     borderopacity="1.0"
     inkscape:pageopacity="1"
     inkscape:pageshadow="2"
     inkscape:zoom="1.2483333"
     inkscape:cx="179.43925"
     inkscape:cy="302.49325"
     inkscape:document-units="px"
     inkscape:current-layer="layer3"
     showgrid="true"
     inkscape:showpageshadow="false"
     showguides="true"
     inkscape:guide-bbox="true"
     inkscape:window-width="1680"
     inkscape:window-height="964"
     inkscape:window-x="0"
     inkscape:window-y="30"
     inkscape:window-maximized="1"
     fit-margin-bottom="2.7755576e-17">
    <inkscape:grid
       type="xygrid"
       id="grid2985"
       empspacing="5"
       visible="true"
       enabled="true"
       snapvisiblegridlinesonly="true" />
    <sodipodi:guide
       orientation="0,1"
       position="-10,300"
       id="guide2987" />
    <sodipodi:guide
       orientation="1,0"
       position="300,680"
       id="guide2989" />
  </sodipodi:namedview>
  <metadata
     id="metadata7">
    <rdf:RDF>
      <cc:Work
         rdf:about="">
        <dc:format>image/svg+xml</dc:format>
        <dc:type
           rdf:resource="http://purl.org/dc/dcmitype/StillImage" />
        <dc:title />
      </cc:Work>
    </rdf:RDF>
  </metadata>
  <g
     inkscape:groupmode="layer"
     id="layer2"
     inkscape:label="Calque"
     transform="translate(0,20)"
     style="display:inline">
    <path
       sodipodi:type="arc"
       style="fill:#ffffff;fill-opacity:1;stroke:#000000;stroke-width:8.88888931;stroke-linejoin:round;stroke-miterlimit:4;stroke-opacity:1;stroke-dasharray:none"
       id="path4053"
       sodipodi:cx="40"
       sodipodi:cy="260"
       sodipodi:rx="240"
       sodipodi:ry="240"
       d="m 280,260 a 240,240 0 1 1 -480,0 240,240 0 1 1 480,0 z"
       transform="matrix(1.1863636,0,0,1.1863636,252.54545,-28.454527)" />
    <path
       style="fill:none;stroke:#000000;stroke-width:10;stroke-linecap:butt;stroke-linejoin:round;stroke-miterlimit:4;stroke-opacity:1;stroke-dasharray:none"
       d="m 570,280 30,0 0,0 0,0"
       id="path4072"
       inkscape:connector-curvature="0" />
    <path
       inkscape:connector-curvature="0"
       id="path4074"
       d="m 0,280 30,0 0,0 0,0"
       style="fill:none;stroke:#000000;stroke-width:10;stroke-linecap:butt;stroke-linejoin:round;stroke-miterlimit:4;stroke-opacity:1;stroke-dasharray:none" />
  </g>
  <g
     inkscape:groupmode="layer"
     id="layer3"
     inkscape:label="Calque#1"
     style="display:inline">
    <path
       style="fill:none;stroke:#000000;stroke-width:10;stroke-linecap:butt;stroke-linejoin:miter;stroke-miterlimit:4;stroke-opacity:1;stroke-dasharray:none"
       d="m 450,60 0,480 0,0 0,0"
       id="path4370"
       inkscape:connector-curvature="0" />
    <g
       transform="scale(0.78726334,1.270223)"
       style="font-size:367.60681152000000793px;font-style:normal;font-variant:normal;font-weight:normal;font-stretch:normal;fill:#808080;fill-opacity:1;stroke:none;font-family:Liberation Mono;-inkscape-font-specification:Liberation Mono"
       id="text4380">
      <path
         d="m 221.53253,140.13035 0,88.67078 121.33897,0 0,28.36029 -121.33897,0 0,97.10707 -34.28364,0 0,-242.13944 159.9305,0 0,28.0013 -125.64686,0"
         style="fill:#808080"
         id="path4411"
         inkscape:connector-curvature="0" />
      <path
         d="m 575.31818,287.85515 c -2e-4,10.17147 -1.85498,19.56506 -5.56436,28.1808 -3.70976,8.49615 -9.39378,15.85546 -17.05207,22.07795 -7.53899,6.22252 -17.1719,11.06889 -28.89878,14.53913 -11.60751,3.47025 -25.42866,5.20537 -41.46346,5.20537 -28.00138,0 -49.83998,-5.50452 -65.51586,-16.51358 -15.55631,-11.00904 -25.48839,-26.92429 -29.79626,-47.74581 l 33.20667,-6.64133 c 1.43592,6.58156 3.58986,12.56474 6.46184,17.94955 2.87187,5.38491 6.82077,10.05179 11.8467,14.00065 5.02581,3.82927 11.18848,6.82086 18.48804,8.97477 7.29939,2.15397 16.03483,3.23095 26.20635,3.23092 8.61566,3e-5 16.45362,-0.77779 23.51391,-2.33344 7.17968,-1.67526 13.28252,-4.24803 18.30854,-7.71831 5.14538,-3.47021 9.15411,-7.89776 12.0262,-13.28266 2.87176,-5.38482 4.30772,-11.84665 4.30789,-19.38552 -1.7e-4,-8.37638 -1.97462,-15.19721 -5.92335,-20.46249 -3.8294,-5.26511 -8.9151,-9.573 -15.25712,-12.92368 -6.34232,-3.35048 -13.52213,-6.04291 -21.53946,-8.07729 -7.89792,-2.15384 -15.91538,-4.24795 -24.0524,-6.28235 -5.98328,-1.55551 -12.02629,-3.17097 -18.12905,-4.84638 -6.10292,-1.79483 -11.96644,-3.82911 -17.59056,-6.10284 -5.62425,-2.39315 -10.88945,-5.14541 -15.7956,-8.2568 -4.78659,-3.23078 -9.03465,-7.06001 -12.74418,-11.48771 -3.58995,-4.54707 -6.40204,-9.81227 -8.43629,-15.7956 -2.03431,-6.10269 -3.05145,-13.16284 -3.05143,-21.18047 -2e-5,-11.48753 2.15392,-21.29994 6.46184,-29.43727 4.30786,-8.25657 10.2312,-14.95773 17.77006,-20.1035 7.53875,-5.26496 16.45369,-9.0942 26.74483,-11.48771 10.29099,-2.39303 21.4197,-3.58966 33.38617,-3.58991 13.88086,2.5e-4 25.66772,1.25671 35.36061,3.76941 9.81227,2.39351 18.06905,6.04325 24.77038,10.94922 6.82065,4.90644 12.26535,11.00928 16.33409,18.30854 4.06838,7.18003 7.29929,15.55648 9.69276,25.12938 l -33.74516,5.92335 c -1.31646,-6.10266 -3.29091,-11.54735 -5.92335,-16.33409 -2.51309,-4.78635 -5.9235,-8.79508 -10.23124,-12.0262 -4.18837,-3.23071 -9.27407,-5.68381 -15.25712,-7.35932 -5.98331,-1.67507 -13.04346,-2.51272 -21.18047,-2.51294 -9.5732,2.2e-4 -17.59065,1.01736 -24.0524,3.05143 -6.46192,1.91483 -11.66728,4.60726 -15.61611,8.0773 -3.94897,3.35078 -6.82089,7.35951 -8.61578,12.0262 -1.67536,4.66707 -2.513,9.69294 -2.51294,15.07762 -6e-5,7.17999 1.55557,13.04351 4.66688,17.59056 3.23085,4.42771 7.53874,8.13728 12.92368,11.12872 5.50445,2.87208 11.84661,5.26535 19.02652,7.17982 7.29938,1.91476 15.07752,3.94904 23.33442,6.10285 6.58138,1.67543 13.2227,3.47038 19.924,5.38486 6.70102,1.79509 13.10302,3.94904 19.20602,6.46184 6.22235,2.51307 11.9662,5.50465 17.23157,8.97478 5.38469,3.3507 10.05156,7.47909 14.00065,12.38519 3.94871,4.90631 7.05996,10.65016 9.33377,17.23157 2.27341,6.58158 3.41021,14.24005 3.41041,22.97542"
         style="fill:#808080"
         id="path4413"
         inkscape:connector-curvature="0" />
    </g>
  </g>
  <g
     inkscape:groupmode="layer"
     id="layer4"
     inkscape:label="Calque#2">
    <path
       transform="matrix(1.2105263,0,0,1.2105263,-178.15789,46.842107)"
       d="m 490,205 a 95,95 0 1 1 -190,0 95,95 0 1 1 190,0 z"
       sodipodi:ry="95"
       sodipodi:rx="95"
       sodipodi:cy="205"
       sodipodi:cx="395"
       id="path4154"
       style="fill:none;stroke:#000000;stroke-width:10;stroke-linecap:butt;stroke-linejoin:round;stroke-miterlimit:4;stroke-opacity:1;stroke-dasharray:none"
       sodipodi:type="arc" />
  </g>
</svg>
