<?xml version="1.0" encoding="UTF-8" standalone="no"?>
<!-- Created with Inkscape (http://www.inkscape.org/) -->

<svg
   xmlns:dc="http://purl.org/dc/elements/1.1/"
   xmlns:cc="http://creativecommons.org/ns#"
   xmlns:rdf="http://www.w3.org/1999/02/22-rdf-syntax-ns#"
   xmlns:svg="http://www.w3.org/2000/svg"
   xmlns="http://www.w3.org/2000/svg"
   xmlns:sodipodi="http://sodipodi.sourceforge.net/DTD/sodipodi-0.dtd"
   xmlns:inkscape="http://www.inkscape.org/namespaces/inkscape"
   width="84.402992"
   height="84.192429"
   id="svg4142"
   version="1.1"
   inkscape:version="0.48.2 r9819"
   sodipodi:docname="Nouveau document 12">
  <defs
     id="defs4144" />
  <sodipodi:namedview
     id="base"
     pagecolor="#ffffff"
     bordercolor="#666666"
     borderopacity="1.0"
     inkscape:pageopacity="0.0"
     inkscape:pageshadow="2"
     inkscape:zoom="0.35"
     inkscape:cx="25.772923"
     inkscape:cy="-20.760931"
     inkscape:document-units="px"
     inkscape:current-layer="layer1"
     showgrid="false"
     fit-margin-top="0"
     fit-margin-left="0"
     fit-margin-right="0"
     fit-margin-bottom="0"
     inkscape:window-width="691"
     inkscape:window-height="448"
     inkscape:window-x="165"
     inkscape:window-y="131"
     inkscape:window-maximized="0" />
  <metadata
     id="metadata4147">
    <rdf:RDF>
      <cc:Work
         rdf:about="">
        <dc:format>image/svg+xml</dc:format>
        <dc:type
           rdf:resource="http://purl.org/dc/dcmitype/StillImage" />
        <dc:title></dc:title>
      </cc:Work>
    </rdf:RDF>
  </metadata>
  <g
     inkscape:label="Calque 1"
     inkscape:groupmode="layer"
     id="layer1"
     transform="translate(-349.22708,-427.40882)">
    <path
       style="fill:#4e9a06"
       d="m 390.22275,504.11688 c 0.28196,-7.92095 3.86067,-15.09164 8.26828,-21.49531 -3.51181,-9.8506 -12.31934,-6.17669 -17.27184,1.36824 -0.67405,8.7926 6.02194,18.01508 3.50922,26.38433 -3.90505,-3.54244 -2.58843,-11.04248 -5.50118,-2.30634 -7.36074,6.28151 0.99566,-10.75102 -0.24625,-14.42151 0.15869,-9.4536 -7.64293,2.73696 -3.55272,6.46021 1.88378,6.52527 -6.05203,12.1054 -3.27845,2.06671 1.90484,-6.10946 -8.49193,8.71031 -5.32998,-1.20712 4.23082,-6.05917 1.64664,-6.90825 -3.2357,-2.35366 -9.21541,2.39752 8.17734,-9.55184 -0.94757,-5.21858 -9.69851,1.41239 1.96443,-5.7866 6.53871,-5.29524 5.69032,-1.83234 7.14438,-3.5411 0.59991,-1.8082 -3.61026,-0.45732 -21.12594,8.20545 -13.39522,0.23362 3.57592,-0.65942 -4.20683,-4.32093 2.69975,-4.68462 9.1379,1.25463 25.07104,2.10523 24.81549,-10.63507 -10.24795,-4.40468 -17.9122,4.32502 -26.49616,8.03859 -5.67468,3.90123 -13.354,-2.09698 -3.24735,-2.92126 4.94372,-0.46734 13.44635,-7.40938 3.59281,-3.01835 -3.71084,2.65626 -6.52047,2.469 -6.34089,-1.83772 -9.29621,-4.39825 17.87106,-2.06135 2.2321,-7.60126 -9.60038,-4.66192 2.0319,-13.70462 7.36051,-5.73114 2.51912,-1.47252 -13.36109,-10.57046 -0.84173,-10.63734 0.0229,-1.0134 -2.7567,-9.90665 2.72931,-4.02786 3.38236,3.18014 10.77929,4.9444 3.79227,-0.0697 -10.05455,-8.37174 3.98536,-4.53675 4.5091,-2.56521 -7.72238,-8.37047 8.21151,-13.55457 7.46561,-1.76932 -0.30755,5.00326 3.47692,17.25298 6.91379,16.27215 0.72688,-6.6307 2.69229,-13.72845 -1.86895,-19.48977 -3.31181,-5.13125 1.50033,-13.15822 3.17011,-3.36562 2.01441,1.82892 3.1692,-11.15451 4.84031,-1.36875 -0.1937,8.7592 1.07571,-4.4893 5.38652,-3.66586 6.46703,7.50586 -4.80925,13.34599 -6.88897,20.27321 -3.64254,9.66231 0.77143,16.27211 9.28144,8.84132 3.74043,-1.98706 1.04602,-8.06111 2.53234,-11.59233 -0.49068,-5.04753 6.13812,-21.9059 6.91213,-9.24334 3.29368,2.6525 11.67673,-5.25246 6.84226,3.48263 -2.891,3.40988 -5.50148,10.61513 -0.64178,3.15437 2.57907,-5.99029 8.49672,-3.72589 3.32685,1.49299 -6.28542,4.8675 10.68672,-2.60119 4.66838,3.49474 -3.38614,1.0914 -17.40424,6.11093 -6.19603,4.04859 3.71611,-3.43247 16.14504,-4.79009 7.30367,0.85307 -2.26423,-0.077 8.05806,3.84248 0.30683,3.85131 -9.79241,-1.16644 -20.47939,-1.58035 -27.35863,6.85469 -2.13732,2.21787 5.35535,3.40818 7.2322,5.19772 3.32864,1.6955 6.88409,4.84425 9.22228,0.19346 4.86798,-4.76587 12.03587,-13.37353 19.07573,-8.57309 -2.28957,2.47536 -13.90603,3.91313 -4.0318,4.58647 9.6803,-1.90956 -1.09087,7.32283 4.95061,8.31654 -1.6173,3.25278 -13.18316,2.61319 -12.06418,4.34235 4.50284,1.54211 14.43238,3.87924 6.62807,7.40276 1.03658,10.07242 -15.54552,-14.09428 -8.9958,-0.12955 2.32367,3.13771 8.78852,17.15325 1.05008,8.99867 -5.54597,-8.37957 4.69504,14.36039 -3.6601,4.27511 -0.89702,-3.794 -1.76379,3.97743 -3.64493,4.57725 1.18045,13.18993 -5.23349,-5.3838 -7.56789,-5.43063 1.48087,3.81973 3.35162,20.18426 -1.6149,9.63246 -3.17871,-11.75869 -0.25082,2.9765 -4.85885,4.73266 -3.26727,-3.48094 -5.03878,-15.64449 -5.75408,-4.46762 -2.13442,10.40029 -4.24324,2.02032 -2.92474,-2.49482 z m 15.01138,-0.4843 c -2.05332,0.63627 1.43308,4.76722 0,0 z m -12.91484,-3.02083 c -1.26251,-0.26319 0.35127,7.7339 0,0 z m -9.08516,1.02083 c -2.05332,0.63627 1.43308,4.76722 0,0 z m -9,-2 c -2.05332,0.63627 1.43308,4.76722 0,0 z m 6,-1 c -2.05332,0.63627 1.43308,4.76722 0,0 z m 24,0 c -2.05332,0.63627 1.43308,4.76722 0,0 z m -3.03317,-5.50401 c -2.53249,-12.72537 -7.59567,10.17946 -2.35463,5.76216 1.06268,-1.78463 2.36515,-3.58389 2.35463,-5.76216 z m -19.90872,-0.0168 c -1.64607,1.04934 0.98002,5.0227 0,0 z m 31.99719,-6.9934 c 4.19506,-8.02974 -9.48734,-16.2547 -13.29575,-12.0066 0.96981,7.90981 3.60811,15.56676 9.79803,20.87089 2.48333,5.07244 2.4242,-8.85376 3.49772,-8.86429 z m -45.15947,7.2434 c 4.57084,-6.78006 -6.54198,6.48819 0,0 z m 35.15594,-2.26903 c -1.60266,2.01954 0.97736,5.63043 0,0 z m 12.03339,-6.48097 c -1.26251,-0.26319 0.35127,7.7339 0,0 z m -39.43933,-0.91228 c -3.96764,-0.84658 -3.35327,1.57428 0,0 z m -13.0625,-1.02083 c -4.44705,-0.73433 0.56499,1.8229 0,-4e-5 z m 23.3125,-6.31689 c -3.0196,-3.33774 -0.27387,3.48463 0,0 z m 8.89699,-2.83333 c -1.38411,-3.17835 -2.70836,2.64855 0,0 z m 28.60301,-2.61323 c 5.915,-3.50938 4.82918,-4.25389 -1.48426,-2.43618 -5.4924,0.12305 -11.62994,8.32344 -1.87954,4.62234 1.22661,-0.54549 2.37387,-1.27722 3.3638,-2.18616 z m 7.1875,1.76345 c -4.44706,-0.73433 0.56499,1.8229 0,-4e-5 z m -27.73021,-2.24779 c -0.14828,-5.42105 -4.08871,4.11585 0,0 z m -47.70729,-0.75843 c -8.06913,-0.71091 -1.01085,1.52229 0,0 z m 20.98097,-1.00366 c -6.50737,-0.73853 -0.14775,1.54468 0,0 z m 7.45653,0.01 c -4.44706,-0.73433 0.56499,1.8229 0,-4e-5 z m -19.95328,-4.3462 c -14.50847,-10.21567 7.98678,9.87072 0,0 z m 14.19572,2.14267 c 11.21039,-0.88579 4.33735,-8.59108 -0.81989,-12.99828 -2.40499,-3.86542 -7.37471,-1.34477 -11.15205,-1.7931 -8.54872,-1.66895 1.37309,6.88904 1.22081,10.81482 2.52998,2.29994 7.33079,6.40667 10.75113,3.97656 z m 43.75756,0.20353 c -4.44706,-0.73433 0.56499,1.8229 0,-4e-5 z m 8.05084,-1.02415 c -6.03768,-0.76928 -4.1651,1.31194 0.56253,0.17047 l -0.56253,-0.17045 z m -41.48894,-3.79486 c -1.58994,-12.33903 -1.99281,11.07266 0,0 z m -21.7494,2.12444 c -3.1192,-3.81623 -4.95254,-2.96236 0,0 z m 20.66228,-10.87244 c -1.64607,1.04934 0.98002,5.0227 0,0 z m 37.58772,1.58772 c -3.96764,-0.84658 -3.35327,1.57428 0,0 z m -10.5,-1.02705 c -8.06913,-0.71091 -1.01086,1.52229 0,0 z m -6.74384,-5.11969 c 0.69743,-5.26922 5.00297,-11.89129 -0.35936,-4.40384 -2.91294,2.43731 -1.30656,12.5143 0.35936,4.40384 z m -19.40199,-0.92015 c -2.05332,0.63627 1.43308,4.76722 0,0 z m 28.58333,0.0461 c -4.44706,-0.73433 0.56499,1.8229 0,-4e-5 z m -41.1875,-5.6258 c -0.68166,-5.7909 -3.62346,-8.21663 -1.08326,-1.11959 -0.30512,3.0831 1.27698,6.53354 1.08326,1.11959 z m -2.33772,-0.94113 c -1.64607,1.04934 0.98002,5.0227 0,0 z m 17.73471,1.41667 c -1.38411,-3.17835 -2.70836,2.64855 0,0 z m 17,-2 c -1.38411,-3.17835 -2.70836,2.64855 0,0 z m -16.79282,-4.89584 c -2.05332,0.63627 1.43308,4.76722 0,0 z m -1,-5 c -2.05332,0.63627 1.43308,4.76722 0,0 z"
       id="path2996-1"
       inkscape:connector-curvature="0"
       sodipodi:nodetypes="ccccccccccccccccccccccccccccccccccccccccccccccccccccccccccccccccccccccccccccccccccccccccccccccccccccccccccccccccccccccccccccccccccccccccccccccccccccccccccccccc" />
  </g>
</svg>
