<?xml version="1.0" encoding="UTF-8" standalone="no"?>
<!-- Created with Inkscape (http://www.inkscape.org/) -->

<svg
   xmlns:dc="http://purl.org/dc/elements/1.1/"
   xmlns:cc="http://creativecommons.org/ns#"
   xmlns:rdf="http://www.w3.org/1999/02/22-rdf-syntax-ns#"
   xmlns:svg="http://www.w3.org/2000/svg"
   xmlns="http://www.w3.org/2000/svg"
   version="1.1"
   width="85.624908"
   height="86.000031"
   id="svg2">
  <defs
     id="defs4" />
  <metadata
     id="metadata7">
    <rdf:RDF>
      <cc:Work
         rdf:about="">
        <dc:format>image/svg+xml</dc:format>
        <dc:type
           rdf:resource="http://purl.org/dc/dcmitype/StillImage" />
        <dc:title></dc:title>
      </cc:Work>
    </rdf:RDF>
  </metadata>
  <g
     transform="translate(-186.92404,-837.16112)"
     id="layer1">
    <g
       id="g4194">
      <path
         d="m 215.16834,920.35325 c -8.72223,-2.63697 -22.65705,-12.93351 -7.14278,-17.47618 5.19506,-2.42462 10.86196,-7.15871 1.97914,-2.34634 -7.71295,5.12445 -15.54282,9.78852 -17.8435,-1.14569 -3.85488,-5.97848 -6.50586,-17.5076 -4.60969,-25.84598 -0.40439,-6.21804 6.01743,-10.75265 6.87891,-13.68722 -0.38442,-7.39172 7.11358,-9.79741 10.85456,-14.94551 8.61147,-4.25455 16.88282,-8.09644 27.09461,-7.71962 8.3157,1.2478 16.64237,3.73389 23.77077,8.93496 6.95794,2.86914 2.34676,10.90833 2.06445,11.30565 9.69946,-5.34729 11.72581,9.29986 13.95121,16.88774 0.82335,6.92555 1.28743,20.74002 -9.32064,13.10496 -4.14198,-0.0756 -14.72287,-6.19843 -5.45633,-0.40671 7.60093,1.67408 19.38171,9.29649 7.52327,14.47089 -0.67859,4.9582 -9.0173,16.58151 -18.05427,16.80594 -4.79177,-6.23492 -2.85191,8.19041 -10.99658,4.14242 -6.9231,0.17067 -14.17533,0.76426 -20.69313,-2.07931 z m 14.67926,0.70609 c -6.03768,-0.76928 -4.1651,1.31194 0.56253,0.17047 l -0.56253,-0.17045 z m 1.17987,-1.89973 c 0.93232,-6.35826 4.34473,-7.64509 7.78905,-1.77337 3.5606,-2.49292 -4.58973,-15.13437 -4.6152,-20.17384 5.85882,0.51269 3.85657,-16.1582 8.23408,-5.63144 2.71094,6.88516 0.32101,29.75085 12.30004,18.77328 9.2896,-2.14792 -7.59528,-17.4163 5.40661,-13.5803 13.10553,1.59364 -3.0249,-6.14711 -7.24381,-7.9666 -4.81892,-1.7872 -18.4097,-9.40734 -5.30958,-8.91069 8.08386,0.13364 15.39939,3.67105 21.76788,2.78614 1.09513,-6.09369 -13.04874,-7.44227 -1.74931,-10.50398 1.82212,-5.42972 -3.69071,-10.91557 -8.88716,-5.95714 -7.12259,3.77301 -2.44611,-4.99043 -5.07033,-3.86495 -4.21183,4.10466 -16.08721,13.4968 -19.7875,9.59159 5.48186,-9.2586 12.38863,-16.28528 22.44092,-19.71899 -1.49414,-5.95318 -8.62879,-6.2043 -11.93528,-1.66307 -1.43336,-5.02319 -0.69903,-8.36644 -2.99604,-1.06218 -0.89079,5.63626 -8.95122,11.82524 -5.89948,2.04671 0.5326,-4.92667 2.83772,-12.45655 -4.61312,-10.58644 -6.45317,-2.436 -4.2786,3.10886 -7.15274,5.98409 1.16045,8.5382 5.46716,18.39816 6.40274,26.81817 0.32078,4.16502 4.99184,4.55043 6.32813,7.12812 -5.60541,-0.97392 -6.26095,11.67655 -8.32813,1.37188 -6.65696,-0.6184 -4.02904,-3.48245 0.36719,-4.56875 -4.7781,-6.62041 -5.64025,-16.7666 -11.52431,-23.6626 -3.17764,-3.13387 -3.52553,-12.53811 -8.69586,-6.58295 -8.50156,1.60549 8.32278,14.124 -3.37846,10.03566 -5.13922,-2.19131 -10.43354,0.48706 -2.70614,3.29953 5.73495,5.12874 16.25237,12.58969 16.47462,18.97911 -8.72814,-3.59664 -21.2677,-2.36541 -24.22944,-13.30555 -4.67574,4.9013 -3.67762,11.11987 -0.0977,14.86081 -7.66592,1.9102 -1.57286,12.97122 5.08016,7.75609 11.28206,-1.8973 -9.25841,11.35234 -0.4029,12.58512 7.86608,-5.7148 16.80476,-7.22376 23.15373,-14.947 11.68261,-3.01276 -3.50465,12.2604 -6.64553,16.15382 -10.45915,1.89808 -8.84301,12.54959 0.89395,13.87371 3.80337,0.32383 5.60272,-6.41541 6.96259,1.37359 2.01642,1.99252 5.18591,1.96681 7.66629,1.04242 z m 10.24407,-7.64301 c -1.64609,1.04927 0.98001,5.02275 0,0 z m 1.94189,-5.47917 c -2.05333,0.63626 1.43308,4.76723 0,0 z m -49.1792,-9.14182 c -4.2476,-3.73885 -1.26135,1.66093 1.38937,1.80703 l -0.19714,-0.52099 z m 0.57503,-4.12901 c -2.69252,-4.02999 -2.35666,3.89339 0,0 z m 25.36383,-0.49426 c -4.63245,-4.10213 1.0877,5.13091 0,0 z m -30.75966,-8.23491 c -2.05333,0.63626 1.43308,4.76723 0,0 z m 82.05177,-3.53986 c -1.60265,2.01957 0.97734,5.6304 0,0 z m -21.02776,0.47085 c -10.65158,0.73953 5.50251,1.51309 0,0 z m -22.44068,-0.88493 c -4.44706,-0.73433 0.56499,1.8229 0,-4e-5 z m 2.41667,-4.04606 c -2.05333,0.63626 1.43308,4.76723 0,0 z m 38.74091,-0.81396 c -2.84627,-3.66817 0.94051,4.51306 0,0 z m -61.89767,-5.70687 c -1.7874,-2.17822 -13.70333,-12.18744 -8.74904,-3.94413 -0.99849,4.54229 16.48901,10.58416 8.74904,3.94413 z m 3.55259,0.87244 c -3.1192,-3.81623 -4.95254,-2.96236 0,0 z m 30,-2.18146 c -2.37376,-3.56948 -0.74197,4.53398 0,0 z m -13.116,-3.19098 c -1.26307,-4.86384 -2.69567,8.28677 0,0 z M 251.184,859.008 c -5.26123,-0.20049 -3.51965,8.92065 -0.35714,0.93373 z m 10.09193,2.09193 c -0.45111,-4.55617 -3.8068,5.21044 0,0 z m -35.66667,-1.7167 c -5.70304,-3.34212 -3.46661,1.65554 0,0 z m 33,-8.96164 c -4.72589,-5.31663 -6.46772,-4.72229 0,0 z m -41.01617,-5.6852 c -3.74991,-6.24578 0.70801,7.95903 0.67836,1.86305 z m 20.62034,1.30104 c -2.05333,0.63626 1.43308,4.76723 0,0 z"
         id="path2996"
         style="fill:#4e9a06" />
      <path
         d="m 225.13848,918.764 c -1.0361,-0.52521 -1.73743,-1.29059 -1.95715,-2.13587 -0.66692,-2.56571 -1.23913,-2.81216 -3.48008,-1.49887 -2.30371,1.35006 -4.31879,1.49069 -6.50372,0.45387 -2.63872,-1.25215 -4.10764,-3.18079 -4.35091,-5.71259 -0.18765,-1.95285 -0.0437,-2.47378 1.03916,-3.76069 0.73214,-0.8701 2.23455,-1.83856 3.59828,-2.31946 2.04431,-0.72091 2.90009,-1.49475 6.74661,-6.10062 4.69621,-5.62329 6.43307,-8.45101 6.19926,-10.09279 -0.11951,-0.83922 -0.50271,-1.04306 -2.18825,-1.16397 -1.90676,-0.13678 -2.2041,0.0122 -4.4474,2.22916 -2.68234,2.65075 -5.76241,4.61697 -12.63541,8.066 -2.55843,1.28388 -5.44957,2.86234 -6.42475,3.50768 -2.06094,1.36387 -3.70829,1.15733 -3.70829,-0.46493 0,-0.56323 1.15875,-2.56436 2.57499,-4.44695 3.1269,-4.15654 3.65831,-5.11026 3.3276,-5.97207 -0.33047,-0.86119 -2.96514,-0.83977 -4.49814,0.0366 -2.99527,1.71225 -6.78003,-0.14379 -7.32822,-3.59375 -0.22451,-1.41296 -0.0701,-1.92451 0.86212,-2.85677 0.62458,-0.62458 1.42021,-1.23047 1.76807,-1.34642 0.47657,-0.15886 0.29734,-0.78175 -0.72712,-2.52694 -1.80814,-3.08018 -1.89212,-6.97011 -0.21425,-9.9235 1.30898,-2.30408 1.6787,-2.44388 2.0934,-0.79158 0.46573,1.85559 3.8544,5.21245 6.54839,6.48692 1.95763,0.9261 8.95461,2.96068 16.52475,4.80504 0.96535,0.23519 1.00634,0.15121 0.60655,-1.24278 -0.23583,-0.82227 -0.94606,-2.37261 -1.57829,-3.4452 -1.8613,-3.1577 -12.40116,-13.05806 -15.77784,-14.82053 -2.47539,-1.29203 -3.067,-2.1566 -1.90227,-2.77994 1.28632,-0.68842 2.86108,-0.62754 5.21062,0.20142 2.62474,0.92607 4.68148,0.92049 4.68148,-0.0127 0,-0.3932 -0.75728,-2.16051 -1.68284,-3.92735 -1.88362,-3.59573 -1.90772,-4.54615 -0.14249,-5.61909 0.6697,-0.40705 1.74602,-1.11354 2.39181,-1.56998 0.6458,-0.45643 1.50201,-0.70407 1.9027,-0.55032 0.40068,0.15376 1.5145,1.7912 2.47514,3.63877 0.96065,1.84756 2.42671,4.3072 3.25792,5.46586 2.02717,2.82579 3.17465,5.16866 5.69988,11.63772 1.17002,2.99732 2.7478,6.68231 3.50619,8.18888 0.75839,1.50657 1.31243,2.78688 1.2312,2.84513 -0.0812,0.0582 -0.84041,0.38182 -1.68706,0.71905 -1.996,0.79503 -2.6943,2.03603 -1.7033,3.02704 0.40411,0.4041 1.20422,0.73473 1.77804,0.73473 1.22539,0 2.16685,0.81542 2.16685,1.87674 0,0.41426 0.31552,1.16212 0.70117,1.66193 0.68203,0.88394 0.73337,0.87041 1.88178,-0.49571 2.60164,-3.09486 3.60349,-3.97925 4.5077,-3.97925 1.411,0 0.84894,-0.95357 -1.70409,-2.89104 -2.81039,-2.13279 -3.0331,-2.53157 -3.86002,-6.91196 -0.36747,-1.94656 -1.6786,-7.22586 -2.91361,-11.73178 -2.9101,-10.61737 -3.10362,-11.83699 -2.21765,-13.9757 0.38898,-0.93898 0.96049,-2.3849 1.27003,-3.21315 0.69673,-1.86428 1.28094,-2.03948 5.32066,-1.59569 2.32492,0.25541 3.39856,0.59788 3.86222,1.23196 0.82907,1.13383 0.81764,4.8494 -0.0285,9.27184 -0.98493,5.1478 -0.35051,6.46929 2.27874,4.74654 1.58086,-1.03582 3.25473,-3.76097 4.2363,-6.89695 0.46597,-1.48869 1.00828,-2.80625 1.20512,-2.92791 0.19685,-0.12166 0.50621,0.67503 0.68747,1.77042 0.18126,1.09539 0.423,2.14957 0.5372,2.34263 0.1142,0.19306 1.03432,-0.31332 2.04471,-1.12529 3.17301,-2.5499 7.5073,-1.84256 9.20076,1.50154 0.53682,1.06007 0.42222,1.17318 -2.80889,2.77237 -6.83447,3.38265 -12.26725,8.20441 -16.68334,14.80701 l -2.42856,3.631 1.0685,0.57184 c 2.8208,1.50965 9.8784,-1.90705 17.60079,-8.52082 l 1.98963,-1.70399 0,1.60965 c 0,2.3949 0.9253,3.40592 2.77802,3.03538 0.83275,-0.16655 2.128,-0.73996 2.87832,-1.27423 1.42327,-1.01346 3.22406,-1.27366 4.97302,-0.71857 1.55694,0.49416 3.03197,3.20773 2.85901,5.25964 -0.1337,1.58603 -0.31887,1.79133 -2.16982,2.40573 -3.05743,1.01488 -2.9829,1.68923 0.5493,4.97021 3.87343,3.59795 4.16689,4.96376 1.06652,4.96376 -1.12549,0 -5.26063,-0.632 -9.18919,-1.40444 -10.83484,-2.13037 -16.56222,-1.83407 -15.72196,0.81336 0.49251,1.55177 3.28072,3.38023 10.71144,7.02439 7.64582,3.74965 12.03273,6.37612 12.03273,7.20407 0,0.39431 -1.26134,0.45402 -4.65453,0.22032 -5.99053,-0.4126 -6.10069,-0.26644 -4.1734,5.53706 0.76155,2.29318 1.32137,4.69747 1.24406,5.34286 -0.22798,1.90319 -6.04037,5.85929 -8.23207,5.60302 -2.57893,-0.30156 -3.68707,-3.26714 -5.01379,-13.41786 -0.82431,-6.30683 -1.30114,-8.1951 -2.60557,-10.31834 -0.82903,-1.34942 -1.07099,-1.49016 -1.60975,-0.93629 -0.34873,0.35851 -1.08821,2.02117 -1.64329,3.6948 -1.02384,3.08701 -2.46127,5.14962 -3.58878,5.14962 -0.87865,0 -0.77948,0.86715 0.51688,4.51959 0.62562,1.76266 1.88773,5.3115 2.8047,7.88631 2.41192,6.77262 2.19313,8.56678 -0.68281,5.59956 -0.88114,-0.90911 -2.03586,-1.6203 -2.63076,-1.6203 -1.40193,0 -2.88569,1.65277 -3.25605,3.62693 -0.46219,2.46368 -3.19929,3.1822 -6.24357,1.639 z"
         id="path3803"
         style="fill:#73d216;fill-opacity:1;stroke:none" />
    </g>
    <path
       d="M 41.83823,85.163116 C 34.881397,84.84784 33.000388,84.578232 29.521971,83.397832 21.982912,80.839457 15.471352,76.105067 14.573942,72.529503 c -0.602837,-2.401896 0.713111,-3.823988 6.099533,-6.591513 5.705422,-2.931429 7.458764,-4.094335 6.957526,-4.614584 -0.193292,-0.200627 -1.867533,0.466919 -3.720537,1.483437 -1.853004,1.016512 -4.821164,2.645897 -6.595911,3.620857 -1.774747,0.97496 -4.155147,1.921095 -5.289778,2.102534 -1.752293,0.2802 -2.3044963,0.126642 -3.6668269,-1.019684 C 7.4758238,66.76829 6.4760058,65.302558 6.1361309,64.253367 5.796256,63.204176 4.8736194,61.057169 4.0858267,59.482238 0.99901543,53.311176 -0.23530362,45.109108 0.76513265,37.41618 1.446447,32.177162 1.9454324,31.021789 5.9248101,25.469231 6.9215064,24.078507 7.7119295,22.355168 7.7119295,21.57282 c 0,-2.376735 2.1193675,-5.452126 6.6715195,-9.680971 4.515716,-4.1949964 6.631621,-5.4726112 13.59899,-8.2112719 5.747238,-2.2590645 10.05921,-3.15631495 15.210849,-3.16512769 7.729138,-0.013222 17.686864,3.22820229 25.455308,8.28617469 4.042828,2.6322509 4.845145,4.5767049 3.537738,8.5738649 -1.055293,3.226378 -1.051336,3.295297 0.152219,2.651174 1.570451,-0.840481 4.400727,-0.620272 5.758903,0.448071 1.935223,1.522245 3.818825,5.459393 5.533736,11.566737 2.730525,9.724262 1.912941,19.163449 -1.739256,20.080093 -0.890943,0.223612 -2.201588,-0.07925 -4.010323,-0.926695 -1.477766,-0.692376 -4.187892,-1.742417 -6.022501,-2.333424 -1.83461,-0.591007 -3.797514,-1.22355 -4.362009,-1.405651 -0.745087,-0.240358 -0.604451,0.03125 0.513178,0.991107 0.846743,0.727209 2.694181,1.697321 4.105419,2.155804 6.034516,1.960495 10.520138,5.642245 10.520138,8.634819 0,1.494609 -2.285359,4.070093 -4.13155,4.656049 -0.550122,0.174603 -1.000224,0.673699 -1.000224,1.109105 0,3.18558 -8.014272,12.605491 -12.255058,14.404506 -3.191337,1.353819 -5.097715,1.632895 -5.753843,0.842314 -0.966216,-1.16422 -2.437003,-0.818354 -3.256152,0.765707 -1.490308,2.881938 -3.380926,4.684674 -4.82432,4.600072 -0.751091,-0.04403 -5.060499,-0.247501 -9.576461,-0.452161 z m 1.282944,-1.007326 c 0.556009,-0.359322 0.08446,-0.499645 -1.698113,-0.505321 -1.516322,-0.0048 -2.345589,0.190014 -2.150718,0.505321 0.403313,0.652577 2.839044,0.652577 3.848831,0 z m 1.039528,-2.565888 c 0.206509,-0.423371 0.746149,-1.635753 1.199202,-2.694181 0.687401,-1.605922 1.075577,-1.924416 2.345448,-1.924416 1.140315,0 1.870225,0.456913 2.91218,1.822991 1.024169,1.34275 1.502137,1.646925 1.81438,1.15465 0.898045,-1.415842 0.347488,-4.259471 -2.126254,-10.982096 -2.70087,-7.339879 -3.028218,-8.930401 -1.837975,-8.930401 0.938299,0 2.503366,-2.612591 3.612163,-6.029835 0.480801,-1.4818 1.058116,-2.694182 1.282923,-2.694182 0.957472,0 2.581658,5.353385 3.353071,11.051857 1.121134,8.281883 2.143322,11.832507 3.776227,13.116954 1.601031,1.259368 2.918435,1.015835 6.491859,-1.200091 4.423261,-2.742928 4.635008,-3.542633 2.556296,-9.654305 -0.710895,-2.090115 -1.173334,-4.110849 -1.027638,-4.490518 0.208961,-0.544548 1.226058,-0.61512 4.816863,-0.334217 8.358265,0.653855 6.650554,-1.536336 -6.061118,-7.773561 -10.323252,-5.065306 -13.598141,-7.625818 -11.019157,-8.615465 1.751028,-0.671934 7.957525,-0.24785 14.070407,0.961417 3.528095,0.697937 7.742565,1.274377 9.365489,1.280977 2.796755,0.01137 2.95077,-0.05397 2.95077,-1.251891 0,-1.172646 -3.683834,-5.407416 -4.703918,-5.407416 -0.215462,0 -0.640984,-0.465702 -0.945601,-1.034893 -0.494991,-0.92489 -0.305992,-1.141143 1.778062,-2.034473 2.147622,-0.920578 2.331925,-1.144991 2.331925,-2.839422 0,-1.011913 -0.348786,-2.514318 -0.775078,-3.338678 -1.540702,-2.979392 -4.217051,-3.406943 -8.117851,-1.29684 -3.430694,1.855799 -4.449685,1.571224 -4.449685,-1.242669 0,-2.590471 -0.564172,-2.610357 -3.559214,-0.12546 -4.035669,3.348272 -7.481814,5.685997 -10.350646,7.021454 -2.762803,1.286104 -5.797853,1.696186 -6.318519,0.85373 -0.307615,-0.497732 2.80952,-5.116157 6.034255,-8.940501 2.794631,-3.314268 7.425267,-6.769262 12.01312,-8.963188 2.046295,-0.978546 3.720536,-2.006566 3.720536,-2.28449 0,-1.049911 -1.756698,-3.420355 -2.931433,-3.955601 -2.072016,-0.944073 -4.9836,-0.660451 -6.955207,0.67752 l -1.81903,1.234426 -0.569273,-2.260781 c -0.3131,-1.2434298 -0.790226,-2.2607811 -1.060286,-2.2607811 -0.27006,0 -0.969839,1.5764016 -1.555056,3.5031151 -1.184834,3.900806 -3.608961,7.273612 -5.227737,7.273612 -0.963905,0 -1.026883,-0.212023 -0.724049,-2.437593 0.76892,-5.650894 0.94462,-10.7548702 0.404941,-11.7632699 -0.796085,-1.4874982 -7.99398,-2.1443852 -9.414155,-0.859145 -0.516649,0.467561 -0.949042,1.218447 -0.960872,1.6686355 -0.01183,0.450188 -0.44224,1.6084018 -0.956465,2.5738072 -0.901238,1.6919856 -0.901936,1.9048032 -0.01936,5.9015412 0.503578,2.280442 1.71108,7.032881 2.683336,10.560976 0.972256,3.528095 2.070749,8.110978 2.441097,10.184184 0.645335,3.61259 0.786741,3.867354 3.397758,6.121542 l 2.724399,2.352075 -1.404093,0.692208 c -0.77225,0.380714 -2.063959,1.623239 -2.870462,2.761167 -1.596743,2.252908 -1.848944,2.233193 -2.682206,-0.209671 -0.385075,-1.128921 -0.937981,-1.685626 -1.796121,-1.808462 -1.360419,-0.194733 -2.522731,-0.973281 -2.522731,-1.689793 0,-0.252255 0.865987,-0.852187 1.924415,-1.333184 1.058429,-0.480997 2.02322,-0.941704 2.143981,-1.023794 0.12076,-0.08209 -0.290213,-1.05628 -0.913275,-2.164869 -0.623062,-1.108589 -2.498279,-5.41464 -4.16715,-9.569002 C 34.795319,24.785245 32.5506,20.118242 31.475924,18.568489 30.401249,17.018736 28.713714,14.242675 27.725847,12.399464 25.663429,8.5513008 24.580912,7.6344138 23.235545,8.5961982 22.741611,8.9493043 21.589303,9.6248347 20.67486,10.097377 c -2.435864,1.258743 -2.508376,2.288297 -0.464313,6.592513 0.99495,2.095081 1.620371,3.925817 1.389826,4.068302 -0.230546,0.142485 -1.614846,-0.09601 -3.076224,-0.529996 -1.461378,-0.433982 -3.625978,-0.718661 -4.810221,-0.632618 -1.750866,0.127211 -2.153171,0.346226 -2.153171,1.172189 0,0.602024 0.697341,1.438112 1.712067,2.05271 5.304332,3.212719 15.744494,13.251885 17.227503,16.565811 0.538097,1.20243 0.884492,2.277581 0.769766,2.389225 C 31.15537,41.887157 27.6109,41.072478 23.393495,39.965116 13.316036,37.319081 10.331866,35.549157 8.4815802,31.120801 7.7652081,29.40628 7.5592649,29.246575 6.8362276,29.84486 c -1.3113768,1.085114 -2.6929834,4.600498 -2.7052699,6.883337 -0.00658,1.22216 0.5104217,3.124505 1.2417119,4.568988 l 1.2529818,2.474956 -1.5750212,1.47129 c -1.3753634,1.284782 -1.5364575,1.713916 -1.2708048,3.385263 0.6055087,3.809542 4.7416149,5.850792 8.0375236,3.966682 1.460912,-0.835135 3.394421,-0.991839 3.816254,-0.309297 0.156522,0.253253 -0.522847,1.5811 -1.509706,2.95077 -4.5716228,6.344972 -5.0577568,7.48807 -3.743445,8.802384 0.945668,0.945668 1.585598,0.773513 5.13086,-1.380309 1.807127,-1.097866 5.352408,-3.034413 7.878405,-4.303439 4.796548,-2.409712 9.557389,-5.696593 10.780522,-7.442861 0.903741,-1.29027 3.018683,-1.842771 4.342331,-1.134376 0.956569,0.51194 0.970356,0.650902 0.238382,2.402763 -1.779324,4.258521 -9.313467,12.64968 -12.656337,14.09601 -2.963792,1.282317 -3.980018,2.36797 -4.539792,4.849927 -0.892028,3.955146 2.308538,7.670304 7.096381,8.237355 2.148514,0.254459 2.846192,0.115106 4.180515,-0.835017 1.288394,-0.917417 1.748616,-1.018452 2.353292,-0.516615 0.413423,0.34311 0.751679,1.165513 0.751679,1.827558 0,0.78239 0.493961,1.476078 1.411238,1.98184 1.809487,0.997709 6.287308,0.845111 6.812774,-0.232167 l 0,0 z m 10.755697,-5.260069 c -0.0041,-0.352809 -0.206385,-0.954787 -0.44903,-1.33773 -0.569884,-0.89939 -1.20023,0.04932 -0.77282,1.163127 0.371479,0.968053 1.233078,1.091179 1.22185,0.174603 z m 2.060566,-5.474685 c 0,-0.887956 -0.622905,-2.094682 -1.081259,-2.094682 -0.531796,0 -0.621551,1.718375 -0.116153,2.223767 0.495401,0.495406 1.197412,0.419723 1.197412,-0.129085 z M 8.1253843,60.580648 C 7.4429311,59.487862 5.3016587,58.170243 4.885131,58.586769 c -0.4284288,0.428426 2.1957658,2.989212 3.0632322,2.989212 0.6618604,0 0.6921743,-0.170446 0.1770211,-0.995333 z M 7.4553408,55.638703 c 0,-0.537107 -0.4041273,-1.05439 -0.8980606,-1.149512 -0.9031523,-0.173932 -1.3001535,1.381863 -0.545251,2.136768 0.6062802,0.606278 1.4433116,0.03372 1.4433116,-0.987256 l 0,0 z m 25.9154612,0.394962 c 0,-0.951836 -0.916958,-2.155345 -1.642167,-2.155345 -0.633242,0 -0.485539,1.772443 0.20527,2.463251 0.880181,0.880182 1.436897,0.760883 1.436897,-0.307906 z M 2.5801549,47.976779 c 0,-0.705619 -0.2309298,-1.282944 -0.5131774,-1.282944 -0.5733053,0 -0.7034141,1.691414 -0.1710591,2.223769 0.5656965,0.565697 0.6842365,0.402704 0.6842365,-0.940825 z M 84.688548,44.867428 c 0,-1.086927 -0.207775,-1.697994 -0.513177,-1.509246 -0.850772,0.525805 -0.562581,3.335653 0.34212,3.335653 0.09408,0 0.171057,-0.821883 0.171057,-1.826407 z m -20.270509,-0.73948 c -0.40403,-0.653731 -3.350433,-0.653731 -4.362009,0 -0.550475,0.355743 0.0064,0.4997 1.954703,0.505319 1.687405,0.0049 2.60374,-0.187482 2.407306,-0.505319 z M 41.068464,43.101593 c 0,-0.282248 -0.461859,-0.513177 -1.026355,-0.513177 -0.564495,0 -1.026355,0.230929 -1.026355,0.513177 0,0.282248 0.46186,0.513177 1.026355,0.513177 0.564496,0 1.026355,-0.230929 1.026355,-0.513177 z m 2.565888,-3.079065 c 0,-0.564495 -0.23093,-1.026355 -0.513178,-1.026355 -0.282248,0 -0.513177,0.46186 -0.513177,1.026355 0,0.564495 0.230929,1.026355 0.513177,1.026355 0.282248,0 0.513178,-0.46186 0.513178,-1.026355 z m 38.031812,-2.714479 c -0.82755,-0.827549 -1.031564,-0.272514 -0.431875,1.174947 0.460351,1.111142 0.561868,1.155383 0.758076,0.330373 0.1246,-0.523913 -0.02217,-1.201308 -0.326201,-1.50532 l 0,0 z M 22.080898,34.693004 c 0,-0.839214 -5.877822,-6.447069 -8.748875,-8.347042 -1.107873,-0.733155 -2.360006,-1.187929 -2.802852,-1.017993 -0.7218168,0.276987 -0.7230654,0.456746 -0.01271,1.830419 0.433241,0.837797 0.787712,1.868091 0.787712,2.289541 0,0.421452 0.880626,1.505605 1.956947,2.409231 3.259138,2.736211 8.819779,4.524137 8.819779,2.835844 z m 0.772614,-2.878169 c -0.512428,-0.566225 -1.300022,-1.021196 -1.750211,-1.011046 -0.565552,0.01275 -0.348917,0.402238 0.700954,1.260234 1.750837,1.430855 2.424819,1.270792 1.049257,-0.249188 z m 30.818236,-0.05239 c 0.19118,-0.309333 -0.02612,-0.936142 -0.482894,-1.39291 -0.765194,-0.765199 -0.830486,-0.720984 -0.830486,0.562422 0,1.417237 0.683599,1.849495 1.31338,0.830488 z m -13.116461,-3.89767 c 0,-0.651672 -0.206223,-1.18486 -0.458273,-1.18486 -0.615484,0 -1.084887,1.319141 -1.064939,2.992742 0.01567,1.314787 0.0463,1.329633 0.769766,0.373123 0.414396,-0.547879 0.753446,-1.529331 0.753446,-2.181005 z M 63.379414,23.98159 c 1.136328,-2.083411 0.879714,-2.79648 -0.701786,-1.950088 -1.333168,0.71349 -2.278816,2.437814 -1.891079,3.448245 0.446618,1.16387 1.460451,0.578078 2.592865,-1.498157 z m 10.429772,1.056158 c 0.736358,-0.736356 0.820966,-2.463252 0.120689,-2.463252 -0.539734,0 -1.557586,1.65471 -1.557586,2.53215 0,0.726109 0.674218,0.693781 1.436897,-0.0689 z M 38.502577,22.116222 c 0,-0.5559 -1.2671,-1.08126 -2.607859,-1.08126 -0.986026,0 -1.284052,0.555627 -0.642265,1.197414 0.510991,0.510991 3.250124,0.413098 3.250124,-0.116154 z m 31.77816,-10.622164 c -1.226628,-1.311383 -3.040222,-2.5340709 -3.040222,-2.049655 0,0.4353726 3.316055,3.374873 3.809988,3.377346 0.260889,0.0013 -0.08551,-0.596155 -0.769766,-1.327691 z M 30.457865,7.0849501 29.536042,5.3830499 29.369914,6.7602145 c -0.09137,0.7574407 0.248692,2.1430198 0.755696,3.0790647 l 0.921824,1.7018998 0.166127,-1.377164 c 0.09137,-0.7574408 -0.248692,-2.14302 -0.755696,-3.0790649 l 0,0 z m 21.387326,3.2035719 c 0,-1.1222981 -0.801609,-1.8354593 -1.249151,-1.1113223 -0.374964,0.6067082 0.188223,2.1073913 0.790878,2.1073913 0.252047,0 0.458273,-0.448231 0.458273,-0.996069 z"
       transform="translate(186.92404,837.16112)"
       id="path4198"
       style="fill:#4e9a06;fill-opacity:1;stroke:none" />
    <path
       d="m 266.1233,843.21281 c -73.27165,74.82809 -73.27165,74.93004 -73.27165,74.93004 m 0,-74.69476 c 73.57071,74.42031 73.57071,74.42031 73.57071,74.42031"
       id="path3009"
       style="fill:none;stroke:#ff0000;stroke-width:5.38107061;stroke-linecap:round;stroke-linejoin:miter;stroke-miterlimit:3;stroke-opacity:1;stroke-dasharray:none;stroke-dashoffset:0" />
  </g>
</svg>
