<?xml version="1.0" encoding="UTF-8" standalone="no"?>
<!-- Created with Inkscape (http://www.inkscape.org/) -->

<svg
   xmlns:osb="http://www.openswatchbook.org/uri/2009/osb"
   xmlns:dc="http://purl.org/dc/elements/1.1/"
   xmlns:cc="http://creativecommons.org/ns#"
   xmlns:rdf="http://www.w3.org/1999/02/22-rdf-syntax-ns#"
   xmlns:svg="http://www.w3.org/2000/svg"
   xmlns="http://www.w3.org/2000/svg"
   xmlns:sodipodi="http://sodipodi.sourceforge.net/DTD/sodipodi-0.dtd"
   xmlns:inkscape="http://www.inkscape.org/namespaces/inkscape"
   width="600"
   height="600"
   id="svg3294"
   version="1.1"
   inkscape:version="0.48.2 r9819"
   sodipodi:docname="base.svg">
  <defs
     id="defs3296">
    <linearGradient
       id="linearGradient4119"
       osb:paint="solid">
      <stop
         style="stop-color:#000000;stop-opacity:1;"
         offset="0"
         id="stop4121" />
    </linearGradient>
    <linearGradient
       id="linearGradient4113">
      <stop
         id="stop4115"
         offset="0"
         style="stop-color:#000000;stop-opacity:1;" />
      <stop
         id="stop4117"
         offset="1"
         style="stop-color:#00ff00;stop-opacity:0.39873418;" />
    </linearGradient>
  </defs>
  <sodipodi:namedview
     id="base"
     pagecolor="#e4e4e4"
     bordercolor="#666666"
     borderopacity="1.0"
     inkscape:pageopacity="1"
     inkscape:pageshadow="2"
     inkscape:zoom="1.2869343"
     inkscape:cx="229.56054"
     inkscape:cy="313.76856"
     inkscape:document-units="px"
     inkscape:current-layer="layer2"
     showgrid="true"
     objecttolerance="20"
     showguides="true"
     inkscape:guide-bbox="true"
     inkscape:window-width="1680"
     inkscape:window-height="964"
     inkscape:window-x="0"
     inkscape:window-y="30"
     inkscape:window-maximized="1">
    <inkscape:grid
       type="xygrid"
       id="grid3302"
       empspacing="1"
       visible="true"
       enabled="true"
       snapvisiblegridlinesonly="true"
       dotted="false" />
    <sodipodi:guide
       orientation="0,1"
       position="140,300"
       id="guide3304" />
    <sodipodi:guide
       orientation="1,0"
       position="300,580"
       id="guide3306" />
  </sodipodi:namedview>
  <metadata
     id="metadata3299">
    <rdf:RDF>
      <cc:Work
         rdf:about="">
        <dc:format>image/svg+xml</dc:format>
        <dc:type
           rdf:resource="http://purl.org/dc/dcmitype/StillImage" />
        <dc:title></dc:title>
      </cc:Work>
    </rdf:RDF>
  </metadata>
  <g
     inkscape:label="fond"
     inkscape:groupmode="layer"
     id="layer1"
     transform="translate(0,-452.36218)"
     sodipodi:insensitive="true"
     style="display:inline">
    <rect
       style="fill:#ffffff;fill-opacity:1;stroke:#000000;stroke-width:9.66666603;stroke-linejoin:round;stroke-miterlimit:4;stroke-opacity:1;stroke-dasharray:none"
       id="rect3327"
       width="580"
       height="580"
       x="10"
       y="462.36218"
       rx="154.66666"
       ry="154.66666" />
  </g>
  <g
     inkscape:groupmode="layer"
     id="layer2"
     inkscape:label="ajout"
     style="opacity:1">
    <g
       style="overflow:visible"
       id="g6624"
       transform="matrix(1.4033999,0,0,1.3145608,27.666999,118.26773)">
      <g
         id="bath_2_">
	<path
   id="path6602"
   d="m 16.103,100.927 c 0,0 -6.243,0.688 -5.538,-8.324 0.082,-1.131 3.228,-8.889 13.157,-9.708 69.605,-5.776 284.287,-5.546 348.762,0.197 9.176,0.819 9.013,9.512 8.324,12.289 -1.852,7.422 -6.243,5.735 -6.243,5.735 0,0 52.695,127.388 -178.19,125.307 C -74.099,223.989 16.103,100.927 16.103,100.927 z"
   inkscape:connector-curvature="0"
   style="fill:#eeeeee;stroke:#000000;stroke-width:3.32419990999999992" />

	<path
   id="path6604"
   d="m 25.115,100.927 c 0,0 51.302,-6.251 126.184,-8.324 74.897,-2.081 203.162,5.538 212.174,6.931"
   inkscape:connector-curvature="0"
   style="fill:#eeeeee;stroke:#000000;stroke-width:3.32419990999999992" />

	<path
   id="path6606"
   d="m 61.162,198.002 c 0,0 18.729,21.497 8.324,27.036 -10.404,5.546 -20.104,0.688 -20.809,-2.081 -0.688,-2.77 -6.227,-4.154 -9.7,-2.081 -3.458,2.081 -2.081,14.566 6.931,14.566 9.028,0 25.659,1.385 27.74,0 2.081,-1.393 5.538,-22.882 14.566,-27.044 9.012,-4.162 -3.474,-7.619 -6.243,-6.932 -2.769,0.688 -4.162,-9.716 -9.012,-8.323 -4.867,1.385 -6.948,-4.851 -11.093,-2.081 -4.178,2.778 -0.704,6.94 -0.704,6.94 z"
   inkscape:connector-curvature="0"
   style="fill:#c0c0c0;stroke:#000000;stroke-width:3.32419990999999992" />

	<path
   id="path6608"
   d="m 323.803,200.279 c 0,0 -18.729,21.498 -8.323,27.036 10.388,5.546 20.104,0.688 20.793,-2.081 0.704,-2.77 6.242,-4.154 9.716,-2.081 3.458,2.081 2.081,14.566 -6.931,14.566 -9.028,0 -25.659,1.393 -27.74,0 -2.081,-1.393 -5.538,-22.882 -14.566,-27.044 -9.013,-4.162 3.474,-7.619 6.242,-6.931 2.77,0.688 4.162,-9.717 9.012,-8.324 4.851,1.393 6.932,-4.85 11.094,-2.081 4.16,2.778 0.703,6.94 0.703,6.94 z"
   inkscape:connector-curvature="0"
   style="fill:#c0c0c0;stroke:#000000;stroke-width:3.32419990999999992" />

	<path
   id="path6610"
   d="m 360.999,31.354 2.097,-19.179 6.227,10.741 -3.113,25.315 c -0.002,0 0.343,-6.136 -5.211,-16.877 z"
   inkscape:connector-curvature="0"
   style="fill:#c0c0c0;stroke:#000000;stroke-width:2.47239994999999979" />

	<polygon
   id="polygon6612"
   points="382.512,14.117 382.807,20.352 349.512,22.851 349.217,16.616 "
   style="fill:#c0c0c0;stroke:#000000;stroke-width:2.95160007000000002" />

	<polygon
   id="polygon6614"
   points="381.365,29.347 378.219,34.148 352.543,7.169 355.673,2.369 "
   style="fill:#c0c0c0;stroke:#000000;stroke-width:2.95160007000000002" />

	<path
   id="path6616"
   d="m 365.471,81.805 c 0,0 9.094,-30.108 2.163,-37.039 -6.931,-6.939 -7.636,-20.711 -22.874,-17.237 -15.255,3.466 -12.485,13.764 -12.485,16.541 0,2.777 13.861,5.546 15.942,5.546 2.081,0 -0.312,-11.199 -0.312,-11.199 0,0 10.717,4.269 8.636,7.038 -2.081,2.777 -7.603,35.163 -7.603,35.163 l 16.533,1.187 z"
   inkscape:connector-curvature="0"
   style="fill:#c0c0c0;stroke:#000000;stroke-width:3.32419990999999992" />

</g>
    </g>
  </g>
</svg>
