<?xml version="1.0" encoding="UTF-8" standalone="no"?>
<!-- Created with Inkscape (http://www.inkscape.org/) -->

<svg
   xmlns:dc="http://purl.org/dc/elements/1.1/"
   xmlns:cc="http://creativecommons.org/ns#"
   xmlns:rdf="http://www.w3.org/1999/02/22-rdf-syntax-ns#"
   xmlns:svg="http://www.w3.org/2000/svg"
   xmlns="http://www.w3.org/2000/svg"
   xmlns:sodipodi="http://sodipodi.sourceforge.net/DTD/sodipodi-0.dtd"
   xmlns:inkscape="http://www.inkscape.org/namespaces/inkscape"
   version="1.1"
   width="600"
   height="600"
   id="svg2"
   inkscape:version="0.48.2 r9819"
   sodipodi:docname="aerateur_membrane.svg">
  <sodipodi:namedview
     pagecolor="#ffffff"
     bordercolor="#666666"
     borderopacity="1"
     objecttolerance="10"
     gridtolerance="10"
     guidetolerance="10"
     inkscape:pageopacity="0"
     inkscape:pageshadow="2"
     inkscape:window-width="1680"
     inkscape:window-height="964"
     id="namedview4283"
     showgrid="false"
     inkscape:zoom="0.44166667"
     inkscape:cx="300"
     inkscape:cy="300"
     inkscape:window-x="0"
     inkscape:window-y="30"
     inkscape:window-maximized="1"
     inkscape:current-layer="svg2" />
  <defs
     id="defs4" />
  <metadata
     id="metadata7">
    <rdf:RDF>
      <cc:Work
         rdf:about="">
        <dc:format>image/svg+xml</dc:format>
        <dc:type
           rdf:resource="http://purl.org/dc/dcmitype/StillImage" />
        <dc:title />
      </cc:Work>
    </rdf:RDF>
  </metadata>
  <g
     transform="translate(0,-452.36218)"
     id="layer1">
    <rect
       width="400"
       height="580"
       rx="282.35294"
       ry="71.228073"
       x="100.44202"
       y="463.29913"
       id="rect4002"
       style="fill:none;stroke:#000000;stroke-width:10;stroke-linecap:round;stroke-linejoin:round;stroke-miterlimit:3;stroke-opacity:1;stroke-dasharray:none;stroke-dashoffset:0" />
    <path
       d="m 240,65 a 195,75 0 1 1 -390,0 195,75 0 1 1 390,0 z"
       transform="matrix(1.025641,0,0,0.8,254.28817,471.29913)"
       id="path4004"
       style="fill:#ffffff;fill-opacity:1;stroke:#000000;stroke-width:11.03970146;stroke-linecap:round;stroke-linejoin:round;stroke-miterlimit:3;stroke-opacity:1;stroke-dasharray:none;stroke-dashoffset:0" />
    <path
       d="m 360.44202,673.29913 c 1.71828,28.38495 0.18459,53.51792 0,80 m -120,-80 0,80 m 200,-100 0,130.80107 m -280,-130.80107 0.80107,130 139.19893,-50 140,50 m 0,0 c -36.19288,10.85786 -86.19288,17.57359 -141.42136,17.57359 -55.22848,0 -101.5847,-6.71573 -137.77758,-17.57359 m 339.19894,-170 c 0,33.13709 -89.54304,60 -199.99999,60 -110.45695,0 -200,-26.86291 -200,-60"
       id="path4529"
       style="fill:none;stroke:#000000;stroke-width:10;stroke-linecap:butt;stroke-linejoin:miter;stroke-miterlimit:4;stroke-opacity:1;stroke-dasharray:none" />
    <path
       d="m 277.85262,667.58224 c -37.38697,-1.85526 -63.48038,-4.85876 -89.71963,-10.32721 -37.90994,-7.90072 -64.36894,-18.99248 -76.37399,-32.01643 -5.91224,-6.41401 -5.73549,-5.04101 -5.73549,-44.55423 l 0,-35.34732 3.80508,3.10672 c 23.84978,19.47261 76.19798,33.39283 145.99466,38.82232 17.43505,1.35628 71.72024,1.36056 88.91856,0.007 72.08057,-5.67287 121.09707,-18.95297 148.39787,-40.20555 l 2.20293,-1.7149 -0.004,33.91194 c -0.003,22.11425 -0.31021,35.02668 -0.88333,37.11622 -6.34082,23.11815 -66.74083,43.6082 -146.50873,49.70152 -15.01807,1.1472 -58.46576,2.07695 -70.09346,1.49995 z"
       id="path4544"
       style="fill:#ffffff;fill-opacity:1;stroke:#000000;stroke-width:8.01068115;stroke-linecap:round;stroke-linejoin:round;stroke-miterlimit:4;stroke-opacity:1;stroke-dasharray:none;stroke-dashoffset:0" />
    <path
       d="m 276.67566,1037.2755 c -83.05528,-3.4838 -152.09531,-25.8817 -167.84841,-54.45323 l -2.4032,-4.35872 -0.20871,-130.97463 c -0.1148,-72.03605 -0.1148,-149.1211 0,-171.3001 l 0.20871,-40.32546 3.20427,2.56371 c 9.35756,7.4869 24.19903,14.85683 40.92604,20.32291 l 4.0769,1.33226 0.52924,24.1409 c 0.29108,13.2775 0.52923,42.64694 0.52923,65.26542 0,24.97322 0.29414,41.12452 0.74892,41.12452 0.41191,0 1.68672,-0.35655 2.83292,-0.79234 1.62729,-0.61869 4.40376,-0.18563 12.66898,1.97603 36.95634,9.66545 77.0611,14.11633 127.14038,14.11021 40.86748,-0.005 71.82106,-2.52475 104.93992,-8.54261 9.99835,-1.81675 36.43529,-8.00311 37.79693,-8.84465 0.32622,-0.2016 0.25533,-1.255 -0.15751,-2.34087 -0.69355,-1.82418 -0.56939,-1.97432 1.63274,-1.97432 l 2.38338,0 0,-61.98541 0,-61.98543 8.61148,-2.95158 c 14.78486,-5.0675 29.80666,-12.85693 38.06162,-19.73652 l 3.01487,-2.51257 -0.21113,170.91419 -0.21115,170.91421 -2.34183,4.8064 c -2.73083,5.60481 -11.28464,14.51658 -18.41541,19.18598 -31.74114,20.7852 -85.77859,33.6948 -152.67401,36.4741 -20.654,0.8581 -23.19878,0.8551 -44.83517,-0.052 l 0,0 z"
       id="path4546"
       style="fill:#ffffff;fill-opacity:1;stroke:#000000;stroke-width:8.01068115;stroke-linecap:round;stroke-linejoin:round;stroke-miterlimit:4;stroke-opacity:1;stroke-dasharray:none;stroke-dashoffset:0" />
    <path
       d="m 264.67623,794.61035 c -15.10215,-0.89588 -34.59127,-2.88014 -48.10532,-4.89779 -13.13972,-1.96176 -34.62364,-6.20369 -35.43883,-6.99727 -0.3258,-0.31717 25.44856,-9.91607 57.27637,-21.33089 31.82781,-11.41482 58.80407,-21.10135 59.94726,-21.52561 1.76017,-0.65325 11.30231,2.52172 62.29977,20.72907 33.12167,11.82526 59.94335,21.76758 59.60371,22.09406 -1.32601,1.27462 -30.11786,6.37544 -49.08213,8.69549 -26.25387,3.21183 -79.57237,4.83037 -106.50083,3.23294 l 0,0 z"
       id="path4548"
       style="fill:#ffffff;fill-opacity:1;stroke:none" />
    <path
       d="m 246.21043,711.48025 0,-35.07408 7.81042,0.77171 c 10.05098,0.99308 83.10604,0.99147 93.25009,-0.002 l 7.73608,-0.75769 0.58205,11.63686 c 0.53005,10.59715 -0.17581,57.68581 -0.87541,58.40082 -0.16254,0.16612 -12.4288,-4.03512 -27.25835,-9.33608 l -26.96283,-9.63811 -26.52392,9.53635 c -14.58815,5.245 -26.80162,9.53635 -27.14102,9.53635 -0.33941,0 -0.61711,-15.78333 -0.61711,-35.07408 z"
       id="path4550"
       style="fill:#ffffff;fill-opacity:1;stroke:none" />
  </g>
  <path
     style="fill:#ff80e5;fill-opacity:1;stroke:none"
     d="M 248.60377,207.64183 C 185.0357,201.91624 139.93128,189.37988 118.73786,171.54679 l -7.11522,-5.98706 0,-30.21745 0,-30.21744 16.4151,7.5144 c 26.38256,12.07726 54.83773,18.79888 105.78145,24.98749 84.58009,10.27472 204.17087,-3.44894 246.2126,-28.25417 4.2343,-2.4983 8.14995,-4.54237 8.7014,-4.54237 0.55146,0 1.00266,13.10788 1.00266,29.12862 0,34.97772 -1.10156,37.07674 -25.62838,48.83487 -30.84004,14.78469 -77.22355,23.84615 -129.46596,25.29244 -19.92453,0.55159 -40.81132,1.27378 -46.41509,1.60486 -5.60378,0.33108 -23.43397,-0.59104 -39.62265,-2.04915 z"
     id="path4285"
     inkscape:connector-curvature="0" />
  <path
     style="fill:#ff80e5;fill-opacity:1;stroke:none"
     d="M 253.13208,122.70497 C 186.44614,117.7131 128.95733,101.03148 112.97255,82.034649 c -7.39918,-8.793423 -7.39918,-13.540026 0,-22.333449 23.45748,-27.877624 131.66319,-47.571586 225.45958,-41.034732 81.86221,5.705136 140.85459,23.402256 153.52675,46.056469 3.0737,5.494877 3.0737,6.795098 0,12.289975 -18.0736,32.310478 -130.42949,53.806268 -238.8268,45.692058 z"
     id="path4287"
     inkscape:connector-curvature="0" />
  <path
     style="fill:#ff80e5;fill-opacity:1;stroke:none"
     d="M 249.21115,577.78304 C 189.78255,572.051 134.83522,553.20143 117.50006,532.59974 l -5.87742,-6.98491 0,-165.1093 c 0,-90.81012 0.79216,-165.1093 1.76036,-165.1093 0.9682,0 3.77009,1.35092 6.22642,3.00205 2.45633,1.65112 10.32454,5.3355 17.48492,8.18749 l 13.01887,5.18544 0,58.32194 c 0,67.94303 0.52796,72.47289 8.44676,72.47289 3.08912,0 11.36742,1.47818 18.39623,3.28484 34.9111,8.97345 59.41633,11.25523 121.45889,11.30951 62.51833,0.0547 76.2226,-1.12559 120.79846,-10.40378 16.13599,-3.3586 24.77859,-6.31571 27.73585,-9.48996 3.9936,-4.28662 4.29745,-8.84273 4.31809,-64.75018 l 0.0222,-60.13911 19.22307,-9.0994 19.22307,-9.0994 0,165.95144 0,165.95143 -9.62264,9.56307 c -16.47487,16.37284 -48.95731,29.39934 -91.13208,36.54688 -45.95413,7.78805 -96.16993,9.79698 -139.76998,5.59166 z"
     id="path4289"
     inkscape:connector-curvature="0" />
  <path
     style="fill:#ff80e5;fill-opacity:1;stroke:none"
     d="m 246.33962,340.24622 c -23.9242,-2.39853 -62.98383,-9.03597 -61.55901,-10.46079 1.50351,-1.50352 112.74181,-41.55901 115.41372,-41.55901 2.6791,0 109.81282,38.03847 114.59049,40.68604 3.23837,1.79457 -11.23488,4.86879 -43.26456,9.18972 -23.78875,3.20919 -101.31221,4.53698 -125.18064,2.14404 z"
     id="path4291"
     inkscape:connector-curvature="0" />
  <path
     style="fill:#ff80e5;fill-opacity:1;stroke:none"
     d="m 167.43222,296.39615 c -0.79715,-13.83298 -1.454,-38.71953 -1.45966,-55.30344 -0.01,-28.36722 0.23904,-30.07344 4.20068,-28.81607 9.0201,2.86287 36.09198,8.01254 49.56261,9.42789 l 14.15094,1.48684 0,37.74573 0,37.74573 -10.75471,3.54791 c -5.9151,1.95134 -20.54127,7.09578 -32.50261,11.43208 l -21.7479,7.88419 -1.44935,-25.15086 z"
     id="path4293"
     inkscape:connector-curvature="0" />
  <path
     style="fill:#ddafe9;fill-opacity:1;stroke:none"
     d="m 399.73585,310.03574 -32.26415,-11.61448 0,-37.61494 0,-37.61495 14.15094,-1.48684 c 13.47063,-1.41535 40.54251,-6.56502 49.56261,-9.42789 4.0272,-1.27818 4.21098,1.09108 4.21098,54.28776 0,30.59336 -0.76415,55.50313 -1.69812,55.35505 -0.93396,-0.14808 -16.21698,-5.49575 -33.96226,-11.88371 z"
     id="path4295"
     inkscape:connector-curvature="0" />
  <path
     style="fill:#ddafe9;fill-opacity:1;stroke:none"
     d="M 237.89236,575.64025 C 183.5255,568.14559 137.3118,551.18568 118.64271,531.87691 l -7.69692,-7.96062 1.66222,-162.56192 c 0.91423,-89.40906 1.92389,-162.82495 2.24371,-163.14644 0.31981,-0.32149 8.38448,3.02069 17.92148,7.42705 l 17.34001,8.01158 0.0347,61.62955 c 0.019,33.89625 0.80526,62.8415 1.74708,64.32277 2.67937,4.21401 55.03629,14.18255 88.78429,16.90416 34.27624,2.76421 121.32392,1.22817 146.03774,-2.57698 24.11454,-3.71288 54.45358,-11.24878 59.17655,-14.69885 3.88716,-2.8395 4.30889,-7.94452 5.35175,-64.78349 l 1.13208,-61.70109 18.67924,-8.56133 18.67925,-8.56133 0,164.727 0,164.727 -7.35849,7.01337 c -19.17261,18.27335 -50.95139,31.05507 -97.92453,39.38608 -21.18994,3.75817 -38.63124,4.97819 -79.24529,5.54321 -28.64151,0.39846 -58.93334,-0.22098 -67.31519,-1.37638 l 1e-5,0 z"
     id="path4297"
     inkscape:connector-curvature="0" />
  <path
     style="fill:#ddafe9;fill-opacity:1;stroke:none"
     d="m 220.55797,335.65815 c -15.42519,-2.33318 -29.09634,-4.59232 -30.38033,-5.02032 -2.48499,-0.82833 36.22976,-15.76316 81.06764,-31.27313 24.98782,-8.64359 27.94565,-9.19537 36.83032,-6.87066 14.36914,3.75973 98.67733,34.10794 100.88455,36.31516 1.04821,1.04822 -4.95062,3.09985 -13.33074,4.55919 -46.10176,8.02827 -129.88795,9.12411 -175.07144,2.28976 l 0,0 z"
     id="path4299"
     inkscape:connector-curvature="0" />
  <path
     style="fill:#ddafe9;fill-opacity:1;stroke:none"
     d="m 169.59271,312.36403 c -1.52149,-8.21139 -2.43811,-96.27334 -1.01689,-97.69457 0.75699,-0.75698 30.63402,3.86602 60.27244,9.32622 5.1359,0.94617 5.14843,1.04966 4.52831,37.37036 l -0.62185,36.42157 -30.918,10.86645 -30.91799,10.86645 -1.32602,-7.15648 z"
     id="path4301"
     inkscape:connector-curvature="0" />
  <path
     style="fill:#ddafe9;fill-opacity:1;stroke:none"
     d="m 262.18868,207.5578 c -68.95812,-5.30059 -123.15021,-19.63939 -144.33962,-38.19114 -6.17202,-5.40372 -6.22642,-5.69954 -6.22642,-33.86183 0,-15.62577 0.28565,-28.41049 0.63478,-28.41049 0.34912,0 8.82309,3.4534 18.83103,7.67421 21.35357,9.0058 46.73365,15.61188 81.28891,21.15836 35.25854,5.65936 140.70856,5.59806 176.60377,-0.10268 33.9226,-5.38745 64.88464,-13.45468 83.20755,-21.6799 l 15.28302,-6.8606 0.26042,12.92417 c 0.54378,26.98576 -0.72835,42.51459 -3.88657,47.44315 -6.10087,9.52073 -40.99517,24.18212 -73.35498,30.82126 -31.21646,6.40456 -115.78094,11.58527 -148.30189,9.08549 z"
     id="path4303"
     inkscape:connector-curvature="0" />
  <path
     style="fill:#ddafe9;fill-opacity:1;stroke:none"
     d="M 248.60377,121.39572 C 207.2228,117.8023 157.69408,106.43115 135.39623,95.404739 101.68131,78.732534 100.96074,63.535225 133.13208,47.652312 205.82486,11.764054 372.83715,9.2473952 457.32847,42.767094 c 18.24718,7.239084 31.88105,17.29095 33.79481,24.915915 5.53363,22.047722 -52.50734,44.874201 -134.64619,52.953941 -21.67129,2.13173 -86.78811,2.58976 -107.87332,0.75877 z"
     id="path4305"
     inkscape:connector-curvature="0" />
</svg>
