<?xml version="1.0" encoding="UTF-8" standalone="no"?>
<!-- Created with Inkscape (http://www.inkscape.org/) -->

<svg
   xmlns:dc="http://purl.org/dc/elements/1.1/"
   xmlns:cc="http://creativecommons.org/ns#"
   xmlns:rdf="http://www.w3.org/1999/02/22-rdf-syntax-ns#"
   xmlns:svg="http://www.w3.org/2000/svg"
   xmlns="http://www.w3.org/2000/svg"
   xmlns:sodipodi="http://sodipodi.sourceforge.net/DTD/sodipodi-0.dtd"
   xmlns:inkscape="http://www.inkscape.org/namespaces/inkscape"
   version="1.1"
   width="600"
   height="600"
   id="svg2"
   inkscape:version="0.48.2 r9819"
   sodipodi:docname="chapeau.svg">
  <sodipodi:namedview
     pagecolor="#ffffff"
     bordercolor="#666666"
     borderopacity="1"
     objecttolerance="10"
     gridtolerance="10"
     guidetolerance="10"
     inkscape:pageopacity="0"
     inkscape:pageshadow="2"
     inkscape:window-width="1680"
     inkscape:window-height="964"
     id="namedview4917"
     showgrid="false"
     inkscape:zoom="0.44166667"
     inkscape:cx="-191.32075"
     inkscape:cy="300"
     inkscape:window-x="0"
     inkscape:window-y="30"
     inkscape:window-maximized="1"
     inkscape:current-layer="svg2" />
  <defs
     id="defs4" />
  <metadata
     id="metadata7">
    <rdf:RDF>
      <cc:Work
         rdf:about="">
        <dc:format>image/svg+xml</dc:format>
        <dc:type
           rdf:resource="http://purl.org/dc/dcmitype/StillImage" />
        <dc:title />
      </cc:Work>
    </rdf:RDF>
  </metadata>
  <g
     transform="translate(0,-452.36218)"
     id="layer1">
    <g
       transform="matrix(3.136764,0,0,3.0619932,-416.63542,-1161.8268)"
       id="layer1-7">
      <path
         d="m 207.43134,706.53363 c -16.36494,-3.05038 -34.14749,-9.36629 -43.4492,-24.06147 -5.60869,-8.52944 1.29018,-18.25126 7.1386,-24.5282 1.65477,-1.92665 6.74468,-4.43291 1.64149,-5.21932 -14.84657,-5.96601 -30.76312,-15.12173 -35.26643,-31.59652 -3.38702,-15.6008 3.71179,-31.44209 12.11934,-44.25359 11.01558,-15.90001 29.97233,-23.41775 47.61846,-29.42599 14.44453,-3.78652 29.65605,-3.99728 44.49755,-3.27816 11.99868,1.88788 24.51251,3.07379 35.23942,9.28442 14.42874,7.15333 28.26639,17.43731 34.70144,32.70999 3.71205,8.07235 8.13818,16.14797 7.76497,25.32975 0.4779,8.25409 -0.39257,17.37755 -7.21111,23.06246 -7.06524,7.8659 -16.41762,12.94717 -25.74179,17.5925 -4.88105,6.94015 10.96803,12.65153 9.41103,21.51795 0.42131,12.64237 -11.68077,20.63555 -21.75325,25.67956 -20.55522,10.25609 -44.44092,11.03575 -66.71052,7.18662 z m 40.25534,-7.63018 c 14.95078,-2.45762 31.30628,-7.13161 40.83836,-19.7914 4.94041,-4.88655 1.15692,-21.67196 -5.04125,-10.41699 -0.50614,3.96976 -10.34485,9.02417 -4.51631,2.19952 3.23647,-7.29568 2.73384,-19.51778 -8.13485,-13.30264 -19.11141,4.32148 -39.12268,8.54778 -58.63787,4.24359 -10.42172,-1.67412 -20.81532,-4.15547 -31.13925,-5.90293 -3.96509,5.5348 2.03432,14.0769 0.59445,18.60204 -2.50467,-2.09596 -8.40818,-15.28882 -7.9954,-4.74081 0.41304,7.6058 -4.21252,-9.65846 -3.79456,-0.89802 -2.31172,9.30752 5.55373,15.45734 12.81071,19.3306 14.76181,9.12014 32.6023,10.90521 49.55518,11.80365 5.17435,0.0562 10.34308,-0.38275 15.46079,-1.12661 z m 37.82541,-28.54548 c -0.77833,-3.78061 5.63526,-11.64498 3.28665,-3.55381 -0.0538,0.62367 -2.80387,6.06375 -3.28665,3.55381 z M 262.893,656.08066 c 9.6501,-1.75213 18.19203,-6.65847 27.44276,-9.67562 10.72499,-5.19318 20.74545,-13.55009 25.33382,-24.7844 2.12384,-14.82611 -3.33847,-30.13708 -12.00929,-42.09588 -12.18748,-16.54609 -31.4366,-26.70272 -51.15719,-31.19368 -15.9994,-1.34758 -32.33568,-1.4967 -48.18702,1.38498 -15.91397,4.48374 -31.5294,11.42998 -44.29713,22.07627 -9.25887,9.11255 -14.96175,21.48943 -18.0353,33.94866 -3.2069,12.9913 3.53256,26.91147 15.12787,33.26307 19.6736,11.75232 42.21321,18.78237 65.00023,20.86391 13.65586,0.15431 27.39707,-1.05522 40.78125,-3.78731 z"
         id="path2832"
         style="fill:#000000" />
    </g>
    <path
       d="M 274.84549,857.64795 C 197.35118,848.03897 139.98013,829.81266 78.697637,795.33345 68.281414,789.47299 63.843829,786.08331 55.029719,777.25454 40.788237,762.98936 34.173904,751.55711 29.154109,732.53095 26.31827,721.7825 26.568271,703.69468 29.717255,691.78676 c 12.244406,-46.30234 36.901496,-88.03693 63.8373,-108.05103 33.317105,-24.7556 76.646495,-45.88203 119.727595,-58.37648 22.20605,-6.44024 44.82917,-8.92513 87.3197,-9.59108 43.35978,-0.67957 69.70945,0.81303 85.4938,4.84289 32.78079,8.36917 64.60542,22.17513 92.00806,39.91436 50.63067,32.77602 84.81661,82.73475 94.32812,137.84949 0.81379,4.71547 1.45362,16.03262 1.42185,25.1492 -0.0547,15.69691 -0.22157,16.8984 -3.14788,22.66475 -6.5802,12.96641 -14.05524,22.97211 -26.25213,35.13971 -18.18758,18.14391 -38.73222,31.25334 -62.35332,39.78732 -5.96642,2.15559 -16.24353,6.09186 -22.838,8.74726 -14.45195,5.81935 -36.28489,13.36797 -43.06188,14.88838 -11.96918,2.68527 -39.00542,7.00755 -56.85438,9.08931 -27.28989,3.18286 -72.94583,5.23986 -84.5006,3.80711 z"
       id="path4656"
       style="fill:#ffffff;fill-opacity:1;stroke:none" />
    <path
       d="m 282.26784,979.00782 c -48.76758,-3.94745 -83.39147,-12.56719 -114.76096,-28.57018 -20.04619,-10.22646 -27.16417,-14.82286 -36.51414,-23.57885 -8.27044,-7.74502 -14.24152,-18.20565 -15.06349,-26.38942 -0.27078,-2.69602 -0.0814,-8.75743 0.42085,-13.46981 l 0.91318,-8.56795 4.32189,8.23931 c 2.37704,4.53162 4.78183,8.52387 5.34399,8.87169 0.56215,0.3478 1.38139,-3.49103 1.82053,-8.53074 0.51452,-5.9048 1.28429,-9.16311 2.16479,-9.16311 1.95398,0 5.34031,3.87927 13.47342,15.4347 3.92281,5.57348 7.64624,10.16792 8.27428,10.20984 2.38052,0.15892 1.7101,-8.78431 -1.76319,-23.52044 -3.80647,-16.14976 -3.97501,-25.01377 -0.57439,-30.20942 l 1.57734,-2.40996 32.35332,6.12571 c 88.95182,16.84193 106.75609,18.93882 140.04506,16.49368 10.48254,-0.76997 26.25315,-2.41555 35.04577,-3.65685 23.15481,-3.26887 72.12634,-13.38873 78.79111,-16.28203 3.16221,-1.37277 8.08839,-2.47859 11.04154,-2.47859 10.17785,0 14.20404,7.49397 13.20451,24.57763 -0.59817,10.2235 -2.90771,17.64883 -7.3225,23.54239 -5.11305,6.82565 -2.7638,9.19212 5.10352,5.14095 5.26639,-2.71186 9.55715,-7.26216 12.62067,-13.38402 2.57672,-5.14907 8.15442,-12.27005 8.97075,-11.45282 0.28219,0.28249 -0.29561,2.07913 -1.28398,3.99252 -0.98839,1.9134 -1.79705,5.59789 -1.79705,8.18776 0,4.17353 0.27993,4.66733 2.46238,4.34357 1.65092,-0.24492 3.70067,-2.6083 6.22006,-7.17179 l 3.7577,-6.80648 1.4033,3.37705 c 0.77183,1.85738 1.44133,8.26399 1.48776,14.23693 0.10654,13.70619 -1.42166,16.82347 -15.06748,30.73463 -18.67615,19.0393 -43.39515,32.31394 -77.91293,41.84093 -39.95375,11.02733 -73.62878,13.94608 -118.75761,10.29317 z"
       id="path4658"
       style="fill:#ffffff;fill-opacity:1;stroke:none" />
  </g>
  <path
     style="fill:#ddafe9;fill-opacity:1;stroke:none"
     d="M 271.69811,404.57063 C 201.50777,394.69481 152.84226,380.18547 100.12086,353.41589 68.134642,337.17471 54.420082,326.76349 43.66385,310.55724 26.704467,285.00482 23.957622,257.71018 35.021972,224.6853 47.286414,188.07839 63.90223,159.91528 85.232925,139.57983 107.30574,118.53689 158.88122,91.311869 203.77358,77.006066 238.21166,66.031721 265.45017,63.290354 327.30204,64.573786 l 50.81117,1.054336 25.46148,8.390377 c 76.47485,25.200929 130.52237,70.487591 155.87982,130.612411 16.15112,38.29577 18.6622,75.61097 6.49015,96.44495 -12.58649,21.54332 -39.69003,45.88508 -65.96894,59.24685 -17.70147,9.00047 -74.2572,29.36875 -91.29647,32.87998 -37.91201,7.81238 -116.12145,14.30291 -136.98114,11.36794 l 0,0 z"
     id="path5429"
     inkscape:connector-curvature="0" />
  <path
     style="fill:#ddafe9;fill-opacity:1;stroke:none"
     d="m 279.62264,526.03179 c -52.21071,-5.11561 -88.85667,-15.32142 -121.90088,-33.94909 -20.20786,-11.39158 -34.88921,-24.74929 -38.95488,-35.4428 -1.18971,-3.12917 -2.15789,-10.97214 -2.15151,-17.42881 l 0.0116,-11.73939 5.42287,8.95911 5.42287,8.95911 1.9945,-10.08547 1.9945,-10.08547 9.7988,12.44711 c 15.31263,19.45117 16.08216,18.66639 10.08273,-10.28267 -4.1209,-19.88467 -2.99782,-30.48414 3.2282,-30.46692 2.15552,0.006 26.33422,4.11826 53.73045,9.13845 60.8294,11.14662 89.49626,14.27401 113.20754,12.35031 29.74205,-2.41298 75.27168,-9.82176 103.01887,-16.76369 22.87202,-5.72223 26.64426,-6.13294 31.02627,-3.37806 9.32251,5.86087 8.85892,30.51665 -0.85245,45.33809 -1.98958,3.03647 -2.9122,6.22607 -2.05026,7.088 2.78819,2.78818 13.61136,-5.01286 19.42361,-14 5.60538,-8.66723 5.66733,-8.69404 6.3768,-2.75868 0.91239,7.63292 3.4092,7.58201 9.06698,-0.18489 l 4.50072,-6.17849 1.54571,10.30754 c 2.06901,13.79711 -2.02571,22.8477 -17.1328,37.86881 -37.04822,36.83736 -119.38053,57.87447 -196.81024,50.2879 z"
     id="path5431"
     inkscape:connector-curvature="0" />
</svg>
