<?xml version="1.0" encoding="UTF-8" standalone="no"?>
<!-- Created with Inkscape (http://www.inkscape.org/) -->

<svg
   xmlns:dc="http://purl.org/dc/elements/1.1/"
   xmlns:cc="http://creativecommons.org/ns#"
   xmlns:rdf="http://www.w3.org/1999/02/22-rdf-syntax-ns#"
   xmlns:svg="http://www.w3.org/2000/svg"
   xmlns="http://www.w3.org/2000/svg"
   xmlns:sodipodi="http://sodipodi.sourceforge.net/DTD/sodipodi-0.dtd"
   xmlns:inkscape="http://www.inkscape.org/namespaces/inkscape"
   width="600"
   height="600"
   id="svg2"
   version="1.1"
   inkscape:version="0.48.2 r9819"
   sodipodi:docname="coudes.svg">
  <defs
     id="defs4" />
  <sodipodi:namedview
     id="base"
     pagecolor="#e0e0e1"
     bordercolor="#666666"
     borderopacity="1.0"
     inkscape:pageopacity="1"
     inkscape:pageshadow="2"
     inkscape:zoom="1.2483333"
     inkscape:cx="300.00001"
     inkscape:cy="300.00001"
     inkscape:document-units="px"
     inkscape:current-layer="layer1"
     showgrid="true"
     showguides="true"
     inkscape:guide-bbox="true"
     inkscape:window-width="1680"
     inkscape:window-height="964"
     inkscape:window-x="0"
     inkscape:window-y="30"
     inkscape:window-maximized="1">
    <inkscape:grid
       type="xygrid"
       id="grid3753"
       empspacing="5"
       visible="true"
       enabled="true"
       snapvisiblegridlinesonly="true" />
    <sodipodi:guide
       orientation="1,0"
       position="300,620"
       id="guide3755" />
    <sodipodi:guide
       orientation="0,1"
       position="-50,300"
       id="guide3757" />
  </sodipodi:namedview>
  <metadata
     id="metadata7">
    <rdf:RDF>
      <cc:Work
         rdf:about="">
        <dc:format>image/svg+xml</dc:format>
        <dc:type
           rdf:resource="http://purl.org/dc/dcmitype/StillImage" />
        <dc:title></dc:title>
      </cc:Work>
    </rdf:RDF>
  </metadata>
  <g
     inkscape:label="Calque 1"
     inkscape:groupmode="layer"
     id="layer1"
     transform="translate(0,-452.36218)">
    <path
       style="fill:#ddafe9;fill-opacity:1;stroke:#000000;stroke-width:5.50509357;stroke-linecap:butt;stroke-linejoin:round;stroke-miterlimit:4;stroke-opacity:1;stroke-dashoffset:0"
       d="m 99.10087,559.19302 412.16226,50 0,419.99998 -412.16226,0 z"
       id="rect7400"
       inkscape:connector-curvature="0"
       sodipodi:nodetypes="ccccc" />
    <g
       id="layer1-6"
       transform="matrix(3.7130975,0,0,2.9267845,44.76212,456.94464)">
      <g
         id="g4616"
         transform="translate(-108.4844,-487.7621)">
        <path
           id="path1902"
           style="fill:#aaaaaa;fill-opacity:1;fill-rule:evenodd;stroke:#000000;stroke-width:2;stroke-miterlimit:4;stroke-opacity:1;stroke-dasharray:none"
           d="m 167.125,491.5625 c -0.73835,0.11522 -1.36993,0.66449 -1.5625,1.4375 l -1.21875,4.875 c -1.73903,-0.22192 -3.51346,-0.34375 -5.3125,-0.34375 -2.43991,0 -4.83123,0.22132 -7.15625,0.625 l -1.4375,-4.84375 c -0.29954,-1.01906 -1.35593,-1.58079 -2.375,-1.28125 l -6.4375,1.875 c -1.01906,0.29954 -1.58079,1.35595 -1.28125,2.375 l 1.46875,5 c -3.13486,1.42954 -6.05858,3.21666 -8.71875,5.34375 l -3.90625,-3.59375 c -0.78353,-0.71714 -2.00161,-0.65853 -2.71875,0.125 l -4.53125,4.96875 c -0.71714,0.78353 -0.65853,1.97038 0.125,2.6875 l 3.6875,3.375 c -2.34926,3.1299 -4.25722,6.61875 -5.65625,10.34375 l -5.3125,-1.15625 c -1.03769,-0.22674 -2.05451,0.43105 -2.28125,1.46875 l -1.4375,6.53125 c -0.22674,1.03769 0.43106,2.05453 1.46875,2.28125 l 5.125,1.125 c -0.14834,1.42765 -0.21875,2.87707 -0.21875,4.34375 0,2.15251 0.153,4.27908 0.46875,6.34375 l -4.8125,1.34375 c -1.02219,0.28868 -1.60118,1.3528 -1.3125,2.375 l 1.8125,6.4375 c 0.28868,1.02219 1.35281,1.63242 2.375,1.34375 l 4.875,-1.375 c 1.46305,3.38637 3.35875,6.525 5.625,9.375 l -3.5,3.40625 c -0.76107,0.74093 -0.77218,1.9264 -0.0312,2.6875 l 4.6875,4.8125 c 0.74093,0.76107 1.95768,0.77221 2.71875,0.0312 l 3.6875,-3.5625 c 3.21767,2.42581 6.80892,4.39564 10.65625,5.8125 L 143.5,582.9375 c -0.25676,1.03067 0.37558,2.08701 1.40625,2.34375 l 6.5,1.625 c 1.03067,0.25676 2.05574,-0.3756 2.3125,-1.40625 l 1.25,-5 c 1.33809,0.13003 2.69046,0.21875 4.0625,0.21875 3.30052,0 6.51454,-0.39741 9.59375,-1.125 l 1.78125,4.8125 c 0.3674,0.99661 1.44089,1.52368 2.4375,1.15625 l 6.3125,-2.34375 c 0.99661,-0.3674 1.4924,-1.4409 1.125,-2.4375 l -1.8125,-4.90625 c 3.5161,-1.86508 6.73536,-4.21551 9.5625,-6.96875 l 4,3.1875 c 0.83163,0.66076 2.02674,0.51914 2.6875,-0.3125 l 4.1875,-5.25 c 0.66076,-0.83163 0.51913,-2.02671 -0.3125,-2.6875 l -4,-3.15625 c 1.60633,-2.6428 2.91545,-5.48326 3.90625,-8.46875 l 4.96875,0.96875 c 1.04248,0.2036 2.0464,-0.48876 2.25,-1.53125 L 207,545.0625 c 0.2036,-1.04248 -0.45752,-2.01512 -1.5,-2.21875 l -4.96875,-0.96875 c 0.06,-0.91309 0.0937,-1.82183 0.0937,-2.75 0,-2.47193 -0.21089,-4.89622 -0.625,-7.25 l 4.84375,-1.625 c 1.00792,-0.33512 1.55387,-1.39836 1.21875,-2.40625 l -2.125,-6.375 c -0.33512,-1.00792 -1.42958,-1.55388 -2.4375,-1.21875 l -4.65625,1.5625 c -1.37872,-3.00442 -3.1028,-5.80656 -5.125,-8.375 L 195.15625,510 c 0.74999,-0.75215 0.75214,-1.93752 0,-2.6875 l -4.75,-4.75 c -0.75215,-0.74999 -1.96876,-0.75214 -2.71875,0 l -3.46875,3.5 c -2.93786,-2.24212 -6.1786,-4.09677 -9.65625,-5.5 l 1.25,-5 c 0.25676,-1.03067 -0.37558,-2.08698 -1.40625,-2.34375 l -6.5,-1.625 c -0.25767,-0.0642 -0.53513,-0.0697 -0.78125,-0.0312 z m -8.09375,36.625 c 5.81795,0 10.53125,4.91176 10.53125,10.9375 1e-5,6.02574 -4.71329,10.90625 -10.53125,10.90625 -5.81796,0 -10.53125,-4.88051 -10.53125,-10.90625 0,-6.02574 4.71329,-10.9375 10.53125,-10.9375 z"
           inkscape:connector-curvature="0" />
        <path
           id="path2822"
           style="fill:#aaaaaa;fill-opacity:1;fill-rule:evenodd;stroke:#000000;stroke-width:2;stroke-linejoin:miter;stroke-miterlimit:4;stroke-opacity:1;stroke-dasharray:none"
           d="m 190.4375,574.125 c -0.12752,-0.005 -0.27529,0.009 -0.40625,0.0312 l -6.59375,1.125 c -1.04766,0.17496 -1.76872,1.13981 -1.59375,2.1875 l 0.8125,4.8125 c -5.5222,2.00824 -10.33749,5.52471 -13.9375,10.03125 l -4.1875,-2.4375 c -0.91717,-0.53573 -2.05802,-0.22965 -2.59375,0.6875 l -3.40625,5.78125 c -0.53573,0.91717 -0.22967,2.08929 0.6875,2.625 l 4.375,2.5625 c -1.16357,3.29667 -1.78125,6.83639 -1.78125,10.53125 0,2.57594 0.32561,5.0701 0.90625,7.46875 l -4.375,1.8125 c -0.98253,0.40354 -1.46604,1.5175 -1.0625,2.5 l 2.5625,6.21875 c 0.40354,0.98253 1.51746,1.43476 2.5,1.03125 l 4.53125,-1.875 c 2.80601,4.34767 6.6301,7.96281 11.15625,10.5 l -1.625,4.6875 c -0.34645,1.00408 0.18342,2.09104 1.1875,2.4375 l 6.34375,2.1875 c 1.00408,0.34645 2.09105,-0.18344 2.4375,-1.1875 l 1.59375,-4.59375 c 1.78949,0.31476 3.62052,0.5 5.5,0.5 4.83256,0 9.39916,-1.09136 13.5,-3.03125 l 2.78125,4 c 0.60587,0.87243 1.81508,1.0746 2.6875,0.46875 l 5.5,-3.8125 c 0.87243,-0.60587 1.10587,-1.78385 0.5,-2.65625 l -2.8125,-4.03125 c 3.70982,-3.63261 6.51678,-8.16974 8.09375,-13.25 L 228.5,622.1562 c 1.0506,0.15632 2.03118,-0.5744 2.1875,-1.625 l 1,-6.625 c 0.15632,-1.0506 -0.5744,-1.99991 -1.625,-2.15625 L 225.125,611 c -0.23944,-7.20896 -2.90137,-13.82287 -7.1875,-19.03125 l 3.21875,-3.71875 c 0.69525,-0.80301 0.6155,-1.99223 -0.1875,-2.6875 l -5.0625,-4.40625 c -0.80301,-0.69525 -2.02349,-0.58423 -2.71875,0.21875 l -3.15625,3.65625 c -4.81677,-2.95263 -10.50335,-4.625 -16.5625,-4.625 -0.14704,0 -0.29094,-0.002 -0.4375,0 L 192.25,575.75 c -0.15309,-0.9167 -0.91985,-1.59343 -1.8125,-1.625 z m 3.03125,28.53125 c 5.19461,0 9.4375,4.21165 9.4375,9.40625 0,5.19459 -4.2429,9.4375 -9.4375,9.4375 -5.1946,-2e-5 -9.40625,-4.2429 -9.40625,-9.4375 0,-5.19462 4.21165,-9.40625 9.40625,-9.40625 z"
           inkscape:connector-curvature="0" />
      </g>
    </g>
  </g>
</svg>
