<?xml version="1.0" encoding="UTF-8" standalone="no"?>
<!-- Created with Inkscape (http://www.inkscape.org/) -->

<svg
   xmlns:dc="http://purl.org/dc/elements/1.1/"
   xmlns:cc="http://creativecommons.org/ns#"
   xmlns:rdf="http://www.w3.org/1999/02/22-rdf-syntax-ns#"
   xmlns:svg="http://www.w3.org/2000/svg"
   xmlns="http://www.w3.org/2000/svg"
   xmlns:sodipodi="http://sodipodi.sourceforge.net/DTD/sodipodi-0.dtd"
   xmlns:inkscape="http://www.inkscape.org/namespaces/inkscape"
   version="1.1"
   width="600"
   height="600"
   id="svg2"
   inkscape:version="0.48.2 r9819"
   sodipodi:docname="extract_eolien.svg">
  <sodipodi:namedview
     pagecolor="#ffffff"
     bordercolor="#666666"
     borderopacity="1"
     objecttolerance="10"
     gridtolerance="10"
     guidetolerance="10"
     inkscape:pageopacity="0"
     inkscape:pageshadow="2"
     inkscape:window-width="1680"
     inkscape:window-height="964"
     id="namedview6304"
     showgrid="false"
     inkscape:zoom="1"
     inkscape:cx="550.18868"
     inkscape:cy="281.58299"
     inkscape:window-x="0"
     inkscape:window-y="30"
     inkscape:window-maximized="1"
     inkscape:current-layer="svg2" />
  <defs
     id="defs4">
    <filter
       x="0"
       y="0"
       width="1"
       height="1"
       color-interpolation-filters="sRGB"
       id="filter3736">
      <feGaussianBlur
         id="feGaussianBlur3738"
         stdDeviation="0.5"
         result="result8" />
      <feConvolveMatrix
         id="feConvolveMatrix3740"
         bias="0"
         result="result0"
         preserveAlpha="true"
         targetY="1"
         targetX="1"
         divisor="1"
         in="result8"
         kernelMatrix="1 1 1 1 -8 1 1 1 1 "
         order="3 3" />
      <feColorMatrix
         id="feColorMatrix3742"
         values="0 -6 0 0 1 0 -6 0 0 1 0 -6 0 0 1 0 0 0 1 0 "
         result="result3" />
      <feComposite
         in2="result3"
         operator="arithmetic"
         k1="1"
         k2="0"
         k3="0.3"
         k4="0"
         in="SourceGraphic"
         result="fbSourceGraphic"
         id="feComposite3744" />
      <feGaussianBlur
         id="feGaussianBlur3746"
         stdDeviation="0.01"
         in="fbSourceGraphic"
         result="result7" />
      <feBlend
         in2="result7"
         mode="multiply"
         in="result7"
         result="result9"
         id="feBlend3748" />
      <feComposite
         in2="SourceGraphic"
         operator="in"
         id="feComposite3750" />
    </filter>
  </defs>
  <metadata
     id="metadata7">
    <rdf:RDF>
      <cc:Work
         rdf:about="">
        <dc:format>image/svg+xml</dc:format>
        <dc:type
           rdf:resource="http://purl.org/dc/dcmitype/StillImage" />
        <dc:title />
      </cc:Work>
    </rdf:RDF>
  </metadata>
  <g
     transform="translate(0,-452.36218)"
     id="layer1">
    <g
       transform="matrix(1.2015448,0,0,1.0783696,-70.710125,380.51934)"
       id="layer1-1">
      <path
         d="m 236.00186,604.05 c -27.24681,-7.60365 -78.628,3.39336 -80.99401,-36.67303 -3.41479,-28.63747 8.96496,-67.29138 -18.13805,-87.06588 -24.10513,-8.85781 -49.863108,-20.47616 -55.046797,-48.59072 -14.193374,-40.97654 -8.463901,-85.06468 -8.725366,-127.52879 0.287059,-50.85959 23.22863,-101.54161 64.678263,-131.81407 35.86641,-27.24028 79.3615,-41.61327 122.3404,-53.24842 31.16161,3.95073 25.77474,-57.584085 60.42162,-40.512536 14.9312,17.846422 20.30897,45.941516 50.59621,41.077446 65.74462,14.02425 126.44973,56.70677 154.77844,118.71036 25.51469,49.03287 32.14073,108.06625 12.98604,160.43305 -7.51892,28.06767 -17.64198,60.30004 -45.85478,73.97533 -26.39371,-4.84267 -38.20954,41.95298 -23.65847,55.84423 14.82891,24.66878 -9.95223,51.52197 -29.07996,64.00722 -42.37683,9.83715 -85.96454,16.16504 -129.56972,17.66766 -25.13599,1.02309 -49.84951,-3.7025 -74.73382,-6.28185 z m 49.0401,-24.51283 c -1.16256,-32.84086 65.98367,-33.06487 64.0177,-3.10846 13.43633,22.0615 43.64451,9.14687 63.79131,5.1236 17.93282,-4.08307 38.434,-6.58751 27.63829,-30.39065 5.09829,-40.93878 -37.67645,-18.27831 -60.50817,-20.36292 -58.87535,2.4384 -117.78979,0.002 -176.67264,-0.75258 6.09805,17.97539 -9.16561,55.92397 17.22924,54.88604 19.55856,-2.02404 54.97899,17.86476 64.32602,-2.23614 l 0.17825,-3.15889 0,0 z m 7.76364,-1.73524 c -7.96221,8.07428 4.9371,16.75894 0.3578,1.33579 l -0.3578,-1.33579 z m 9.06959,2.4266 c -10.12469,9.92749 7.31269,16.56649 0,0 z m 17.99596,3.07534 c -15.48687,-13.66304 0.31878,23.00036 0,0 z m 7.99194,-5.41597 c -11.49893,5.93797 12.70489,18.88322 0,0 z m -136.34622,-9.40416 c -3.44444,-13.43823 4.0042,-24.19912 4.66299,-4.7915 1.18826,11.95978 4.4844,29.2854 3.47794,6.72442 6.43275,-18.31598 -12.35316,-53.8664 -17.77805,-19.8018 0.0502,10.29126 11.57879,45.71424 9.63712,17.86888 z m -14.17537,-1.0233 c -11.2139,-14.04763 0.54354,26.97056 3.02064,4.65699 -1.00688,-1.55233 -2.01376,-3.10466 -3.02064,-4.65699 z m 131.92862,-0.99461 c -14.70409,-4.9741 -2.47899,8.25253 0,0 z M 172.95027,546.35301 c -12.02274,-18.33159 -10.75803,17.8834 0,0 z m 288.43527,-1.89742 c -9.87545,-18.47481 -12.03709,17.55565 0,0 z m -105.909,-20.19393 c -27.23205,-3.65799 -55.22019,-2.88719 -82.35162,1.15112 27.45054,-0.38371 54.90108,-0.76741 82.35162,-1.15112 z m -167.90042,-7.92235 c -3.87569,0.32551 40.87873,12.52553 43.83201,5.47881 -14.61067,-1.82627 -29.22134,-3.65254 -43.83201,-5.47881 z m 192.90418,5.65685 c -10.08623,-1.84842 46.46163,1.72522 33.2023,-3.75892 -11.06743,1.25297 -22.13487,2.50595 -33.2023,3.75892 z m 43.46661,-12.84452 c 13.13194,2.20419 40.83417,-20.04127 11.47313,-9.66927 -73.3734,11.21452 -148.05418,9.22113 -221.89503,4.96453 -12.39577,-0.59318 -42.18617,-8.02285 -43.6668,-3.50191 29.38174,13.12021 62.75234,14.27454 94.47081,15.64532 53.21744,0.65013 106.77896,-1.09011 159.61789,-7.43867 z m -2.73601,-23.15819 c -21.26419,-0.23224 -62.42193,4.59982 -70.78895,12.03606 24.32949,2.87331 49.39605,0.45244 70.78895,-12.03606 z m -85.94689,11.15383 c -47.71901,-6.14005 -96.40028,-11.61235 -144.35928,-7.14118 -2.17582,10.51885 37.65364,5.94479 51.23912,7.8747 31.02473,0.92088 62.16082,2.24507 93.12016,-0.73352 z m 116.11591,-10.57734 c -9.17662,-16.4233 -51.12216,19.31236 -27.09666,7.31441 9.03222,-2.43814 18.06444,-4.87627 27.09666,-7.31441 z M 185.8748,416.601 c -32.87574,-61.72354 -38.73067,-135.45368 -25.50669,-203.3762 4.42279,-17.89459 11.95485,-35.12054 22.87919,-50.017 -30.41926,12.4908 -43.85549,46.26611 -56.34408,74.36209 -26.56159,73.02493 -7.04462,157.01122 39.21677,217.72526 2.61133,18.9511 41.44271,1.00499 34.11069,-9.48236 -4.78529,-9.73727 -9.57059,-19.47453 -14.35588,-29.21179 z m 68.64675,43.05479 c 6.17154,-14.87209 44.68334,6.93128 25.61864,-18.13049 -38.48557,-74.9328 -67.63615,-159.37126 -58.17686,-244.66118 0.39735,-14.92682 25.43792,-61.51503 -5.71884,-44.3149 -32.04702,28.89682 -46.77888,72.25537 -46.52041,114.7181 -3.09807,67.89749 19.17595,136.73616 61.13908,190.08939 5.9486,8.35266 17.35653,13.25669 23.65839,2.29908 z m 92.77213,-6.48491 c 33.96301,-1.66151 -3.95529,-40.05847 -6.36102,-57.10874 -34.39945,-74.4274 -62.80008,-153.48063 -68.99812,-235.75229 -5.62366,-18.93436 21.77971,-30.56411 21.23203,-5.92675 6.77449,34.85782 11.1149,70.21567 21.19281,104.41428 18.17154,69.47286 42.89463,137.3633 75.13817,201.56291 21.75139,-6.80121 13.58157,-32.73073 7.9707,-50.49566 -24.80277,-80.03453 -51.79741,-159.3636 -78.19787,-238.88684 -12.11255,-13.72076 -5.02187,-47.05612 14.36341,-25.87217 34.28443,46.49544 60.47344,98.44626 81.63629,152.08792 7.72102,-5.01762 -11.99925,-37.55565 -16.17832,-51.51031 -14.16823,-32.01862 -32.70804,-62.06177 -46.92312,-93.93281 -4.96053,-14.92667 20.54587,-18.04483 -1.66451,-20.36291 -28.63302,-7.02016 -59.07441,-4.74043 -87.02956,4.15732 -38.49778,54.42109 -30.21276,126.00928 -13.82245,186.70674 13.77472,49.0014 34.36319,96.36528 63.26213,138.39037 12.1752,4.97185 21.76854,-11.93978 34.37943,-7.47106 z M 135.48896,440.35836 C 101.38159,382.94478 90.94841,312.45127 105.0288,247.33781 c -7.275145,-5.85383 -11.789287,29.59886 -14.280811,39.05934 -7.944587,54.18946 -1.22599,113.67085 30.620421,159.43312 11.71722,19.94651 30.24461,15.25723 14.73424,-4.44011 l -0.61369,-1.0318 0,0 z m 282.27216,14.47521 c 4.7937,-21.6512 -23.69656,21.23341 -1.65681,2.97249 0.55227,-0.99083 1.10454,-1.98166 1.65681,-2.97249 z m 23.79025,-7.48656 c -4.14245,-18.7715 2.70077,-59.05588 -21.47763,-59.88053 -17.70086,20.20002 7.01293,48.66837 9.53864,70.63421 9.32491,9.80896 18.04743,-1.0309 11.93899,-10.75368 z m 45.52215,1.74725 c 4.38076,-45.59002 -3.8079,-91.47212 -14.14848,-135.6888 -12.85564,-16.43453 -41.12077,18.1897 -30.26068,36.3257 7.26715,33.08073 17.82671,66.01904 16.27794,100.30242 3.79076,12.67595 23.66362,9.44637 28.13122,-0.93932 z m 31.13387,-79.97307 c 1.00005,-47.29761 -12.77369,-94.85685 -39.22932,-134.10762 5.3653,20.93737 -5.88681,41.66574 3.68502,62.85353 8.3829,48.29488 19.81147,97.16908 16.83782,146.40197 17.50482,-21.01627 17.77182,-49.04067 18.70648,-75.14788 z m -96.39177,-2.41648 c -0.0386,-13.32995 -17.32095,-56.72639 -26.10084,-25.80788 0.61572,15.29732 4.95278,51.61473 26.10084,25.80788 z m -29.4507,-80.62866 c -13.30589,-30.29715 -26.26705,-60.92509 -43.68665,-89.15565 11.02632,41.3728 23.6587,82.35138 38.88759,122.38163 18.70345,18.19918 11.16051,-28.92303 4.79906,-33.22598 z m 41.27902,-53.71366 c -7.06559,-27.3286 -28.41125,-48.60129 -47.20793,-68.73464 -7.48748,-8.11266 -23.77807,-18.61311 -10.19818,-1.56706 24.50199,38.9004 38.21995,82.94854 54.39364,125.58072 13.17505,31.59691 37.75649,-20.20065 15.27059,-32.87012 -4.43349,-7.14587 -11.22774,-13.6871 -12.25812,-22.4089 z m 94.08515,66.32003 c 2.79332,22.95241 -0.0206,46.42833 4.58999,69.15094 2.6273,-22.67324 7.83672,-48.5361 -4.58999,-69.15094 z m -14.14646,-45.82743 c -3.17093,-6.83369 -19.48711,-42.31519 -18.52559,-28.91217 9.73744,23.23459 22.90665,45.05348 30.25301,69.26235 2.1996,-14.57791 -7.10897,-27.24274 -11.72742,-40.35018 z m -88.66914,-83.08654 c -21.22096,2.25051 15.88999,34.70004 21.64219,46.64545 7.14325,6.57198 24.70993,45.68852 21.61106,15.90623 0.72549,-27.4787 -29.58434,-41.4602 -43.25325,-62.55168 z m 61.95942,39.21106 c -6.17995,-17.24502 -39.88202,-41.13294 -45.02875,-39.79523 14.28162,14.0268 27.94516,29.06685 45.02875,39.79523 z m -3.33523,-21.37731 c -5.57811,-9.32684 -21.94454,-16.61327 -7.31938,-2.80774 5.88541,9.86418 26.69321,21.84003 8.9843,4.5725 l -0.98398,-1.04298 -0.68094,-0.72178 0,0 z M 336.26764,169.74234 c -2.29055,-16.21096 -20.19584,-17.291 -9.42405,0.70085 3.96734,9.07071 14.47603,13.75478 9.42405,-0.70085 z m 91.53349,-14.75383 c -13.28246,-21.98038 -16.57505,7.09986 0.71113,8.51605 l 0.26777,-3.2641 -0.9789,-5.25195 z m -17.45275,3.47364 c -7.7609,-12.38727 -48.7949,-23.08053 -18.30613,-6.67565 5.72599,2.94115 11.62683,6.77984 18.30613,6.67565 z m -92.61301,-57.32827 c -20.25156,-23.483011 -11.81156,27.71961 -0.28614,1.2917 l 0.28614,-1.2917 0,0 z"
         id="path3842"
         style="fill:#000000" />
    </g>
    <path
       d="m 135.40803,426.16164 c -2.0246,-0.91368 -4.3121,-3.08794 -5.08333,-4.83168 -0.77124,-1.74375 -4.28064,-6.82496 -7.79868,-11.2916 -23.273134,-29.54846 -42.620145,-70.5633 -49.608071,-105.16698 -3.871192,-19.16985 -4.975336,-32.60931 -4.321961,-52.60622 1.043812,-31.9464 6.881934,-54.569 21.467505,-83.18611 13.084517,-25.67203 28.260557,-45.5158 42.013647,-54.93588 5.00104,-3.42543 14.3757,-8.44614 14.3757,-7.69907 0,0.2417 -2.34903,3.94247 -5.22007,8.22394 -15.61742,23.28966 -23.05202,48.3974 -26.63294,89.94334 -1.53232,17.77809 -0.71108,50.25174 1.71984,68.00637 3.75623,27.43415 12.74294,58.74175 23.24138,80.96753 2.94317,6.23085 11.08627,21.73072 18.09578,34.44415 9.47299,17.18154 12.57641,23.7853 12.08952,25.72521 -1.28229,5.10907 -15.02527,12.25649 -26.01594,13.53032 -2.77159,0.32123 -6.12419,-0.13129 -8.32238,-1.12332 l 0,0 z"
       transform="translate(0,452.36218)"
       id="path4766"
       style="fill:#ffffff;fill-opacity:1;stroke:none" />
    <path
       d="M 86.293349,418.89542 C 77.572228,413.36465 62.352727,391.13358 53.472776,370.95454 40.422489,341.2987 34.520779,308.43449 35.807577,272.58426 c 0.36902,-10.2809 1.437112,-23.53561 2.373538,-29.45491 2.343569,-14.8141 8.087709,-37.64687 10.816746,-42.99622 4.431774,-8.68699 6.460919,-6.90981 4.038194,3.53677 -7.628106,32.89175 -6.478482,82.49265 2.749081,118.60981 7.203778,28.19597 18.655444,54.25162 35.13845,79.94949 8.022415,12.50738 9.730364,17.83625 6.156259,19.20776 -3.298778,1.26586 -5.660215,0.70945 -10.786496,-2.54154 l 0,0 z"
       transform="translate(0,452.36218)"
       id="path4768"
       style="fill:#ffffff;fill-opacity:1;stroke:none" />
    <path
       d="m 215.69504,427.5971 c -3.38397,-1.67501 -7.83433,-5.90718 -13.99669,-13.31046 -22.40304,-26.91438 -42.2539,-62.74966 -53.39337,-96.38712 -10.77007,-32.52196 -14.3249,-55.47391 -14.29351,-92.28677 0.0334,-39.19929 4.25295,-58.67197 18.78887,-86.70849 7.46659,-14.40137 15.12682,-24.84812 26.76317,-36.49864 8.63795,-8.64848 13.11008,-11.432344 20.63249,-12.843557 3.24424,-0.608624 4.11987,-0.293496 5.64279,2.030778 2.31103,3.527068 1.2153,9.817359 -4.98523,28.618879 -5.6287,17.0676 -7.07382,28.38723 -7.08682,55.51118 -0.0278,58.05451 14.16604,113.17667 46.70845,181.39304 8.84177,18.5344 22.68321,44.22335 27.48529,51.01121 5.79426,8.19035 4.92784,8.81256 -13.18135,9.46593 l -15.69976,0.56644 -4.11343,4.67837 c -6.93974,7.89285 -10.94285,8.88147 -19.2709,4.75921 z"
       transform="translate(0,452.36218)"
       id="path4770"
       style="fill:#ffffff;fill-opacity:1;stroke:none" />
    <path
       d="m 307.322,424.82408 c -0.93463,-0.27759 -5.63564,-6.00203 -10.4467,-12.72097 C 261.75287,363.05248 233.6131,299.18282 220.58355,238.94151 206.52749,173.95424 213.63248,121.0672 241.78141,81.152048 l 4.57698,-6.490148 10.84275,-2.490662 c 20.86031,-4.791773 34.31599,-6.067819 56.91815,-5.397736 19.37433,0.574389 44.11007,3.702387 46.2473,5.848278 0.42199,0.423717 -0.50722,1.80255 -2.06493,3.064074 -4.32193,3.50015 -6.78158,7.872717 -6.78982,12.070475 -0.009,4.536551 6.24854,16.543461 29.31282,56.245891 16.31236,28.07979 41.01915,76.13724 46.17049,89.80672 2.6813,7.11503 3.46573,12.71905 1.78036,12.71905 -0.49372,0 -2.87803,-4.46072 -5.29848,-9.91271 C 403.48244,191.57804 374.57819,142.0681 346.07879,104.04022 328.51936,80.610002 322.64098,75.595064 314.52155,77.118277 c -9.77183,1.833207 -12.38985,20.967914 -4.46634,32.643863 5.5631,8.19767 97.56355,260.66801 102.22666,280.5334 2.16398,9.21874 1.47172,19.06209 -1.70168,24.19676 -2.09604,3.39147 -9.63552,8.76519 -12.29779,8.76519 -0.58352,0 -5.46394,-8.2842 -10.84538,-18.40933 -33.96158,-63.89837 -60.7114,-131.39591 -84.06964,-212.13204 -4.97411,-17.19268 -18.99224,-83.47484 -21.48679,-101.596368 -0.40138,-2.9158 -1.72973,-6.572683 -2.95189,-8.126408 -4.58836,-5.833156 -14.11536,-4.795246 -20.26398,2.207638 -4.12397,4.69695 -4.28755,7.436362 -1.75279,29.353268 7.49293,64.78785 29.72942,134.86184 67.04374,211.27544 7.15023,14.64249 13.99254,29.23557 15.20513,32.42906 1.21259,3.19349 5.57758,11.35023 9.69998,18.1261 13.52409,22.22914 15.89317,28.89876 12.15876,34.23037 -2.57627,3.67815 -6.51223,4.89215 -16.93594,5.22367 -7.64649,0.2432 -10.57525,0.94361 -18.1261,4.33484 -8.93812,4.01428 -15.37172,5.61973 -18.6355,4.65035 z"
       transform="translate(0,452.36218)"
       id="path4772"
       style="fill:#ffffff;fill-opacity:1;stroke:none" />
    <path
       d="m 397.55714,273.43392 c -4.43771,-4.05801 -25.96018,-60.5493 -39.76324,-104.36892 -3.50872,-11.13887 -6.19177,-20.4402 -5.96234,-20.66963 1.37518,-1.37518 25.70435,41.99128 39.16468,69.81059 4.67292,9.65781 9.47622,18.90226 10.67401,20.54323 5.00953,6.86304 8.40038,29.25951 5.30545,35.04243 -1.57739,2.94737 -5.9874,2.7799 -9.41856,-0.3577 z"
       transform="translate(0,452.36218)"
       id="path4774"
       style="fill:#ffffff;fill-opacity:1;stroke:none" />
    <path
       d="m 453.59339,245.89684 c -4.35193,-3.66191 -5.86721,-6.54309 -14.26534,-27.12444 -17.14424,-42.01548 -27.555,-65.16535 -37.57593,-83.55567 -7.6942,-14.12034 -18.23016,-31.01532 -22.65807,-36.333461 -1.46646,-1.761289 -2.66629,-3.688249 -2.66629,-4.282133 0,-4.054126 26.01802,18.215754 43.55009,37.276284 15.4861,16.83619 25.1227,32.12691 29.46434,46.75207 2.5534,8.6013 12.18584,23.25273 17.05818,25.94632 1.25086,0.69152 3.54495,3.11369 5.09797,5.3826 2.44455,3.57143 2.81954,5.35266 2.79292,13.26694 -0.034,10.10675 -2.13849,15.63946 -8.0789,21.2393 -4.94469,4.66122 -8.41684,5.05219 -12.71897,1.43219 z"
       transform="translate(0,452.36218)"
       id="path4776"
       style="fill:#ffffff;fill-opacity:1;stroke:none" />
    <path
       d="m 486.15431,186.7685 c -1.56895,-1.71349 -5.58597,-6.9389 -8.92672,-11.61204 -7.90506,-11.05781 -13.76784,-18.25593 -27.04644,-33.2067 -17.47797,-19.67897 -20.62239,-26.00454 -14.34791,-28.86338 2.57433,-1.17295 3.66282,-0.39859 16.06703,11.43019 35.46828,33.82289 37.29114,36.27518 38.95551,52.40701 1.38785,13.45172 0.43261,15.452 -4.70147,9.84492 z"
       transform="translate(0,452.36218)"
       id="path4778"
       style="fill:#ffffff;fill-opacity:1;stroke:none" />
    <path
       d="m 530.54037,390.30266 c -0.0515,-18.01664 -2.57442,-44.56196 -6.30165,-66.30288 -4.96482,-28.95986 -14.07723,-73.56229 -16.42041,-80.37286 -2.40038,-6.97683 -2.66274,-16.31646 -1.2388,-44.10041 l 0.69605,-13.58148 6.6245,10.18284 c 18.56131,28.5315 31.51468,64.37795 35.80479,99.0843 1.53538,12.42093 1.52396,44.675 -0.0207,58.52776 -2.21209,19.83822 -8.45661,38.03671 -16.27361,47.42637 l -2.82941,3.39864 -0.0407,-14.26228 -10e-6,0 z"
       transform="translate(0,452.36218)"
       id="path4780"
       style="fill:#ffffff;fill-opacity:1;stroke:none" />
    <path
       d="m 490.4175,420.9777 c -7.26479,-2.23077 -8.22938,-4.36446 -9.10425,-20.13889 -0.43926,-7.91998 -1.79852,-20.26263 -3.02057,-27.4281 -2.49121,-14.60717 -14.89346,-64.25523 -17.4847,-69.99387 -4.13112,-9.1489 -0.31504,-21.73582 9.71036,-32.02852 8.8322,-9.06769 18.43908,-11.63493 24.14034,-6.45101 2.30792,2.0985 3.60581,6.05274 7.3439,22.37441 8.08685,35.30975 10.75509,51.86542 12.69694,78.78106 1.29899,18.00501 0.59307,40.92344 -1.42188,46.16241 -2.3428,6.09144 -15.31248,11.04014 -22.86014,8.72251 l 0,0 z"
       transform="translate(0,452.36218)"
       id="path4782"
       style="fill:#ffffff;fill-opacity:1;stroke:none" />
    <path
       d="m 415.20719,329.84093 c -4.32722,-3.64112 -8.1439,-15.23886 -8.95,-27.19639 -0.55848,-8.28436 -0.3706,-9.45815 2.09152,-13.06706 3.78943,-5.55443 7.84427,-5.85644 12.46737,-0.92859 4.45099,4.74439 11.71097,19.61222 13.51669,27.68102 1.35781,6.06734 1.33048,6.20406 -1.92433,9.62772 -6.72259,7.07135 -11.99729,8.26215 -17.20125,3.8833 z"
       transform="translate(0,452.36218)"
       id="path4784"
       style="fill:#ffffff;fill-opacity:1;stroke:none" />
    <path
       d="m 448.80478,423.62594 c -2.06846,-1.28389 -3.33038,-3.44334 -4.19102,-7.17182 -0.67728,-2.93413 -4.28082,-12.4343 -8.00788,-21.11147 -3.72706,-8.67718 -7.38252,-18.18353 -8.12325,-21.12524 -2.04925,-8.13828 -0.95567,-17.85651 2.61683,-23.25492 2.84889,-4.30497 3.19424,-4.48226 7.0412,-3.61463 12.32096,2.77883 16.58484,12.03737 18.77445,40.76667 0.68957,9.04773 1.77161,18.4896 2.40453,20.98194 2.42491,9.54887 2.4134,11.55608 -0.0805,14.05003 -2.82924,2.82923 -6.38535,2.99263 -10.43432,0.47944 l 0,0 z"
       transform="translate(0,452.36218)"
       id="path4786"
       style="fill:#ffffff;fill-opacity:1;stroke:none" />
    <path
       d="m 241.04844,564.89894 c -3.11543,-0.52218 -13.21516,-2.27223 -22.44385,-3.88899 -9.22869,-1.61677 -19.82334,-2.93958 -23.54367,-2.93958 -9.65214,0 -14.23028,-2.22089 -16.85215,-8.17513 -1.80865,-4.10742 -2.19308,-8.30831 -2.50221,-27.34353 l -0.36524,-22.49052 36.81864,0.91703 c 20.25026,0.50436 69.44563,0.85484 109.32305,0.77883 67.05573,-0.12781 73.73656,-0.3157 88.90023,-2.50023 20.54712,-2.96009 33.14073,-3.08357 38.52635,-0.37774 6.22683,3.12846 9.08563,8.39492 9.08563,16.73742 0,3.88182 0.7647,8.88802 1.69932,11.1249 3.05826,7.31944 1.91401,13.57618 -3.28175,17.94445 -4.17808,3.51267 -13.08443,6.19734 -38.63486,11.64585 -29.17999,6.22249 -42.41827,7.43782 -51.68244,4.74465 -7.91922,-2.30218 -16.85688,-9.75072 -16.85688,-14.04832 0,-1.60579 -1.27839,-5.10101 -2.84085,-7.76716 -5.76417,-9.8358 -24.69256,-15.63003 -42.72774,-13.07952 -20.28604,2.86882 -32.56293,13.19957 -32.59391,27.4271 -0.0185,8.50964 -14.38669,13.91211 -30.02767,11.29049 z"
       transform="translate(0,452.36218)"
       id="path4788"
       style="fill:#ffffff;fill-opacity:1;stroke:none" />
    <path
       d="m 215.55861,483.27566 c -19.64085,-1.4862 -34.38839,-3.28915 -47.58102,-5.81699 -11.98152,-2.29578 -32.85356,-8.42755 -32.85356,-9.65168 0,-0.9204 18.34404,0.61156 30.89036,2.57974 12.81215,2.00988 65.51989,4.59962 114.47842,5.62477 55.65811,1.16543 119.15489,-1.832 161.07563,-7.60374 28.34938,-3.90321 26.18995,-3.74297 24.59853,-1.82541 -0.7739,0.93248 -4.76302,3.34754 -8.86473,5.3668 -6.99073,3.44153 -8.92251,3.80537 -30.85471,5.81141 -49.79395,4.55443 -75.09797,5.68241 -136.68519,6.09304 -33.64658,0.22434 -67.03826,-0.0357 -74.20373,-0.57794 z"
       transform="translate(0,452.36218)"
       id="path4790"
       style="fill:#ffffff;fill-opacity:1;stroke:none" />
    <path
       d="m 197.99894,464.0294 c -26.73056,-0.73265 -35.27029,-1.85546 -37.86188,-4.97813 -1.08295,-1.30488 -0.0854,-1.72278 5.81566,-2.43631 12.40797,-1.50031 70.40026,-0.83291 93.22182,1.07284 39.9352,3.33484 60.89941,5.65374 58.75092,6.49858 -2.52649,0.99348 -81.73463,0.8898 -119.92652,-0.15698 z"
       transform="translate(0,452.36218)"
       id="path4792"
       style="fill:#ffffff;fill-opacity:1;stroke:none" />
    <path
       d="m 361.13386,465.23951 -9.06305,-0.63185 5.66441,-1.95574 c 12.86621,-4.44228 35.84368,-7.82858 62.87492,-9.26618 l 11.89525,-0.63262 -5.09797,2.32612 c -16.66451,7.60374 -43.63509,11.73855 -66.27356,10.16027 z"
       transform="translate(0,452.36218)"
       id="path4794"
       style="fill:#ffffff;fill-opacity:1;stroke:none" />
    <path
       d="m 435.33759,459.43099 c 3.90235,-3.46749 15.4288,-8.76174 21.54986,-9.89813 5.08103,-0.94331 11.78021,0.0681 12.94609,1.95454 0.52147,0.84375 -6.1862,2.7412 -34.49595,9.75819 l -2.8322,0.702 2.8322,-2.5166 z"
       transform="translate(0,452.36218)"
       id="path4796"
       style="fill:#ffffff;fill-opacity:1;stroke:none" />
    <path
       d="m 167.16302,545.60868 c -0.70898,-4.05005 -1.62475,-10.01452 -2.03504,-13.25437 -0.82352,-6.50297 -3.11235,-9.56772 -5.4118,-7.24642 -0.9438,0.95277 -1.27251,5.27368 -1.05991,13.93257 0.27234,11.0918 0.10904,12.38621 -1.40417,11.13035 -0.9418,-0.78162 -3.29316,-6.33367 -5.22525,-12.3379 -3.87632,-12.04615 -4.00872,-18.05845 -0.55754,-25.31937 2.59981,-5.46973 5.64414,-6.44014 9.35118,-2.98078 6.97044,6.50472 9.9893,18.1962 8.58387,33.24371 l -0.95229,10.19594 -1.28905,-7.36373 0,0 z"
       transform="translate(0,452.36218)"
       id="path4798"
       style="fill:#ffffff;fill-opacity:1;stroke:none" />
    <path
       d="m 127.88412,519.07599 c -1.49417,-5.95325 2.66726,-8.48192 6.67347,-4.05511 1.97872,2.18647 1.97872,2.34505 0,4.53153 -2.79895,3.09279 -5.832,2.87626 -6.67347,-0.47642 z"
       transform="translate(0,452.36218)"
       id="path4800"
       style="fill:#ffffff;fill-opacity:1;stroke:none" />
    <path
       d="m 140.19633,548.56071 c -2.268,-3.46141 -3.5497,-10.8822 -1.87954,-10.8822 0.6729,0 2.58045,1.77912 4.23901,3.95359 2.20243,2.88754 2.8231,4.72038 2.30183,6.79729 -0.89611,3.5704 -2.38052,3.61222 -4.6613,0.13132 z"
       transform="translate(0,452.36218)"
       id="path4802"
       style="fill:#ffffff;fill-opacity:1;stroke:none" />
    <path
       d="m 503.85668,146.07065 c -9.99244,-6.71041 -39.56779,-31.96379 -38.58509,-32.94649 1.08563,-1.08563 17.50535,9.1091 27.0748,16.81028 15.52462,12.49373 24.20311,24.66005 11.51029,16.13621 z"
       transform="translate(0,452.36218)"
       id="path4804"
       style="fill:#ffffff;fill-opacity:1;stroke:none" />
    <path
       d="m 439.21028,102.68734 c -4.20885,-1.70266 -8.55894,-7.933658 -8.18097,-11.718276 0.50219,-5.028388 2.7515,-4.99176 7.61805,0.124056 4.12922,4.340705 5.87115,8.373133 4.88937,11.31847 -0.52281,1.56844 -1.04823,1.60193 -4.32645,0.27575 l 0,0 z"
       transform="translate(0,452.36218)"
       id="path4806"
       style="fill:#ffffff;fill-opacity:1;stroke:none" />
    <path
       d="m 412.67997,96.497647 c -2.1808,-0.804778 -8.13236,-3.559045 -13.22569,-6.120595 -14.67835,-7.382065 -13.33281,-8.873557 2.65812,-2.946443 6.87353,2.54771 10.7471,4.630532 16.10153,8.657815 2.35597,1.772018 2.42847,2.021888 0.56644,1.95228 -1.17442,-0.0439 -3.91961,-0.73828 -6.1004,-1.543057 z"
       transform="translate(0,452.36218)"
       id="path4808"
       style="fill:#ffffff;fill-opacity:1;stroke:none" />
    <path
       d="m 327.74509,117.79838 c -3.81504,-3.21014 -9.09428,-12.56802 -9.09428,-16.12034 0,-5.450924 8.8084,-2.633266 11.74317,3.75644 4.10588,8.93948 4.92974,15.34368 1.97388,15.34368 -0.59483,0 -2.67508,-1.3409 -4.62277,-2.97978 z"
       transform="translate(0,452.36218)"
       id="path4810"
       style="fill:#ffffff;fill-opacity:1;stroke:none" />
    <path
       d="m 299.47407,44.407763 c -1.84897,-2.227874 -2.73808,-9.854231 -1.38321,-11.864467 1.35575,-2.011539 5.38041,-1.002814 9.58699,2.402847 l 3.18805,2.581057 -2.66054,3.957172 c -2.92957,4.357315 -6.53843,5.565625 -8.73129,2.923391 l 0,0 z"
       transform="translate(0,452.36218)"
       id="path4812"
       style="fill:#ffffff;fill-opacity:1;stroke:none" />
    <path
       d="m 558.95308,238.26843 c -0.0723,-1.11579 -7.80145,-17.10513 -17.17593,-35.53187 -9.37449,-18.42673 -16.84235,-34.0822 -16.59524,-34.78993 0.81571,-2.33624 12.07302,16.50544 22.3134,37.34657 10.02709,20.40704 13.15976,28.9055 12.12956,32.90568 -0.49998,1.94142 -0.5502,1.94661 -0.67179,0.0695 l 0,0 z"
       transform="translate(0,452.36218)"
       id="path4814"
       style="fill:#ffffff;fill-opacity:1;stroke:none" />
    <path
       d="m 567.44084,312.21653 c -0.93985,-9.02976 -2.96635,-56.99153 -2.43067,-57.52722 0.96762,-0.96761 5.42623,13.60772 6.57624,21.49794 0.9795,6.72036 0.93573,12.23521 -0.18834,23.72877 -1.84506,18.86569 -2.92463,22.22138 -3.95723,12.30051 z"
       transform="translate(0,452.36218)"
       id="path4816"
       style="fill:#ffffff;fill-opacity:1;stroke:none" />
    <path
       d=""
       transform="translate(0,452.36218)"
       id="path4818"
       style="fill:#ffffff;fill-opacity:1;stroke:none" />
    <path
       d="m 474.98844,515.55176 c 0,-5.14052 2.87452,-6.52334 5.87014,-2.8239 1.98831,2.45546 2.00149,2.74574 0.21441,4.72045 -1.0473,1.15725 -2.84477,2.1041 -3.99437,2.1041 -1.63706,0 -2.09018,-0.86728 -2.09018,-4.00065 z"
       transform="translate(0,452.36218)"
       id="path4820"
       style="fill:#ffffff;fill-opacity:1;stroke:none" />
  </g>
  <path
     style="fill:#ddafe9;fill-opacity:1;stroke:none"
     d="m 208.3974,420.62382 c -20.84794,-20.84794 -48.10667,-68.54031 -60.03189,-105.0329 -10.51945,-32.19077 -14.35677,-61.19246 -13.15278,-99.40609 0.89749,-28.48555 1.92746,-35.83291 7.19904,-51.35464 8.00974,-23.58405 20.70927,-44.67092 35.71777,-59.30739 14.09397,-13.744618 22.78192,-17.958162 26.87042,-13.031818 2.14372,2.58303 1.38659,7.401518 -3.62735,23.084828 -11.94055,37.34938 -10.10286,96.64321 4.71083,151.99718 10.55741,39.4496 35.69097,98.49378 56.36251,132.40775 4.44656,7.29505 7.52305,14.17241 6.83667,15.28302 -0.68639,1.11059 -7.63289,2.01926 -15.43666,2.01926 -12.20713,0 -14.93134,0.7905 -19.50634,5.66038 -7.67613,8.17086 -16.21529,7.40735 -25.94222,-2.31958 z"
     id="path6814"
     inkscape:connector-curvature="0" />
  <path
     style="fill:#ddafe9;fill-opacity:1;stroke:none"
     d="M 121.09159,406.85925 C 94.764555,370.62349 77.132314,329.5656 71.117261,290.49057 c -3.206207,-20.82819 -1.461533,-61.82077 3.42092,-80.37736 4.543395,-17.26795 25.657289,-59.97235 36.891659,-74.61608 8.29148,-10.80775 26.00261,-26.13864 30.19686,-26.13864 1.11616,0 -0.84637,4.87729 -4.36118,10.83843 -16.27233,27.59794 -22.92933,59.55578 -22.91866,110.02419 0.0122,58.33062 8.99909,93.65671 37.75724,148.42005 12.78897,24.35366 16.61043,33.58264 15.00032,36.22642 -3.18823,5.23499 -16.6401,11.4645 -24.76493,11.46853 -6.30489,0.002 -8.66971,-2.16459 -21.2479,-19.47686 l 0,0 z"
     id="path6816"
     inkscape:connector-curvature="0" />
  <path
     style="fill:#ddafe9;fill-opacity:1;stroke:none"
     d="M 87.042265,418.48188 C 74.376602,411.59284 54.241897,376.65841 45.449069,346.3162 33.722386,305.84987 33.297366,257.75337 44.315114,217.9945 c 5.79882,-20.92575 9.770032,-27.88264 7.730012,-13.54167 -11.103056,78.05241 0.899208,139.32768 38.967948,198.94342 4.267574,6.68303 7.218378,13.56039 6.557343,15.28302 -1.478069,3.85178 -3.14097,3.8206 -10.528152,-0.19739 l 0,0 z"
     id="path6818"
     inkscape:connector-curvature="0" />
  <path
     style="fill:#ddafe9;fill-opacity:1;stroke:none"
     d="M 290.48993,401.42602 C 260.24467,356.45065 231.98431,289.68717 220.47728,236.0252 c -7.2765,-33.93332 -7.30992,-81.92552 -0.0747,-107.34193 4.98738,-17.52013 14.39204,-37.611217 22.65049,-48.38802 7.82825,-10.215418 57.64571,-16.544489 92.18884,-11.712154 11.12641,1.556503 21.06035,3.317926 22.07543,3.914272 1.01509,0.596346 0.12358,2.98709 -1.98113,5.312764 -6.10324,6.744003 -4.57697,14.035851 7.3984,35.346438 6.17382,10.98653 18.38855,32.71135 27.14384,48.27739 16.9747,30.17932 39.17819,76.43279 39.17819,81.61451 0,1.72134 -8.44949,-13.64529 -18.77665,-34.14806 -20.26084,-40.22436 -43.00626,-77.47569 -64.48993,-105.61843 -15.07729,-19.750646 -19.78972,-24.408803 -26.8722,-26.562727 -10.60977,-3.226645 -17.27626,12.28573 -11.56407,26.908647 43.87155,112.30892 103.69815,279.83821 105.2285,294.66587 1.0872,10.53394 0.58665,12.44128 -4.63541,17.66334 -3.21982,3.2198 -6.86604,5.85421 -8.10271,5.85421 -5.3253,0 -42.39347,-76.66211 -62.69692,-129.66591 -22.98242,-59.99749 -38.05682,-113.47364 -51.12903,-181.37926 -4.22694,-21.957524 -6.09817,-27.497612 -10.19408,-30.18136 -4.24104,-2.778835 -5.99013,-2.820635 -11.31117,-0.270322 -10.05217,4.817875 -11.07742,11.694128 -6.59214,44.212682 6.43483,46.65293 22.35925,102.8535 43.10802,152.13706 11.15301,26.49125 44.1087,94.86765 52.15598,108.21315 12.49351,20.71909 10.29438,30.14151 -7.03482,30.14151 -5.25147,0 -14.30198,2.03773 -20.11223,4.5283 -17.56513,7.5293 -18.6807,6.96061 -35.54781,-18.12115 z"
     id="path6820"
     inkscape:connector-curvature="0" />
  <path
     style="fill:#ddafe9;fill-opacity:1;stroke:none"
     d="m 398.31496,272.90873 c -1.34187,-0.9149 -5.66858,-9.48048 -9.61491,-19.03463 -9.10723,-22.04881 -34.67936,-97.40422 -33.46618,-98.61741 3.0192,-3.01919 49.98299,89.84655 51.98256,102.7898 2.15908,13.97574 -1.42495,19.95977 -8.90147,14.86224 z"
     id="path6822"
     inkscape:connector-curvature="0" />
  <path
     style="fill:#ddafe9;fill-opacity:1;stroke:none"
     d="m 450.80419,242.37736 c -1.79436,-2.80189 -10.09118,-21.39623 -18.43738,-41.32076 -18.14707,-43.32172 -29.85021,-67.08349 -43.33817,-87.99271 -5.51339,-8.54694 -9.44873,-16.115494 -8.74521,-16.819016 0.70352,-0.703521 13.3175,10.874336 28.03107,25.728566 21.8305,22.0392 28.10979,29.92338 34.13294,42.85675 4.05955,8.71698 8.88183,18.97625 10.71618,22.79838 1.83434,3.82213 7.46681,11.33568 12.51659,16.69677 8.67075,9.2053 9.12202,10.36554 8.1136,20.86041 -1.76589,18.37799 -15.60319,28.72551 -22.98962,17.19161 l 0,0 z"
     id="path6824"
     inkscape:connector-curvature="0" />
  <path
     style="fill:#ddafe9;fill-opacity:1;stroke:none"
     d="m 490.18868,420.24004 c -6.50688,-2.3255 -9.0566,-8.43851 -9.0566,-21.71335 0,-15.16389 -6.02497,-46.43994 -15.35987,-79.73424 -7.75954,-27.67555 -6.67864,-35.54945 6.51658,-47.47053 8.44878,-7.63296 16.15264,-9.88005 21.49041,-6.26838 1.35215,0.91489 4.23322,8.79552 6.40239,17.5125 10.92863,43.91756 16.91422,95.70401 13.87407,120.0365 -1.47692,11.82092 -2.18807,13.04959 -9.2644,16.00627 -8.15421,3.40705 -9.28142,3.53297 -14.60258,1.63123 z"
     id="path6826"
     inkscape:connector-curvature="0" />
  <path
     style="fill:#ddafe9;fill-opacity:1;stroke:none"
     d="m 447.70941,421.44526 c -1.54207,-1.54207 -2.80375,-4.02159 -2.80375,-5.51007 0,-1.48848 -3.20601,-10.1998 -7.12446,-19.35849 -3.91845,-9.15869 -7.89794,-20.01367 -8.84331,-24.12216 -1.75182,-7.61327 0.94005,-21.93709 4.54085,-24.16251 3.87906,-2.39739 13.5233,3.23105 16.9756,9.90706 3.01446,5.82933 8.47492,41.68414 8.9981,59.08393 0.19266,6.40718 -6.96213,8.94314 -11.74303,4.16224 z"
     id="path6828"
     inkscape:connector-curvature="0" />
  <path
     style="fill:#ddafe9;fill-opacity:1;stroke:none"
     d="m 412.01252,324.3311 c -7.74381,-14.97487 -6.34663,-38.36884 2.29154,-38.36884 4.90602,0 14.1612,13.5731 17.32748,25.41148 2.55038,9.53557 2.41326,11.08228 -1.35125,15.24202 -6.26201,6.91944 -14.00918,5.95054 -18.26777,-2.28466 l 0,0 z"
     id="path6830"
     inkscape:connector-curvature="0" />
  <path
     style="fill:#ddafe9;fill-opacity:1;stroke:none"
     d="m 530.99374,386.62294 c -0.0731,-23.14544 -5.97319,-64.70517 -15.25478,-107.45313 -8.66278,-39.89797 -10.97438,-62.84426 -7.98311,-79.24528 l 1.85824,-10.18868 7.91299,13.5849 c 26.32374,45.19218 37.60664,97.12894 31.72568,146.03774 -2.91145,24.21296 -7.2576,39.20832 -13.78077,47.54717 l -4.4279,5.66038 -0.0504,-15.9431 10e-6,0 z"
     id="path6832"
     inkscape:connector-curvature="0" />
  <path
     style="fill:#ddafe9;fill-opacity:1;stroke:none"
     d="m 475.14794,171.62264 c -7.64977,-9.96226 -19.60268,-24.63826 -26.56203,-32.61334 -13.36366,-15.3141 -17.08036,-22.43807 -13.01664,-24.94959 3.458,-2.13716 45.04559,37.48423 50.43714,48.05254 2.85074,5.5879 4.18256,12.0533 3.73906,18.15152 l -0.68887,9.47208 -13.90866,-18.11321 z"
     id="path6834"
     inkscape:connector-curvature="0" />
  <path
     style="fill:#ddafe9;fill-opacity:1;stroke:none"
     d="m 220.75472,560.89241 c -8.09434,-1.66136 -18.9343,-3.06822 -24.08879,-3.12634 -5.71788,-0.0645 -11.45582,-1.79168 -14.71699,-4.43001 -4.89733,-3.96202 -5.40942,-6.31806 -6.11209,-28.12081 l -0.76693,-23.79649 111.71032,0.27182 c 78.06686,0.18997 117.75104,-0.57485 131.76799,-2.53951 32.37004,-4.53709 37.92851,-0.86842 41.04233,27.08864 2.20066,19.75837 -0.0928,21.22371 -47.63239,30.43417 -43.18581,8.36694 -57.1175,5.54504 -63.03663,-12.7682 -7.40308,-22.90449 -63.43516,-24.37953 -75.02104,-1.97492 -1.83396,3.54647 -3.33446,8.4787 -3.33446,10.96049 0,11.23508 -19.10419,14.30377 -49.81132,8.00116 z"
     id="path6836"
     inkscape:connector-curvature="0" />
  <path
     style="fill:#ddafe9;fill-opacity:1;stroke:none"
     d=""
     id="path6838"
     inkscape:connector-curvature="0" />
  <path
     style="fill:#ddafe9;fill-opacity:1;stroke:none"
     d="m 188.66868,462.7174 c -13.28883,-0.70589 -24.82687,-1.95356 -25.6401,-2.77259 -5.39639,-5.43495 96.27495,-3.60029 141.49972,2.55337 14.66496,1.99543 -79.08212,2.17282 -115.85962,0.21922 z"
     id="path6840"
     inkscape:connector-curvature="0" />
  <path
     style="fill:#ddafe9;fill-opacity:1;stroke:none"
     d=""
     id="path6842"
     inkscape:connector-curvature="0" />
  <path
     style="fill:#ddafe9;fill-opacity:1;stroke:none"
     d="m 219.2622,482.78698 c -27.81781,-1.77501 -62.1629,-7.18507 -71.52658,-11.26692 -3.80282,-1.65774 -1.65051,-1.9578 8.4908,-1.18373 63.98064,4.88354 107.85482,6.19238 170.94339,5.09951 64.71021,-1.12095 123.22051,-5.37526 134.74417,-9.79731 2.69722,-1.03502 3.58656,-0.72788 2.58496,0.89272 -5.24479,8.48627 -40.55314,12.81447 -133.9329,16.41788 -62.43408,2.40926 -71.20509,2.39648 -111.30384,-0.16215 z"
     id="path6846"
     inkscape:connector-curvature="0" />
  <path
     style="fill:#ddafe9;fill-opacity:1;stroke:none"
     d="m 413.07001,96.934086 c -5.84685,-2.061124 -22.94211,-10.764744 -24.45445,-12.45037 -1.28528,-1.432531 -1.26279,-1.443337 1.90276,-0.914228 8.0752,1.349739 22.66852,7.782424 27.9929,12.339171 l 2.90199,2.483595 -2.17649,-0.02577 c -1.19707,-0.01417 -3.97209,-0.658752 -6.16671,-1.432399 z"
     id="path6848"
     inkscape:connector-curvature="0" />
  <path
     style="fill:#ddafe9;fill-opacity:1;stroke:none"
     d="m 440.63884,103.3572 c -6.974,-1.86894 -12.07421,-10.129342 -9.37183,-15.178788 0.6083,-1.136626 1.22097,-1.359651 2.72061,-0.990363 2.20373,0.542675 6.10564,4.049908 8.08638,7.268459 1.49846,2.434876 2.66529,8.711012 1.71771,9.239162 -0.3375,0.18811 -1.75629,0.0358 -3.15287,-0.33847 z"
     id="path6850"
     inkscape:connector-curvature="0" />
  <path
     style="fill:#ddafe9;fill-opacity:1;stroke:none"
     d="m 505.20149,147.29253 c -7.39639,-4.9412 -17.81293,-13.21601 -28.65062,-22.75982 -16.42447,-14.4636 -16.96962,-15.20366 -7.78096,-10.56291 14.71214,7.43039 34.69621,23.47662 41.36724,33.21586 3.81599,5.57108 3.26161,5.58309 -4.93566,0.10687 l 0,0 z"
     id="path6852"
     inkscape:connector-curvature="0" />
  <path
     style="fill:#ddafe9;fill-opacity:1;stroke:none"
     d="m 558.22324,237.24955 c -2.10435,-5.9184 -11.23914,-24.4787 -24.11374,-48.9949 -6.83727,-13.01976 -9.35133,-18.48203 -9.18267,-19.95113 0.22258,-1.93868 0.37322,-1.83424 3.61638,2.50702 8.06258,10.79252 28.52736,51.22198 30.7255,60.70016 0.63323,2.73046 1.05297,6.2522 0.93275,7.8261 l -0.21859,2.86163 -1.75963,-4.94888 z"
     id="path6854"
     inkscape:connector-curvature="0" />
  <path
     style="fill:#ddafe9;fill-opacity:1;stroke:none"
     d="m 567.69515,316.28555 c -0.47039,-3.09724 -1.18223,-13.95641 -1.58188,-24.13148 -0.39965,-10.17508 -1.00788,-23.07076 -1.35163,-28.65708 -0.34375,-5.58632 -0.50422,-10.28731 -0.3566,-10.44665 0.49223,-0.53132 4.57587,8.9386 5.65047,13.1034 1.83761,7.12201 2.80361,17.94986 2.28724,25.63758 -0.49489,7.36785 -3.1224,29.45562 -3.55549,29.88871 -0.13027,0.13027 -0.62172,-2.29725 -1.09211,-5.39448 z"
     id="path6856"
     inkscape:connector-curvature="0" />
  <path
     style="fill:#ddafe9;fill-opacity:1;stroke:none"
     d="m 360.47157,465.5162 c -4.38925,-0.28026 -8.14369,-0.55611 -8.3432,-0.61298 -1.74624,-0.4978 9.83297,-4.26812 18.86289,-6.14197 14.26505,-2.96021 45.18421,-6.21418 59.49064,-6.26085 l 3.26473,-0.0106 -4.49739,2.12763 c -6.67088,3.15586 -19.1101,6.98886 -28.14991,8.67407 -7.29078,1.35915 -26.46057,3.13153 -30.83357,2.85078 -0.99755,-0.0641 -5.40494,-0.34576 -9.79419,-0.62603 z"
     id="path6858"
     inkscape:connector-curvature="0" />
  <path
     style="fill:#ddafe9;fill-opacity:1;stroke:none"
     d="m 167.26602,548.07265 c -0.46897,-2.49389 -1.34698,-8.23224 -1.95113,-12.75189 -1.19628,-8.94926 -1.99876,-11.21889 -3.84122,-10.86406 -2.66437,0.51311 -3.14841,3.2776 -2.65941,15.18872 0.29747,7.2458 0.20518,11.5035 -0.25551,11.78822 -1.79639,1.11024 -7.93092,-14.51641 -9.6623,-24.61303 -0.79277,-4.62307 -0.72952,-5.55532 0.69517,-10.24578 1.98185,-6.5248 4.98535,-10.0642 7.92401,-9.33785 4.28203,1.0584 8.83574,7.69848 11.45244,16.69963 1.00389,3.45325 1.14184,5.72167 0.7257,11.93275 -0.28261,4.21792 -0.46889,9.7094 -0.41396,12.20329 0.0549,2.49389 -0.18386,4.53435 -0.53063,4.53435 -0.34678,0 -1.0142,-2.04046 -1.48316,-4.53435 z"
     id="path6860"
     inkscape:connector-curvature="0" />
  <path
     style="fill:#ddafe9;fill-opacity:1;stroke:none"
     d="m 431.2074,462.76905 c 0,-1.75627 9.21757,-7.66118 17.18401,-11.00832 5.7182,-2.40254 12.38407,-3.58933 15.98924,-2.84674 2.95131,0.60792 6.35813,2.79905 5.53695,3.56114 -0.34193,0.31732 -7.47762,2.2379 -15.85709,4.26795 -8.37948,2.03006 -16.94939,4.3505 -19.04426,5.15653 -2.09487,0.80603 -3.80885,1.19728 -3.80885,0.86944 z"
     id="path6862"
     inkscape:connector-curvature="0" />
  <path
     style="fill:#ddafe9;fill-opacity:1;stroke:none"
     d="m 330.00237,119.79415 c -3.30428,-1.7229 -4.61023,-3.1388 -7.71447,-8.36402 -3.47675,-5.85224 -4.41502,-8.84799 -3.51369,-11.21866 1.02077,-2.684848 4.96963,-2.436596 8.34206,0.52443 3.19971,2.80938 4.80699,5.93964 6.53029,12.71803 1.09449,4.30506 1.16125,5.41071 0.38329,6.34809 -1.16082,1.3987 -1.33051,1.39837 -4.02748,-0.008 l 0,0 z"
     id="path6864"
     inkscape:connector-curvature="0" />
</svg>
