<?xml version="1.0" encoding="UTF-8" standalone="no"?>
<!-- Created with Inkscape (http://www.inkscape.org/) -->

<svg
   xmlns:dc="http://purl.org/dc/elements/1.1/"
   xmlns:cc="http://creativecommons.org/ns#"
   xmlns:rdf="http://www.w3.org/1999/02/22-rdf-syntax-ns#"
   xmlns:svg="http://www.w3.org/2000/svg"
   xmlns="http://www.w3.org/2000/svg"
   xmlns:sodipodi="http://sodipodi.sourceforge.net/DTD/sodipodi-0.dtd"
   xmlns:inkscape="http://www.inkscape.org/namespaces/inkscape"
   version="1.1"
   width="600"
   height="600"
   id="svg2"
   inkscape:version="0.48.2 r9819"
   sodipodi:docname="extract_stat2.svg">
  <sodipodi:namedview
     pagecolor="#ffffff"
     bordercolor="#666666"
     borderopacity="1"
     objecttolerance="10"
     gridtolerance="10"
     guidetolerance="10"
     inkscape:pageopacity="0"
     inkscape:pageshadow="2"
     inkscape:window-width="1680"
     inkscape:window-height="964"
     id="namedview5662"
     showgrid="false"
     inkscape:zoom="0.44166667"
     inkscape:cx="-191.32075"
     inkscape:cy="300"
     inkscape:window-x="0"
     inkscape:window-y="30"
     inkscape:window-maximized="1"
     inkscape:current-layer="svg2" />
  <defs
     id="defs4">
    <filter
       x="0"
       y="0"
       width="1"
       height="1"
       color-interpolation-filters="sRGB"
       id="filter3736">
      <feGaussianBlur
         id="feGaussianBlur3738"
         stdDeviation="0.5"
         result="result8" />
      <feConvolveMatrix
         id="feConvolveMatrix3740"
         bias="0"
         result="result0"
         preserveAlpha="true"
         targetY="1"
         targetX="1"
         divisor="1"
         in="result8"
         kernelMatrix="1 1 1 1 -8 1 1 1 1 "
         order="3 3" />
      <feColorMatrix
         id="feColorMatrix3742"
         values="0 -6 0 0 1 0 -6 0 0 1 0 -6 0 0 1 0 0 0 1 0 "
         result="result3" />
      <feComposite
         in2="result3"
         operator="arithmetic"
         k1="1"
         k2="0"
         k3="0.3"
         k4="0"
         in="SourceGraphic"
         result="fbSourceGraphic"
         id="feComposite3744" />
      <feGaussianBlur
         id="feGaussianBlur3746"
         stdDeviation="0.01"
         in="fbSourceGraphic"
         result="result7" />
      <feBlend
         in2="result7"
         mode="multiply"
         in="result7"
         result="result9"
         id="feBlend3748" />
      <feComposite
         in2="SourceGraphic"
         operator="in"
         id="feComposite3750" />
    </filter>
  </defs>
  <metadata
     id="metadata7">
    <rdf:RDF>
      <cc:Work
         rdf:about="">
        <dc:format>image/svg+xml</dc:format>
        <dc:type
           rdf:resource="http://purl.org/dc/dcmitype/StillImage" />
        <dc:title />
      </cc:Work>
    </rdf:RDF>
  </metadata>
  <g
     transform="translate(0,-452.36218)"
     id="layer1"
     style="fill:#ddafe9;fill-opacity:1">
    <path
       d=""
       transform="translate(0,452.36218)"
       id="path4818"
       style="fill:#ddafe9;fill-opacity:1;stroke:none" />
    <g
       transform="matrix(0.93819232,0,0,0.96473999,2.3694758,34.026165)"
       id="g4981"
       style="fill:#ddafe9;fill-opacity:1">
      <rect
         width="300.9129"
         height="251.24666"
         rx="282.08228"
         ry="75.472778"
         x="165.1877"
         y="759.26434"
         id="rect4948"
         style="fill:#ddafe9;fill-opacity:1;stroke:#000000;stroke-width:10.28871917999999930;stroke-linecap:round;stroke-linejoin:round;stroke-miterlimit:4;stroke-opacity:1;stroke-dasharray:none;stroke-dashoffset:0" />
      <path
         d="m 1188.7851,119.35915 a 257.94394,83.311081 0 1 1 -515.88791,0 257.94394,83.311081 0 1 1 515.88791,0 z"
         transform="matrix(1.1775652,0,0,1.0882307,-777.27768,613.20829)"
         id="path4946"
         style="fill:#ddafe9;fill-opacity:1;stroke:#000000;stroke-width:10;stroke-miterlimit:4;stroke-opacity:1;stroke-dasharray:none" />
      <path
         d="m 313.23506,680.27443 c -77.6148,0 -140.52401,21.67267 -140.52401,48.4091 0,26.73653 62.90921,48.4091 140.52401,48.4091 77.61482,0 140.55092,-21.67257 140.55092,-48.4091 0,-26.73643 -62.9361,-48.4091 -140.55092,-48.4091 z"
         id="path4950"
         style="fill:#ddafe9;fill-opacity:1;stroke:#000000;stroke-width:9.30681992000000058;stroke-linecap:round;stroke-linejoin:round;stroke-miterlimit:4;stroke-opacity:1;stroke-dasharray:none;stroke-dashoffset:0" />
      <path
         d="m 316.43715,591.70248 c -90.2532,0 -163.4062,21.5175 -163.4062,48.0625 0,26.5451 73.153,48.0625 163.4062,48.0625 90.25323,0 163.43743,-21.5174 163.43743,-48.0625 0,-26.545 -73.1842,-48.0625 -163.43743,-48.0625 z m -3.1875,12 c 73.01303,0 132.18753,14.6905 132.18753,32.8438 0,18.1533 -59.1745,32.875 -132.18753,32.875 -73.0131,0 -132.2187,-14.7217 -132.2187,-32.875 0,-18.1533 59.2056,-32.8438 132.2187,-32.8438 z"
         id="path4955"
         style="fill:#ddafe9;fill-opacity:1;stroke:#000000;stroke-width:10;stroke-linecap:round;stroke-linejoin:round;stroke-miterlimit:4;stroke-opacity:1;stroke-dasharray:none;stroke-dashoffset:0" />
      <rect
         width="21.629076"
         height="223.498"
         x="148.2209"
         y="517.99847"
         id="rect4979"
         style="fill:#ddafe9;fill-opacity:1;stroke:none" />
      <path
         d="m 172.25296,528.41233 0.80107,201.86915 0,0"
         id="path4963"
         style="fill:#ddafe9;stroke:#000000;stroke-width:10;stroke-linecap:butt;stroke-linejoin:miter;stroke-miterlimit:4;stroke-opacity:1;stroke-dasharray:none;fill-opacity:1" />
      <rect
         width="21.629076"
         height="223.498"
         x="304.42923"
         y="580.48175"
         id="rect4975"
         style="fill:#ddafe9;fill-opacity:1;stroke:none" />
      <path
         d="m 327.67209,572.48299 0.77723,209.05492 0,0"
         id="path4965"
         style="fill:#ddafe9;stroke:#000000;stroke-width:10.02384185999999922;stroke-linecap:butt;stroke-linejoin:miter;stroke-miterlimit:4;stroke-opacity:1;stroke-dasharray:none;fill-opacity:1" />
      <path
         d="m 303.63484,575.68205 0.78765,205.86107 0,0"
         id="path4967"
         style="fill:#ddafe9;stroke:#000000;stroke-width:10.01342391999999926;stroke-linecap:butt;stroke-linejoin:miter;stroke-miterlimit:4;stroke-opacity:1;stroke-dasharray:none;fill-opacity:1" />
      <path
         d="m 452.62678,523.60592 0.8011,201.86915 0,0"
         id="path4969"
         style="fill:#ddafe9;stroke:#000000;stroke-width:10;stroke-linecap:butt;stroke-linejoin:miter;stroke-miterlimit:4;stroke-opacity:1;stroke-dasharray:none;fill-opacity:1" />
      <rect
         width="21.629076"
         height="223.498"
         x="457.43326"
         y="544.43365"
         id="rect4977"
         style="fill:#ddafe9;fill-opacity:1;stroke:none" />
      <path
         d="m 479.06208,524.40699 0.8011,201.86915 0,0"
         id="path4971"
         style="fill:#ddafe9;stroke:#000000;stroke-width:10;stroke-linecap:butt;stroke-linejoin:miter;stroke-miterlimit:4;stroke-opacity:1;stroke-dasharray:none;fill-opacity:1" />
      <path
         d="m 148.22096,516.39631 0.8011,201.86915 0,0"
         id="path4973"
         style="fill:#ddafe9;stroke:#000000;stroke-width:10;stroke-linecap:butt;stroke-linejoin:miter;stroke-miterlimit:4;stroke-opacity:1;stroke-dasharray:none;fill-opacity:1" />
      <path
         d="m 1188.7851,119.35915 a 257.94394,83.311081 0 1 1 -515.88791,0 257.94394,83.311081 0 1 1 515.88791,0 z"
         transform="matrix(1.1799278,0,0,0.86477632,-777.07364,432.40297)"
         id="path4942"
         style="fill:#ddafe9;fill-opacity:1;stroke:#000000;stroke-width:10;stroke-miterlimit:4;stroke-opacity:1;stroke-dasharray:none" />
    </g>
  </g>
  <path
     style="fill:#666666;fill-opacity:1;stroke:none"
     d="m 315.84906,287.64638 0,-37.43105 18.67924,-0.98696 c 38.82281,-2.05129 87.73585,17.9137 87.73585,35.81142 0,6.31873 -13.20694,18.06284 -26.93677,23.9532 -14.22298,6.10193 -43.0815,12.78624 -62.99244,14.59052 l -16.48588,1.49392 0,-37.43105 z"
     id="path6172"
     inkscape:connector-curvature="0" />
  <path
     style="fill:#666666;fill-opacity:1;stroke:none"
     d="m 239.24605,320.9312 c -40.79836,-7.44982 -68.30265,-22.24713 -68.30265,-36.74683 0,-18.26825 49.14003,-37.34429 90.17248,-35.00472 l 20.77091,1.1843 0,37.04444 0,37.04444 -13.01887,-0.24496 c -7.16037,-0.13471 -20.49022,-1.60923 -29.62187,-3.27667 z"
     id="path6174"
     inkscape:connector-curvature="0" />
</svg>
