<?xml version="1.0" encoding="UTF-8" standalone="no"?>
<!-- Created with Inkscape (http://www.inkscape.org/) -->

<svg
   xmlns:dc="http://purl.org/dc/elements/1.1/"
   xmlns:cc="http://creativecommons.org/ns#"
   xmlns:rdf="http://www.w3.org/1999/02/22-rdf-syntax-ns#"
   xmlns:svg="http://www.w3.org/2000/svg"
   xmlns="http://www.w3.org/2000/svg"
   xmlns:xlink="http://www.w3.org/1999/xlink"
   xmlns:sodipodi="http://sodipodi.sourceforge.net/DTD/sodipodi-0.dtd"
   xmlns:inkscape="http://www.inkscape.org/namespaces/inkscape"
   version="1.1"
   width="600"
   height="600"
   id="svg2"
   inkscape:version="0.48.2 r9819"
   sodipodi:docname="pas_de_term.svg">
  <sodipodi:namedview
     pagecolor="#ffffff"
     bordercolor="#666666"
     borderopacity="1"
     objecttolerance="10"
     gridtolerance="10"
     guidetolerance="10"
     inkscape:pageopacity="0"
     inkscape:pageshadow="2"
     inkscape:window-width="1680"
     inkscape:window-height="964"
     id="namedview4234"
     showgrid="false"
     inkscape:zoom="0.44166667"
     inkscape:cx="300"
     inkscape:cy="-140.47683"
     inkscape:window-x="0"
     inkscape:window-y="30"
     inkscape:window-maximized="1"
     inkscape:current-layer="svg2" />
  <defs
     id="defs4">
    <linearGradient
       id="linearGradient3796">
      <stop
         id="stop3798"
         style="stop-color:#a0a0a0;stop-opacity:1"
         offset="0" />
      <stop
         id="stop3804"
         style="stop-color:#ffffff;stop-opacity:1"
         offset="0.80434781" />
      <stop
         id="stop3800"
         style="stop-color:#333333;stop-opacity:1"
         offset="1" />
    </linearGradient>
    <linearGradient
       id="linearGradient3782">
      <stop
         id="stop3784"
         style="stop-color:#787878;stop-opacity:1"
         offset="0" />
      <stop
         id="stop3794"
         style="stop-color:#bbbbbb;stop-opacity:0.49803922"
         offset="1" />
    </linearGradient>
    <linearGradient
       x1="380"
       y1="822.36218"
       x2="570"
       y2="822.36218"
       id="linearGradient3802"
       xlink:href="#linearGradient3796"
       gradientUnits="userSpaceOnUse" />
    <linearGradient
       x1="316.36365"
       y1="132.1739"
       x2="381.81815"
       y2="116.52174"
       id="linearGradient3820"
       xlink:href="#linearGradient3782"
       gradientUnits="userSpaceOnUse" />
  </defs>
  <metadata
     id="metadata7">
    <rdf:RDF>
      <cc:Work
         rdf:about="">
        <dc:format>image/svg+xml</dc:format>
        <dc:type
           rdf:resource="http://purl.org/dc/dcmitype/StillImage" />
        <dc:title />
      </cc:Work>
    </rdf:RDF>
  </metadata>
  <g
     transform="matrix(0.67654987,0,0,0.97616683,96.38814,-436.69516)"
     id="layer1">
    <path
       d="m 270,582.36218 70,0 c 132.96,0 240,8.92 240,20 l 0,330 c 0,40 -107.04,100.00002 -240,100.00002 l -70,0 c -132.96,0 -240,-60.00002 -240,-100.00002 l 0,-330 c 0,-11.08 107.04,-20 240,-20 z"
       id="rect3780"
       style="fill:url(#linearGradient3802);fill-opacity:1;stroke:#000000;stroke-width:10;stroke-linecap:round;stroke-linejoin:round;stroke-miterlimit:3;stroke-opacity:1;stroke-dashoffset:0"
       inkscape:connector-curvature="0" />
    <path
       d="m 520,140 a 200,60 0 1 1 -400,0 200,60 0 1 1 400,0 z"
       transform="matrix(1.375,0,0,1.9166666,-135,319.02886)"
       id="path3778"
       style="fill:#ffffff;fill-opacity:1;stroke:#000000;stroke-width:6.15992403;stroke-linecap:round;stroke-linejoin:round;stroke-miterlimit:3;stroke-opacity:1;stroke-dasharray:none;stroke-dashoffset:0"
       inkscape:connector-curvature="0" />
  </g>
  <path
     style="fill:#ddafe9;fill-opacity:1;stroke:none"
     d="m 249.22231,237.69113 c -65.54646,-12.57862 -112.69698,-43.82243 -124.9699,-82.81002 -13.60606,-43.2226 23.94573,-88.929568 90.66517,-110.355041 60.41158,-19.399843 127.15066,-18.305213 184.48841,3.025913 60.49945,22.507353 94.24018,65.437138 82.71389,105.240368 -9.62385,33.23353 -48.22819,64.14536 -97.49577,78.0682 -41.84343,11.82481 -95.31964,14.52251 -135.4018,6.83058 l 0,0 z"
     id="path4238"
     inkscape:connector-curvature="0" />
</svg>
