<?xml version="1.0" encoding="UTF-8" standalone="no"?>
<!-- Created with Inkscape (http://www.inkscape.org/) -->

<svg
   xmlns:dc="http://purl.org/dc/elements/1.1/"
   xmlns:cc="http://creativecommons.org/ns#"
   xmlns:rdf="http://www.w3.org/1999/02/22-rdf-syntax-ns#"
   xmlns:svg="http://www.w3.org/2000/svg"
   xmlns="http://www.w3.org/2000/svg"
   xmlns:sodipodi="http://sodipodi.sourceforge.net/DTD/sodipodi-0.dtd"
   xmlns:inkscape="http://www.inkscape.org/namespaces/inkscape"
   width="600"
   height="600"
   id="svg2"
   version="1.1"
   inkscape:version="0.48.3.1 r9886"
   sodipodi:docname="compteur_AEP1.svg">
  <defs
     id="defs4" />
  <sodipodi:namedview
     id="base"
     pagecolor="#e0e0e1"
     bordercolor="#666666"
     borderopacity="1.0"
     inkscape:pageopacity="1"
     inkscape:pageshadow="2"
     inkscape:zoom="1.2483333"
     inkscape:cx="300"
     inkscape:cy="300"
     inkscape:document-units="px"
     inkscape:current-layer="layer1"
     showgrid="true"
     showguides="true"
     inkscape:guide-bbox="true"
     inkscape:window-width="1680"
     inkscape:window-height="996"
     inkscape:window-x="0"
     inkscape:window-y="25"
     inkscape:window-maximized="1"
     inkscape:snap-global="true">
    <inkscape:grid
       type="xygrid"
       id="grid3753"
       empspacing="5"
       visible="true"
       enabled="true"
       snapvisiblegridlinesonly="true" />
    <sodipodi:guide
       orientation="1,0"
       position="300,620"
       id="guide3755" />
    <sodipodi:guide
       orientation="0,1"
       position="-46.461951,298.79841"
       id="guide3757" />
  </sodipodi:namedview>
  <metadata
     id="metadata7">
    <rdf:RDF>
      <cc:Work
         rdf:about="">
        <dc:format>image/svg+xml</dc:format>
        <dc:type
           rdf:resource="http://purl.org/dc/dcmitype/StillImage" />
        <dc:title></dc:title>
      </cc:Work>
    </rdf:RDF>
  </metadata>
  <g
     inkscape:label="Calque 1"
     inkscape:groupmode="layer"
     id="layer1"
     transform="translate(0,-452.36218)">
    <g
       id="g3807"
       transform="matrix(2.3142291,0,0,2.2762208,-1273.873,-118.01571)">
      <g
         id="g3804">
        <path
           sodipodi:type="arc"
           style="fill:#ffffff;fill-opacity:1;stroke:#0000ff;stroke-width:10.04992485;stroke-linecap:round;stroke-linejoin:round;stroke-miterlimit:4;stroke-opacity:1;stroke-dasharray:none;stroke-dashoffset:0"
           id="path2996"
           sodipodi:cx="406.5864"
           sodipodi:cy="382.88358"
           sodipodi:rx="123.23861"
           sodipodi:ry="121.97592"
           d="m 529.825,382.88358 c 0,67.36544 -55.1758,121.97592 -123.2386,121.97592 -68.06281,0 -123.23861,-54.61048 -123.23861,-121.97592 0,-67.36545 55.1758,-121.97593 123.23861,-121.97593 68.0628,0 123.2386,54.61048 123.2386,121.97593 z"
           transform="matrix(0.98175892,0,0,1.0084852,280.91537,-3.7539223)" />
      </g>
      <path
         transform="matrix(1.019919,0,0,1.0561464,-14.144017,-29.336489)"
         d="m 787.41389,390.20718 c 0,58.02075 -47.60044,105.05587 -106.31855,105.05587 -58.71812,0 -106.31856,-47.03512 -106.31856,-105.05587 0,-58.02075 47.60044,-105.05586 106.31856,-105.05586 58.71811,0 106.31855,47.03511 106.31855,105.05586 z"
         sodipodi:ry="105.05586"
         sodipodi:rx="106.31856"
         sodipodi:cy="390.20718"
         sodipodi:cx="681.09534"
         id="path3774"
         style="fill:#ffffff;fill-opacity:1;stroke:#000000;stroke-width:10;stroke-linecap:round;stroke-linejoin:round;stroke-miterlimit:4;stroke-opacity:1;stroke-dasharray:none;stroke-dashoffset:0"
         sodipodi:type="arc" />
    </g>
    <g
       transform="matrix(2.6172462,0,0,1.8899504,-1065.3681,108.13005)"
       style="font-size:144px;font-style:normal;font-variant:normal;font-weight:normal;font-stretch:normal;fill:#000000;fill-opacity:1;stroke:none;font-family:Liberation Mono;-inkscape-font-specification:Liberation Mono"
       id="flowRoot3014">
      <path
         d="m 480.33594,383.81573 0,-48.23437 c -4e-5,-3.70308 -0.14066,-6.79682 -0.42188,-9.28125 -0.28128,-2.48432 -0.75003,-4.4765 -1.40625,-5.97656 -0.60941,-1.54681 -1.42972,-2.62494 -2.46094,-3.23438 -0.9844,-0.65618 -2.22659,-0.98431 -3.72656,-0.98437 -1.5469,6e-5 -2.92971,0.60944 -4.14844,1.82812 -1.21877,1.17194 -2.27346,2.85944 -3.16406,5.0625 -0.89064,2.15631 -1.57033,4.78131 -2.03906,7.875 -0.46877,3.04693 -0.70314,6.4688 -0.70313,10.26563 l 0,42.67968 -11.88281,0 0,-59.83593 c 0,-1.59369 -0.0234,-3.25775 -0.0703,-4.99219 -10e-6,-1.78119 -0.0234,-3.44525 -0.0703,-4.99219 -0.0469,-1.59368 -0.0938,-2.95305 -0.14063,-4.07812 -0.0469,-1.12493 -0.0937,-1.85149 -0.14062,-2.17969 l 10.47656,0 c 0.0469,0.23445 0.0937,0.84382 0.14062,1.82812 0.0469,0.93758 0.0937,2.03914 0.14063,3.30469 0.0469,1.21882 0.0703,2.48444 0.0703,3.79688 0.0469,1.31256 0.0703,2.43756 0.0703,3.375 l 0.14063,0 c 0.60936,-1.82806 1.33592,-3.56244 2.17969,-5.20313 0.84373,-1.68743 1.85154,-3.16399 3.02343,-4.42969 1.21873,-1.26555 2.64842,-2.24992 4.28907,-2.95312 1.64059,-0.74993 3.53903,-1.12492 5.69531,-1.125 4.12496,8e-5 7.19527,1.12507 9.21094,3.375 2.06245,2.25007 3.53901,5.71882 4.42968,10.40625 l 0.14063,0 c 0.8437,-2.20306 1.75776,-4.14837 2.74219,-5.83594 1.0312,-1.7343 2.20307,-3.18743 3.51562,-4.35937 1.31245,-1.1718 2.81245,-2.06243 4.5,-2.67188 1.68744,-0.6093 3.63275,-0.91398 5.83594,-0.91406 2.85931,8e-5 5.27337,0.5157 7.24219,1.54687 1.96867,1.03133 3.56242,2.62508 4.78125,4.78125 1.21867,2.15632 2.08586,4.92194 2.60156,8.29688 0.56242,3.37506 0.84367,7.42974 0.84375,12.16406 l 0,50.69531 -11.8125,0 0,-48.23437 c -7e-5,-3.70308 -0.14069,-6.79682 -0.42188,-9.28125 -0.28131,-2.48432 -0.75006,-4.4765 -1.40625,-5.97656 -0.60943,-1.54681 -1.42975,-2.62494 -2.46093,-3.23438 -0.98444,-0.65618 -2.22663,-0.98431 -3.72657,-0.98437 -3.0938,6e-5 -5.55474,1.96881 -7.38281,5.90625 -1.7813,3.93755 -2.67192,9.8438 -2.67187,17.71875 l 0,44.08593 -11.8125,0"
         id="path3023"
         inkscape:connector-curvature="0" />
      <path
         d="m 594.10156,327.9173 c -6e-5,5.43755 -1.82819,9.65629 -5.48437,12.65625 -3.60943,3.00004 -8.74224,4.50003 -15.39844,4.5 -4.07816,3e-5 -7.4766,-0.44528 -10.19531,-1.33594 -2.71878,-0.93746 -4.94534,-2.15621 -6.67969,-3.65625 -1.68753,-1.49996 -2.95315,-3.18746 -3.79688,-5.0625 -0.84377,-1.92183 -1.40627,-3.89057 -1.6875,-5.90625 l 9.5625,-0.91406 c 0.42185,3.14067 1.66403,5.5313 3.72657,7.17187 2.06246,1.5938 5.0859,2.39067 9.07031,2.39063 3.60933,4e-5 6.37495,-0.84371 8.29687,-2.53125 1.9687,-1.68745 2.95307,-4.31245 2.95313,-7.875 -6e-5,-2.10932 -0.44537,-3.79682 -1.33594,-5.0625 -0.8438,-1.26557 -1.92192,-2.2265 -3.23437,-2.88282 -1.31255,-0.70306 -2.76568,-1.14837 -4.35938,-1.33593 -1.54692,-0.23431 -3.00004,-0.3515 -4.35937,-0.35157 l -4.28907,0 0,-7.66406 4.00782,0 c 1.35933,7e-5 2.74214,-0.14055 4.14843,-0.42187 1.45308,-0.32806 2.76558,-0.84368 3.9375,-1.54688 1.17183,-0.74992 2.13277,-1.7343 2.88282,-2.95312 0.74994,-1.26555 1.12494,-2.83586 1.125,-4.71094 -6e-5,-2.81242 -0.86724,-5.01554 -2.60157,-6.60938 -1.73442,-1.64053 -4.26567,-2.46084 -7.59375,-2.46093 -3.18754,9e-5 -5.76566,0.8204 -7.73437,2.46093 -1.96878,1.64072 -3.09378,3.98446 -3.375,7.03125 l -9.49219,-0.84375 c 0.3281,-2.71866 1.0781,-5.08585 2.25,-7.10156 1.17185,-2.01553 2.67185,-3.67959 4.5,-4.99219 1.87497,-1.35927 4.00778,-2.36709 6.39844,-3.02343 2.43746,-0.65616 5.01558,-0.98428 7.73437,-0.98438 3.23433,10e-5 6.07027,0.39854 8.50782,1.19531 2.43744,0.7501 4.4765,1.82822 6.11718,3.23438 1.64057,1.35947 2.85932,2.97665 3.65625,4.85156 0.84369,1.82821 1.26557,3.8204 1.26563,5.97656 -6e-5,3.51571 -1.00787,6.56258 -3.02344,9.14063 -2.01568,2.5782 -5.13287,4.33601 -9.35156,5.27344 l 0,0.14062 c 2.43745,0.23445 4.52338,0.79694 6.25781,1.6875 1.78119,0.84382 3.23432,1.8985 4.35938,3.16406 1.12493,1.26569 1.94525,2.69538 2.46093,4.28907 0.51557,1.5938 0.77338,3.2813 0.77344,5.0625"
         id="path3025"
         inkscape:connector-curvature="0" />
    </g>
  </g>
</svg>
