<?xml version="1.0" encoding="UTF-8" standalone="no"?>
<!-- Created with Inkscape (http://www.inkscape.org/) -->

<svg
   xmlns:dc="http://purl.org/dc/elements/1.1/"
   xmlns:cc="http://creativecommons.org/ns#"
   xmlns:rdf="http://www.w3.org/1999/02/22-rdf-syntax-ns#"
   xmlns:svg="http://www.w3.org/2000/svg"
   xmlns="http://www.w3.org/2000/svg"
   version="1.1"
   width="600"
   height="600"
   id="svg2">
  <defs
     id="defs4" />
  <metadata
     id="metadata7">
    <rdf:RDF>
      <cc:Work
         rdf:about="">
        <dc:format>image/svg+xml</dc:format>
        <dc:type
           rdf:resource="http://purl.org/dc/dcmitype/StillImage" />
        <dc:title></dc:title>
      </cc:Work>
    </rdf:RDF>
  </metadata>
  <g
     transform="translate(0,-452.36218)"
     id="layer1">
    <path
       d="m 223.66283,522.1967 c -4.69934,0.34215 -9.92852,1.17706 -13.47497,4.49607 -0.0489,4.41309 6.15257,4.0021 8.95108,2.18442 4.15997,-2.03897 8.71692,-0.70083 12.97671,0.0234 3.94715,0.33776 5.45966,-4.77235 1.10071,-5.41381 -3.0786,-0.96926 -6.32923,-1.40754 -9.55353,-1.29013 z m 13.51331,4.85649 c -3.49254,0.31036 -3.81646,4.23085 -0.76676,5.44899 3.66554,2.75239 5.86576,7.52223 10.13503,9.24668 2.60254,1.06729 7.98883,-1.15945 5.2832,-4.26735 -3.85039,-3.73032 -7.02564,-9.25284 -12.54272,-10.44653 -0.70286,0.006 -1.40621,0.0123 -2.10875,0.0182 z m -31.83775,2.54443 c -3.7815,3.22593 -7.57005,6.88876 -10.13878,11.1084 -0.34955,4.18782 7.07362,4.36189 8.91246,1.20709 2.50697,-3.82162 6.65179,-6.41416 8.98921,-10.2008 -0.84351,-3.25797 -5.22555,-3.24199 -7.76289,-2.11469 z m 44.12432,12.39683 c -3.98426,2.19954 0.6342,5.55463 2.00106,7.94998 2.36725,3.30006 4.69656,8.64896 9.72115,6.99361 3.92464,-0.40344 2.85305,-4.46345 0.69844,-6.38966 -2.9734,-3.59649 -5.25224,-10.24003 -11.03164,-8.86235 -0.46299,0.10276 -0.92605,0.2058 -1.38901,0.30842 z m -55.52916,1.87056 c -4.43636,2.23115 -5.89583,7.69972 -8.65535,11.58598 -1.81004,4.16081 5.21628,5.27726 7.63474,3.04534 2.72179,-3.30159 4.4456,-7.55971 7.11598,-11.01801 1.18684,-3.47674 -3.71878,-4.11758 -6.09537,-3.61331 z m 66.4548,13.43086 c -4.36087,1.91973 -0.059,5.82735 1.15548,8.48513 1.7331,3.42554 3.8641,8.42087 8.64137,6.97693 4.55919,-0.37368 2.82111,-4.91668 0.89675,-7.2982 -2.23494,-3.52569 -3.88441,-9.5828 -9.24051,-8.39875 -0.48436,0.0783 -0.96873,0.15657 -1.45309,0.23489 z m -76.07704,2.43987 c -3.85612,2.20011 -4.44386,7.32708 -6.5719,10.96089 -2.88146,4.5985 4.95465,6.46354 7.60148,3.65895 2.10794,-3.70041 4.01479,-7.963 5.58337,-11.94149 0.009,-3.0668 -4.35676,-3.21399 -6.61295,-2.67835 z m 85.04759,13.34953 c -4.51299,1.67901 -0.57776,5.93821 0.48288,8.7576 1.39004,3.2169 2.8638,7.98247 7.35009,7.05565 4.19119,0.28556 4.58754,-4.026 2.3964,-6.6426 -2.04753,-3.90834 -3.42439,-10.80965 -9.3133,-9.28812 l -0.57002,0.0731 -0.34591,0.0444 -1.4e-4,-5e-5 z m 7.57128,16.05663 c -4.48052,1.37036 -1.27354,5.64986 -0.29563,8.4733 1.25317,3.3033 2.30133,8.40136 6.98074,7.53923 3.63783,0.37604 5.24095,-3.41711 3.03277,-6.12532 -1.97459,-3.66627 -2.1558,-10.32605 -7.64495,-10.0875 -0.69083,0.0667 -1.38277,0.13363 -2.07293,0.20029 z m 6.42123,16.24251 c -4.22568,0.89715 -2.05546,5.10651 -1.13375,7.78759 1.2072,3.41458 1.63848,9.12035 6.63272,8.39526 3.39792,0.48454 5.57512,-2.93289 3.5697,-5.75232 -1.72509,-3.67815 -1.34545,-9.91785 -6.40416,-10.60484 -0.88817,0.0581 -1.77635,0.11615 -2.66451,0.17431 z m 5.21364,16.40521 c -3.65343,0.54387 -2.99269,4.19442 -2.01786,6.71781 1.38541,3.18555 -0.25608,8.56477 4.14536,9.57143 3.30303,0.91904 7.55448,-1.3941 5.96133,-5.20506 -1.01541,-3.49004 -0.48199,-8.30248 -3.62821,-10.56546 -1.438,-0.79316 -2.89324,-0.60946 -4.46062,-0.51872 z"
       id="path9955"
       style="fill:#000000;fill-opacity:1;fill-rule:evenodd;stroke:#0000ff;stroke-width:7.16309404;stroke-linecap:round;stroke-linejoin:round;stroke-miterlimit:4;stroke-opacity:1;stroke-dasharray:14.32618725, 7.16309362;stroke-dashoffset:0" />
    <path
       d="m 368.76319,522.18508 c -3.66231,0.39622 -8.81294,0.19617 -10.75381,3.70394 0.47732,3.9039 6.04616,3.12307 8.87535,2.0935 4.43507,-1.21263 8.44296,1.62625 12.60821,2.18847 3.27726,0.70612 6.3565,-3.65357 2.43837,-5.08171 -4.07933,-1.98764 -8.62776,-3.02431 -13.16812,-2.9042 z m -16.23514,5.35608 c -4.21481,2.91953 -7.85658,6.8694 -10.87346,10.92165 -0.73769,4.02275 6.06403,4.3818 8.30486,2.06764 3.01608,-3.82143 6.88697,-6.91425 10.04384,-10.51458 -0.45904,-3.36542 -4.96578,-3.43497 -7.47524,-2.47471 z m 29.61427,2.19587 c -3.11028,2.86279 1.98575,5.03558 3.48842,7.20328 3.0454,3.01281 5.61324,8.66095 10.82817,6.80486 3.73942,-0.5312 2.47446,-4.46632 0.25069,-6.09614 -3.62026,-3.4993 -6.91773,-9.85196 -12.80795,-8.54292 -0.58645,0.21028 -1.17287,0.4207 -1.75933,0.63092 z m -41.92001,11.86239 c -4.43727,1.75992 -6.11905,6.92964 -9.05409,10.40051 -2.83722,2.57535 0.60399,5.89369 3.68364,5.11792 5.12369,-0.20873 6.2402,-6.39335 9.41486,-9.48846 3.04031,-2.12469 1.99673,-6.40585 -1.93533,-6.10297 -0.70298,0.0243 -1.40634,0.0487 -2.10908,0.073 z m 55.49082,2.50957 c -4.13866,1.90883 0.0427,5.53936 1.31655,8.01639 2.0751,3.18002 3.67479,8.47644 8.52317,7.36652 4.1056,0.13151 4.16836,-4.14577 1.83321,-6.46018 -2.66366,-3.65778 -4.50895,-10.41159 -10.23457,-9.18949 -0.47945,0.0889 -0.95891,0.17784 -1.43836,0.26676 z m -66.45482,13.02422 c -4.17765,2.01375 -5.15637,7.30515 -7.70749,10.87914 -3.06939,4.12748 4.01321,6.32269 6.77911,4.07919 3.21067,-3.0249 4.51511,-7.83962 7.17718,-11.44958 1.01026,-3.48615 -3.86202,-4.05576 -6.2488,-3.50875 z m 76.0579,2.60253 c -4.47678,1.55274 -0.69523,5.72063 0.32609,8.46555 1.48974,3.23815 2.76754,8.29232 7.39183,7.37082 4.46724,0.27564 4.46995,-4.29494 2.32442,-7.00884 -1.96254,-3.62858 -3.11486,-10.01499 -8.5571,-9.01152 -0.49503,0.0613 -0.99048,0.1227 -1.48524,0.18399 z m -85.04759,13.33792 c -3.96668,2.26449 -4.51192,7.59381 -6.79068,11.29836 -2.41668,4.44378 5.20522,5.98254 7.71411,3.33502 2.17989,-3.66843 4.12348,-7.94024 5.67025,-11.93156 0.0283,-3.07714 -4.33543,-3.24219 -6.59368,-2.70182 z m -7.55212,16.18442 c -3.80217,2.35987 -3.93916,7.66676 -5.92946,11.41026 -2.39682,5.36153 8.12282,6.24857 8.91578,1.37238 0.98162,-3.81844 3.81037,-7.34477 3.72241,-11.31866 -1.69967,-1.9565 -4.352,-2.04678 -6.70873,-1.46398 z m -6.40205,16.37032 c -3.54484,2.45954 -3.36106,7.58506 -5.0354,11.30846 -2.41653,5.52831 8.36522,6.45823 8.9492,1.34645 0.73296,-3.83988 3.23704,-7.48583 2.90995,-11.38874 -1.82546,-1.84166 -4.45237,-1.93994 -6.82375,-1.26617 z m -5.21365,16.53299 c -3.24423,2.38975 -2.66853,7.19399 -3.73753,10.78202 -1.94547,5.3115 6.45716,7.09488 8.8747,3.12532 -0.0691,-4.37671 2.39171,-8.57138 1.78264,-12.83866 -1.90266,-1.78596 -4.54858,-1.8307 -6.91981,-1.06868 z"
       id="path10468"
       style="fill:#000000;fill-opacity:1;fill-rule:evenodd;stroke:#0000ff;stroke-width:7.16309404;stroke-linecap:round;stroke-linejoin:round;stroke-miterlimit:4;stroke-opacity:1;stroke-dasharray:14.32618725, 7.16309362;stroke-dashoffset:0" />
    <path
       d="m 348.56031,577.50026 c -3.96231,0.35491 -8.45778,0.96412 -11.38568,3.8921 0.17383,4.12168 5.8057,3.33456 8.41467,1.76599 3.78743,-1.81371 7.65528,0.47873 11.40963,0.5368 3.90945,0.19895 3.93809,-4.57849 0.2442,-4.90535 -2.778,-0.97856 -5.74313,-1.3922 -8.68282,-1.28954 z m 10.1206,5.87891 c -2.1152,3.10037 2.86992,4.61818 4.29345,6.93619 2.46195,2.70691 5.07972,7.06406 9.39121,5.15849 3.6624,-1.08636 0.81724,-4.55025 -0.88032,-6.10989 -3.31774,-3.3628 -7.45463,-9.27436 -12.80434,-5.98479 z m -26.06823,0.94109 c -3.22333,3.24314 -7.5411,6.10737 -9.21961,10.42165 2.41192,3.75266 7.94373,1.90357 9.75636,-1.54526 2.06037,-2.67168 5.26338,-4.41659 6.84276,-7.38931 -1.05856,-2.91084 -5.09,-2.86542 -7.37951,-1.48708 z m 38.39314,11.73458 c -3.48649,2.20659 0.97451,5.39205 1.85506,7.94523 1.35903,2.85869 3.06726,6.79884 7.00431,5.71196 3.32625,0.0982 3.66463,-3.5638 1.74015,-5.5592 -2.23417,-3.5004 -4.04506,-9.81962 -9.38163,-8.37631 -0.40535,0.0926 -0.81293,0.18591 -1.21789,0.27832 z m -49.01211,0.59254 c -3.85172,2.3546 -5.57639,6.98214 -8.14611,10.56115 -0.47022,4.56002 7.55845,4.19305 8.58901,0.26232 1.56096,-3.19237 4.64457,-5.65194 5.47988,-9.09229 -1.2509,-2.06749 -3.7939,-2.15047 -5.92278,-1.73118 z m -9.29639,14.05826 c -3.39739,2.63252 -4.33105,7.32773 -6.3827,10.97924 0.26079,4.60289 8.3037,3.75863 8.79788,-0.60419 1.01486,-3.10588 3.66959,-5.75454 3.79496,-9.05067 -1.52728,-1.89058 -4.04238,-1.92287 -6.21014,-1.32438 z m -6.95791,14.48815 c -2.98693,2.62921 -3.26824,7.21194 -4.31675,10.88734 -0.0667,4.90384 9.09112,4.13004 8.41868,-0.84769 0.38521,-3.09103 2.67953,-5.88913 2.2615,-9.02771 -1.71026,-1.71774 -4.18961,-1.76187 -6.36343,-1.01194 z"
       id="path10470"
       style="fill:#000000;fill-opacity:1;fill-rule:evenodd;stroke:#0000ff;stroke-width:6.39425707;stroke-linecap:round;stroke-linejoin:round;stroke-miterlimit:4;stroke-opacity:1;stroke-dasharray:12.78851339, 6.3942567;stroke-dashoffset:0" />
    <path
       d="m 241.71891,577.51188 c -3.19553,0.42715 -7.66784,0.5555 -9.41911,3.4754 0.36796,3.91148 5.70463,2.8031 8.40328,1.70635 4.97538,-1.76547 9.95864,4.30128 14.35661,0.31364 0.58323,-3.78881 -4.79804,-4.20073 -7.55212,-5.07717 -1.90178,-0.38209 -3.85184,-0.50298 -5.78866,-0.41822 z m -14.43336,5.77435 c -3.34175,3.00937 -7.38314,6.04072 -9.09916,10.23212 1.22923,3.60263 7.27849,2.81701 8.83132,-0.46087 2.14764,-3.05143 5.52199,-5.05774 7.53265,-8.1212 -0.8825,-2.97979 -4.98649,-2.94579 -7.26481,-1.65005 z m 26.04905,0.98756 c -2.39269,3.07944 2.82476,4.85939 4.27428,7.16854 2.5244,2.97445 5.7906,7.0687 10.15873,4.74031 3.20513,-2.55 -1.69747,-5.25333 -3.14347,-7.34283 -3.03446,-3.02016 -6.58362,-7.3868 -11.28954,-4.56602 z m -36.51468,11.57192 c -3.71841,2.43452 -5.09542,7.16479 -7.28334,10.87471 0.0845,4.52653 7.97185,3.91028 8.70411,-0.26999 1.24557,-3.17413 4.0367,-5.6718 4.61728,-9.02461 -1.36541,-2.00131 -3.88688,-2.0822 -6.03805,-1.58011 z m 49.03127,1.12699 c -3.29793,2.27438 1.17318,5.1755 2.20683,7.53108 1.8058,3.06362 4.13797,7.39221 8.45084,5.70787 4.1462,-0.93839 1.02082,-4.97275 -0.44123,-6.98816 -2.41776,-3.6437 -4.92151,-8.64952 -10.21644,-6.25079 z m 9.25805,13.74455 c -3.83118,2.0496 0.59402,5.73648 1.30318,8.4465 0.92519,3.16816 3.29424,6.68649 7.11173,5.39071 3.4422,-0.29185 2.7445,-3.90483 1.19511,-5.88353 -1.83186,-3.63306 -3.57769,-9.8358 -8.91101,-8.079 l -0.56566,0.10149 -0.13332,0.0239 -3e-5,-9e-5 z m 6.97709,14.26737 c -4.07128,1.7753 -0.18541,5.93063 0.1328,8.89663 0.39601,2.57657 1.25302,5.95421 4.69601,5.43046 3.44722,0.59102 5.0337,-2.9872 3.54716,-5.7169 -1.22748,-3.42268 -1.57154,-9.29331 -6.49258,-8.85007 -0.62712,0.0792 -1.25791,0.16246 -1.88339,0.23988 z"
       id="path10472"
       style="fill:#000000;fill-opacity:1;fill-rule:evenodd;stroke:#0000ff;stroke-width:6.39425707;stroke-linecap:round;stroke-linejoin:round;stroke-miterlimit:4;stroke-opacity:1;stroke-dasharray:12.78851339, 6.3942567;stroke-dashoffset:0" />
    <path
       d="m 294.79459,501.09769 c -4.6905,1.94304 -2.1641,7.78334 -2.7985,11.66446 -0.0372,3.27807 -0.82634,8.19832 3.57755,8.83516 3.6868,1.22009 9.34941,-0.79154 8.19148,-5.49861 -0.42201,-4.55723 0.91446,-9.48742 -0.80504,-13.76946 -2.32654,-1.85665 -5.3888,-2.00577 -8.16549,-1.23155 z m 0,21.38947 c -4.69495,1.93167 -2.16081,7.78643 -2.7985,11.66446 -0.037,3.27656 -0.82678,8.20125 3.57787,8.833 3.68942,1.20509 9.34952,-0.78145 8.19116,-5.49646 -0.42201,-4.55723 0.91446,-9.48742 -0.80504,-13.76946 -2.34755,-1.86188 -5.36853,-2.00362 -8.16549,-1.23154 z m 0,21.38946 c -4.69593,1.9278 -2.16071,7.77777 -2.7985,11.65285 -0.0323,3.27713 -0.83599,8.20943 3.57755,8.83516 3.68698,1.22344 9.35045,-0.77472 8.19148,-5.48699 -0.4224,-4.55696 0.91494,-9.48934 -0.80504,-13.76947 -2.34754,-1.8619 -5.36853,-2.00361 -8.16549,-1.23155 z m 0,21.38947 c -4.69594,1.92778 -2.16071,7.77777 -2.7985,11.65284 -0.0333,3.27649 -0.83317,8.20844 3.57755,8.83517 3.69257,1.2297 9.34707,-0.78907 8.19148,-5.49861 -0.42308,-4.55294 0.91599,-9.48182 -0.80504,-13.75785 -2.34258,-1.87716 -5.36818,-2.01936 -8.16549,-1.23155 z m 0,21.38947 c -4.69594,1.92778 -2.16071,7.77777 -2.7985,11.65284 -0.0372,3.27806 -0.82635,8.19833 3.57755,8.83516 3.6868,1.22009 9.34941,-0.79154 8.19148,-5.49861 -0.42308,-4.55294 0.91599,-9.48182 -0.80504,-13.75784 -2.32095,-1.87171 -5.38907,-2.02159 -8.16549,-1.23155 z m 0,21.37785 c -4.6905,1.94304 -2.1641,7.78334 -2.7985,11.66446 -0.36083,3.31684 -0.24472,8.04877 4.14576,8.20092 3.59401,1.06479 8.75308,-1.15516 7.62327,-5.57306 -0.4202,-4.32139 0.91286,-9.01462 -0.80504,-13.06077 -2.34755,-1.8619 -5.36853,-2.00363 -8.16549,-1.23155 z"
       id="path10474"
       style="fill:#000000;fill-opacity:1;fill-rule:evenodd;stroke:#0000ff;stroke-width:9.15682125;stroke-linecap:round;stroke-linejoin:miter;stroke-miterlimit:4;stroke-opacity:1;stroke-dasharray:18.31364197, 9.15682099;stroke-dashoffset:55.85660801" />
    <path
       d="m 295.58138,636.22386 c 0,132.15701 0,264.31403 0,396.47104 8.74124,-1.0435 1.75615,-17.8133 3.9953,-25.3589 0,-123.70404 0,-247.40809 0,-371.11214 -1.33177,0 -2.66353,0 -3.9953,0 z"
       id="path8983"
       style="fill:#000000;fill-opacity:1;fill-rule:evenodd;stroke:#313131;stroke-width:1.11803186;stroke-linecap:butt;stroke-linejoin:miter;stroke-miterlimit:4;stroke-opacity:1;stroke-dasharray:none" />
    <path
       d="m 253.6308,641.41548 c -14.00636,5.2058 -10.55119,11.0739 0.86149,17.24381 35.2959,26.94668 70.59181,53.89336 105.88771,80.84004 -57.5693,31.16938 -115.1386,62.33875 -172.7079,93.50813 5.85683,12.45036 14.80227,6.37335 23.67638,0.72422 55.22619,-29.67046 110.45238,-59.34092 165.67857,-89.01138 5.03121,-11.18756 -9.23648,-14.28346 -15.33631,-20.80399 -36.01998,-27.50028 -72.03996,-55.00055 -108.05994,-82.50083 z"
       id="path10962"
       style="fill:#000000;fill-opacity:1;fill-rule:evenodd;stroke:#313131;stroke-width:1.67704785;stroke-linecap:butt;stroke-linejoin:miter;stroke-miterlimit:4;stroke-opacity:1;stroke-dasharray:none" />
    <path
       d="m 194.5754,832.36218 c -12.80559,9.52113 -2.47821,12.949 8.33008,16.25021 74.90954,29.84925 149.81908,59.6985 224.72862,89.54775 12.80561,-9.5211 2.47829,-12.949 -8.33003,-16.2502 C 344.39451,892.06068 269.48496,862.21143 194.5754,832.36218 z"
       id="path10958"
       style="fill:#000000;fill-opacity:1;fill-rule:evenodd;stroke:#313131;stroke-width:1.67704785;stroke-linecap:butt;stroke-linejoin:miter;stroke-miterlimit:4;stroke-opacity:1;stroke-dasharray:none" />
    <path
       d="m 342.6016,642.08278 c -42.44833,31.06179 -84.76611,62.30698 -127.29792,93.2515 -4.98482,12.23328 9.78259,13.76608 17.35286,19.19783 54.15896,29.44356 108.31793,58.88712 162.47689,88.33068 13.25792,-7.27044 7.28482,-12.20936 -4.14445,-16.4868 -53.08099,-28.89204 -106.39255,-57.77103 -159.32949,-86.67121 40.96216,-30.04746 81.92431,-60.09493 122.88647,-90.14239 -3.98144,-2.49322 -7.96297,-4.98633 -11.94436,-7.47961 z"
       id="path10956"
       style="fill:#000000;fill-opacity:1;fill-rule:evenodd;stroke:#313131;stroke-width:1.67704785;stroke-linecap:butt;stroke-linejoin:miter;stroke-miterlimit:4;stroke-opacity:1;stroke-dasharray:none" />
    <path
       d="m 246.972,642.32476 c 0.21783,9.79947 17.64856,2.38603 25.35889,4.693 25.64575,0 51.29149,0 76.93724,0 -0.21783,-9.79947 -17.64856,-2.38603 -25.35889,-4.693 -25.64575,0 -51.29149,0 -76.93724,0 z"
       id="path8989"
       style="fill:#000000;fill-opacity:1;fill-rule:evenodd;stroke:#313131;stroke-width:1.67704785;stroke-linecap:butt;stroke-linejoin:miter;stroke-miterlimit:4;stroke-opacity:1;stroke-dasharray:none" />
    <path
       d="m 400,832.36218 c -80.08618,31.73646 -160.17237,63.47292 -240.25855,95.20938 4.94753,12.65909 14.44736,8.1555 24.02542,3.35696 74.41939,-29.58012 148.83879,-59.16024 223.25818,-88.74036 -2.34168,-3.27533 -4.68337,-6.55065 -7.02505,-9.82598 z"
       id="path10954"
       style="fill:#000000;fill-opacity:1;fill-rule:evenodd;stroke:#313131;stroke-width:1.67704785;stroke-linecap:butt;stroke-linejoin:miter;stroke-miterlimit:4;stroke-opacity:1;stroke-dasharray:none" />
    <path
       d="m 429.00755,928.95011 c -99.34129,32.3133 -198.68258,64.62659 -298.02387,96.93989 3.64653,13.2245 13.53498,8.7589 23.23872,4.8166 93.8285,-30.5066 187.65701,-61.01323 281.48551,-91.51987 -2.23345,-3.41221 -4.46691,-6.82441 -6.70036,-10.23662 z"
       id="path10952"
       style="fill:#000000;fill-opacity:1;fill-rule:evenodd;stroke:#313131;stroke-width:1.67704785;stroke-linecap:butt;stroke-linejoin:miter;stroke-miterlimit:4;stroke-opacity:1;stroke-dasharray:none" />
    <path
       d="m 165.65116,929.00877 c -11.89818,10.52603 -0.79546,12.99647 9.83637,15.63182 93.6764,30.48557 187.3528,60.97111 281.0292,91.45671 11.8922,-10.5315 0.70003,-12.9602 -9.87723,-15.6047 -93.66278,-30.49458 -187.32556,-60.98921 -280.98834,-91.48383 z"
       id="path8993"
       style="fill:#000000;fill-opacity:1;fill-rule:evenodd;stroke:#313131;stroke-width:1.67704785;stroke-linecap:butt;stroke-linejoin:miter;stroke-miterlimit:4;stroke-opacity:1;stroke-dasharray:none" />
    <path
       d="m 189.45643,834.914 c 0.21779,9.79951 17.64856,2.38606 25.35889,4.69303 63.19872,0 126.39743,0 189.59614,0 -0.21779,-9.79951 -17.64856,-2.38606 -25.35889,-4.69303 -63.19872,0 -126.39743,0 -189.59614,0 z"
       id="path10960"
       style="fill:#000000;fill-opacity:1;fill-rule:evenodd;stroke:#313131;stroke-width:1.67704785;stroke-linecap:butt;stroke-linejoin:miter;stroke-miterlimit:4;stroke-opacity:1;stroke-dasharray:none" />
    <path
       d="m 163.8616,931.79525 c 0.21783,9.79947 17.64856,2.38603 25.35889,4.693 80.77522,0 161.55044,0 242.32566,0 -0.21783,-9.79947 -17.64856,-2.38603 -25.35889,-4.693 -80.77522,0 -161.55044,0 -242.32566,0 z"
       id="path8991"
       style="fill:#000000;fill-opacity:1;fill-rule:evenodd;stroke:#313131;stroke-width:1.67704785;stroke-linecap:butt;stroke-linejoin:miter;stroke-miterlimit:4;stroke-opacity:1;stroke-dasharray:none" />
    <path
       d="m 219.00494,738.06209 c 0.21783,9.79947 17.64856,2.38603 25.35889,4.693 43.74941,0 87.49881,0 131.24822,0 -0.21783,-9.79947 -17.64856,-2.38603 -25.35889,-4.693 -43.74941,0 -87.49881,0 -131.24822,0 z"
       id="path8987"
       style="fill:#000000;fill-opacity:1;fill-rule:evenodd;stroke:#313131;stroke-width:1.67704785;stroke-linecap:butt;stroke-linejoin:miter;stroke-miterlimit:4;stroke-opacity:1;stroke-dasharray:none" />
    <path
       d="m 352.59752,639.42096 c -23.68603,1.73846 6.54508,38.30243 4.8149,54.2227 32.75439,113.4436 65.46055,226.90604 98.23044,340.34184 24.27988,-0.3778 -5.58451,-35.73747 -3.74962,-50.6231 C 418.78573,868.71783 385.69247,754.06913 352.59752,639.42096 z"
       id="path8981"
       style="fill:#000000;fill-opacity:1;fill-rule:evenodd;stroke:#313131;stroke-width:1.67704785;stroke-linecap:butt;stroke-linejoin:miter;stroke-miterlimit:4;stroke-opacity:1;stroke-dasharray:none" />
    <path
       d="m 242.56052,639.42096 c -37.79784,131.02713 -75.698,262.03448 -113.44975,393.06864 22.52717,6.3089 14.65824,-34.45745 24.59997,-47.6313 33.10749,-114.64454 66.20079,-229.29318 99.29569,-343.94136 -3.48188,-0.49868 -6.96443,-0.9972 -10.44591,-1.49598 z"
       id="path8979"
       style="fill:#000000;fill-opacity:1;fill-rule:evenodd;stroke:#313131;stroke-width:1.67704785;stroke-linecap:butt;stroke-linejoin:miter;stroke-miterlimit:4;stroke-opacity:1;stroke-dasharray:none" />
    <path
       d="m 128.71134,1022.5462 c -1.21348,11.0716 -1.28094,20.9972 12.67945,16.8949 108.44907,0 216.89815,0 325.34723,0 1.21348,-11.0716 1.28094,-20.9972 -12.67945,-16.8949 -108.44907,0 -216.89815,0 -325.34723,0 z"
       id="path8985"
       style="fill:#000000;fill-opacity:1;fill-rule:evenodd;stroke:#313131;stroke-width:1.67704785;stroke-linecap:butt;stroke-linejoin:miter;stroke-miterlimit:4;stroke-opacity:1;stroke-dasharray:none" />
  </g>
</svg>
