<?xml version="1.0" encoding="UTF-8" standalone="no"?>
<!-- Created with Inkscape (http://www.inkscape.org/) -->

<svg
   xmlns:dc="http://purl.org/dc/elements/1.1/"
   xmlns:cc="http://creativecommons.org/ns#"
   xmlns:rdf="http://www.w3.org/1999/02/22-rdf-syntax-ns#"
   xmlns:svg="http://www.w3.org/2000/svg"
   xmlns="http://www.w3.org/2000/svg"
   version="1.0"
   width="580"
   height="580"
   id="svg2">
  <metadata
     id="metadata1976">
    <rdf:RDF>
      <cc:Work
         rdf:about="">
        <dc:format>image/svg+xml</dc:format>
        <dc:type
           rdf:resource="http://purl.org/dc/dcmitype/StillImage" />
        <cc:license
           rdf:resource="http://web.resource.org/cc/PublicDomain" />
        <dc:language>en</dc:language>
        <dc:title></dc:title>
      </cc:Work>
    </rdf:RDF>
  </metadata>
  <defs
     id="defs4" />
  <path
     d="m 520.67002,490.848 c -4.07272,1.12042 -9.33253,0.9448 -16.23195,-0.532 -7.01222,-1.53449 -13.40398,-9.09794 -25.05428,-8.56593 -11.93361,0.41278 -28.78858,11.10289 -45.0744,11.10289 -16.51654,-0.35254 -35.06625,-11.57465 -51.91995,-11.57465 -16.79729,0.11922 -32.06779,11.75414 -48.18564,12.10666 -16.40119,0.0602 -32.74595,-10.86574 -48.8074,-11.1029 -16.28837,-0.41408 -31.72808,9.68635 -46.94217,9.56842 -14.9872,-0.29485 -28.27837,-11.04522 -43.15276,-10.57218 -15.2705,0.58968 -32.01138,12.40151 -46.94216,13.113 -15.0436,0.23459 -28.67449,-10.98754 -41.96439,-11.10548 -13.40272,-0.2346 -28.447585,8.20956 -37.496816,10.10043 -9.049246,1.83317 -14.761576,1.77165 -16.910118,0.47304 l 0,31.30246 c 2.148542,1.2986 7.860872,1.36014 16.910118,-0.47303 9.049231,-1.89215 24.092825,-10.33502 37.496816,-10.10042 13.29118,0.11793 26.92079,11.34005 41.96439,11.10545 14.93078,-0.71147 31.67166,-12.52329 46.94216,-13.11298 14.87439,-0.47303 28.16428,10.27733 43.15276,10.57218 15.21409,0.11794 30.6538,-9.98249 46.94217,-9.56843 16.06145,0.23717 32.40621,11.16317 48.8074,11.10292 16.11785,-0.35255 31.38835,-11.99129 48.18564,-12.10667 16.8537,0 35.40341,11.22212 51.91995,11.57466 16.28582,0 33.14208,-10.69012 45.0744,-11.10292 11.6503,-0.41406 18.04206,7.02633 25.05428,8.62363 6.89942,1.47681 12.15923,1.71396 16.23195,0.47434 l 0,-31.30249 z"
     id="path121"
     style="fill:#000000;fill-opacity:1;fill-rule:evenodd;stroke:#4d4d4d" />
  <path
     d="m 170.15625,103.65625 -0.40625,0 -1.125,0.125 -0.40625,0.0312 -1.15625,0.1875 -0.40625,0.0625 -1.1875,0.25 -0.40625,0.0937 -1.15625,0.3125 -0.40625,0.0937 -1.1875,0.40625 -0.375,0.125 -1.21875,0.46875 -0.375,0.15625 -1.21875,0.53125 -0.34375,0.15625 -1.21875,0.625 -0.34375,0.1875 -1.21875,0.71875 -0.3125,0.1875 -1.25,0.78125 -0.3125,0.21875 -1.25,0.875 -0.28125,0.21875 -1.25,0.96875 -0.25,0.21875 -0.53125,0.4375 -2.375,3.65625 0.0625,4.375 2.5,3.59375 4.09375,1.59375 4.25,-0.96875 1.125,-0.78125 0.3125,-0.25 1,-0.8125 0.125,-0.0937 0.125,-0.0937 0.71875,-0.5 0.1875,-0.125 0.0937,-0.0625 0.65625,-0.4375 0.15625,-0.0937 L 163.75,121 l 0.9375,-0.5 0.5625,-0.28125 0.84375,-0.40625 0.21875,-0.0937 0.15625,-0.0625 0.4375,-0.15625 0.40625,-0.15625 0.40625,-0.125 0.15625,-0.0312 0.25,-0.0937 0.375,-0.0937 0.28125,-0.0625 0.125,-0.0312 0.34375,-0.0625 0.75,-0.125 0.0625,0 0.34375,-0.0625 0.3125,-0.0312 0.15625,0 0.5625,-0.0312 0.1875,0 0.21875,0 0.65625,0.0312 0.0312,0 0.6875,0.0625 0.3125,0.0312 0.25,0.0312 0.125,0.0312 0.625,0.125 0.0625,0 1.25,0.3125 1.3125,0.4375 1.5,0.6875 0.15625,0.0625 0.8125,0.4375 4.3125,0.84375 4,-1.71875 2.40625,-3.65625 -0.0625,-4.375 -2.5,-3.59375 -1.15625,-0.75 -1.3125,-0.6875 -0.5,-0.25 -1.90625,-0.84375 -0.5625,-0.21875 -1.96875,-0.6875 -0.625,-0.1875 -2.0625,-0.5 -0.53125,-0.0937 -1.0625,-0.1875 -0.375,-0.0625 -1.0625,-0.125 -0.375,-0.0312 -1.09375,-0.0937 -0.40625,0 -1.09375,-0.0312 -0.40625,0 -1.125,0.0625 z m 22.03125,13.0625 -3.5625,2.5 -1.59375,4.09375 0.96875,4.25 0.78125,1.125 0.75,0.875 0.15625,0.1875 0.0937,0.125 0.96875,1.25 0.0625,0.0625 0.125,0.1875 0.5,0.78125 0.15625,0.1875 0.0625,0.125 0.0937,0.125 2.375,3.84375 0.0937,0.125 2.34375,3.9375 0.0937,0.125 2.3125,4.09375 0.0625,0.0937 2.3125,4.21875 0.0625,0.0937 2.03125,3.84375 3.09375,3.09375 4.28125,0.84375 4.03125,-1.65625 2.40625,-3.65625 -0.0312,-4.375 -0.53125,-1.28125 -2.0625,-3.9375 -0.0625,-0.0937 -2.4375,-4.4375 -0.0625,-0.0937 -2.46875,-4.3125 -0.0625,-0.125 L 207,128.75 l -0.0625,-0.125 -2.53125,-4.09375 -0.0937,-0.125 -0.28125,-0.4375 -0.15625,-0.21875 -0.84375,-1.21875 -0.1875,-0.25 -1.375,-1.8125 -0.25,-0.28125 L 200.25,119 l -3.6875,-2.34375 -4.375,0.0625 z m -51.90625,6.84375 -0.90625,1.03125 -0.0312,0.0312 -0.0937,0.15625 -1.34375,1.96875 -0.125,0.1875 -2.65625,4.15625 -0.125,0.21875 -2.59375,4.34375 -0.0937,0.1875 -2.53125,4.53125 -0.0937,0.15625 -2.4375,4.6875 -0.0937,0.15625 -2.375,4.8125 -0.0625,0.125 -0.75,1.625 -0.625,4.3125 1.90625,3.9375 3.75,2.21875 4.375,-0.25 3.46875,-2.65625 0.6875,-1.1875 0.6875,-1.46875 0.0625,-0.15625 2.25,-4.5 0.0625,-0.15625 2.28125,-4.375 0.0937,-0.15625 2.34375,-4.1875 0.0937,-0.1875 2.34375,-3.96875 0.125,-0.1875 2.40625,-3.78125 0.0625,-0.0937 0.0625,-0.0937 1.09375,-1.59375 0.0312,0 0,-0.0312 0.0937,-0.125 -0.0312,-0.0312 1.34375,-3.96875 -1.125,-4.21875 -3.28125,-2.875 -4.34375,-0.5625 -3.90625,1.96875 z m 71.9375,33.34375 -2.5625,3.53125 -0.15625,4.375 0.46875,1.3125 0.5625,1.15625 0.0312,0.0937 2.15625,4.6875 0.0625,0.0937 2.125,4.78125 0.0312,0.0937 2.09375,4.84375 0.0312,0.0937 2.0625,4.9375 0.0312,0.0625 2.03125,5 0.0312,0.0625 0.46875,1.15625 2.71875,3.40625 4.15625,1.3125 4.1875,-1.21875 2.8125,-3.34375 L 236,189 l -0.375,-1.34375 -0.46875,-1.1875 -0.0312,-0.0625 -2.09375,-5.15625 -0.0312,-0.0625 -2.125,-5.09375 -0.0312,-0.0937 -2.15625,-5 -0.0625,-0.0937 -2.1875,-4.9375 -0.0312,-0.0937 -2.25,-4.875 -0.0625,-0.0937 -0.59375,-1.25 -2.9375,-3.21875 -4.25,-1.03125 -4.09375,1.5 z m -90.53125,5.03125 -3.3125,2.84375 -0.65625,1.21875 -1.9375,4.8125 -0.0625,0.0937 -2,5.15625 -0.0312,0.0937 -1.9375,5.15625 -0.0312,0.0625 -1.84375,5.125 -0.0312,0.0937 -1.78125,5.09375 -0.0312,0.0625 -0.9375,2.78125 -0.125,4.375 2.3125,3.6875 4,1.78125 4.3125,-0.75 3.15625,-3.03125 0.5625,-1.25 0.90625,-2.71875 0.0312,-0.0625 1.71875,-4.9375 0.0312,-0.0937 1.78125,-4.96875 0.0312,-0.0625 1.875,-4.96875 0.0312,-0.0937 1.9375,-4.96875 0.0312,-0.0937 1.9375,-4.71875 0.40625,-4.34375 -2.09375,-3.84375 -3.90625,-2.03125 -4.34375,0.5 z m 108.34375,36.125 -2.875,3.3125 -0.53125,4.34375 0.375,1.34375 0.15625,0.4375 0.0312,0.0937 3.78125,10.5 0.0312,0.0937 3.59375,10.59375 2.0625,6.3125 2.5,3.59375 4.0625,1.59375 4.28125,-0.96875 3,-3.1875 0.71875,-4.3125 -0.28125,-1.34375 -2.0625,-6.3125 -0.0312,-0.0937 -3.6875,-10.8125 -0.0312,-0.125 -3.84375,-10.6875 -0.0312,-0.0937 -0.1875,-0.53125 -2.65625,-3.46875 -4.15625,-1.40625 -4.21875,1.125 z M 106,204.625 l -3.03125,3.125 -0.53125,1.28125 -2.125,7.03125 -0.0312,0.0937 -2.46875,8.59375 -0.03125,0.0937 -2.09375,7.75 -0.03125,0.0937 -1.4375,5.5 0.1875,4.375 2.59375,3.53125 4.09375,1.46875 4.25,-1.03125 2.9375,-3.25 0.46875,-1.3125 1.40625,-5.4375 0,-0.0625 2.0625,-7.5625 0.0312,-0.0937 2.40625,-8.40625 0.0312,-0.0937 2.09375,-6.9375 0,-4.34375 -2.4375,-3.625 L 110.28125,203.75 106,204.625 z m 138.65625,35.90625 -3.03125,3.125 -0.8125,4.3125 0.3125,1.34375 0.3125,1.09375 0.0312,0.0937 3.15625,10.71875 0.0312,0.0625 3,10.6875 0.0312,0.0937 1.5625,5.84375 2.34375,3.6875 3.96875,1.78125 4.3125,-0.71875 3.15625,-3.03125 0.9375,-4.28125 L 263.75,274 262.15625,268.0625 262.125,268 l -3.0625,-10.84375 -0.0312,-0.0937 -3.1875,-10.90625 -0.0312,-0.0937 -0.375,-1.1875 -2.4375,-3.59375 -4.0625,-1.65625 -4.28125,0.90625 z M 257,283.71875 l -3.1875,3 -1,4.25 0.21875,1.375 0.21875,0.84375 0.0312,0.0625 2.53125,10.3125 0.0312,0.0625 2.375,10.15625 0.0312,0 1.6875,7.53125 2.15625,3.78125 3.9375,1.9375 4.3125,-0.5625 3.28125,-2.875 1.125,-4.25 -0.1875,-1.34375 -1.71875,-7.625 0,-0.0625 -2.4375,-10.21875 0,-0.0625 -2.59375,-10.4375 0,-0.0625 -0.25,-0.9375 -2.28125,-3.75 -3.96875,-1.8125 -4.3125,0.6875 z m 10.46875,43.6875 -3.34375,2.84375 -1.1875,4.1875 0.15625,1.375 1.34375,6.59375 0.0312,0.0625 1.71875,8.78125 1.625,8.40625 -0.0312,0 0.96875,5.40625 2,3.90625 3.8125,2.125 4.375,-0.375 3.40625,-2.75 1.3125,-4.15625 -0.125,-1.375 -0.96875,-5.4375 -0.0312,-0.0625 -1.59375,-8.46875 0,-0.0625 -1.78125,-8.9375 0,-0.0625 -1.375,-6.625 -2.09375,-3.84375 -3.875,-2 -4.34375,0.46875 z m 8.5,44.125 -3.46875,2.65625 -1.375,4.15625 0.0937,1.375 0.34375,2.125 0,0.0937 0.90625,6.15625 0.78125,5.59375 -0.0312,0 0.59375,4.875 0,0.125 0.40625,3.9375 0.0312,0.21875 0.21875,3.3125 0.0937,2.40625 1.40625,4.15625 3.46875,2.625 4.34375,0.28125 3.78125,-2.21875 1.90625,-3.9375 0.0625,-1.375 -0.0625,-2.71875 -0.0312,-0.3125 -0.25,-3.53125 -0.0312,-0.1875 -0.40625,-4.28125 -0.0312,-0.15625 -0.59375,-5 0,-0.125 -0.78125,-5.6875 0,-0.0937 -0.9375,-6.34375 -0.0312,-0.0625 -0.34375,-2.21875 -1.90625,-3.9375 -3.78125,-2.1875 -4.375,0.28125 z"
     id="path9955"
     style="fill:#000000;fill-opacity:1;fill-rule:evenodd;stroke:#0000ff;stroke-width:15;stroke-linecap:round;stroke-linejoin:round;stroke-miterlimit:4;stroke-opacity:1;stroke-dasharray:30, 15;stroke-dashoffset:0" />
  <path
     d="m 406.71875,103.625 -0.40625,0 -1.09375,0.0937 -0.375,0.0312 -1.0625,0.125 -0.375,0.0625 -1.0625,0.1875 -0.53125,0.0937 -2.03125,0.5 -0.65625,0.1875 -1.96875,0.6875 -0.5625,0.21875 -1.90625,0.84375 -0.5,0.25 -1.3125,0.6875 -3.09375,3.0625 -0.875,4.3125 1.6875,4.03125 3.625,2.40625 4.375,-0.0312 1.28125,-0.53125 0.84375,-0.4375 1.65625,-0.75 1.28125,-0.4375 1.25,-0.3125 0.0625,0 0.625,-0.125 0.125,-0.0312 0.25,-0.0312 0.3125,-0.0312 0.6875,-0.0625 0.0625,0 0.625,-0.0312 0.21875,0 0.1875,0 0.5625,0.0312 0.15625,0 0.3125,0.0312 0.28125,0.0312 0.15625,0.0312 0.71875,0.125 0.375,0.0625 0.25,0.0625 L 411,119 l 0.75,0.21875 0.0312,0 0.8125,0.28125 0.46875,0.15625 0.3125,0.15625 0.0312,0 0.5,0.21875 0.375,0.1875 0.53125,0.28125 0.9375,0.5 0.15625,0.0937 0.15625,0.0937 0.65625,0.4375 0.15625,0.0937 0.125,0.0937 0.71875,0.5 1.03125,0.78125 0.21875,0.21875 0.0312,0 0.28125,0.25 4,1.71875 4.3125,-0.8125 3.125,-3.0625 0.875,-4.28125 -1.65625,-4.0625 -0.96875,-0.96875 -0.53125,-0.4375 -0.25,-0.21875 -1.28125,-0.96875 -0.28125,-0.21875 -1.25,-0.875 -0.28125,-0.21875 -1.25,-0.78125 -0.3125,-0.1875 -1.25,-0.71875 -0.34375,-0.1875 -1.21875,-0.625 -0.34375,-0.15625 -1.21875,-0.53125 -0.375,-0.15625 -1.1875,-0.46875 -0.40625,-0.125 -1.1875,-0.40625 -0.375,-0.0937 -1.1875,-0.3125 -0.40625,-0.0937 -1.15625,-0.25 -0.40625,-0.0625 -1.15625,-0.1875 -0.40625,-0.0312 -1.15625,-0.125 -0.40625,0 -1.125,-0.0625 -0.40625,0 -1.09375,0.0312 z m -26.46875,14.40625 -1,0.96875 -0.96875,1.1875 -0.25,0.28125 -1.375,1.8125 -0.1875,0.25 -0.84375,1.21875 -0.15625,0.21875 -0.28125,0.4375 -0.0625,0.125 -2.5625,4.09375 -0.0625,0.125 -2.5,4.1875 -0.0937,0.125 -2.46875,4.3125 -0.0625,0.0937 -2.40625,4.4375 -0.0625,0.0937 -2.09375,3.9375 -0.84375,4.28125 1.71875,4.03125 3.65625,2.40625 4.375,-0.0625 3.59375,-2.46875 0.75,-1.15625 2.03125,-3.84375 0.0625,-0.0937 2.3125,-4.21875 0.0625,-0.0937 2.34375,-4.09375 0.0625,-0.125 2.375,-3.9375 0.0625,-0.125 2.375,-3.84375 0.0937,-0.125 0.0625,-0.125 0.15625,-0.1875 0.53125,-0.78125 0.15625,-0.1875 0.0312,-0.0625 0.9375,-1.25 0.125,-0.15625 0.125,-0.15625 0.75,-0.875 1.71875,-4 -0.8125,-4.3125 -3.0625,-3.09375 -4.28125,-0.90625 -4.03125,1.65625 z m 48.28125,5.90625 -1.875,3.9375 0.625,4.34375 0.625,1.03125 -0.0312,0 0.125,0.15625 1.09375,1.59375 0.0625,0.0937 0.0625,0.0937 2.40625,3.78125 0.125,0.1875 2.34375,3.96875 0.125,0.1875 2.3125,4.1875 0.0937,0.15625 2.28125,4.375 0.0625,0.15625 2.25,4.5 0.0625,0.15625 0.6875,1.46875 2.9375,3.21875 4.21875,1.0625 4.125,-1.46875 2.59375,-3.53125 0.15625,-4.375 -0.46875,-1.28125 -0.75,-1.625 -0.0625,-0.125 -2.375,-4.8125 -0.0625,-0.15625 -2.46875,-4.6875 -0.0937,-0.15625 -2.5,-4.53125 -0.125,-0.1875 -2.59375,-4.34375 -0.125,-0.21875 -2.625,-4.15625 -0.125,-0.1875 -1.34375,-1.96875 -0.125,-0.15625 -0.0312,-0.0312 -3.46875,-2.625 -4.375,-0.25 -3.75,2.21875 z m -68.34375,31.90625 -3.5,2.625 -0.6875,1.1875 -0.59375,1.25 -0.0625,0.0937 -2.21875,4.875 -0.0625,0.0937 -2.1875,4.9375 -0.0312,0.0937 -2.1875,5 -0.0312,0.0937 -2.125,5.09375 -0.0312,0.0625 -2.09375,5.15625 -0.0312,0.0625 -0.46875,1.1875 -0.34375,4.375 2.125,3.8125 3.90625,1.96875 4.34375,-0.53125 3.3125,-2.875 0.625,-1.21875 0.4375,-1.15625 0.0312,-0.0625 2.03125,-5 0.0312,-0.0625 2.0625,-4.9375 0.0312,-0.0937 2.09375,-4.84375 0.0312,-0.0937 2.15625,-4.78125 0.0312,-0.0937 2.15625,-4.6875 0.0312,-0.0937 0.5625,-1.15625 0.65625,-4.34375 -1.875,-3.9375 -3.75,-2.25 -4.375,0.25 z m 90.46875,6.75 -2.75,3.375 -0.40625,4.375 0.375,1.3125 1.9375,4.71875 0.0312,0.0937 1.9375,4.96875 0.0312,0.0937 1.875,4.96875 0.0312,0.0625 1.78125,4.96875 0.0312,0.0937 1.71875,4.9375 0.0312,0.0625 0.90625,2.71875 2.5625,3.53125 4.09375,1.53125 4.25,-1 2.96875,-3.21875 0.65625,-4.3125 -0.3125,-1.34375 -0.9375,-2.78125 -0.0312,-0.0625 -1.75,-5.09375 -0.0312,-0.0937 -1.875,-5.125 -0.0312,-0.0625 -1.9375,-5.15625 -0.0312,-0.0937 -2,-5.15625 -0.0312,-0.0937 -1.96875,-4.8125 -2.75,-3.40625 -4.1875,-1.28125 -4.1875,1.28125 z M 342.3125,197.625 l -3.25,2.9375 -0.59375,1.25 -0.21875,0.53125 -0.0312,0.0937 -3.84375,10.6875 -0.0312,0.125 -3.6875,10.8125 -0.0312,0.0937 -2.03125,6.3125 -0.0937,4.375 2.375,3.6875 4.03125,1.71875 4.28125,-0.8125 3.125,-3.0625 0.53125,-1.28125 2.03125,-6.1875 0.0312,-0.125 3.59375,-10.59375 0.0312,-0.0937 3.78125,-10.5 0.0312,-0.0937 0.15625,-0.4375 0.28125,-4.375 -2.21875,-3.78125 L 346.625,197 l -4.3125,0.625 z m 124,7 -3.0625,3.125 -0.8125,4.28125 0.28125,1.34375 2.09375,6.9375 0.0312,0.0937 2.40625,8.40625 0.0312,0.0937 2.0625,7.5625 0.0312,0.0625 1.40625,5.4375 2.28125,3.71875 3.96875,1.84375 4.3125,-0.71875 3.1875,-3 0.96875,-4.25 -0.21875,-1.375 -1.4375,-5.5 0,-0.0937 -2.125,-7.75 -0.0312,-0.0937 -2.46875,-8.59375 -0.0312,-0.0937 -2.125,-7.03125 -2.4375,-3.625 -4.03125,-1.65625 -4.28125,0.875 z m -138.65625,35.875 -3.0625,3.125 -0.53125,1.25 -0.375,1.1875 0,0.0937 -3.21875,10.90625 -0.0312,0.0937 L 317.375,268 317.34375,268.0625 315.75,274 l 0.15625,4.375 2.5625,3.53125 4.09375,1.53125 4.25,-1.03125 2.96875,-3.21875 0.46875,-1.28125 1.5625,-5.84375 0.0312,-0.0937 3,-10.6875 0.0312,-0.0625 3.15625,-10.71875 0.0312,-0.0937 0.34375,-1.09375 0,-4.375 -2.40625,-3.625 -4.0625,-1.6875 -4.28125,0.875 z m -12.3125,43.53125 -2.9375,3.25 -0.46875,1.3125 -0.21875,0.9375 -0.0312,0.0625 -2.59375,10.4375 0,0.0625 -2.40625,10.21875 -0.0312,0.0625 -1.71875,7.625 0.3125,4.34375 2.6875,3.4375 4.1875,1.34375 4.1875,-1.1875 2.8125,-3.3125 0.4375,-1.3125 1.6875,-7.53125 0.0312,0 2.40625,-10.15625 0,-0.0625 2.53125,-10.3125 0.0312,-0.0625 0.21875,-0.84375 -0.1875,-4.375 -2.59375,-3.53125 -4.125,-1.46875 -4.21875,1.0625 z m -10.4375,44.03125 -2.78125,3.40625 -0.40625,1.3125 -1.375,6.625 0,0.0625 -1.75,8.9375 -0.0312,0.0625 -1.59375,8.46875 0,0.0625 -1,5.4375 0.53125,4.34375 2.84375,3.3125 4.21875,1.15625 4.15625,-1.375 2.65625,-3.46875 0.375,-1.34375 0.96875,-5.34375 0,-0.0625 1.59375,-8.40625 1.71875,-8.78125 0.0312,-0.0625 1.34375,-6.59375 -0.375,-4.34375 -2.78125,-3.375 -4.15625,-1.28125 -4.1875,1.25 z m -8.5,44.46875 -2.59375,3.5 -0.34375,1.34375 -0.34375,2.21875 0,0.0625 -0.9375,6.34375 -0.0312,0.0937 -0.75,5.6875 -0.0312,0.125 -0.59375,5 0,0.15625 -0.4375,4.28125 -0.0312,0.1875 -0.25,3.53125 0,0.3125 -0.0937,2.71875 1.125,4.21875 3.3125,2.875 4.34375,0.53125 3.90625,-1.96875 2.125,-3.8125 0.1875,-1.375 0.0625,-2.40625 0.25,-3.3125 0.40625,-4.15625 0,-0.125 0.59375,-4.875 -0.0312,0 0.78125,-5.5 0,-0.0937 0.90625,-6.15625 0,-0.0937 0.34375,-2.125 -0.59375,-4.3125 -2.90625,-3.28125 -4.25,-1.0625 -4.125,1.46875 z"
     id="path10468"
     style="fill:#000000;fill-opacity:1;fill-rule:evenodd;stroke:#0000ff;stroke-width:15;stroke-linecap:round;stroke-linejoin:round;stroke-miterlimit:4;stroke-opacity:1;stroke-dasharray:30, 15;stroke-dashoffset:0" />
  <path
     d="m 373.78125,252.40625 -0.53125,0.0312 -1.375,0.1875 -0.53125,0.0625 -1.34375,0.28125 -0.46875,0.0937 -1.28125,0.34375 -0.4375,0.15625 -1.21875,0.40625 -0.40625,0.15625 -1.1875,0.5 -0.34375,0.15625 -1.125,0.53125 -0.3125,0.1875 -1.0625,0.5625 -0.28125,0.1875 -1,0.59375 -0.34375,0.25 -1.8125,1.28125 -0.375,0.28125 -0.9375,0.78125 -2.1875,3.4375 0.1875,4.0625 2.53125,3.1875 3.90625,1.15625 3.84375,-1.34375 0.25,-0.1875 0.9375,-0.75 1.0625,-0.75 0.71875,-0.46875 0.28125,-0.15625 0.46875,-0.25 0.78125,-0.40625 0.21875,-0.0937 0.125,-0.0625 0.4375,-0.1875 0.0625,-0.0312 0.75,-0.25 1.1875,-0.3125 0.0937,-0.0312 0.84375,-0.15625 0.0312,0 0.625,-0.0625 0.53125,-0.0312 0.1875,0 1.09375,0.0625 0.53125,0.0625 0.0937,0.0312 1.15625,0.25 0.75,0.21875 0.0937,0.0312 1.25,0.53125 1.21875,0.65625 0.1875,0.0937 1.03125,0.6875 3.9375,1.03125 3.8125,-1.40625 2.28125,-3.375 -0.0937,-4.09375 -2.46875,-3.25 -0.25,-0.1875 -1.5,-0.9375 -0.46875,-0.28125 -1.625,-0.875 -0.5,-0.25 -1.625,-0.6875 -0.5625,-0.21875 -1.5625,-0.5 -0.5625,-0.15625 -1.5625,-0.375 -0.59375,-0.0937 -1.5,-0.21875 -0.59375,-0.0625 -1.46875,-0.0625 -0.5625,0 -1.4375,0.0312 z m 16.5,15.8125 -1.3125,3.875 1.15625,3.90625 0.15625,0.25 0.96875,1.28125 0.125,0.1875 1.4375,2 0.0937,0.15625 1.40625,2.09375 0.0937,0.15625 1.375,2.21875 0.0625,0.125 1.34375,2.28125 0.0937,0.125 1.3125,2.34375 0.0625,0.0937 1.28125,2.40625 0.0625,0.0937 1.25,2.4375 0.0625,0.0937 1.1875,2.4375 0.0625,0.125 0.5625,1.1875 2.75,3 4,0.84375 3.71875,-1.625 2.09375,-3.5 -0.3125,-4.0625 -0.125,-0.28125 -0.625,-1.34375 -0.0625,-0.125 -1.3125,-2.65625 -0.0312,-0.125 -1.375,-2.625 -0.0625,-0.125 -1.40625,-2.59375 -0.0625,-0.125 -1.4375,-2.59375 -0.0937,-0.125 -1.5,-2.53125 -0.0625,-0.125 -1.5625,-2.5 -0.0937,-0.125 -1.59375,-2.40625 -0.0937,-0.15625 -1.65625,-2.34375 -0.125,-0.1875 -1.09375,-1.4375 -3.3125,-2.375 -4.09375,0 -3.3125,2.375 z m -42.5,2.53125 -0.1875,0.25 -1.34375,1.96875 -0.125,0.15625 -3.09375,4.6875 -0.0937,0.1875 -3,4.90625 -0.0937,0.15625 -2.90625,5.0625 -0.0937,0.15625 -2.78125,5.21875 -0.0937,0.15625 -0.5625,1.125 -0.65625,4 1.8125,3.65625 3.59375,1.9375 4.0625,-0.5 3,-2.78125 0.125,-0.28125 0.5,-0.96875 0.0937,-0.15625 2.625,-4.90625 0.0937,-0.15625 2.6875,-4.71875 0.125,-0.1875 2.78125,-4.53125 2.96875,-4.5625 0.125,-0.15625 1.25,-1.8125 1.21875,-3.90625 -1.3125,-3.875 -3.28125,-2.40625 -4.0625,-0.0625 -3.375,2.34375 z m 62.59375,31.5625 -2.28125,3.375 0.125,4.09375 0.125,0.28125 0.75,1.84375 0.0312,0.125 1.75,4.53125 0.0312,0.125 1.53125,4.21875 0.0312,0.0937 1.3125,3.78125 0.0312,0.0625 0,0.0312 1.0625,3.28125 0.0312,0.0937 1.5,4.78125 -0.0312,0 0.5,1.65625 2.25,3.40625 3.84375,1.4375 3.9375,-1.03125 2.59375,-3.15625 0.3125,-4.0625 L 429.75,331 l -0.5,-1.6875 -0.0312,-0.125 -1.53125,-5 -0.0312,-0.0937 -1.15625,-3.46875 -0.0312,-0.0937 -1.375,-4 -0.0312,-0.0937 -1.59375,-4.4375 -0.0625,-0.125 -1.8125,-4.75 -0.0625,-0.15625 -0.78125,-1.9375 -2.625,-3.125 -3.9375,-1.03125 -3.8125,1.4375 z m -79.90625,1.59375 -2.875,2.90625 -0.125,0.28125 -1.40625,3.09375 -0.0625,0.125 -2.40625,5.5625 -0.0312,0.125 -2.3125,5.59375 -0.0312,0.125 -2.1875,5.625 -0.0312,0.0937 -1.8125,4.875 -0.1875,4.0625 2.1875,3.4375 3.78125,1.5 3.96875,-0.96875 2.65625,-3.0625 0.125,-0.3125 1.78125,-4.78125 0.0312,-0.0937 2.125,-5.40625 0.0312,-0.125 2.1875,-5.375 0.0312,0 2.34375,-5.46875 0.0625,-0.125 1.34375,-2.96875 0.46875,-4.0625 L 338.15625,305 334.5,303.21875 l -4.03125,0.6875 z m -15.15625,37.8125 -2.53125,3.1875 -0.0937,0.3125 -1.53125,4.71875 -0.0312,0.0625 -1.6875,5.375 0,0.0937 -1.59375,5.25 0,0.0937 -1.46875,5.125 -0.0312,0.0625 -1.375,4.96875 0,0.0937 -0.0625,0.1875 0.21875,4.0625 2.53125,3.1875 3.9375,1.125 3.84375,-1.34375 2.34375,-3.34375 0.0937,-0.3125 0.0312,-0.125 0,-0.0625 1.3125,-4.8125 0.0312,0 1.40625,-5.0625 0.0312,0 1.53125,-5.1875 0.0312,-0.0937 1.625,-5.21875 0.0312,-0.0625 1.5,-4.65625 0.0312,-4.0625 -2.34375,-3.34375 -3.84375,-1.34375 -3.9375,1.125 z m -11.34375,38.96875 -2.28125,3.375 -0.0625,0.3125 -0.15625,0.5625 0,0.0937 -0.9375,4.125 -0.0312,0.125 -1.53125,7.4375 -0.0312,0.125 -0.625,3.25 0,0.125 -0.5,2.9375 -0.0312,0.125 -0.375,2.5625 -0.0312,0.15625 -0.28125,2.21875 -0.0312,0.21875 -0.15625,1.8125 -0.0312,0.375 -0.0625,1.375 1.09375,3.9375 3.15625,2.5625 4.09375,0.28125 3.46875,-2.15625 1.5625,-3.78125 0.0312,-0.3125 0.0312,-1.03125 0.125,-1.59375 0.0312,-0.21875 0.21875,-1.84375 0.0312,-0.15625 0.34375,-2.3125 0.0312,-0.125 0.4375,-2.6875 0.0312,0 0.5625,-3.125 0.0312,-0.0937 0,-0.0625 1.5,-7.1875 0.0312,-0.0937 0.875,-3.9375 0.0312,-0.0937 0.0937,-0.5 -0.28125,-4.0625 -2.625,-3.125 -3.9375,-1.03125 -3.8125,1.4375 z"
     id="path10470"
     style="fill:#000000;fill-opacity:1;fill-rule:evenodd;stroke:#0000ff;stroke-width:13.39000416;stroke-linecap:round;stroke-linejoin:round;stroke-miterlimit:4;stroke-opacity:1;stroke-dasharray:26.78000749, 13.39000374;stroke-dashoffset:0" />
  <path
     d="m 199.59375,252.4375 -0.5625,0.0625 -1.53125,0.21875 -0.59375,0.0937 -1.53125,0.375 -0.5625,0.15625 -1.59375,0.5 -0.53125,0.21875 -1.625,0.6875 -0.5,0.25 -1.65625,0.875 -0.46875,0.28125 -1.46875,0.9375 -2.625,3.15625 -0.28125,4.0625 2.125,3.46875 3.75,1.625 3.96875,-0.875 0.28125,-0.15625 1.03125,-0.6875 0.1875,-0.0937 0.9375,-0.53125 0.1875,-0.0625 1.25,-0.5625 0.15625,-0.0625 0.71875,-0.21875 1.125,-0.25 0.15625,-0.0312 0.5625,-0.0625 1.0625,-0.0625 0.1875,0 0.53125,0.0312 0.65625,0.0625 0.0937,0 0.78125,0.15625 0.0937,0.0312 1.1875,0.3125 0.40625,0.125 0.1875,0.0937 0.21875,0.0625 0.4375,0.1875 0.15625,0.0625 0.1875,0.0937 0.78125,0.40625 0.46875,0.25 0.28125,0.15625 0.71875,0.46875 1.0625,0.75 0.0937,0.0937 0.8125,0.65625 3.8125,1.53125 3.9375,-0.96875 2.6875,-3.09375 0.375,-4.0625 -2.03125,-3.53125 -0.25,-0.1875 -0.90625,-0.78125 -0.40625,-0.28125 -1.78125,-1.28125 -0.375,-0.25 -1,-0.59375 -0.28125,-0.1875 -1.0625,-0.5625 -0.3125,-0.1875 -1.125,-0.53125 -0.34375,-0.15625 -1.1875,-0.5 -0.375,-0.15625 -1.25,-0.40625 -0.40625,-0.15625 -1.3125,-0.34375 -0.46875,-0.0937 -1.34375,-0.28125 -0.5,-0.0625 -1.375,-0.1875 -0.5625,-0.0312 -1.40625,-0.0312 -0.59375,0 -1.46875,0.0625 z m -23.53125,15.53125 -0.21875,0.25 -1.09375,1.4375 -0.125,0.1875 -1.625,2.34375 -0.0937,0.15625 -1.59375,2.40625 -0.0937,0.125 -1.5625,2.5 -0.0937,0.125 -1.5,2.53125 -0.0625,0.125 -1.46875,2.59375 -0.0625,0.125 -1.40625,2.59375 -0.0312,0.125 -1.375,2.625 -0.0625,0.125 -1.28125,2.65625 -0.0937,0.125 -0.59375,1.34375 -0.53125,4.03125 1.9375,3.59375 3.65625,1.8125 4.03125,-0.65625 2.90625,-2.875 0.125,-0.28125 0.5625,-1.1875 0.0625,-0.125 1.1875,-2.4375 0.0625,-0.0937 1.25,-2.4375 0.0625,-0.0937 1.28125,-2.40625 0.0625,-0.0937 1.3125,-2.34375 0.0625,-0.125 1.34375,-2.28125 0.0937,-0.125 1.375,-2.21875 0.0937,-0.15625 1.40625,-2.09375 0.0937,-0.15625 1.40625,-2 0.125,-0.1875 0.96875,-1.28125 1.34375,-3.84375 -1.15625,-3.9375 -3.1875,-2.5 -4.09375,-0.21875 -3.40625,2.21875 z m 42.46875,2.65625 -1.46875,3.8125 1.03125,3.9375 0.15625,0.28125 1.28125,1.8125 0.0937,0.15625 2.875,4.375 0.125,0.1875 2.78125,4.53125 0.0937,0.1875 2.71875,4.71875 0.0937,0.15625 2.625,4.90625 0.0937,0.15625 0.46875,0.96875 2.875,2.90625 4,0.71875 3.6875,-1.78125 1.96875,-3.5625 -0.4375,-4.03125 -0.125,-0.28125 -0.59375,-1.125 L 242.8125,293.5 240,288.28125 l -0.0625,-0.15625 -2.90625,-5.0625 -0.0937,-0.15625 -3,-4.90625 -0.125,-0.1875 -3.09375,-4.6875 -0.0937,-0.15625 L 229.25,271 l -3.21875,-2.46875 -4.09375,-0.15625 -3.40625,2.25 z M 159,301.75 l -2.75,3 -0.125,0.28125 -0.8125,1.9375 -0.0312,0.15625 -1.84375,4.75 -0.0312,0.125 -1.59375,4.4375 -0.0625,0.0937 -1.375,4 -0.0312,0.0937 -1.125,3.46875 -0.0312,0.0937 -1.53125,5 -0.0625,0.125 -0.46875,1.6875 0.125,4.0625 2.46875,3.25 3.875,1.21875 3.875,-1.25 2.4375,-3.28125 0.0937,-0.3125 0.4375,-1.5625 0.0312,-0.0937 1.46875,-4.78125 0.0312,-0.0937 1.09375,-3.28125 0.0312,-0.0937 1.34375,-3.875 -0.0312,0 1.53125,-4.21875 0.0625,-0.125 1.71875,-4.53125 0.0625,-0.125 0.75,-1.84375 0.3125,-4.0625 -2.125,-3.5 -3.71875,-1.625 -4,0.875 z m 79.9375,3.03125 -2.125,3.46875 0.28125,4.0625 0.125,0.3125 1.34375,2.96875 0.0625,0.125 2.28125,5.34375 0.0625,0.125 2.1875,5.375 0.0625,0.125 2.125,5.40625 -0.0312,0 1.8125,4.875 2.53125,3.21875 3.90625,1.15625 3.875,-1.34375 2.34375,-3.3125 0,-4.09375 -0.0937,-0.28125 -1.8125,-4.875 -0.0312,-0.0937 -2.1875,-5.625 -0.0625,-0.125 L 253.3125,316 l -0.0625,-0.125 -2.375,-5.5625 -0.0625,-0.125 -1.40625,-3.09375 -2.75,-3.03125 -3.96875,-0.875 -3.75,1.59375 z m 15.09375,36.96875 -2.5,3.25 -0.1875,4.0625 0.0937,0.28125 1.53125,4.65625 0,0.0625 0.0312,0 1.59375,5.21875 0.0312,0.0937 1.53125,5.09375 0.0312,0.0937 1.40625,4.96875 0.0312,0.0937 1.3125,4.8125 0.0312,0.0625 0.0312,0.125 2.1875,3.46875 3.78125,1.53125 3.96875,-0.9375 2.6875,-3.09375 0.40625,-4.03125 -0.0625,-0.3125 -0.0625,-0.1875 -0.0312,-0.0937 L 270.53125,366 270.5,365.9375 l -1.46875,-5.125 -0.0312,-0.0937 -1.5625,-5.25 -0.0312,-0.0937 L 265.75,350 l -0.0312,-0.0625 -1.53125,-4.71875 -2.40625,-3.3125 -3.84375,-1.3125 -3.90625,1.15625 z m 11.375,38.375 -2.75,3 -0.5,4.0625 0.0625,0.28125 0.125,0.5 0.0312,0.0937 0.875,3.9375 0.0312,0.0937 1.5,7.34375 0.0312,0 0.53125,3 0.0312,0.125 0.46875,2.8125 0.0312,0 0.34375,2.46875 0.0312,0 0.21875,2.0625 0.0312,0 0.0937,1.25 0.0312,0.34375 0.0312,1.03125 1.40625,3.84375 3.34375,2.3125 4.09375,-0.0625 3.28125,-2.4375 1.25,-3.875 0,-0.3125 -0.0625,-1.375 0,-0.375 -0.1875,-1.8125 0,-0.21875 L 279.5,406 l -0.0312,-0.15625 -0.40625,-2.5625 0,-0.125 -0.5,-2.9375 -0.0312,-0.125 -0.59375,-3.25 -0.0312,-0.125 -1.53125,-7.4375 -0.0312,-0.125 -0.9375,-4.125 -0.0312,-0.0937 -0.125,-0.5625 -2.125,-3.5 -3.71875,-1.59375 -4,0.84375 z"
     id="path10472"
     style="fill:#000000;fill-opacity:1;fill-rule:evenodd;stroke:#0000ff;stroke-width:13.39000416;stroke-linecap:round;stroke-linejoin:round;stroke-miterlimit:4;stroke-opacity:1;stroke-dasharray:26.78000749, 13.39000374;stroke-dashoffset:0" />
  <path
     d="m 286.125,46.90625 -3.4375,3.6875 -1.125,4.5 0,38.34375 1.3125,4.84375 3.59375,3.53125 4.875,1.21875 4.84375,-1.4375 3.4375,-3.65625 1.125,-4.5 0,-38.34375 -1.3125,-4.875 -3.59375,-3.5 -4.875,-1.21875 -4.84375,1.40625 z m 0,57.53125 -3.4375,3.65625 -1.125,4.53125 0,38.34375 1.3125,4.84375 3.59375,3.53125 4.875,1.1875 4.84375,-1.40625 3.4375,-3.65625 1.125,-4.5 0,-38.34375 -1.3125,-4.875 -3.59375,-3.5 -4.875,-1.21875 -4.84375,1.40625 z m 0,57.53125 -3.4375,3.65625 -1.125,4.5 0,38.375 1.3125,4.84375 3.59375,3.5 4.875,1.21875 4.84375,-1.40625 3.4375,-3.65625 1.125,-4.5 0,-38.375 -1.3125,-4.84375 -3.59375,-3.5 -4.875,-1.21875 -4.84375,1.40625 z m 0,57.53125 -3.4375,3.65625 -1.125,4.5 0,38.34375 1.3125,4.875 3.59375,3.5 4.875,1.21875 4.84375,-1.40625 3.4375,-3.6875 1.125,-4.5 0,-38.34375 -1.3125,-4.84375 -3.59375,-3.53125 -4.875,-1.21875 -4.84375,1.4375 z m 0,57.53125 -3.4375,3.65625 -1.125,4.5 0,38.34375 1.3125,4.84375 3.59375,3.53125 4.875,1.21875 4.84375,-1.4375 3.4375,-3.65625 1.125,-4.5 0,-38.34375 -1.3125,-4.84375 -3.59375,-3.53125 -4.875,-1.21875 -4.84375,1.4375 z m 0,57.5 -3.4375,3.6875 -1.125,4.5 0,36.4375 1.3125,4.84375 3.59375,3.5 4.875,1.21875 4.84375,-1.40625 3.4375,-3.65625 1.125,-4.5 0,-36.4375 -1.3125,-4.875 -3.59375,-3.5 -4.875,-1.21875 -4.84375,1.40625 z"
     id="path10474"
     style="fill:#000000;fill-opacity:1;fill-rule:evenodd;stroke:#0000ff;stroke-width:19.17499924;stroke-linecap:round;stroke-linejoin:miter;stroke-miterlimit:4;stroke-opacity:1;stroke-dasharray:38.34999847, 19.17499924;stroke-dashoffset:116.96749534" />
  <rect
     width="164.1799"
     height="96.666664"
     x="206.3492"
     y="398.9418"
     id="rect10483"
     style="fill:#000000;fill-opacity:1;stroke:#4d4d4d;stroke-width:20;stroke-linecap:round;stroke-linejoin:bevel;stroke-miterlimit:4;stroke-opacity:1;stroke-dasharray:none;stroke-dashoffset:0" />
  <rect
     width="245.09135"
     height="48.689228"
     x="168.19507"
     y="445.1792"
     id="rect10485"
     style="fill:#000000;fill-opacity:1;stroke:#4d4d4d;stroke-width:17.34251404;stroke-linecap:round;stroke-linejoin:bevel;stroke-miterlimit:4;stroke-opacity:1;stroke-dasharray:none;stroke-dashoffset:0" />
</svg>
