<?xml version="1.0" encoding="UTF-8" standalone="no"?>
<!-- Created with Inkscape (http://www.inkscape.org/) -->

<svg
   xmlns:dc="http://purl.org/dc/elements/1.1/"
   xmlns:cc="http://creativecommons.org/ns#"
   xmlns:rdf="http://www.w3.org/1999/02/22-rdf-syntax-ns#"
   xmlns:svg="http://www.w3.org/2000/svg"
   xmlns="http://www.w3.org/2000/svg"
   xmlns:xlink="http://www.w3.org/1999/xlink"
   version="1.0"
   width="128"
   height="128"
   id="svg2">
  <defs
     id="defs4">
    <linearGradient
       id="linearGradient3415">
      <stop
         id="stop3417"
         style="stop-color:#1a1a1a;stop-opacity:1"
         offset="0" />
      <stop
         id="stop3419"
         style="stop-color:#2b2b2b;stop-opacity:1"
         offset="1" />
    </linearGradient>
    <linearGradient
       id="linearGradient3392">
      <stop
         id="stop3394"
         style="stop-color:#4a585b;stop-opacity:1"
         offset="0" />
      <stop
         id="stop3396"
         style="stop-color:#5e7074;stop-opacity:1"
         offset="1" />
    </linearGradient>
    <linearGradient
       id="linearGradient2320">
      <stop
         id="stop2322"
         style="stop-color:#6a3c1d;stop-opacity:1"
         offset="0" />
      <stop
         id="stop2324"
         style="stop-color:#8f5127;stop-opacity:1"
         offset="1" />
    </linearGradient>
    <linearGradient
       id="linearGradient2338">
      <stop
         id="stop2340"
         style="stop-color:#b1b1b1;stop-opacity:1"
         offset="0" />
      <stop
         id="stop2342"
         style="stop-color:#e4e4e4;stop-opacity:1"
         offset="1" />
    </linearGradient>
    <linearGradient
       x1="50.269558"
       y1="86.414474"
       x2="81.458702"
       y2="114.79048"
       id="linearGradient2369"
       xlink:href="#linearGradient2338"
       gradientUnits="userSpaceOnUse"
       gradientTransform="matrix(1.3179465,0,0,1.1869338,-18.776841,-17.154214)" />
    <linearGradient
       x1="52.960384"
       y1="78.953545"
       x2="71.062317"
       y2="89.716858"
       id="linearGradient2374"
       xlink:href="#linearGradient2338"
       gradientUnits="userSpaceOnUse"
       gradientTransform="matrix(1.3179465,0,0,1.1869338,-18.776841,-17.154214)" />
    <linearGradient
       x1="48.557217"
       y1="84.824448"
       x2="58.21973"
       y2="68.190239"
       id="linearGradient2378"
       xlink:href="#linearGradient2338"
       gradientUnits="userSpaceOnUse"
       gradientTransform="matrix(1.3179465,0,0,1.1869338,-18.776841,-17.154214)" />
    <linearGradient
       x1="60.788254"
       y1="70.697594"
       x2="60.910564"
       y2="80.482422"
       id="linearGradient2382"
       xlink:href="#linearGradient2338"
       gradientUnits="userSpaceOnUse"
       gradientTransform="matrix(1.3179465,0,0,1.1869338,-18.776841,-17.154214)" />
    <linearGradient
       x1="74.976257"
       y1="68.924095"
       x2="81.947945"
       y2="77.97506"
       id="linearGradient2969"
       xlink:href="#linearGradient2320"
       gradientUnits="userSpaceOnUse"
       gradientTransform="matrix(1.3179465,0,0,1.1869338,-18.776841,-17.154214)" />
    <linearGradient
       id="linearGradient2888">
      <stop
         id="stop2890"
         style="stop-color:#007dff;stop-opacity:1"
         offset="0" />
      <stop
         id="stop2892"
         style="stop-color:#58abff;stop-opacity:1"
         offset="1" />
    </linearGradient>
    <linearGradient
       x1="76.454056"
       y1="63.394596"
       x2="76.454056"
       y2="70.918915"
       id="linearGradient3179"
       xlink:href="#linearGradient2320"
       gradientUnits="userSpaceOnUse"
       gradientTransform="matrix(1.3179465,0,0,1.1869338,-18.776841,-17.154214)" />
    <linearGradient
       x1="76.281082"
       y1="63.783787"
       x2="81.037834"
       y2="67.027023"
       id="linearGradient3183"
       xlink:href="#linearGradient2888"
       gradientUnits="userSpaceOnUse"
       gradientTransform="matrix(1.3179465,0,0,1.1869338,-18.776841,-17.154214)" />
    <linearGradient
       id="linearGradient3193">
      <stop
         id="stop3195"
         style="stop-color:#c2a05c;stop-opacity:1"
         offset="0" />
      <stop
         id="stop3197"
         style="stop-color:#d6be91;stop-opacity:1"
         offset="1" />
    </linearGradient>
    <linearGradient
       x1="41.059177"
       y1="53.225559"
       x2="45.287495"
       y2="53.225559"
       id="linearGradient3382"
       xlink:href="#linearGradient2320"
       gradientUnits="userSpaceOnUse"
       gradientTransform="matrix(1.3179465,0,0,1.1869338,-18.776841,-17.154214)" />
    <linearGradient
       x1="84.232513"
       y1="55.395355"
       x2="88.68338"
       y2="55.395355"
       id="linearGradient3386"
       xlink:href="#linearGradient2320"
       gradientUnits="userSpaceOnUse"
       gradientTransform="matrix(1.3179465,0,0,1.1869338,-18.776841,-17.154214)" />
    <linearGradient
       x1="57.416088"
       y1="51.00013"
       x2="86.90303"
       y2="19.844112"
       id="linearGradient3398"
       xlink:href="#linearGradient3392"
       gradientUnits="userSpaceOnUse"
       gradientTransform="matrix(1.3179465,0,0,1.1869338,-18.776841,-17.154214)" />
    <linearGradient
       x1="35.161789"
       y1="37.480644"
       x2="49.293266"
       y2="47.940163"
       id="linearGradient3402"
       xlink:href="#linearGradient2320"
       gradientUnits="userSpaceOnUse"
       gradientTransform="matrix(1.3179465,0,0,1.1869338,-18.776841,-17.154214)" />
    <linearGradient
       x1="37.721031"
       y1="41.820232"
       x2="38.833748"
       y2="46.493633"
       id="linearGradient3408"
       xlink:href="#linearGradient2320"
       gradientUnits="userSpaceOnUse"
       gradientTransform="matrix(1.3179465,0,0,1.1869338,-18.776841,-17.154214)" />
    <linearGradient
       x1="54.625"
       y1="56.375"
       x2="55.625"
       y2="61.25"
       id="linearGradient3421"
       xlink:href="#linearGradient3415"
       gradientUnits="userSpaceOnUse"
       gradientTransform="matrix(1.3179465,0,0,1.1869338,-18.776841,-17.154214)" />
    <linearGradient
       x1="38.802483"
       y1="54.129436"
       x2="45.254837"
       y2="66.371223"
       id="linearGradient3425"
       xlink:href="#linearGradient3415"
       gradientUnits="userSpaceOnUse"
       gradientTransform="matrix(1.3179465,0,0,1.1869338,-18.776841,-17.154214)" />
    <linearGradient
       x1="47.508736"
       y1="66.481712"
       x2="49.143921"
       y2="60.780663"
       id="linearGradient3429"
       xlink:href="#linearGradient3415"
       gradientUnits="userSpaceOnUse"
       gradientTransform="matrix(1.3179465,0,0,1.1869338,-18.776841,-17.154214)" />
    <linearGradient
       x1="34.780815"
       y1="62.018101"
       x2="35.355339"
       y2="63.653282"
       id="linearGradient3433"
       xlink:href="#linearGradient3415"
       gradientUnits="userSpaceOnUse"
       gradientTransform="matrix(1.3179465,0,0,1.1869338,-18.776841,-17.154214)" />
    <linearGradient
       x1="39.818951"
       y1="59.167576"
       x2="42.33802"
       y2="63.321827"
       id="linearGradient3437"
       xlink:href="#linearGradient2320"
       gradientUnits="userSpaceOnUse"
       gradientTransform="matrix(1.3179465,0,0,1.1869338,-18.776841,-17.154214)" />
    <linearGradient
       x1="30.361397"
       y1="64.515068"
       x2="31.245279"
       y2="66.19445"
       id="linearGradient3441"
       xlink:href="#linearGradient3193"
       gradientUnits="userSpaceOnUse"
       gradientTransform="matrix(1.3179465,0,0,1.1869338,-18.776841,-17.154214)" />
    <linearGradient
       x1="39.111843"
       y1="59.278061"
       x2="40.923805"
       y2="61.112118"
       id="linearGradient3449"
       xlink:href="#linearGradient3415"
       gradientUnits="userSpaceOnUse"
       gradientTransform="matrix(1.3179465,0,0,1.1869338,-18.776841,-17.154214)" />
    <filter
       color-interpolation-filters="sRGB"
       id="filter3570">
      <feGaussianBlur
         stdDeviation="1.6277848"
         id="feGaussianBlur3572" />
    </filter>
  </defs>
  <metadata
     id="metadata7">
    <rdf:RDF>
      <cc:Work
         rdf:about="">
        <dc:format>image/svg+xml</dc:format>
        <dc:type
           rdf:resource="http://purl.org/dc/dcmitype/StillImage" />
        <dc:title></dc:title>
      </cc:Work>
    </rdf:RDF>
  </metadata>
  <g
     id="layer2">
    <path
       d="m 36.836643,113.72306 -1.12839,-30.196273 7.57633,3.048661 8.865917,1.887265 20.472211,1.30657 13.218278,-1.742093 7.253932,-1.596917 9.510709,-4.790751 0,1.887265 -0.80599,31.067313 -8.704719,3.77453 c -5.83737,3.25088 -12.123064,4.07918 -18.376629,5.0811 l -13.863071,-0.14517 -12.895881,-3.19383 -7.737528,-4.06489 -3.385169,-2.32278 z"
       id="path2367"
       style="fill:url(#linearGradient2369);fill-rule:evenodd;stroke:none" />
    <path
       d="m 28.293123,67.557613 3.062772,3.774532 9.349513,5.806973 13.218277,3.048661 15.797454,0.725871 12.089888,-1.01622 11.122696,-2.613137 7.898727,-3.774534 3.06277,-2.467962 3.06277,-5.371449 0.48359,8.855633 -3.70756,6.532844 -5.964341,3.193834 -8.221125,2.903487 -18.215431,2.177613 -14.99146,-0.435521 -9.994308,-1.451745 -6.286742,-2.177614 -5.803146,-2.322789 -4.513558,-4.06488 -1.773184,-3.193835 0.322398,-8.129762 z"
       id="path2372"
       style="fill:url(#linearGradient2374);fill-opacity:1;fill-rule:evenodd;stroke:none" />
    <path
       d="m 28.45432,62.912035 0,3.193836 2.095581,5.0811 6.44794,4.210056 14.185469,4.210053 11.606292,1.30657 6.770338,0.145175 11.606293,-1.016222 7.737527,-1.451742 9.994308,-3.919706 5.964342,-4.35523 1.93439,-3.774533 -3.70757,-7.549063 -2.09558,-1.451744 C 95.547988,56.648891 94.150039,52.795167 89.3053,51.651094 84.589832,50.537549 77.718841,49.466855 69.076344,52.314311 L 47.153348,56.959889 28.45432,62.912035 z"
       id="path2376"
       style="fill:url(#linearGradient2378);fill-rule:evenodd;stroke:none" />
    <path
       d="m 42.478592,65.960695 2.740374,-5.081099 4.835956,-2.613138 8.382321,-1.306569 10.316704,-0.725872 -0.161198,3.193834 3.22397,14.081908 -7.57633,0 -9.994308,-1.161394 -7.253931,-2.03244 -4.191162,-2.177615 -0.322396,-2.177615 z"
       id="path2380"
       style="fill:url(#linearGradient2382);fill-rule:evenodd;stroke:none" />
    <path
       d="m 36.836643,113.72306 -1.12839,-30.196273 7.57633,3.048661 8.865917,1.887265 20.472211,1.30657 13.218278,-1.742093 7.253932,-1.596917 9.510709,-4.790751 0,1.887265 -0.80599,31.067313 -8.704719,3.77453 c -6.125544,3.15313 -12.251086,4.63442 -18.376629,5.0811 l -13.863071,-0.14517 -12.895881,-3.19383 -7.737528,-4.06489 -3.385169,-2.32278 z"
       id="path2384"
       style="fill:#000000;fill-opacity:0.15686275;fill-rule:evenodd;stroke:none" />
    <path
       d="m 28.293123,67.557613 3.062772,3.774532 9.349513,5.806973 13.218277,3.048661 15.797454,0.725871 12.089888,-1.01622 11.122696,-2.613137 7.898727,-3.774534 3.06277,-2.467962 3.06277,-5.371449 0.48359,8.855633 -3.70756,6.532844 -5.964341,3.193834 -8.221125,2.903487 -18.215431,2.177613 -14.99146,-0.435521 -9.994308,-1.451745 -6.286742,-2.177614 -5.803146,-2.322789 -4.513558,-4.06488 -1.773184,-3.193835 0.322398,-8.129762 z"
       id="path2386"
       style="fill:#000000;fill-opacity:0.15686275;fill-rule:evenodd;stroke:none" />
    <path
       d="m 42.478592,65.960695 2.740374,-5.081099 4.835956,-2.613138 8.382321,-1.306569 10.316704,-0.725872 -0.161198,3.193834 3.22397,14.081908 -7.57633,0 -9.994308,-1.161394 -7.253931,-2.03244 -4.191162,-2.177615 -0.322396,-2.177615 z"
       id="path2388"
       style="fill:#000000;fill-opacity:0.15686275;fill-rule:evenodd;stroke:none" />
    <path
       d="m 71.977918,75.977723 -3.707566,-16.549872 2.740375,1.451745 4.997153,1.306569 4.029963,0.145173 7.737528,-0.290349 2.579176,-0.72587 4.513558,-1.742092 -2.256779,15.678825 -2.740374,1.01622 -8.704719,2.03244 -5.48075,-1.016219 -3.707565,-1.30657 z"
       id="path2967"
       style="fill:url(#linearGradient2969);fill-rule:evenodd;stroke:none" />
    <path
       d="m 69.105251,57.372399 6.041182,-2.566344 5.243289,-1.12919 4.559384,0.205307 7.067042,1.539807 3.191568,2.258381 0.09342,1.016902 -3.854901,2.370673 -3.76149,0.82123 -6.611104,0.615921 -8.776811,-1.129191 -3.419537,-1.642459 -0.113989,-1.334499 0.341953,-1.026538 z"
       id="path3177"
       style="fill:url(#linearGradient3179);fill-rule:evenodd;stroke:none" />
    <path
       d="m 71.498927,60.759972 1.823753,-1.12919 3.98946,-1.745113 3.98946,-0.923885 3.647506,0.307962 2.165706,0.30796 2.50766,0.513271 4.217429,1.745112 c -2.289309,1.302881 -4.572231,2.619187 -7.75095,2.053076 l -6.383136,0.513268 -4.777063,-0.382821 -3.429825,-1.25964 z"
       id="path3181"
       style="fill:url(#linearGradient3183);fill-rule:evenodd;stroke:none" />
    <path
       d="m 68.328732,63.610951 6.11813,1.307445 9.747528,0.280167 6.221828,-0.933889 4.66637,-1.120668 0.31109,1.027278 -0.414788,1.400834 -4.66637,1.120668 -7.777284,1.027278 -9.747528,-0.560334 -4.044186,-0.933888 -0.829578,-0.466945 -0.414788,-1.120668 0.829576,-1.027278 z"
       id="path3376"
       style="fill:#1a1a1a;fill-rule:evenodd;stroke:none" />
    <path
       d="m 70.091583,71.642399 4.044187,1.120668 4.251582,0.373555 4.458977,-0.09339 3.940489,-0.466945 5.392251,-1.027277 1.555455,0 -0.10369,1.774389 -1.970244,0.560335 -4.770067,0.933888 -3.007217,0.373556 -5.807038,0 -4.458976,-0.653722 -3.007217,-0.653721 -0.518485,-2.241336 z"
       id="path3378"
       style="fill:#1a1a1a;fill-rule:evenodd;stroke:none" />
    <path
       d="m 33.13721,70.982593 1.173197,-51.640111 7.772444,16.508986 0.293301,35.395268 -2.346399,0.528288 -2.639697,0.528287 -2.932999,-0.528287 -1.319847,-0.792431 z"
       id="path3380"
       style="fill:url(#linearGradient3382);fill-rule:evenodd;stroke:none" />
    <path
       d="m 90.623955,54.473605 0.43995,-6.735666 2.199747,-0.66036 2.346399,-2.905582 0.879899,-3.301797 -1.466499,-2.905582 5.132749,-1.056574 0,22.056006 -2.323997,1.168468 -3.629292,0.15225 0.923544,-1.545555 -0.982904,-2.152457 -2.932997,-1.452793 -0.586599,-0.660358 z"
       id="path3384"
       style="fill:url(#linearGradient3386);fill-rule:evenodd;stroke:none" />
    <path
       d="M 50.588543,48.926586 35.630257,16.833114 96.3433,4.8145732 114.38123,33.210029 50.588543,48.926586 z"
       id="path3388"
       style="fill:url(#linearGradient3398);fill-opacity:1;fill-rule:evenodd;stroke:none" />
    <path
       d="m 14.659325,42.455063 19.357784,-24.961589 1.613148,0 14.958286,31.697255 -2.786347,0.858468 -13.198487,-30.046356 -17.011385,22.056007 -2.932999,0.396215 z"
       id="path3400"
       style="fill:url(#linearGradient3402);fill-rule:evenodd;stroke:none" />
    <path
       d="M 17.885623,41.662632 34.457057,19.870769 33.577158,39.417409 17.885623,41.662632 z"
       id="path3406"
       style="fill:url(#linearGradient3408);fill-rule:evenodd;stroke:none" />
    <path
       d="M 17.885623,41.662632 34.457057,19.870769 33.577158,39.417409 17.885623,41.662632 z"
       id="path3410"
       style="fill:#000000;fill-opacity:0.15686275;fill-rule:evenodd;stroke:none" />
    <path
       d="m 14.659325,42.455063 19.357784,-24.961589 1.613148,0 14.958286,31.697255 -2.639698,0.66036 -13.345136,-29.848248 -17.011385,22.056007 -2.932999,0.396215 z"
       id="path3404"
       style="fill:#000000;fill-opacity:0.15686275;fill-rule:evenodd;stroke:none" />
    <path
       d="m 95.674098,37.869467 0.483595,1.451743 0.241799,3.193835 -2.740375,4.210055 -47.231162,10.234789 -0.08061,-4.064881 -1.531386,-5.734386 1.773185,0.07259 1.208988,2.903487 3.385169,-1.233983 42.234008,-10.45255 2.256779,-0.580698 z"
       id="path3413"
       style="fill:url(#linearGradient3421);fill-opacity:1;fill-rule:evenodd;stroke:none" />
    <path
       d="m 34.284858,42.399076 1.922103,-0.05245 3.55298,1.783488 2.854031,3.934167 0.757193,2.517868 0.990175,4.773456 -0.465965,4.301357 -2.446313,5.140644 -3.960698,2.570323 -1.863859,0.629466 c 0,0 -2.038594,-0.262277 -2.562803,-0.4721 -0.524211,-0.209823 -5.183855,-6.609401 -5.183855,-6.609401 L 27.1789,54.883505 c 0,0 0.524211,-4.616089 0.698947,-5.1931 0.174738,-0.577013 2.621049,-4.563634 2.621049,-4.563634 l 3.785962,-2.727689 z"
       id="path3423"
       style="fill:url(#linearGradient3425);fill-rule:evenodd;stroke:none" />
    <path
       d="m 34.925558,42.136798 2.038595,-0.05245 2.737542,0.629466 2.504559,1.521212 2.504559,3.042422 1.164911,3.094878 0.582455,5.035734 -0.873683,5.298011 -2.504559,3.881712 c 0,0 -1.339647,1.678579 -1.572631,1.835945 -0.232982,0.157367 -1.68912,0.734378 -1.68912,0.734378 l -1.514386,0.524556 -2.388067,0.209821 c 0,0 0.990175,-0.472098 1.747368,-0.681921 0.757192,-0.209823 2.912277,-1.993313 2.912277,-1.993313 l 2.446314,-3.671888 1.16491,-3.147333 0,-2.780145 -0.465964,-4.406267 -1.514384,-4.353812 -2.09684,-2.517868 -2.271578,-1.311388 -2.271576,-0.629466 -0.640702,-0.262279 z"
       id="path3427"
       style="fill:url(#linearGradient3429);fill-rule:evenodd;stroke:none" />
    <path
       d="m 24.033641,57.716099 5.708064,-2.308044 2.329822,-1.258934 0.990175,2.675234 c 0,0 -1.980349,0.209822 -2.562806,0.524556 -0.582455,0.314733 -4.135432,2.150677 -4.135432,2.150677 l -1.339649,0.891744 0.05824,-1.521211 -1.04842,-1.154022 z"
       id="path3431"
       style="fill:url(#linearGradient3433);fill-opacity:1;fill-rule:evenodd;stroke:none" />
    <path
       d="m 31.663809,57.401365 0.990174,2.15068 1.805612,1.154021 1.339648,0.262278 0.990174,-0.36719 0.873684,-0.996655 0.931927,-2.8326 -0.116492,-3.724345 -1.106666,-2.203133 -2.155086,-1.258933 -1.339648,0 -1.805611,0.9442 -0.873684,1.521211 -0.291229,2.675234 1.689122,-0.681923 0.174737,2.780145 -1.106664,0.57701 z"
       id="path3435"
       style="fill:url(#linearGradient3437);fill-rule:evenodd;stroke:none" />
    <path
       d="m 18.791541,59.604499 5.125607,-1.626122 1.339649,0.734378 -0.465964,1.835944 -4.251926,2.517866 -1.397893,-1.62612 -0.349473,-1.835946 z"
       id="path3439"
       style="fill:url(#linearGradient3441);fill-rule:evenodd;stroke:none" />
    <path
       d="m 18.791541,59.656955 1.863858,0.524556 0.291228,0.524555 0.291226,1.363845 -0.524208,0.891745 -1.514386,-1.678578 -0.465964,-1.049112 0.05824,-0.577011 z"
       id="path3443"
       style="fill:#000000;fill-opacity:0.15686275;fill-rule:evenodd;stroke:none" />
    <path
       d="m 34.867314,49.742854 1.57263,1.940855 1.106665,1.731034 0.291227,0.944199 -0.174735,2.832603 -2.155086,2.885054 -0.698947,0.734379 1.339648,0.05245 1.164911,-0.83929 0.990173,-2.150677 0.174738,-2.360499 0.116494,-1.626123 -0.931928,-2.465411 -0.990174,-1.154023 -1.805614,-0.524557 z"
       id="path3445"
       style="fill:#000000;fill-opacity:0.15686275;fill-rule:evenodd;stroke:none" />
    <path
       d="m 32.770474,53.624566 0.291228,3.199789 1.689121,-0.36719 1.339648,-0.891744 0.291227,-1.049112 -0.931929,-1.311388 -1.514385,0.05245 -1.16491,0.367188 z"
       id="path3447"
       style="fill:url(#linearGradient3449);fill-rule:evenodd;stroke:none" />
  </g>
  <g
     id="layer1">
    <path
       d="M 96.213985,4.3589617 33.61153,17.044317 14.007075,42.785945 33.4056,39.892793 33.36442,42.340845 c -5.11607,2.581868 -6.36944,7.909421 -6.630918,12.833721 0,0.442368 0.04324,0.869373 0.08237,1.298209 -1.07507,0.434736 -2.156582,0.824923 -3.253681,1.224027 l -5.107042,1.854584 c -0.532121,1.625823 1.378485,2.717204 2.059291,3.857535 l 4.653999,-2.63351 c 0.0448,-0.145321 0.08756,-0.272308 0.123557,-0.408008 0.632899,-0.359111 1.259398,-0.718978 1.894548,-1.038567 0.265885,1.178234 0.64055,2.288779 1.112018,3.301159 -0.90108,1.58147 -0.810821,3.18071 -0.535416,4.859011 -0.01923,2.229811 0.263217,4.480058 0,7.010328 0.178011,4.42227 3.925873,7.130123 7.70175,9.347104 l 1.359131,30.266822 c 12.018559,8.35922 22.922209,10.44543 37.685032,9.64384 12.189604,-1.37175 21.106041,-5.52996 27.759251,-8.86492 l 0.74133,-33.085784 c 2.60769,-1.842502 4.18084,-4.33384 4.48925,-7.307062 -0.023,-2.946862 -0.17983,-5.894317 -0.24711,-8.827821 -0.15073,-4.114876 -3.52379,-6.775852 -7.00159,-8.939095 L 100.08545,37.073826 115.11827,33.290473 96.213985,4.3589617 z M 95.802126,5.4717128 113.80033,32.808282 50.621276,48.720614 36.865209,17.600692 95.802126,5.4717128 z m -14.579782,4.1542682 -0.370672,0.074184 1.688618,2.559326 -3.871467,0.741833 -0.04118,0.333825 4.077397,-0.853107 2.800637,4.265543 0.2883,0.0371 -2.800636,-4.376818 10.667129,-2.225501 -0.205929,0 -10.584761,2.002947 -1.647434,-2.5593254 z m -15.77417,4.413909 -0.617789,0.111275 c 0.13568,0.264751 1.014032,1.890197 1.523876,2.85606 L 41.848694,22.20006 40.242448,18.602168 39.665845,18.4538 l 1.729806,3.820444 -1.029646,0.22255 0.288301,0.296733 0.864901,-0.185457 10.255271,22.811384 0.494231,0 -10.255271,-22.92266 24.505566,-5.155744 c 1.263573,2.3921 2.032499,3.832472 3.541982,6.676503 l -7.207521,1.520759 0.288302,0.296734 7.083961,-1.52076 c 1.113942,2.098623 2.677079,5.081562 2.677079,5.081562 l 0.453044,0.07418 c 2e-6,-10e-7 -1.552029,-3.03641 -2.677078,-5.229927 l 25.494026,-5.415387 6.466171,10.942047 -8.195975,2.151318 0.411858,0.22255 7.990047,-2.040043 1.27676,2.151319 0.32949,0.03709 -1.31795,-2.262592 4.40688,-1.149843 -0.24711,-0.296733 -4.32451,1.112751 -6.383802,-10.942047 5.724832,-1.224025 -0.32949,-0.22255 -5.560086,1.186934 -2.388777,-4.117176 -0.494231,0.0371 2.47115,4.154268 -25.494026,5.378293 c -1.484025,-2.893421 -2.201473,-4.340648 -3.418425,-6.713596 l 4.571627,-0.964385 -0.329485,-0.296733 -4.406884,0.927292 c -0.488741,-0.953017 -1.357521,-2.611818 -1.482689,-2.85606 z m -31.260043,3.783352 1.359132,0.0371 L 49.879931,49.20281 48.191312,49.796276 34.888289,18.750538 C 34.390495,18.565634 34.712067,18.94318 34.270502,18.639262 L 17.178384,41.673194 15.366207,42.155386 34.188131,17.823242 z m 0.329486,2.633509 6.960405,14.985041 -0.247115,7.863436 C 39.430586,42.215756 37.17163,41.69825 34.435246,42.044112 l 0.08237,0.07418 c -0.10725,-2.23e-4 -0.22444,-0.04183 -0.329485,-0.0371 l 0.329485,-21.62445 z m -0.700158,0.778926 -0.370673,17.395999 -14.826897,2.670602 15.19757,-20.066601 z m 60.378421,2.670602 -13.550137,2.930242 -1.112018,-2.262593 -0.49423,-0.03709 1.19439,2.410959 -2.100478,0.445101 0.411859,0.22255 1.812177,-0.408008 3.500795,6.973236 -21.704931,4.784826 -6.383803,-14.206114 -0.49423,-0.111275 6.589732,14.391573 -4.448069,0.964384 0.49423,0.07418 4.036211,-0.8902 1.729805,3.820444 0.370672,0.111275 -1.812177,-4.005902 21.704931,-4.747736 1.853362,3.709168 0.329487,0.0371 -1.853362,-3.820443 4.159768,-0.927292 -0.205929,-0.148367 -4.036211,0.8902 -3.418423,-6.973236 13.50895,-3.004427 -0.08237,-0.222549 z m -62.520085,4.599367 -5.724829,8.382721 -2.635893,-0.0371 -0.576602,0.482192 2.96538,-0.03709 -0.535416,0.741833 0.453044,0.259642 0.658974,-1.038567 5.189413,-0.07418 -0.205929,0.4451 0.04118,0.111274 0.288301,-0.556374 0.988459,0 0.329487,-0.259643 -1.153204,0 1.029646,-1.891676 -0.329486,-0.148366 -0.864902,2.040042 -5.065857,-0.0371 5.230599,-8.345628 -0.08237,-0.0371 z m 67.421198,8.679455 0.535415,21.438993 c -1.499557,1.136128 -3.321029,1.54933 -4.283325,1.483667 0.698949,-1.893417 -0.276096,-2.983893 -1.606248,-4.265544 -0.331289,-1.055723 -1.121841,-2.067536 -2.182849,-2.967334 l 0.04118,-4.933195 2.306405,-0.519282 c 2.607746,-2.874611 3.535427,-5.874714 2.182849,-9.347105 l 3.006565,-0.8902 z m -56.83644,0.741834 3.871468,8.939095 -1.317947,0.259641 c -0.649699,-1.161827 -1.474628,-2.175397 -2.471149,-3.004426 l -0.08237,-6.19431 z m 52.964972,0.48219 c 1.75102,2.882764 0.110539,5.762837 -1.935733,7.937621 l -3.336052,0.741835 -1.112017,-7.195788 6.383802,-1.483668 z m -7.207519,1.854585 1.235575,6.861961 -4.283326,1.001476 -1.853362,-6.861961 4.901113,-1.001476 z m -5.601272,1.261117 1.935733,6.750687 -3.500795,1.038567 -1.688619,-6.973236 3.253681,-0.816018 z m -46.210497,0.778926 c 13.601287,-0.0041 11.821703,25.154962 0.864901,25.444894 3.122934,-0.856485 5.730556,-3.271029 7.001591,-7.603795 1.052123,-3.572443 0.367809,-7.538293 -0.741345,-11.46133 -1.018307,-3.547147 -4.175142,-5.741453 -7.125147,-6.379769 z m -0.576603,0.22255 c 2.020792,-6e-6 3.994343,1.748975 5.43653,3.931719 1.442187,2.182742 2.965379,5.606981 2.965379,9.013279 -0.193333,5.11448 -2.259496,10.796948 -8.278351,12.277346 -4.678654,-0.830199 -6.644984,-4.871641 -7.537006,-8.902003 0.988418,-0.462173 1.976003,-0.887133 3.006566,-1.261118 0.880678,2.480612 1.836303,3.174001 3.665537,3.412435 2.458621,0.483823 3.269498,-1.569434 3.95384,-5.600844 0.155188,-3.852912 -2.22736,-6.479616 -5.148228,-6.045944 l 0,0.0371 c -0.02798,-8.27e-4 -0.05409,1.22e-4 -0.08237,0 -1.212316,0.546642 -1.958612,1.127126 -2.677079,2.114226 -0.405829,0.769258 -0.417428,2.107784 -0.247114,3.152792 -0.957731,0.529495 -1.956566,1.014846 -2.96538,1.446576 -0.04331,-0.389964 -0.09103,-0.784916 -0.123558,-1.149842 0.07804,-5.204779 2.024563,-10.966486 8.031236,-12.425715 z m 42.874445,0 1.276761,6.750687 -2.512335,0.556375 -1.729805,-6.565229 2.965379,-0.741833 z m -3.789095,1.038568 1.812177,6.63941 -3.45961,0.66765 -1.523875,-6.602319 3.171308,-0.704741 z m -3.830282,1.038566 1.359132,6.453953 -3.541981,0.630559 -1.194388,-6.416861 3.377237,-0.667651 z m -4.200955,1.001476 1.48269,6.342677 -2.388778,0.370918 -2.26522,-6.045944 3.171308,-0.667651 z m -3.706724,0.593466 1.935735,6.528137 -3.212495,0.482192 -0.535416,-6.342678 1.812176,-0.667651 z m -2.471149,0.853109 0.370673,6.453954 -2.841823,0.482191 -0.988459,-6.083035 3.459609,-0.85311 z m -13.879624,0.927292 0.988461,2.299685 3.583166,-0.890201 0.329487,6.045945 -2.26522,0.482192 -3.45961,-7.752162 0.823716,-0.185459 z m 43.656976,0.222551 -0.04118,3.709168 c -0.758776,-0.459158 -1.581117,-0.84755 -2.471149,-1.11275 -1.588735,-0.473392 -3.380157,-0.780721 -5.189414,-0.927293 l 7.701749,-1.669125 z m -34.060679,0.07418 0.988461,5.786303 -4.818741,1.298208 -0.494231,-6.083035 4.324511,-1.001476 z m -22.405088,1.52076 c 1.781417,0.02745 3.182519,2.856299 3.789095,4.821919 0.360718,2.303993 -0.991938,4.403545 -2.924194,5.786302 -1.744361,-0.245563 -2.082961,-1.738387 -2.677078,-3.078609 0.287871,-0.09712 0.571456,-0.205846 0.864903,-0.296734 l 2.512335,-0.482192 c 1.545974,-1.177298 1.120612,-1.779998 0.98846,-2.559326 -0.59033,-1.144943 -1.18066,-0.79494 -1.770991,-1.186934 l -1.894547,0.593468 c -0.41774,0.287947 -0.842806,0.557277 -1.276761,0.816016 -0.1528,-0.785267 -0.09885,-1.573615 0.205929,-2.151318 0.301553,-0.571602 0.667243,-1.8169 2.182849,-2.262592 z m 1.565061,0.148367 c 2.046433,0.57798 2.963344,2.683818 3.088937,5.08156 -0.27167,2.676446 -0.618825,5.58789 -3.088937,5.637936 2.154651,-1.459568 2.579528,-3.446927 2.635892,-6.083036 -0.301067,-1.394661 -1.105978,-3.610139 -2.635892,-4.63646 z m 46.004568,0.593466 c 1.106195,-0.04296 2.897079,0.197248 6.424989,0.778926 0.816153,0.134566 2.449334,0.774245 2.553521,1.817493 -2.297449,-0.571787 -7.877326,-1.844974 -10.4612,-2.225501 0.406359,-0.217959 0.818972,-0.345148 1.48269,-0.370918 z m -35.090325,0.519284 2.224036,5.044469 -1.894549,0.408009 c 0.151819,-1.822852 0.06039,-3.692583 -0.329487,-5.452478 z m 28.418221,0.445101 c 0.19551,-0.01609 0.365536,-0.0088 0.535416,0 5.54628,0.430881 10.603725,1.331827 14.99164,2.559326 l 0,0.519283 c -2.358856,-0.593322 -5.293936,-0.964381 -8.525466,-0.964381 -4.049973,-0.0022 -9.165117,1.147353 -12.808792,2.781877 0.04794,-0.83161 0.708324,-2.511915 1.276761,-3.115702 1.237582,-0.956708 3.161867,-1.66771 4.530441,-1.7804 z m -4.653998,1.112749 c -1.235677,0.806219 -1.764522,2.791127 -2.141663,3.375344 -5.458048,2e-6 -10.515398,0.533649 -14.785712,1.446576 l -0.823717,-1.224023 17.751092,-3.597894 z m -35.502182,0.630564 c 1.831212,0.55723 2.384106,1.853178 0.08237,2.818967 l -1.235575,0.22255 -0.2883,-2.448051 1.441504,-0.593466 z m 57.001182,0.148366 c 0.351003,0.330476 1.436794,1.92557 1.647433,2.262591 -0.263817,-0.103652 -1.355432,-0.610014 -1.647433,-0.704741 l 0,-1.55785 z m -9.884597,0.741833 c 4.086355,0.310837 11.183804,0.826461 13.550136,4.19136 -0.346286,0.492196 -0.825049,0.892752 -1.359132,1.261117 -3.91194,-1.577967 -8.039665,-2.861164 -11.696775,-2.707692 -3.673668,0.154166 -7.450116,1.699747 -10.790686,3.74626 -0.05274,-0.01833 -0.112105,-0.01842 -0.164743,-0.0371 -1.465817,-0.293315 -2.387103,-1.842596 -1.770991,-3.041517 3.432978,-1.976513 8.264989,-3.319405 12.232191,-3.412436 z m -49.793665,0.482192 0.247115,1.965859 c -2.748636,0.865596 -4.614957,2.147953 -6.754475,3.375343 0.134789,-0.741676 0.01014,-1.354281 -0.78253,-2.002951 2.751335,-0.996272 5.332499,-1.439824 7.28989,-3.338251 z m 20.263427,1.632034 0.78253,1.224025 c -1.45398,0.316917 -2.834464,0.672107 -4.077396,1.07566 -1.009137,0.327642 -1.891222,0.690268 -2.718264,1.075658 0.195881,-0.738376 0.311792,-1.489375 0.411858,-2.262592 l 5.601272,-1.112751 z m 16.144844,0.408008 -0.741345,1.96586 0.98846,4.451001 c -1.287289,0.539252 -1.330779,1.540715 -0.947274,2.336777 l -0.08237,-0.111275 c -2.931609,-0.204881 -4.870147,-0.139847 -7.166334,0.0371 -2.566383,0.19776 -4.746861,0.62868 -6.548547,1.186933 l -0.370672,-8.60527 c 4.855843,-0.980525 9.945207,-1.141529 14.868084,-1.261117 z m 13.92081,0.593468 c 3.708367,-0.10339 7.541981,0.814339 11.202543,2.670601 -3.179141,1.838863 -8.575243,2.064624 -11.861517,2.336775 -3.405047,-0.02595 -6.735055,-0.469183 -9.884599,-1.520758 3.19489,-2.234266 6.793438,-3.382058 10.543573,-3.486618 z m -29.159566,0.778925 0.411858,8.605269 c -2.76597,0.910212 -4.611475,2.154747 -5.601272,3.523711 -1.62803,-0.623661 -2.950722,-1.302049 -3.912653,-2.040043 -0.451866,-0.346671 -0.783614,-0.71817 -1.070832,-1.075658 -0.164237,-0.414367 -0.244803,-0.823623 -0.288301,-1.224027 1.40329,-1.273452 2.439412,-3.029533 3.130123,-5.007377 0.952654,-0.670524 2.078161,-1.331874 3.459609,-1.780401 1.2619,-0.411499 2.565061,-0.725451 3.871468,-1.001474 z m 47.198961,0.111275 c 3.16683,1.797662 5.00091,4.257988 5.68364,7.529611 0,1.504916 -0.64582,2.97208 -1.85336,4.376819 l -9.184441,-4.451002 c 1.253477,-0.58322 0.415587,-3.307787 -0.04118,-2.633511 l 0.370672,-2.188409 c 3.718934,-0.09424 4.857329,-1.066086 5.024669,-2.633509 z m -76.276154,0.111275 c 1.101783,0.520511 0.533413,1.19879 0.700159,1.928767 -2.844473,1.861357 -2.931294,1.902035 -3.418424,2.18841 -0.123201,0.07243 -0.171047,0.112284 -0.411858,0.259641 -1.087128,-0.725846 -1.764042,-1.827648 -1.894548,-2.856059 l 5.024671,-1.520759 z m -2.718265,4.117177 c 0.801263,-0.790702 0.302938,-2.713158 -1.317946,-2.336777 l -0.08237,0 c 0.646815,0.200254 1.491573,1.411495 1.112017,2.262593 l 0.288301,0.07418 z m 48.022673,-2.077134 c 0.746114,0.510624 1.699031,0.938338 2.883009,1.298208 2.488413,0.756356 5.851954,1.224026 9.555111,1.224026 4.244375,0.01466 8.500478,-0.519066 12.23219,-2.373868 l -0.494229,2.781876 c -0.615805,0.107901 -2.307627,0.607321 -2.924194,0.704742 l 0.164744,-1.038568 -0.370673,-0.03709 -0.08238,1.075658 c -1.520043,0.219249 -3.350343,0.494095 -4.859927,0.630558 l -0.08238,-0.741833 -0.247114,0 -0.04118,0.741833 c -1.478392,0.106847 -3.575114,0.293542 -5.024671,0.296735 -0.02789,-0.331248 0.131623,-1.054122 0.08237,-1.261117 l -0.329487,0 c 0.01731,0.07276 -0.10823,1.07041 -0.08237,1.298207 -1.531664,-0.03402 -4.041701,-0.303092 -5.5189,-0.482191 l -0.164744,-1.261118 -0.411858,-0.03709 0.205929,1.298209 c -0.946566,-0.148813 -2.873857,-0.706685 -3.789095,-0.927283 l -0.70016,-3.189886 z m 25.782328,3.189884 c 0.04457,0.455595 0.331405,1.014282 -0.370673,1.632034 -8.805298,3.344231 -17.202034,2.434616 -25.823513,0.964384 -1.679819,-0.658323 -0.984982,-1.880719 -0.411858,-2.299684 7.038536,3.094137 21.604049,1.502321 26.606044,-0.296734 z m -65.979693,0.630559 c 0.966998,1.743902 2.069595,2.513578 3.830282,3.523709 l -0.164744,3.672077 c 0.670852,0.249349 1.15418,0.533819 1.647433,0.778925 l -1.441504,0 C 30.44857,70.107957 28.77969,67.53456 29.081089,64.113664 z m 34.678465,1.409484 c 0.728946,-0.0044 1.487452,0.0078 2.265221,0.0371 l 0.04118,7.603794 c -6.503082,-0.149609 -12.358721,-1.058326 -16.639069,-2.44806 -0.50167,-0.162881 -0.983741,-0.346221 -1.441503,-0.519283 l 0.08237,0 c 1.44769,-2.10692 6.714484,-4.618871 15.691799,-4.673552 z m 2.594707,0.07418 c 0.460079,0.02006 0.923488,0.04154 1.400318,0.07418 0.449154,0.700257 1.1826,1.159482 1.565062,0.816017 l 1.112017,5.155744 c -0.331845,0.222395 -0.733721,0.117768 -0.20593,1.409485 -0.43739,0.0101 -1.860295,0.148367 -2.306405,0.148367 -0.543625,0 -1.070865,-0.02642 -1.606248,-0.0371 l 0.04118,-7.566703 z m 27.92399,0.148366 9.596299,4.525186 c -0.25857,0.283971 -0.51707,0.574249 -0.82372,0.853107 -5.875501,4.706157 -13.453418,7.1166 -21.251884,8.382721 l -1.153203,-1.112751 c 4.625579,0.132211 8.924909,-0.927366 11.861518,-2.930243 l 0.205929,-0.148366 0.04118,-0.259641 0.247114,-1.52076 c 1.064017,0.448864 1.461981,-2.667402 0.329487,-2.299684 l 0.947274,-5.489569 z m -52.305999,0.593467 0,4.710643 c -2.422786,0.563749 -5.369047,2.190422 -8.360722,-0.185458 L 33.57035,68.08247 c 0.918926,0.0546 1.807436,0.01298 2.677079,-0.148367 2.260394,0.189905 4.176604,-0.427662 5.724829,-1.594942 z m 50.864495,0.556376 -0.78253,4.451001 c -0.433379,0.07783 -1.431301,0.262595 -1.853363,0.333825 l 0.370673,-4.302635 c 0.546268,-0.112462 1.716985,-0.359742 2.26522,-0.482191 z m -2.75945,0.593466 -0.329486,4.228452 c -1.296496,0.200449 -3.027437,0.471252 -4.24214,0.593466 l -0.123558,-4.080085 c 1.378513,-0.177344 3.297367,-0.476829 4.695184,-0.741833 z m 16.556703,0.0371 c -0.13879,1.682416 -0.0668,5.246395 0.24711,6.750686 -0.31519,1.206503 -0.78776,2.290806 -1.40031,3.30116 l -0.57661,-6.82487 c 0.68004,-1.141299 1.36667,-2.642969 1.72981,-3.226976 z m -35.708112,0.07418 c 0.814142,0.218577 2.297601,0.372979 3.130122,0.519283 l 0.576602,4.302635 C 73.902201,72.278568 72.456894,71.875072 71.708419,71.68037 l -0.782531,-4.080084 z m 3.500795,0.556374 c 1.340123,0.174744 3.645901,0.389092 5.024671,0.408009 0.02055,1.286478 0.02398,3.017169 0.08237,4.302635 -1.209959,-0.06369 -3.352558,-0.104937 -4.571627,-0.296733 l -0.535411,-4.413913 z m 10.584758,0.07418 0.123557,4.117176 c -1.386982,0.105343 -3.852917,0.618229 -5.189415,0.593468 -0.02898,-1.28584 -0.132961,-3.053937 -0.164743,-4.339727 1.384639,-0.02585 3.816613,-0.221446 5.230601,-0.370917 z m -42.33903,0.408009 c 0.09782,0.08564 0.184353,0.179893 0.2883,0.259642 1.43643,1.102025 3.425453,2.056014 5.889574,2.856059 2.936227,0.953327 6.524244,1.683205 10.502385,2.114225 l -5.230599,5.749212 0.04118,0.0371 c -5.41059,-0.931297 -10.269859,-2.325686 -14.25029,-3.857542 -2.280791,-0.87244 -4.545368,-1.938444 -6.424989,-3.301159 l 2.224035,0.07418 c 1.272045,0.331597 3.034522,0.238167 7.00159,-1.038566 l -0.04118,-2.893148 z m -13.756066,1.261111 c 0.768719,1.062302 1.688976,1.966664 2.718265,2.781876 l -0.453045,6.416861 c -0.985791,-1.334538 -1.734077,-2.843583 -2.100476,-4.599359 0.172443,-1.498952 -0.0015,-3.072843 -0.164744,-4.599369 z m 75.617175,1.446576 0.65897,6.713594 c -4.13216,6.183705 -13.606628,8.678278 -22.775756,9.829296 l -0.329487,-7.603796 c 8.049078,-1.108097 15.882669,-3.378582 21.910863,-8.308537 0.16095,-0.14637 0.35293,-0.364072 0.53541,-0.630558 z m -11.284914,0.222551 c 0.797125,0.114289 0.405773,1.099504 0,1.706216 -8.589386,2.162873 -16.167504,2.616422 -22.734576,0.07418 l -0.288302,-1.261119 c 7.813491,2.601153 15.08252,1.231486 23.022878,-0.519282 z m -61.202138,1.446575 c 2.181787,1.62493 4.798301,2.826664 7.372263,3.894626 4.074714,1.568138 9.020004,2.761484 14.497411,3.523711 l -0.247115,7.566703 C 45.020567,87.053485 35.963772,84.979053 31.552238,79.580894 l 0.49423,-6.565227 z m 27.635689,0.890199 c 2.602241,0.269619 5.364201,0.408008 8.237166,0.408008 0.582774,0 2.023869,-0.0614 2.594707,-0.07418 0.293387,0.423371 0.173254,0.176788 0.700159,0.333825 l 0.2883,1.706217 0.08238,0.333826 0.329487,0.111274 c 2.627462,0.948121 5.326444,1.482086 7.948864,1.632035 l 1.688619,1.186934 c -4.800172,0.76364 -9.678356,1.117088 -14.291482,1.261117 -4.466485,0 -8.716981,-0.41441 -12.685235,-1.075658 l 5.107037,-5.823397 z m 31.836644,0.408008 0.123558,0.482191 c -4.207158,2.75502 -11.996942,3.602809 -18.986666,1.186935 l -0.123558,-1.261117 c 2.226435,0.493947 5.041173,0.968862 7.166334,1.001475 0.0068,0.104399 -0.04118,0.741834 -0.04118,0.741834 l 0.411858,0.111275 c 0,0 -0.04006,-0.894064 -0.04118,-0.927292 3.573984,-0.07773 7.503409,-0.355553 11.490845,-1.335301 z m -9.719855,6.008853 0.04118,7.677978 c -5.212028,0.622764 -10.294017,0.816627 -14.209111,1.001475 -3.66758,-0.271835 -8.541042,-0.428068 -13.591322,-0.964383 l 0.411858,-7.529612 c 4.060186,0.539351 8.395611,0.85311 12.932349,0.85311 4.657096,-0.153277 9.567991,-0.388235 14.415039,-1.038568 z m 20.798844,1.520768 -0.32949,10.608222 c -3.086776,1.314731 -6.177427,2.419516 -9.26681,3.338251 l -1.194388,-8.902005 c 3.789156,-1.230415 7.429952,-2.864536 10.790688,-5.044468 z m -66.391553,2.448052 c 2.745422,1.287512 5.60984,2.255187 8.525465,3.041518 L 44.36103,95.34486 c -2.637082,-0.790232 -5.269256,-1.655477 -7.866493,-2.670602 l -0.2883,-8.382719 z m 55.189007,2.744783 1.194388,8.864912 c -7.577716,2.211742 -15.148635,3.243902 -22.652204,3.264068 l 0,-9.05037 c 7.322083,-0.154109 14.649978,-0.929917 21.457816,-3.07861 z M 45.14356,87.444331 c 7.262664,1.903785 14.919716,2.512377 22.487461,2.744784 0.632316,-0.0018 1.261561,-0.02592 1.894549,-0.03709 l -0.08238,9.050369 C 61.105898,99.17481 52.852883,97.839175 44.772888,95.456135 l 0.370672,-8.011804 z m 57.12474,5.30411 -0.41186,13.464279 c -6.358483,2.41595 -12.738078,4.33856 -19.110219,5.52667 l -0.70016,-13.093371 c 6.678895,-1.066513 13.424263,-3.008638 20.222239,-5.897578 z m -65.773763,0.333826 c 5.691029,2.228473 11.434186,3.934888 17.215676,5.04447 l -0.08237,13.130463 c -5.616849,-1.39826 -11.190916,-3.62949 -16.721448,-6.89905 L 36.494537,93.082267 z m 17.709905,5.118652 c 9.03778,1.681313 18.167036,1.949361 27.42976,0.519284 l 0.700159,13.093377 c -9.46434,1.71792 -18.937866,1.81307 -28.294661,-0.4451 l 0.164742,-13.167561 z m -17.298047,6.379771 c 2.379187,1.40851 4.752064,2.62304 7.125148,3.67209 l -0.04118,9.3471 c -2.220607,-1.12302 -4.471534,-2.4036 -6.754476,-3.93171 l -0.329489,-9.08748 z m 64.950045,1.89168 -0.24711,7.71508 c -2.098946,1.04598 -4.450301,2.16785 -7.001592,3.26407 l -0.658974,-8.27145 c 2.622729,-0.82046 5.268881,-1.70423 7.907676,-2.7077 z m -57.330667,2.00295 c 7.972145,3.44318 15.922888,4.93381 23.88778,4.97029 l 0.08237,9.8293 c -7.762287,0.12337 -15.721987,-1.30185 -24.093709,-5.45248 l 0.123558,-9.34711 z m 49.093506,0.81602 0.658972,8.30854 c -5.395906,2.29294 -11.828301,4.41975 -19.686825,5.30412 -1.858668,0.20916 -3.72307,0.32528 -5.601272,0.37091 l -0.08237,-9.8293 c 8.201382,-0.0247 16.416753,-1.58557 24.711496,-4.15427 z"
       id="path2308"
       style="fill:#000000;fill-opacity:1;stroke:none" />
  </g>
  <g
     transform="matrix(0.46607366,0,0,0.45026947,-117.38199,-105.522)"
     id="layer1-5">
    <g
       transform="translate(369.04231,358.54735)"
       id="g2454">
      <g
         id="g2456">
        <path
           d="M 84.4626,153.222 C 123.584,152.075 154.369,119.431 153.222,80.3103 152.076,41.1892 119.431,10.404 80.3103,11.5505 41.1892,12.697 10.404,45.3415 11.5505,84.4626 c 1.147,39.1204 33.791,69.9064 72.9121,68.7594 z"
           id="path2458"
           style="fill:#000000;stroke:none" />
        <path
           d="M 84.2893,148.923 C 121.063,147.846 150.001,117.16 148.923,80.3859 147.846,43.612 117.16,14.674 80.3859,15.7517 43.612,16.8293 14.674,47.5153 15.7517,84.2893 16.8298,121.063 47.5153,150.001 84.2893,148.923 z"
           id="path2460"
           style="fill:#ff0000;stroke:#ffffff;stroke-width:3" />
      </g>
      <path
         d="M 83.5124,133.339 C 111.679,132.514 133.845,109.01 133.019,80.843 132.194,52.6755 108.69,30.5105 80.5227,31.3356 52.3557,32.1613 30.1901,55.6652 31.0158,83.8322 31.8415,111.999 55.3454,134.165 83.5124,133.339 z"
         id="path2462"
         style="fill:#ffffff;stroke:none" />
      <path
         d="m 62.1501,110.713 c -3.9375,0.468 -11.8125,0.375 -11.8125,-7.875 0,-11.0004 9,-9.0004 9,-9.0004 l -0.0425,-0.1831 -0.4575,-3.3169 22.5,0 -3.5,29.0004 -15,0 -1.1982,-8.686 0.5107,0.061 z"
         id="path2464"
         style="fill:#000000;stroke:none" />
      <path
         d="m 56.1711,106.247 c 1.3018,0 2.706158,-2.07463 2.706158,-4.41763 0,-2.342699 -1.404358,-4.06797 -2.706158,-4.06797 -1.3018,0 -2.3574,1.8999 -2.3574,4.2426 0,2.343 1.0556,4.243 2.3574,4.243 z"
         id="path2466"
         style="fill:#ffffff;stroke:none" />
      <path
         d="m 77.8376,51.8264 0,-3.9888 11.8633,0 0,-2 4.5,0 0,2 10.6371,0 0,4 -10.5004,0 0,4.5 c 0,0 5.5,6 9.5004,6 0,0 4.5,-4 4,-5.5 l 3,0 0,22 -2,0 c 0,0 -2,-6 -5,-6 -3,0 -6.0004,1.5 -7.5004,3 -1.5,1.5 -6.5,3 -9,1 -2.5,-2 -4.5,-3.5 -4.5,-3.5 0,0 -11.5,-4.6665 -12,20.3335 l -7,0 0,-22.3335 c 0,0 0.5,-7.4888 6,-7.4888 5.5,0 10.5,-0.0112 10.5,-0.0112 0,0 8,-3.5 8.5,-8.5 l 0,-3.3521 -11,-0.1591 z"
         id="path14"
         style="fill:#000000;stroke:none" />
      <path
         d="m 128.048,120.928 -83.4526,-83.0675 -7.8852,7.8492 83.4528,83.0673 7.885,-7.849 z"
         id="path15"
         style="fill:#ff0000;stroke:none" />
    </g>
  </g>
</svg>
