<?xml version="1.0" encoding="UTF-8" standalone="no"?>
<!-- Created with Inkscape (http://www.inkscape.org/) -->

<svg
   xmlns:dc="http://purl.org/dc/elements/1.1/"
   xmlns:cc="http://creativecommons.org/ns#"
   xmlns:rdf="http://www.w3.org/1999/02/22-rdf-syntax-ns#"
   xmlns:svg="http://www.w3.org/2000/svg"
   xmlns="http://www.w3.org/2000/svg"
   xmlns:sodipodi="http://sodipodi.sourceforge.net/DTD/sodipodi-0.dtd"
   xmlns:inkscape="http://www.inkscape.org/namespaces/inkscape"
   width="600"
   height="600"
   id="svg2"
   version="1.1"
   inkscape:version="0.48.2 r9819"
   sodipodi:docname="fsvd_text2.svg">
  <defs
     id="defs4" />
  <sodipodi:namedview
     id="base"
     pagecolor="#e0e0e1"
     bordercolor="#666666"
     borderopacity="1.0"
     inkscape:pageopacity="1"
     inkscape:pageshadow="2"
     inkscape:zoom="0.88270494"
     inkscape:cx="65.834348"
     inkscape:cy="314.06263"
     inkscape:document-units="px"
     inkscape:current-layer="layer1"
     showgrid="true"
     showguides="true"
     inkscape:guide-bbox="true"
     inkscape:window-width="1680"
     inkscape:window-height="964"
     inkscape:window-x="0"
     inkscape:window-y="30"
     inkscape:window-maximized="1">
    <inkscape:grid
       type="xygrid"
       id="grid3753"
       empspacing="5"
       visible="true"
       enabled="true"
       snapvisiblegridlinesonly="true" />
    <sodipodi:guide
       orientation="1,0"
       position="300,620"
       id="guide3755" />
    <sodipodi:guide
       orientation="0,1"
       position="-50,300"
       id="guide3757" />
    <sodipodi:guide
       orientation="1,0"
       position="50,410"
       id="guide3910" />
    <sodipodi:guide
       orientation="0,1"
       position="630,550"
       id="guide3912" />
    <sodipodi:guide
       orientation="1,0"
       position="550,490"
       id="guide3914" />
    <sodipodi:guide
       orientation="0,1"
       position="680,50"
       id="guide3924" />
    <sodipodi:guide
       orientation="1,0"
       position="100,590"
       id="guide3124" />
    <sodipodi:guide
       orientation="0,1"
       position="650,500"
       id="guide3126" />
    <sodipodi:guide
       orientation="1,0"
       position="500,550"
       id="guide3128" />
    <sodipodi:guide
       orientation="0,1"
       position="0,100"
       id="guide3130" />
  </sodipodi:namedview>
  <metadata
     id="metadata7">
    <rdf:RDF>
      <cc:Work
         rdf:about="">
        <dc:format>image/svg+xml</dc:format>
        <dc:type
           rdf:resource="http://purl.org/dc/dcmitype/StillImage" />
        <dc:title></dc:title>
      </cc:Work>
    </rdf:RDF>
  </metadata>
  <g
     inkscape:label="Calque 1"
     inkscape:groupmode="layer"
     id="layer1"
     transform="translate(0,-452.36218)">
    <g
       transform="matrix(0.93939169,0,0,3.1702706,50.929891,229.73591)"
       style="font-size:72px;font-style:normal;font-variant:normal;font-weight:normal;font-stretch:normal;text-align:center;line-height:100%;writing-mode:lr-tb;text-anchor:middle;fill:#000000;fill-opacity:1;stroke:none;font-family:Liberation Mono;-inkscape-font-specification:Liberation Mono"
       id="flowRoot3094">
      <path
         d="m 147.67578,112.84739 0,17.36718 23.76563,0 0,5.55469 -23.76563,0 0,19.01953 -6.71484,0 0,-47.42578 31.32422,0 0,5.48438 -24.60938,0"
         style=""
         id="path3945" />
      <path
         d="m 203.50391,149.79661 13.35937,0 0,4.99218 -34.52344,0 0,-4.99218 14.83594,0 0,-28.05469 -11.21484,0 0,-4.99219 17.54297,0 0,33.04688 m -7.03125,-40.42969 0,-6.75 7.03125,0 0,6.75 -7.03125,0"
         style=""
         id="path3947" />
      <path
         d="m 246.35937,149.79661 13.35938,0 0,4.99218 -34.52344,0 0,-4.99218 14.83594,0 0,-42.1875 -10.16016,0 0,-4.99219 16.48828,0 0,47.17969"
         style=""
         id="path3949" />
      <path
         d="m 270.33594,121.74192 0,-4.99219 5.97656,0 2.03906,-9.91406 4.21875,0 0,9.91406 15.1875,0 0,4.99219 -15.1875,0 0,22.92187 c -2e-5,1.85157 0.49217,3.22267 1.47656,4.11328 1.0078,0.89063 2.64842,1.33595 4.92188,1.33594 0.93747,1e-5 1.89841,-0.0352 2.88281,-0.10547 1.00779,-0.0937 1.96872,-0.19921 2.88281,-0.3164 0.93747,-0.11719 1.80466,-0.24609 2.60157,-0.38672 0.82028,-0.14062 1.51168,-0.26953 2.07422,-0.38672 l 0,4.81641 c -0.51566,0.14062 -1.18363,0.30468 -2.00391,0.49218 -0.82035,0.1875 -1.74613,0.36328 -2.77734,0.52735 -1.00785,0.16406 -2.10941,0.30468 -3.30469,0.42187 -1.19534,0.11719 -2.42581,0.17578 -3.69141,0.17578 -3.79689,0 -6.64455,-0.79687 -8.54297,-2.39062 -1.89845,-1.61719 -2.84767,-4.16015 -2.84765,-7.62891 l 0,-23.58984 -5.90625,0"
         style=""
         id="path3951" />
      <path
         d="m 343.56641,122.51536 c -1.1016,-0.18747 -2.26176,-0.33982 -3.48047,-0.45704 -1.19535,-0.14059 -2.51956,-0.2109 -3.97266,-0.21093 -1.96878,3e-5 -3.73831,0.39847 -5.30859,1.19531 -1.57034,0.79691 -2.89455,1.88675 -3.97266,3.26953 -1.07814,1.3594 -1.91017,2.95315 -2.49609,4.78125 -0.56252,1.82815 -0.84377,3.77346 -0.84375,5.83594 l 0,17.85937 -6.32813,0 0,-24.64453 c -1e-5,-1.31247 -0.0703,-2.64841 -0.21094,-4.00781 -0.14063,-1.35935 -0.30469,-2.63669 -0.49218,-3.83203 -0.18751,-1.21872 -0.38673,-2.30856 -0.59766,-3.26953 -0.21095,-0.9609 -0.38673,-1.72262 -0.52734,-2.28516 l 6.01172,0 c 0.16404,0.56254 0.32811,1.20707 0.49218,1.93359 0.18749,0.7266 0.36327,1.48832 0.52735,2.28516 0.16404,0.77347 0.30467,1.55863 0.42187,2.35547 0.11717,0.79691 0.19921,1.53519 0.2461,2.21484 l 0.17578,0 c 0.65623,-1.45309 1.34764,-2.76559 2.07422,-3.9375 0.72654,-1.17184 1.58201,-2.16793 2.5664,-2.98828 1.00779,-0.82027 2.19139,-1.45309 3.55078,-1.89844 1.35935,-0.44527 2.99998,-0.66793 4.92188,-0.66796 1.31247,3e-5 2.60153,0.0586 3.86719,0.17578 1.26559,0.11722 2.39059,0.25785 3.375,0.42187 l 0,5.8711"
         style=""
         id="path3953" />
      <path
         d="m 361.32031,137.1052 c -1e-5,1.9922 0.22265,3.83204 0.66797,5.51953 0.4453,1.66407 1.11327,3.10548 2.00391,4.32422 0.89061,1.19532 1.99217,2.13282 3.30468,2.8125 1.33592,0.65625 2.87108,0.98438 4.60547,0.98437 1.28904,1e-5 2.47264,-0.14062 3.55078,-0.42187 1.10154,-0.30468 2.08591,-0.71484 2.95313,-1.23047 0.86716,-0.51562 1.59372,-1.12499 2.17969,-1.82812 0.5859,-0.72656 1.0195,-1.51171 1.30078,-2.35547 l 5.55469,1.58203 c -0.37504,1.05469 -0.93754,2.1211 -1.6875,3.19922 -0.75004,1.05469 -1.74613,2.01562 -2.98829,2.88281 -1.24221,0.84375 -2.75393,1.54688 -4.53515,2.10937 -1.78128,0.53907 -3.89065,0.8086 -6.32813,0.8086 -2.69533,0 -5.10939,-0.42188 -7.24218,-1.26563 -2.13283,-0.84375 -3.93751,-2.09765 -5.41407,-3.76172 -1.47657,-1.66405 -2.61328,-3.73827 -3.41015,-6.22265 -0.77345,-2.5078 -1.16016,-5.41405 -1.16016,-8.71875 0,-3.65623 0.45703,-6.72654 1.37109,-9.21094 0.9375,-2.48434 2.1914,-4.48825 3.76172,-6.01172 1.5703,-1.5234 3.37499,-2.61324 5.41407,-3.26953 2.06248,-0.65621 4.21873,-0.98434 6.46875,-0.98437 3.07028,3e-5 5.66013,0.49222 7.76953,1.47656 2.13278,0.98441 3.86715,2.36722 5.20312,4.14844 1.3359,1.75784 2.29684,3.87893 2.88281,6.36328 0.60934,2.4844 0.91403,5.22658 0.91407,8.22656 l 0,0.84375 -27.14063,0 m 10.44141,-16.38281 c -1.07815,3e-5 -2.21486,0.17581 -3.41016,0.52734 -1.17189,0.32816 -2.26173,0.92581 -3.26953,1.79297 -1.00783,0.86722 -1.86329,2.05081 -2.56641,3.55078 -0.67969,1.47659 -1.05469,3.36331 -1.125,5.66016 l 20.53125,0 c -0.18753,-2.2031 -0.58596,-4.04295 -1.19531,-5.51953 -0.6094,-1.47654 -1.37112,-2.66013 -2.28515,-3.55079 -0.89066,-0.89059 -1.91019,-1.5234 -3.0586,-1.89843 -1.14846,-0.37497 -2.35549,-0.56247 -3.62109,-0.5625"
         style=""
         id="path3955" />
      <path
         d="m 54.300781,174.61692 6.363281,0 0,13.71094 c -1.2e-5,1.17191 -0.03517,2.3555 -0.105468,3.55078 -0.07032,1.17191 -0.140638,2.2969 -0.210938,3.375 l 0.105469,0 c 0.562487,-1.10153 1.218736,-2.09763 1.96875,-2.98828 0.749985,-0.89059 1.605453,-1.64059 2.566406,-2.25 0.96092,-0.63278 2.050762,-1.11325 3.269531,-1.44141 1.242166,-0.35152 2.613259,-0.52731 4.113282,-0.52734 1.945286,3e-5 3.679659,0.25785 5.203125,0.77343 1.523406,0.51567 2.812467,1.31254 3.867187,2.39063 1.054653,1.07816 1.851527,2.46097 2.390625,4.14844 0.562464,1.68753 0.843713,3.71487 0.84375,6.08203 l 0,25.34765 -6.363281,0 0,-24.43359 c -3.1e-5,-1.87497 -0.199249,-3.41013 -0.597656,-4.60547 -0.37503,-1.21872 -0.914092,-2.17966 -1.617188,-2.88281 -0.679715,-0.72653 -1.488308,-1.23044 -2.425781,-1.51172 -0.937525,-0.28122 -1.968774,-0.42184 -3.09375,-0.42188 -1.382834,4e-5 -2.683614,0.26957 -3.902344,0.8086 -1.19533,0.51566 -2.250016,1.27737 -3.164062,2.28515 -0.89064,0.98441 -1.593764,2.21488 -2.109375,3.69141 -0.515638,1.45315 -0.773451,3.12893 -0.773438,5.02734 l 0,22.04297 -6.328125,0 0,-52.17187"
         style=""
         id="path3957" />
      <path
         d="m 129.53516,207.73411 c -4e-5,3.32814 -0.39848,6.23438 -1.19532,8.71875 -0.77347,2.46094 -1.89847,4.51172 -3.375,6.15234 -1.47659,1.64063 -3.28128,2.87109 -5.41406,3.69141 -2.1094,0.79687 -4.50002,1.19531 -7.17187,1.19531 -2.55471,0 -4.87502,-0.39844 -6.96094,-1.19531 -2.06251,-0.79688 -3.83204,-2.01563 -5.30859,-3.65625 -1.453138,-1.64062 -2.578137,-3.6914 -3.375005,-6.15235 -0.79688,-2.48436 -1.195317,-5.40233 -1.195313,-8.7539 -4e-6,-6.53904 1.476557,-11.44919 4.429688,-14.73047 2.97655,-3.30465 7.18358,-4.957 12.62109,-4.95703 5.71873,3e-5 9.97263,1.62894 12.76172,4.88671 2.78903,3.25785 4.18356,8.19144 4.1836,14.80079 m -6.64453,0 c -4e-5,-2.95311 -0.25785,-5.3906 -0.77344,-7.3125 -0.49222,-1.92185 -1.19534,-3.45701 -2.10938,-4.60547 -0.89065,-1.14841 -1.95706,-1.94528 -3.19922,-2.39063 -1.24221,-0.46871 -2.6133,-0.70309 -4.11328,-0.70312 -1.52346,3e-5 -2.9297,0.24612 -4.21875,0.73828 -1.28908,0.46878 -2.40236,1.28909 -3.33984,2.46094 -0.91408,1.14846 -1.64064,2.68362 -2.17969,4.60546 -0.51564,1.9219 -0.77345,4.32425 -0.77344,7.20704 -10e-6,2.95314 0.26952,5.40235 0.8086,7.34765 0.56248,1.92189 1.30077,3.45704 2.21484,4.60547 0.93749,1.14844 2.01561,1.95704 3.23438,2.42578 1.24217,0.46876 2.53123,0.70313 3.86718,0.70313 1.52342,0 2.92967,-0.22266 4.21875,-0.66797 1.31248,-0.46875 2.43748,-1.27734 3.375,-2.42578 0.93747,-1.14843 1.66404,-2.69531 2.17969,-4.64063 0.53903,-1.9453 0.80856,-4.39451 0.8086,-7.34765"
         style=""
         id="path3959" />
      <path
         d="m 170.87891,194.51536 c -1.1016,-0.18747 -2.26176,-0.33982 -3.48047,-0.45704 -1.19535,-0.14059 -2.51956,-0.2109 -3.97266,-0.21093 -1.96878,3e-5 -3.73831,0.39847 -5.30859,1.19531 -1.57034,0.79691 -2.89455,1.88675 -3.97266,3.26953 -1.07814,1.3594 -1.91017,2.95315 -2.49609,4.78125 -0.56252,1.82815 -0.84377,3.77346 -0.84375,5.83594 l 0,17.85937 -6.32813,0 0,-24.64453 c -1e-5,-1.31247 -0.0703,-2.64841 -0.21094,-4.00781 -0.14063,-1.35935 -0.30469,-2.63669 -0.49218,-3.83203 -0.18751,-1.21872 -0.38673,-2.30856 -0.59766,-3.26953 -0.21095,-0.9609 -0.38673,-1.72262 -0.52734,-2.28516 l 6.01172,0 c 0.16404,0.56254 0.32811,1.20707 0.49218,1.93359 0.18749,0.7266 0.36327,1.48832 0.52735,2.28516 0.16404,0.77347 0.30467,1.55863 0.42187,2.35547 0.11717,0.79691 0.19921,1.53519 0.2461,2.21484 l 0.17578,0 c 0.65623,-1.45309 1.34764,-2.76559 2.07422,-3.9375 0.72654,-1.17184 1.58201,-2.16793 2.5664,-2.98828 1.00779,-0.82027 2.19139,-1.45309 3.55078,-1.89844 1.35935,-0.44527 2.99998,-0.66793 4.92188,-0.66796 1.31247,3e-5 2.60153,0.0586 3.86719,0.17578 1.26559,0.11722 2.39059,0.25785 3.375,0.42187 l 0,5.8711"
         style=""
         id="path3961" />
      <path
         d="m 203.50391,221.79661 13.35937,0 0,4.99218 -34.52344,0 0,-4.99218 14.83594,0 0,-28.05469 -11.21484,0 0,-4.99219 17.54297,0 0,33.04688 m -7.03125,-40.42969 0,-6.75 7.03125,0 0,6.75 -7.03125,0"
         style=""
         id="path3963" />
      <path
         d="m 225.65234,226.78879 0,-4.8164 23.94141,-28.33594 -22.53516,0 0,-4.88672 29.67188,0 0,4.81641 -23.97656,28.33593 25.27734,0 0,4.88672 -32.37891,0"
         style=""
         id="path3965" />
      <path
         d="m 302.22266,207.73411 c -4e-5,3.32814 -0.39848,6.23438 -1.19532,8.71875 -0.77347,2.46094 -1.89847,4.51172 -3.375,6.15234 -1.47659,1.64063 -3.28128,2.87109 -5.41406,3.69141 -2.1094,0.79687 -4.50002,1.19531 -7.17187,1.19531 -2.55471,0 -4.87502,-0.39844 -6.96094,-1.19531 -2.06251,-0.79688 -3.83204,-2.01563 -5.3086,-3.65625 -1.45313,-1.64062 -2.57813,-3.6914 -3.375,-6.15235 -0.79687,-2.48436 -1.19531,-5.40233 -1.19531,-8.7539 0,-6.53904 1.47656,-11.44919 4.42969,-14.73047 2.97655,-3.30465 7.18358,-4.957 12.62109,-4.95703 5.71873,3e-5 9.97263,1.62894 12.76172,4.88671 2.78903,3.25785 4.18356,8.19144 4.1836,14.80079 m -6.64454,0 c -3e-5,-2.95311 -0.25784,-5.3906 -0.77343,-7.3125 -0.49222,-1.92185 -1.19534,-3.45701 -2.10938,-4.60547 -0.89065,-1.14841 -1.95706,-1.94528 -3.19922,-2.39063 -1.24221,-0.46871 -2.6133,-0.70309 -4.11328,-0.70312 -1.52346,3e-5 -2.9297,0.24612 -4.21875,0.73828 -1.28908,0.46878 -2.40236,1.28909 -3.33984,2.46094 -0.91408,1.14846 -1.64064,2.68362 -2.17969,4.60546 -0.51564,1.9219 -0.77345,4.32425 -0.77344,7.20704 -10e-6,2.95314 0.26952,5.40235 0.8086,7.34765 0.56248,1.92189 1.30077,3.45704 2.21484,4.60547 0.93749,1.14844 2.01561,1.95704 3.23438,2.42578 1.24217,0.46876 2.53123,0.70313 3.86718,0.70313 1.52342,0 2.92967,-0.22266 4.21875,-0.66797 1.31248,-0.46875 2.43748,-1.27734 3.375,-2.42578 0.93747,-1.14843 1.66404,-2.69531 2.17969,-4.64063 0.53903,-1.9453 0.80856,-4.39451 0.80859,-7.34765"
         style=""
         id="path3967" />
      <path
         d="m 337.34375,226.78879 0,-24.43359 c -3e-5,-1.87497 -0.19925,-3.41013 -0.59766,-4.60547 -0.37503,-1.21872 -0.91409,-2.17966 -1.61718,-2.88281 -0.67972,-0.72653 -1.48831,-1.23044 -2.42579,-1.51172 -0.93752,-0.28122 -1.96877,-0.42184 -3.09375,-0.42188 -1.38283,4e-5 -2.68361,0.26957 -3.90234,0.8086 -1.19533,0.51566 -2.25002,1.27737 -3.16406,2.28515 -0.89064,0.98441 -1.59377,2.21488 -2.10938,3.69141 -0.51563,1.45315 -0.77345,3.12893 -0.77343,5.02734 l 0,22.04297 -6.32813,0 0,-29.91797 c -10e-6,-0.79684 -0.0117,-1.62887 -0.0352,-2.49609 0,-0.89059 -0.0117,-1.72262 -0.0351,-2.49609 -0.0235,-0.79684 -0.0469,-1.47653 -0.0703,-2.03907 -0.0235,-0.56246 -0.0469,-0.92574 -0.0703,-1.08984 l 5.97657,0 c 0.0234,0.11723 0.0469,0.43363 0.0703,0.94922 0.0234,0.51566 0.0469,1.11332 0.0703,1.79297 0.0469,0.65628 0.082,1.33597 0.10547,2.03906 0.0234,0.67972 0.0351,1.25394 0.0352,1.72266 l 0.10546,0 c 0.56249,-1.10153 1.21874,-2.09763 1.96875,-2.98828 0.77343,-0.89059 1.65233,-1.64059 2.63672,-2.25 1.0078,-0.63278 2.1328,-1.11325 3.375,-1.44141 1.24217,-0.35152 2.6367,-0.52731 4.1836,-0.52734 1.94528,3e-5 3.66794,0.25785 5.16797,0.77343 1.49996,0.51567 2.75387,1.31254 3.76171,2.39063 1.03122,1.07816 1.80466,2.46097 2.32032,4.14844 0.53902,1.68753 0.80855,3.71487 0.80859,6.08203 l 0,25.34765 -6.36328,0"
         style=""
         id="path3969" />
      <path
         d="m 356.67969,193.74192 0,-4.99219 5.97656,0 2.03906,-9.91406 4.21875,0 0,9.91406 15.1875,0 0,4.99219 -15.1875,0 0,22.92187 c -2e-5,1.85157 0.49217,3.22267 1.47656,4.11328 1.0078,0.89063 2.64842,1.33595 4.92188,1.33594 0.93747,1e-5 1.89841,-0.0352 2.88281,-0.10547 1.00779,-0.0937 1.96872,-0.19921 2.88281,-0.3164 0.93747,-0.11719 1.80466,-0.24609 2.60157,-0.38672 0.82028,-0.14062 1.51168,-0.26953 2.07422,-0.38672 l 0,4.81641 c -0.51566,0.14062 -1.18363,0.30468 -2.00391,0.49218 -0.82035,0.1875 -1.74613,0.36328 -2.77734,0.52735 -1.00785,0.16406 -2.10941,0.30468 -3.30469,0.42187 -1.19534,0.11719 -2.42581,0.17578 -3.69141,0.17578 -3.79689,0 -6.64455,-0.79687 -8.54297,-2.39062 -1.89845,-1.61719 -2.84767,-4.16015 -2.84765,-7.62891 l 0,-23.58984 -5.90625,0"
         style=""
         id="path3971" />
      <path
         d="m 431.87891,222.88645 c 0.35152,0 0.70308,-0.0234 1.05468,-0.0703 0.35153,-0.0469 0.69137,-0.10547 1.01953,-0.17578 l 0,3.9375 c -0.79691,0.1875 -1.59378,0.32812 -2.39062,0.42187 -0.77348,0.0937 -1.60551,0.14063 -2.49609,0.14063 -1.19535,0 -2.2266,-0.15235 -3.09375,-0.45704 -0.84379,-0.32812 -1.53519,-0.80859 -2.07422,-1.4414 -0.5391,-0.65625 -0.94925,-1.45312 -1.23047,-2.39063 -0.28128,-0.96093 -0.45706,-2.07421 -0.52735,-3.33984 l -0.21093,0 c -0.65628,1.21876 -1.38284,2.32032 -2.17969,3.30469 -0.7969,0.98437 -1.71096,1.82812 -2.74219,2.53125 -1.03127,0.67969 -2.21486,1.20703 -3.55078,1.58203 -1.33596,0.375 -2.87111,0.5625 -4.60547,0.5625 -3.70313,0 -6.49219,-1.00781 -8.36719,-3.02344 -1.875,-2.01562 -2.8125,-4.78124 -2.8125,-8.29687 0,-2.5078 0.45703,-4.55858 1.3711,-6.15235 0.93749,-1.61717 2.15624,-2.88279 3.65625,-3.79687 1.49999,-0.91404 3.1992,-1.54686 5.09765,-1.89844 1.92186,-0.37498 3.86717,-0.5742 5.83594,-0.59766 l 8.29688,-0.14062 0,-2.07422 c -3e-5,-1.57029 -0.16409,-2.90622 -0.49219,-4.00781 -0.30472,-1.10154 -0.78518,-1.99216 -1.44141,-2.67188 -0.63283,-0.67965 -1.44143,-1.17184 -2.42578,-1.47656 -0.9844,-0.32809 -2.13283,-0.49215 -3.44531,-0.49219 -1.17189,4e-5 -2.2383,0.0938 -3.19922,0.28125 -0.93752,0.1641 -1.74611,0.4805 -2.42578,0.94922 -0.6797,0.44535 -1.2422,1.06644 -1.6875,1.86328 -0.42189,0.77347 -0.70314,1.75784 -0.84375,2.95313 l -6.60938,-0.59766 c 0.23437,-1.49997 0.66797,-2.87106 1.30079,-4.11328 0.65624,-1.26559 1.5703,-2.35543 2.74218,-3.26953 1.17187,-0.91403 2.63671,-1.61715 4.39453,-2.10938 1.78124,-0.51558 3.92577,-0.7734 6.4336,-0.77343 4.68747,3e-5 8.20309,1.1016 10.54687,3.30468 2.36716,2.17972 3.55075,5.34378 3.55078,9.49219 l 0,16.38281 c -3e-5,1.87501 0.24606,3.29298 0.73829,4.25391 0.49215,0.9375 1.42965,1.40625 2.8125,1.40625 m -21.41016,-0.21094 c 1.94529,1e-5 3.63279,-0.36327 5.0625,-1.08984 1.42966,-0.75 2.61326,-1.6875 3.55078,-2.8125 0.96091,-1.12499 1.67575,-2.36718 2.14453,-3.72656 0.46872,-1.35937 0.7031,-2.66015 0.70313,-3.90235 l 0,-3.1289 -6.67969,0.14062 c -1.28908,0.0235 -2.58986,0.12893 -3.90234,0.31641 -1.28908,0.16408 -2.46096,0.52736 -3.51563,1.08984 -1.03126,0.56252 -1.87501,1.38283 -2.53125,2.46094 -0.65626,1.0547 -0.98438,2.47267 -0.98437,4.2539 -1e-5,1.92189 0.51561,3.46876 1.54687,4.64063 1.05468,1.17188 2.58983,1.75782 4.60547,1.75781"
         style=""
         id="path3973" />
      <path
         d="m 462.21875,221.79661 13.35937,0 0,4.99218 -34.52343,0 0,-4.99218 14.83593,0 0,-42.1875 -10.16015,0 0,-4.99219 16.48828,0 0,47.17969"
         style=""
         id="path3975" />
    </g>
  </g>
</svg>
