<?xml version="1.0" encoding="UTF-8" standalone="no"?>
<!-- Created with Inkscape (http://www.inkscape.org/) -->

<svg
   xmlns:dc="http://purl.org/dc/elements/1.1/"
   xmlns:cc="http://creativecommons.org/ns#"
   xmlns:rdf="http://www.w3.org/1999/02/22-rdf-syntax-ns#"
   xmlns:svg="http://www.w3.org/2000/svg"
   xmlns="http://www.w3.org/2000/svg"
   xmlns:sodipodi="http://sodipodi.sourceforge.net/DTD/sodipodi-0.dtd"
   xmlns:inkscape="http://www.inkscape.org/namespaces/inkscape"
   width="600"
   height="600"
   id="svg2"
   version="1.1"
   inkscape:version="0.48.2 r9819"
   sodipodi:docname="fsvd_text2.svg">
  <defs
     id="defs4" />
  <sodipodi:namedview
     id="base"
     pagecolor="#e0e0e1"
     bordercolor="#666666"
     borderopacity="1.0"
     inkscape:pageopacity="1"
     inkscape:pageshadow="2"
     inkscape:zoom="0.88270494"
     inkscape:cx="311.66961"
     inkscape:cy="314.06263"
     inkscape:document-units="px"
     inkscape:current-layer="layer1"
     showgrid="true"
     showguides="true"
     inkscape:guide-bbox="true"
     inkscape:window-width="971"
     inkscape:window-height="932"
     inkscape:window-x="699"
     inkscape:window-y="31"
     inkscape:window-maximized="0">
    <inkscape:grid
       type="xygrid"
       id="grid3753"
       empspacing="5"
       visible="true"
       enabled="true"
       snapvisiblegridlinesonly="true" />
    <sodipodi:guide
       orientation="1,0"
       position="300,620"
       id="guide3755" />
    <sodipodi:guide
       orientation="0,1"
       position="-50,300"
       id="guide3757" />
    <sodipodi:guide
       orientation="1,0"
       position="50,410"
       id="guide3910" />
    <sodipodi:guide
       orientation="0,1"
       position="650,550"
       id="guide3912" />
    <sodipodi:guide
       orientation="1,0"
       position="550,490"
       id="guide3914" />
    <sodipodi:guide
       orientation="0,1"
       position="680,50"
       id="guide3924" />
    <sodipodi:guide
       orientation="1,0"
       position="100,590"
       id="guide3124" />
    <sodipodi:guide
       orientation="0,1"
       position="650,500"
       id="guide3126" />
    <sodipodi:guide
       orientation="1,0"
       position="500,550"
       id="guide3128" />
    <sodipodi:guide
       orientation="0,1"
       position="0,100"
       id="guide3130" />
  </sodipodi:namedview>
  <metadata
     id="metadata7">
    <rdf:RDF>
      <cc:Work
         rdf:about="">
        <dc:format>image/svg+xml</dc:format>
        <dc:type
           rdf:resource="http://purl.org/dc/dcmitype/StillImage" />
        <dc:title></dc:title>
      </cc:Work>
    </rdf:RDF>
  </metadata>
  <g
     inkscape:label="Calque 1"
     inkscape:groupmode="layer"
     id="layer1"
     transform="translate(0,-452.36218)">
    <path
       inkscape:connector-curvature="0"
       id="path3227"
       style="font-size:40px;font-style:normal;font-weight:normal;text-align:center;line-height:125%;letter-spacing:0px;word-spacing:0px;text-anchor:middle;fill:#000000;fill-opacity:1;stroke:none;font-family:Sans"
       d="m 152.00646,556.75219 54.36304,0 0,7.33216 -41.56429,0 0,18.97738 37.50923,0 0,7.33218 -37.50923,0 0,30.75198 -12.79875,0 0,-64.3937" />
    <path
       inkscape:connector-curvature="0"
       id="path3229"
       style="font-size:40px;font-style:normal;font-weight:normal;text-align:center;line-height:125%;letter-spacing:0px;word-spacing:0px;text-anchor:middle;fill:#000000;fill-opacity:1;stroke:none;font-family:Sans"
       d="m 216.8873,572.83984 11.65827,0 0,48.30605 -11.65827,0 0,-48.30605 m 0,-18.80487 11.65827,0 0,10.04938 -11.65827,0 0,-10.04938" />
    <path
       inkscape:connector-curvature="0"
       id="path3231"
       style="font-size:40px;font-style:normal;font-weight:normal;text-align:center;line-height:125%;letter-spacing:0px;word-spacing:0px;text-anchor:middle;fill:#000000;fill-opacity:1;stroke:none;font-family:Sans"
       d="m 252.87589,554.03497 11.65828,0 0,67.11092 -11.65828,0 0,-67.11092" />
    <path
       inkscape:connector-curvature="0"
       id="path3233"
       style="font-size:40px;font-style:normal;font-weight:normal;text-align:center;line-height:125%;letter-spacing:0px;word-spacing:0px;text-anchor:middle;fill:#000000;fill-opacity:1;stroke:none;font-family:Sans"
       d="m 300.39605,559.12437 0,13.71547 24.0135,0 0,6.16765 -24.0135,0 0,26.22328 c -4e-5,3.93923 0.78142,6.46957 2.3443,7.59095 1.60512,1.12139 4.83648,1.68209 9.69414,1.68207 l 11.97506,0 0,6.6421 -11.97506,0 c -8.99719,0 -15.20648,-1.13579 -18.62791,-3.40731 -3.42145,-2.30029 -5.1322,-6.46956 -5.13217,-12.50781 l 0,-26.22328 -8.55363,0 0,-6.16765 8.55363,0 0,-13.71547 11.72164,0" />
    <path
       inkscape:connector-curvature="0"
       id="path3235"
       style="font-size:40px;font-style:normal;font-weight:normal;text-align:center;line-height:125%;letter-spacing:0px;word-spacing:0px;text-anchor:middle;fill:#000000;fill-opacity:1;stroke:none;font-family:Sans"
       d="m 380.92686,580.25826 c -1.30949,-0.51751 -2.74566,-0.89133 -4.30851,-1.12139 -1.52068,-0.25874 -3.21027,-0.38813 -5.06882,-0.38817 -6.58949,4e-5 -11.6583,1.46647 -15.20644,4.39931 -3.50594,2.90415 -5.25892,7.08777 -5.25889,12.55093 l 0,25.44695 -11.72163,0 0,-48.30605 11.72163,0 0,7.50467 c 2.4499,-2.93281 5.63902,-5.1037 9.5674,-6.51267 3.92827,-1.43763 8.70143,-2.15647 14.31939,-2.15654 0.80251,7e-5 1.68957,0.0433 2.66112,0.12941 0.9715,0.0576 2.04862,0.15811 3.23139,0.30191 l 0.0633,8.15164" />
    <path
       inkscape:connector-curvature="0"
       id="path3237"
       style="font-size:40px;font-style:normal;font-weight:normal;text-align:center;line-height:125%;letter-spacing:0px;word-spacing:0px;text-anchor:middle;fill:#000000;fill-opacity:1;stroke:none;font-family:Sans"
       d="m 451.1933,595.00886 0,3.88173 -53.6027,0 c 0.50685,5.46321 2.91454,9.63248 7.22305,12.50781 4.35072,2.84662 10.39102,4.26992 18.12103,4.26992 4.47739,0 8.80699,-0.37379 12.98882,-1.12138 4.22397,-0.74759 8.40573,-1.869 12.54532,-3.36418 l 0,7.5047 c -4.18183,1.20764 -8.46922,2.12776 -12.86211,2.76034 -4.39304,0.63256 -8.84935,0.94885 -13.36902,0.94885 -11.32037,0 -20.29641,-2.24277 -26.92808,-6.72833 -6.58946,-4.48556 -9.8842,-10.55256 -9.88417,-18.20103 -3e-5,-7.9072 3.12573,-14.17548 9.37729,-18.80484 6.29377,-4.65805 14.76289,-6.98708 25.40744,-6.98715 9.54621,7e-5 17.08607,2.09906 22.6196,6.29706 5.57563,4.16929 8.36346,9.84814 8.36353,17.0365 m -11.65828,-2.32905 c -0.0847,-4.34176 -1.87973,-7.80657 -5.38559,-10.39442 -3.46377,-2.58779 -8.06794,-3.88169 -13.81255,-3.88173 -6.50499,4e-5 -11.72167,1.25081 -15.64994,3.75234 -3.88614,2.50161 -6.12485,6.02392 -6.71621,10.56694 l 41.56429,-0.0431" />
    <path
       inkscape:connector-curvature="0"
       id="path3239"
       style="font-size:40px;font-style:normal;font-weight:normal;text-align:center;line-height:125%;letter-spacing:0px;word-spacing:0px;text-anchor:middle;fill:#000000;fill-opacity:1;stroke:none;font-family:Sans"
       d="m 303.37398,707.27728 c -9.4196,2e-5 -15.9457,0.73323 -19.57831,2.19966 -3.63268,1.46645 -5.44899,3.96801 -5.44899,7.50467 0,2.81788 1.35166,5.06064 4.05505,6.72836 2.7456,1.63896 6.46272,2.45843 11.1514,2.45843 6.46271,0 11.63712,-1.55269 15.52326,-4.65807 3.92827,-3.13415 5.89244,-7.28904 5.89251,-12.46471 l 0,-1.76834 -11.59492,0 m 23.2532,-3.2779 0,27.56033 -11.65828,0 0,-7.33219 c -2.66119,2.93288 -5.97705,5.10377 -9.94756,6.51269 -3.97061,1.38018 -8.82824,2.07026 -14.57286,2.07026 -7.26532,0 -13.05221,-1.38017 -17.36068,-4.14052 -4.26628,-2.78909 -6.3994,-6.51267 -6.3994,-11.17076 0,-5.43441 2.66112,-9.5318 7.9834,-12.29217 5.36448,-2.7603 13.34787,-4.14048 23.95014,-4.14052 l 16.34696,0 0,-0.77634 c -7e-5,-3.65167 -1.77417,-6.46952 -5.32227,-8.45355 -3.50597,-2.01271 -8.44807,-3.01909 -14.82628,-3.01913 -4.05509,4e-5 -8.00455,0.33071 -11.84838,0.992 -3.84386,0.66136 -7.53987,1.65336 -11.08801,2.97598 l 0,-7.33216 c 4.26624,-1.12134 8.40577,-1.95518 12.41859,-2.50156 4.01278,-0.57503 7.92,-0.86255 11.72163,-0.86262 10.26431,7e-5 17.93089,1.81154 22.99977,5.43444 5.06875,3.62299 7.60316,9.11493 7.60323,16.47582 m -39.28334,-43.08727 17.86756,16.13077 -9.6941,0 -20.65543,-16.13077 12.48197,0" />
    <path
       inkscape:connector-curvature="0"
       id="path3241"
       style="font-size:40px;font-style:normal;font-weight:normal;text-align:center;line-height:125%;letter-spacing:0px;word-spacing:0px;text-anchor:middle;fill:#000000;fill-opacity:1;stroke:none;font-family:Sans"
       d="m 183.43311,795.09078 0,7.50469 c -3.29478,-1.15011 -6.71623,-2.01271 -10.26434,-2.58783 -3.5482,-0.57504 -7.22312,-0.86258 -11.02468,-0.8626 -5.78692,2e-5 -10.13767,0.60386 -13.05221,1.81147 -2.87234,1.20769 -4.30851,3.01916 -4.30848,5.43444 -3e-5,1.84024 1.03485,3.29232 3.10465,4.35616 2.06973,1.03517 6.23037,2.02715 12.48197,2.976 l 3.99166,0.60383 c 8.27902,1.20766 14.15042,2.9185 17.61414,5.1325 3.50587,2.18531 5.25886,5.24755 5.25892,9.18678 -6e-5,4.48557 -2.61895,8.03665 -7.85668,10.65321 -5.19559,2.61657 -12.35529,3.92486 -21.47909,3.92486 -3.80166,0 -7.77221,-0.25879 -11.91174,-0.77634 -4.09729,-0.4888 -8.42692,-1.23641 -12.98882,-2.24277 l 0,-8.19478 c 4.30848,1.52395 8.5536,2.67409 12.7354,3.45043 4.18173,0.74759 8.32126,1.12139 12.41858,1.12139 5.49119,0 9.71519,-0.63259 12.67204,-1.89773 2.95678,-1.29392 4.43516,-3.10539 4.43522,-5.43444 -6e-5,-2.15651 -1.07718,-3.80985 -3.23136,-4.96 -2.11206,-1.15012 -6.77959,-2.25713 -14.00261,-3.32103 l -4.05505,-0.64696 c -7.22309,-1.03511 -12.43974,-2.61657 -15.64998,-4.74435 -3.21024,-2.15649 -4.81539,-5.10372 -4.81536,-8.84172 -3e-5,-4.54304 2.36543,-8.05098 7.09635,-10.52383 4.73085,-2.47276 11.44702,-3.70915 20.14851,-3.70922 4.30848,7e-5 8.36353,0.21575 12.16516,0.64696 3.80157,0.43137 7.3075,1.0783 10.5178,1.94088" />
    <path
       inkscape:connector-curvature="0"
       id="path3243"
       style="font-size:40px;font-style:normal;font-weight:normal;text-align:center;line-height:125%;letter-spacing:0px;word-spacing:0px;text-anchor:middle;fill:#000000;fill-opacity:1;stroke:none;font-family:Sans"
       d="m 238.11297,817.6911 c -9.4196,2e-5 -15.94567,0.73323 -19.57832,2.19966 -3.63264,1.46645 -5.44898,3.96801 -5.44895,7.50467 -3e-5,2.81788 1.35166,5.06064 4.05505,6.72836 2.74557,1.63896 6.46269,2.45843 11.1514,2.45843 6.46268,0 11.63709,-1.55269 15.52323,-4.65807 3.92827,-3.13415 5.89244,-7.28904 5.89251,-12.46471 l 0,-1.76834 -11.59492,0 m 23.25319,-3.2779 0,27.56033 -11.65827,0 0,-7.33219 c -2.66119,2.93288 -5.97702,5.10377 -9.94757,6.51269 -3.97061,1.38018 -8.8282,2.07026 -14.57285,2.07026 -7.26532,0 -13.05221,-1.38017 -17.36068,-4.14052 -4.26624,-2.78909 -6.3994,-6.51267 -6.39936,-11.17076 -4e-5,-5.43441 2.66112,-9.5318 7.98336,-12.29217 5.36447,-2.7603 13.34787,-4.14048 23.95017,-4.14052 l 16.34693,0 0,-0.77634 c -7e-5,-3.65167 -1.77414,-6.46952 -5.32228,-8.45355 -3.50596,-2.01271 -8.44806,-3.01909 -14.82627,-3.01913 -4.05509,4e-5 -8.00455,0.33071 -11.84835,0.992 -3.84386,0.66136 -7.5399,1.65336 -11.08804,2.97598 l 0,-7.33216 c 4.26624,-1.12134 8.40577,-1.95518 12.41859,-2.50156 4.01278,-0.57503 7.92,-0.86255 11.72163,-0.86262 10.26431,7e-5 17.93089,1.81154 22.99977,5.43444 5.06875,3.62299 7.60316,9.11493 7.60322,16.47582" />
    <path
       inkscape:connector-curvature="0"
       id="path3245"
       style="font-size:40px;font-style:normal;font-weight:normal;text-align:center;line-height:125%;letter-spacing:0px;word-spacing:0px;text-anchor:middle;fill:#000000;fill-opacity:1;stroke:none;font-family:Sans"
       d="m 336.38464,817.86363 c -7e-5,-5.83696 -1.77417,-10.40878 -5.32228,-13.71547 -3.50596,-3.33538 -8.34247,-5.0031 -14.50946,-5.00312 -6.16712,2e-5 -11.02472,1.66774 -14.57285,5.00312 -3.50597,3.30669 -5.25892,7.87851 -5.25889,13.71547 -3e-5,5.837 1.75292,10.4232 5.25889,13.7586 3.54813,3.30667 8.40573,4.95999 14.57285,4.95999 6.16699,0 11.0035,-1.65332 14.50946,-4.95999 3.54811,-3.3354 5.32221,-7.9216 5.32228,-13.7586 m -39.66348,-16.86399 c 2.4499,-2.87531 5.53343,-5.00309 9.25058,-6.38331 3.75933,-1.40886 8.23679,-2.11332 13.43235,-2.11339 8.61695,7e-5 15.60767,2.3291 20.97224,6.98715 5.40665,4.65811 8.11001,10.78261 8.11011,18.37354 -1e-4,7.59097 -2.70346,13.71547 -8.11011,18.37354 -5.36457,4.6581 -12.35529,6.98712 -20.97224,6.98712 -5.19556,0 -9.67302,-0.69008 -13.43235,-2.07026 -3.71715,-1.40892 -6.80068,-3.55106 -9.25058,-6.42641 l 0,7.24591 -11.72166,0 0,-67.11092 11.72166,0 0,26.13703" />
    <path
       inkscape:connector-curvature="0"
       id="path3247"
       style="font-size:40px;font-style:normal;font-weight:normal;text-align:center;line-height:125%;letter-spacing:0px;word-spacing:0px;text-anchor:middle;fill:#000000;fill-opacity:1;stroke:none;font-family:Sans"
       d="m 367.8113,774.86261 11.65827,0 0,67.11092 -11.65827,0 0,-67.11092" />
    <path
       inkscape:connector-curvature="0"
       id="path3249"
       style="font-size:40px;font-style:normal;font-weight:normal;text-align:center;line-height:125%;letter-spacing:0px;word-spacing:0px;text-anchor:middle;fill:#000000;fill-opacity:1;stroke:none;font-family:Sans"
       d="m 464.49896,815.8365 0,3.88173 -53.60273,0 c 0.50685,5.46321 2.91454,9.63248 7.22305,12.50781 4.35072,2.84662 10.39103,4.26992 18.12103,4.26992 4.47739,0 8.80702,-0.37379 12.98882,-1.12138 4.22397,-0.74759 8.40573,-1.869 12.54533,-3.36418 l 0,7.5047 c -4.18183,1.20764 -8.46919,2.12776 -12.86211,2.76034 -4.39302,0.63256 -8.84936,0.94885 -13.36902,0.94885 -11.32038,0 -20.29639,-2.24277 -26.92808,-6.72833 -6.58946,-4.48556 -9.88418,-10.55256 -9.88418,-18.20103 0,-7.9072 3.12577,-14.17548 9.37729,-18.80484 6.29377,-4.65805 14.76293,-6.98708 25.40744,-6.98715 9.54624,7e-5 17.08608,2.09906 22.6196,6.29706 5.57563,4.16929 8.36347,9.84814 8.36356,17.0365 m -11.65827,-2.32905 c -0.0847,-4.34176 -1.87976,-7.80657 -5.38563,-10.39442 -3.46373,-2.58779 -8.0679,-3.88169 -13.81252,-3.88173 -6.50501,4e-5 -11.72166,1.25081 -15.64997,3.75234 -3.8861,2.50161 -6.12485,6.02392 -6.71617,10.56694 l 41.56429,-0.0431" />
    <path
       inkscape:connector-curvature="0"
       id="path3251"
       style="font-size:40px;font-style:normal;font-weight:normal;text-align:center;line-height:125%;letter-spacing:0px;word-spacing:0px;text-anchor:middle;fill:#000000;fill-opacity:1;stroke:none;font-family:Sans"
       d="m 150.80262,911.41346 0,-26.13703 11.65828,0 0,67.11092 -11.65828,0 0,-7.24591 c -2.44999,2.87535 -5.55464,5.01749 -9.31397,6.42641 -3.71715,1.38018 -8.19461,2.07026 -13.43234,2.07026 -8.57478,0 -15.5655,-2.32902 -20.97225,-6.98712 -5.36447,-4.65807 -8.046746,-10.78257 -8.046713,-18.37354 -3.3e-5,-7.59093 2.682243,-13.71543 8.046713,-18.37354 5.40675,-4.65805 12.39747,-6.98708 20.97225,-6.98715 5.23773,7e-5 9.71519,0.70453 13.43234,2.11339 3.75933,1.38022 6.86398,3.508 9.31397,6.38331 m -39.72686,16.86399 c 0,5.837 1.75295,10.4232 5.25892,13.7586 3.54814,3.30667 8.40573,4.95999 14.57282,4.95999 6.16702,0 11.02465,-1.65332 14.57285,-4.95999 3.54811,-3.3354 5.32221,-7.9216 5.32227,-13.7586 -6e-5,-5.83696 -1.77416,-10.40878 -5.32227,-13.71547 -3.5482,-3.33538 -8.40583,-5.0031 -14.57285,-5.00312 -6.16709,2e-5 -11.02468,1.66774 -14.57282,5.00312 -3.50597,3.30669 -5.25892,7.87851 -5.25892,13.71547" />
    <path
       inkscape:connector-curvature="0"
       id="path3253"
       style="font-size:40px;font-style:normal;font-weight:normal;text-align:center;line-height:125%;letter-spacing:0px;word-spacing:0px;text-anchor:middle;fill:#000000;fill-opacity:1;stroke:none;font-family:Sans"
       d="m 227.59517,911.49972 c -1.30949,-0.51751 -2.74566,-0.89133 -4.30848,-1.12139 -1.52071,-0.25874 -3.2103,-0.38813 -5.06882,-0.38817 -6.58949,4e-5 -11.65831,1.46647 -15.20644,4.39931 -3.50597,2.90415 -5.25892,7.08777 -5.25892,12.55093 l 0,25.44695 -11.72163,0 0,-48.30605 11.72163,0 0,7.50467 c 2.4499,-2.93281 5.63905,-5.1037 9.56739,-6.51267 3.92831,-1.43763 8.70143,-2.15647 14.3194,-2.15654 0.80254,7e-5 1.68956,0.0433 2.66115,0.12941 0.97146,0.0576 2.04858,0.15811 3.23136,0.30191 l 0.0633,8.15164" />
    <path
       inkscape:connector-curvature="0"
       id="path3255"
       style="font-size:40px;font-style:normal;font-weight:normal;text-align:center;line-height:125%;letter-spacing:0px;word-spacing:0px;text-anchor:middle;fill:#000000;fill-opacity:1;stroke:none;font-family:Sans"
       d="m 272.20075,928.10492 c -9.41957,2e-5 -15.94567,0.73323 -19.57829,2.19966 -3.63267,1.46645 -5.44901,3.96801 -5.44898,7.50467 -3e-5,2.81788 1.35166,5.06064 4.05505,6.72836 2.74556,1.63896 6.46272,2.45843 11.1514,2.45843 6.46268,0 11.63709,-1.55269 15.52323,-4.65807 3.9283,-3.13415 5.89244,-7.28904 5.89251,-12.46471 l 0,-1.76834 -11.59492,0 m 23.25319,-3.2779 0,27.56033 -11.65827,0 0,-7.33219 c -2.66119,2.93288 -5.97702,5.10377 -9.94757,6.51269 -3.97061,1.38018 -8.8282,2.07026 -14.57282,2.07026 -7.26532,0 -13.05224,-1.38017 -17.36072,-4.14052 -4.26624,-2.78909 -6.39936,-6.51267 -6.39936,-11.17076 0,-5.43441 2.66112,-9.5318 7.9834,-12.29217 5.36447,-2.7603 13.34783,-4.14048 23.95014,-4.14052 l 16.34693,0 0,-0.77634 c -7e-5,-3.65167 -1.77414,-6.46952 -5.32224,-8.45355 -3.506,-2.01271 -8.44807,-3.01909 -14.82632,-3.01913 -4.05508,4e-5 -8.00451,0.33071 -11.84834,0.992 -3.84387,0.66136 -7.53987,1.65336 -11.08804,2.97598 l 0,-7.33216 c 4.26624,-1.12134 8.40577,-1.95518 12.41862,-2.50156 4.01278,-0.57503 7.91997,-0.86255 11.72163,-0.86262 10.26431,7e-5 17.93086,1.81154 22.99974,5.43444 5.06875,3.62299 7.60316,9.11493 7.60322,16.47582" />
    <path
       inkscape:connector-curvature="0"
       id="path3257"
       style="font-size:40px;font-style:normal;font-weight:normal;text-align:center;line-height:125%;letter-spacing:0px;word-spacing:0px;text-anchor:middle;fill:#000000;fill-opacity:1;stroke:none;font-family:Sans"
       d="m 319.53083,904.0813 11.65828,0 0,48.30605 -11.65828,0 0,-48.30605 m 5.82913,-1.16454 0,0 m -4.68865,-21.17701 9.37729,0 15.52326,16.21703 -8.80705,0 -11.40485,-10.56696 -11.40482,10.56696 -8.80709,0 15.52326,-16.21703" />
    <path
       inkscape:connector-curvature="0"
       id="path3259"
       style="font-size:40px;font-style:normal;font-weight:normal;text-align:center;line-height:125%;letter-spacing:0px;word-spacing:0px;text-anchor:middle;fill:#000000;fill-opacity:1;stroke:none;font-family:Sans"
       d="m 414.50776,923.23118 0,29.15617 -11.65828,0 0,-28.89738 c -6e-5,-4.57179 -1.30949,-7.99347 -3.92834,-10.26504 -2.61895,-2.2715 -6.54726,-3.40726 -11.78499,-3.4073 -6.29383,4e-5 -11.25702,1.36584 -14.88963,4.09739 -3.63268,2.73164 -5.44902,6.45521 -5.44899,11.17079 l 0,27.30154 -11.72163,0 0,-48.30605 11.72163,0 0,7.50467 c 2.78783,-2.90406 6.06143,-5.07495 9.82082,-6.51267 3.8016,-1.43763 8.17343,-2.15647 13.11557,-2.15654 8.15231,7e-5 14.31936,1.72526 18.50119,5.17565 4.1817,3.42173 6.27258,8.46797 6.27265,15.13877" />
    <path
       inkscape:connector-curvature="0"
       id="path3261"
       style="font-size:40px;font-style:normal;font-weight:normal;text-align:center;line-height:125%;letter-spacing:0px;word-spacing:0px;text-anchor:middle;fill:#000000;fill-opacity:1;stroke:none;font-family:Sans"
       d="m 498.58674,926.25032 0,3.88173 -53.60273,0 c 0.50688,5.46321 2.91454,9.63248 7.22305,12.50781 4.35072,2.84662 10.39106,4.26992 18.12103,4.26992 4.47739,0 8.80702,-0.37379 12.98885,-1.12138 4.22394,-0.74759 8.4057,-1.869 12.54529,-3.36418 l 0,7.5047 c -4.18183,1.20764 -8.46918,2.12776 -12.8621,2.76034 -4.39302,0.63256 -8.84936,0.94885 -13.36899,0.94885 -11.32041,0 -20.29642,-2.24277 -26.92808,-6.72833 -6.5895,-4.48556 -9.88421,-10.55256 -9.88421,-18.20103 0,-7.9072 3.12576,-14.17548 9.37733,-18.80484 6.29373,-4.65805 14.76288,-6.98708 25.40743,-6.98715 9.54621,7e-5 17.08608,2.09906 22.61957,6.29706 5.57563,4.16929 8.3635,9.84814 8.36356,17.0365 m -11.65827,-2.32905 c -0.0847,-4.34176 -1.87976,-7.80657 -5.38563,-10.39442 -3.46373,-2.58779 -8.0679,-3.88169 -13.81252,-3.88173 -6.50502,4e-5 -11.72166,1.25081 -15.64997,3.75234 -3.8861,2.50161 -6.12485,6.02392 -6.71617,10.56694 l 41.56429,-0.0431 m -11.21475,-42.18153 12.60868,0 -20.65543,16.21703 -9.69411,0 17.74086,-16.21703" />
  </g>
</svg>
