<?xml version="1.0" encoding="UTF-8" standalone="no"?>
<!-- Created with Inkscape (http://www.inkscape.org/) -->

<svg
   xmlns:dc="http://purl.org/dc/elements/1.1/"
   xmlns:cc="http://creativecommons.org/ns#"
   xmlns:rdf="http://www.w3.org/1999/02/22-rdf-syntax-ns#"
   xmlns:svg="http://www.w3.org/2000/svg"
   xmlns="http://www.w3.org/2000/svg"
   xmlns:sodipodi="http://sodipodi.sourceforge.net/DTD/sodipodi-0.dtd"
   xmlns:inkscape="http://www.inkscape.org/namespaces/inkscape"
   width="600"
   height="600"
   id="svg2"
   version="1.1"
   inkscape:version="0.48.2 r9819"
   sodipodi:docname="fsvnd_text.svg">
  <defs
     id="defs4" />
  <sodipodi:namedview
     id="base"
     pagecolor="#e0e0e1"
     bordercolor="#666666"
     borderopacity="1.0"
     inkscape:pageopacity="1"
     inkscape:pageshadow="2"
     inkscape:zoom="5.640149"
     inkscape:cx="102.54692"
     inkscape:cy="371.49312"
     inkscape:document-units="px"
     inkscape:current-layer="flowRoot3819"
     showgrid="true"
     showguides="true"
     inkscape:guide-bbox="true"
     inkscape:window-width="973"
     inkscape:window-height="942"
     inkscape:window-x="697"
     inkscape:window-y="31"
     inkscape:window-maximized="0">
    <inkscape:grid
       type="xygrid"
       id="grid3753"
       empspacing="5"
       visible="true"
       enabled="true"
       snapvisiblegridlinesonly="true" />
    <sodipodi:guide
       orientation="1,0"
       position="300,620"
       id="guide3755" />
    <sodipodi:guide
       orientation="0,1"
       position="-50,300"
       id="guide3757" />
    <sodipodi:guide
       orientation="1,0"
       position="50,410"
       id="guide3910" />
    <sodipodi:guide
       orientation="0,1"
       position="570,400"
       id="guide3912" />
    <sodipodi:guide
       orientation="1,0"
       position="550,490"
       id="guide3914" />
  </sodipodi:namedview>
  <metadata
     id="metadata7">
    <rdf:RDF>
      <cc:Work
         rdf:about="">
        <dc:format>image/svg+xml</dc:format>
        <dc:type
           rdf:resource="http://purl.org/dc/dcmitype/StillImage" />
        <dc:title />
      </cc:Work>
    </rdf:RDF>
  </metadata>
  <g
     inkscape:label="Calque 1"
     inkscape:groupmode="layer"
     id="layer1"
     transform="translate(0,-452.36218)">
    <g
       transform="matrix(1.3724212,0,0,1.9999584,-7.5261784,314.72481)"
       style="font-size:144px;font-style:normal;font-variant:normal;font-weight:normal;font-stretch:normal;fill:#808080;fill-opacity:1;stroke:none;font-family:Liberation Mono;-inkscape-font-specification:Liberation Mono"
       id="flowRoot3819">
      <path
         d="m 57.895707,184.0423 0,34.73438 40.88836,0 0,11.10937 -40.88836,0 0,38.03906 -11.552774,0 0,-94.85156 53.892797,0 0,10.96875 -42.340023,0"
         id="path3828"
         inkscape:connector-curvature="0"
         style="fill:#000000" />
      <path
         d="m 177.11309,241.90949 c -6e-5,3.98439 -0.62507,7.66408 -1.87505,11.03906 -1.2501,3.32814 -3.16549,6.21095 -5.74616,8.64844 -2.54044,2.4375 -5.78651,4.33594 -9.73819,5.69531 -3.91145,1.35937 -8.56884,2.03906 -13.97221,2.03906 -9.4358,0 -16.79489,-2.15625 -22.07729,-6.46875 -5.2421,-4.31249 -8.58899,-10.54686 -10.04063,-18.70312 l 11.18986,-2.60156 c 0.48387,2.57814 1.2097,4.92189 2.17749,7.03125 0.96775,2.10939 2.29843,3.93751 3.99205,5.48437 1.69359,1.50001 3.77026,2.67189 6.23003,3.51563 2.45973,0.84375 5.40337,1.26563 8.83094,1.26562 2.90327,10e-6 5.54448,-0.30468 7.92361,-0.91406 2.41939,-0.65624 4.4759,-1.66405 6.16955,-3.02344 1.73387,-1.35936 3.08472,-3.09373 4.05255,-5.20312 0.96771,-2.10936 1.45159,-4.64061 1.45165,-7.59375 -6e-5,-3.28123 -0.6654,-5.9531 -1.99603,-8.01563 -1.29042,-2.06246 -3.00416,-3.74996 -5.14128,-5.0625 -2.13721,-1.31246 -4.55664,-2.36715 -7.2583,-3.16406 -2.66139,-0.84371 -5.36309,-1.66402 -8.10508,-2.46094 -2.01622,-0.60933 -4.05257,-1.24214 -6.10906,-1.89844 -2.05654,-0.70308 -4.03241,-1.49995 -5.92761,-2.39062 -1.89524,-0.93745 -3.66948,-2.01558 -5.32273,-3.23438 -1.61298,-1.26557 -3.04447,-2.76557 -4.2945,-4.5 -1.20972,-1.78119 -2.15733,-3.84369 -2.84282,-6.1875 -0.68552,-2.39056 -1.02827,-5.15618 -1.02826,-8.29687 -1e-5,-4.49993 0.72582,-8.34367 2.17749,-11.53125 1.45164,-3.23429 3.44767,-5.85929 5.98809,-7.875 2.54038,-2.06241 5.5445,-3.56241 9.01236,-4.5 3.46783,-0.93741 7.21794,-1.40616 11.25037,-1.40625 4.67751,9e-5 8.64941,0.49228 11.91568,1.47656 3.3065,0.93759 6.08884,2.36728 8.34703,4.28906 2.2984,1.92197 4.13313,4.31259 5.5042,7.17188 1.37095,2.81258 2.4597,6.09383 3.26624,9.84375 l -11.37132,2.32031 c -0.44362,-2.39055 -1.10896,-4.52336 -1.99605,-6.39844 -0.84684,-1.87492 -1.99607,-3.44523 -3.44767,-4.71093 -1.41138,-1.26555 -3.12515,-2.22648 -5.14129,-2.88282 -2.01623,-0.65616 -4.39534,-0.98429 -7.13732,-0.98437 -3.22593,8e-5 -5.92764,0.39852 -8.10508,1.19531 -2.17753,0.75008 -3.93161,1.80477 -5.26227,3.16406 -1.33071,1.31258 -2.29849,2.88289 -2.90331,4.71094 -0.56455,1.8282 -0.84682,3.79695 -0.8468,5.90625 -2e-5,2.81257 0.52419,5.10944 1.57262,6.89063 1.08873,1.73443 2.54037,3.18756 4.35497,4.35937 1.85488,1.12506 3.99203,2.06256 6.4115,2.8125 2.45972,0.75006 5.08077,1.54693 7.86313,2.39063 2.21778,0.6563 4.45575,1.35942 6.71393,2.10937 2.25808,0.70318 4.4154,1.54693 6.47197,2.53125 2.09679,0.98442 4.03232,2.1563 5.80664,3.51563 1.8145,1.31254 3.38712,2.92973 4.71789,4.85156 1.33061,1.92191 2.37903,4.17191 3.14525,6.75 0.76609,2.57816 1.14916,5.57815 1.14922,9"
         id="path3830"
         inkscape:connector-curvature="0"
         style="fill:#000000" />
      <path
         d="m 226.28801,267.92511 -11.97618,0 -30.54531,-94.85156 12.15764,0 19.35544,63.42188 c 0.64516,2.1094 1.25,4.31252 1.81457,6.60937 0.60483,2.25002 1.1492,4.3594 1.63312,6.32813 0.5645,2.25001 1.10887,4.47657 1.63311,6.67968 0.48385,-2.10936 1.00807,-4.28904 1.57263,-6.53906 0.48385,-1.92185 1.02822,-4.03123 1.63312,-6.32812 0.60481,-2.29685 1.22983,-4.54685 1.87506,-6.75 l 19.23446,-63.42188 12.15763,0 -30.54529,94.85156"
         id="path3832"
         inkscape:connector-curvature="0"
         style="fill:#000000" />
      <path
         d="m 308.00423,267.92511 -31.45258,-79.45312 c 0.16128,2.0157 0.32258,4.0782 0.48389,6.1875 0.12089,1.78132 0.22176,3.72663 0.30242,5.83594 0.12089,2.06256 0.18144,4.00787 0.18147,5.83593 l 0,61.59375 -10.28258,0 0,-94.85156 13.42784,0 31.93646,80.01563 c -0.20168,-1.87499 -0.38313,-3.89061 -0.54437,-6.04688 -0.16136,-1.8281 -0.30249,-3.8906 -0.4234,-6.1875 -0.0807,-2.29685 -0.12101,-4.64059 -0.12101,-7.03125 l 0,-60.75 10.40354,0 0,94.85156 -13.91171,0"
         id="path3834"
         inkscape:connector-curvature="0"
         style="fill:#000000" />
      <path
         d="m 399.7611,219.55011 c -7e-5,7.87504 -0.80655,14.83597 -2.41943,20.88282 -1.61301,6.00002 -3.95179,11.03907 -7.01634,15.11718 -3.06467,4.07814 -6.83494,7.17188 -11.31084,9.28125 -4.43566,2.0625 -9.47613,3.09375 -15.12143,3.09375 l -22.37972,0 0,-94.85156 18.81105,0 c 6.37113,10e-5 11.99631,0.91416 16.87553,2.74219 4.91946,1.78134 9.05263,4.5704 12.39958,8.36719 3.34682,3.79695 5.86706,8.62507 7.56071,14.48437 1.73385,5.85944 2.60082,12.82037 2.60089,20.88281 m -11.61326,0 c -6e-5,-6.32807 -0.56458,-11.74212 -1.6936,-16.24218 -1.12912,-4.49994 -2.84289,-8.15618 -5.14129,-10.96875 -2.2985,-2.8593 -5.18166,-4.94524 -8.64947,-6.25782 -3.46787,-1.35929 -7.56075,-2.03898 -12.27859,-2.03906 l -7.31878,0 0,72.91406 9.7987,0 c 8.54859,10e-6 14.8996,-3.11717 19.05299,-9.35156 4.15331,-6.23435 6.22998,-15.5859 6.23004,-28.05469"
         id="path3836"
         inkscape:connector-curvature="0"
         style="fill:#000000" />
    </g>
  </g>
</svg>
