<?xml version="1.0" encoding="UTF-8" standalone="no"?>
<!-- Created with Inkscape (http://www.inkscape.org/) -->

<svg
   xmlns:dc="http://purl.org/dc/elements/1.1/"
   xmlns:cc="http://creativecommons.org/ns#"
   xmlns:rdf="http://www.w3.org/1999/02/22-rdf-syntax-ns#"
   xmlns:svg="http://www.w3.org/2000/svg"
   xmlns="http://www.w3.org/2000/svg"
   xmlns:sodipodi="http://sodipodi.sourceforge.net/DTD/sodipodi-0.dtd"
   xmlns:inkscape="http://www.inkscape.org/namespaces/inkscape"
   width="600"
   height="600"
   id="svg2"
   version="1.1"
   inkscape:version="0.48.2 r9819"
   sodipodi:docname="fsvnd_text2.svg">
  <defs
     id="defs4" />
  <sodipodi:namedview
     id="base"
     pagecolor="#e0e0e1"
     bordercolor="#666666"
     borderopacity="1.0"
     inkscape:pageopacity="1"
     inkscape:pageshadow="2"
     inkscape:zoom="0.88270494"
     inkscape:cx="311.66961"
     inkscape:cy="314.06263"
     inkscape:document-units="px"
     inkscape:current-layer="layer1"
     showgrid="true"
     showguides="true"
     inkscape:guide-bbox="true"
     inkscape:window-width="971"
     inkscape:window-height="932"
     inkscape:window-x="699"
     inkscape:window-y="31"
     inkscape:window-maximized="0">
    <inkscape:grid
       type="xygrid"
       id="grid3753"
       empspacing="5"
       visible="true"
       enabled="true"
       snapvisiblegridlinesonly="true" />
    <sodipodi:guide
       orientation="1,0"
       position="300,620"
       id="guide3755" />
    <sodipodi:guide
       orientation="0,1"
       position="-50,300"
       id="guide3757" />
    <sodipodi:guide
       orientation="1,0"
       position="50,410"
       id="guide3910" />
    <sodipodi:guide
       orientation="0,1"
       position="650,550"
       id="guide3912" />
    <sodipodi:guide
       orientation="1,0"
       position="550,490"
       id="guide3914" />
    <sodipodi:guide
       orientation="0,1"
       position="680,50"
       id="guide3924" />
  </sodipodi:namedview>
  <metadata
     id="metadata7">
    <rdf:RDF>
      <cc:Work
         rdf:about="">
        <dc:format>image/svg+xml</dc:format>
        <dc:type
           rdf:resource="http://purl.org/dc/dcmitype/StillImage" />
        <dc:title />
      </cc:Work>
    </rdf:RDF>
  </metadata>
  <g
     inkscape:label="Calque 1"
     inkscape:groupmode="layer"
     id="layer1"
     transform="translate(0,-452.36218)">
    <g
       transform="matrix(0.81336999,0,0,0.80771214,-1.5969596,535.28237)"
       style="font-size:144px;font-style:normal;font-variant:normal;font-weight:normal;font-stretch:normal;text-align:center;text-anchor:middle;fill:#000000;fill-opacity:1;stroke:none;font-family:Liberation Mono;-inkscape-font-specification:Liberation Mono"
       id="flowRoot3942">
      <path
         d="m 136.78906,38.90167 c 0,11.578125 0,23.15625 0,34.734375 15.84375,0 31.6875,0 47.53125,0 3.32788,11.563626 -3.92936,12.542122 -13.59785,11.109375 -11.31113,0 -22.62227,0 -33.9334,0 0,12.679687 0,25.35937 0,38.03906 -10.56576,2.00985 -16.26375,-0.84808 -13.42968,-12.23807 0,-27.537827 0,-55.075659 0,-82.61349 20.88281,0 41.76562,0 62.64843,0 3.38231,11.571182 -4.04009,12.337643 -13.59785,10.96875 -11.87363,0 -23.74727,0 -35.6209,0 z"
         id="path3955"
         inkscape:connector-curvature="0"
         style="fill:#000000" />
      <path
         d="m 248.44531,112.80011 c 8.90625,0 17.8125,0 26.71875,0 3.84271,12.15671 -6.23211,10.39589 -14.95764,9.98437 -18.02974,0 -36.05949,0 -54.08923,0 -3.84271,-12.15671 6.23211,-10.39589 14.95764,-9.98437 9.50084,0.97001 18.2625,1.20082 14.71423,-10.87828 0,-15.077033 0,-30.154065 0,-45.231097 -6.6885,-1.694585 -20.24036,3.47419 -22.42969,-2.71957 -3.59437,-11.908374 10.79612,-5.831885 17.67721,-7.264805 7.52409,0.99839 21.21501,-4.170054 17.40873,8.15871 0,19.311681 0,38.623361 0,57.935042 z m -14.0625,-80.859377 c -1.98244,-10.561795 0.80335,-16.355363 12.23807,-13.5 4.41915,4.105492 3.08136,18.484988 -7.69407,13.5 -1.51466,0 -3.02933,0 -4.544,0 z"
         id="path3957"
         inkscape:connector-curvature="0"
         style="fill:#000000" />
      <path
         d="m 334.15625,112.80011 c 8.90625,0 17.8125,0 26.71875,0 3.84271,12.15671 -6.23211,10.39589 -14.95764,9.98437 -18.02974,0 -36.05949,0 -54.08924,0 -3.84271,-12.15671 6.23211,-10.39589 14.95764,-9.98437 9.50084,0.97 18.26251,1.20083 14.71424,-10.87828 0,-24.498908 0,-48.997815 0,-73.496722 -6.56764,-2.018844 -22.12172,4.948757 -20.32031,-5.43914 -1.02479,-9.338794 14.20466,-2.423345 20.39678,-4.545235 10.61629,-2.343676 15.15756,1.387672 12.57978,12.238066 0,27.37377 0,54.747541 0,82.121311 z"
         id="path3959"
         inkscape:connector-curvature="0"
         style="fill:#000000" />
      <path
         d="m 382.10937,56.690733 c -5.08207,-13.596448 8.65735,-7.172217 12.50101,-12.648187 2.5353,-7.390869 0.1028,-20.875265 11.68895,-17.164313 2.63267,5.429423 -4.32256,20.446737 4.35815,19.828125 8.76521,0 17.53043,0 26.29564,0 3.84271,12.156714 -6.23211,10.395899 -14.95764,9.984375 -8.37538,-0.06343 -19.35664,-2.732736 -15.41736,9.518496 0.38875,13.708918 -0.84163,27.540762 0.73826,41.159251 5.65433,13.29726 46.33062,-2.88347 28.93362,14.291 -18.8801,6.91904 -48.06957,1.02512 -42.32813,-24.587985 0,-13.460254 0,-26.920508 0,-40.380762 -3.9375,0 -7.875,0 -11.8125,0 z"
         id="path3961"
         inkscape:connector-curvature="0"
         style="fill:#000000" />
      <path
         d="m 528.57031,58.237608 c -21.68385,-8.361362 -44.06682,10.242875 -40.14844,32.90748 0,10.546462 0,21.092932 0,31.639392 -10.61173,2.31362 -15.25682,-1.33939 -12.65625,-12.23807 -0.53281,-21.307438 1.89158,-42.975703 -3.65625,-63.840052 18.10118,-10.008132 11.65531,30.222749 19.89844,9.703125 5.61977,-12.313484 43.64858,-19.81172 36.5625,1.828125 z"
         id="path3963"
         inkscape:connector-curvature="0"
         style="fill:#000000" />
      <path
         d="m 564.07812,87.417295 c -4.44799,30.395705 32.80634,31.834515 45.05615,16.726775 19.67405,8.30356 -23.12787,27.74112 -35.07179,18.62283 -26.85774,-8.02226 -29.19959,-46.435676 -15.24461,-66.493611 16.70336,-20.377303 57.18053,-11.692332 58.51314,16.82665 8.43143,17.771464 -6.95562,14.479058 -18.00863,14.317356 -11.74809,0 -23.49617,0 -35.24426,0 z M 584.96094,54.65167 c -17.41105,-2.92171 -30.74547,30.341838 -7.14434,23.0625 9.15488,0 18.30977,0 27.46465,0 -0.20709,-11.378683 -7.43971,-24.046444 -20.32031,-23.0625 z"
         id="path3965"
         inkscape:connector-curvature="0"
         style="fill:#000000" />
      <path
         d="m 402.99219,294.9798 c 17.65897,8.38313 -26.28446,14.78906 -19.89844,-6.75 -10.76131,28.81394 -60.94681,15.09649 -46.97315,-16.42235 8.38056,-18.27145 30.43396,-14.65464 46.97315,-15.42922 6.94165,-23.15204 -28.73534,-29.15073 -33.27614,-9.47402 -26.04074,2.40042 2.6431,-28.04446 17.8777,-21.6041 21.26928,-2.83508 31.28164,18.38926 28.19531,36.47203 1.11424,10.7686 -2.87073,23.39069 3.62104,32.50454 l 3.48053,0.70312 z m -42.82032,-0.42188 c 14.73545,5.6649 34.45221,-30.27487 16.12446,-29.17721 -20.33517,-6.62895 -44.48006,21.19796 -16.12446,29.17721 z m 6.75,-76.21875 c -6.63996,-6.03695 -16.26528,-10.60091 -21.09375,-17.53166 6.522,-1.82288 16.52905,-1.87335 20.40667,6.22235 5.19525,4.92676 15.4659,14.22893 1.24712,11.30931 l -0.56004,0 z"
         id="path3967"
         inkscape:connector-curvature="0"
         style="fill:#000000" />
      <path
         d="m 227.42187,461.05792 c -1.64499,27.58568 -43.29069,29.51772 -58.85156,13.28906 -10.97096,-14.3636 12.24653,-12.97613 14.41406,-1.54687 18.6898,13.2494 49.49974,-15.30127 18.49219,-21.86719 -31.44529,4.76672 -48.96556,-41.68701 -11.43019,-45.05708 13.98544,-9.32096 51.54272,19.17873 24.22707,19.32271 -6.38561,-25.75261 -56.84624,0.9055 -22.5,11.25 13.62411,3.8257 35.59487,5.93284 35.64843,24.60937 z"
         id="path3969"
         inkscape:connector-curvature="0"
         style="fill:#000000" />
      <path
         d="m 316.64844,474.9798 c 17.65897,8.38313 -26.28446,14.78906 -19.89844,-6.75 -10.76131,28.81394 -60.94681,15.09649 -46.97315,-16.42235 8.38056,-18.27145 30.43396,-14.65464 46.97315,-15.42922 6.94165,-23.15204 -28.73534,-29.15073 -33.27614,-9.47402 -26.04074,2.40042 2.6431,-28.04446 17.8777,-21.6041 21.26928,-2.83508 31.28164,18.38926 28.19531,36.47203 1.11424,10.7686 -2.87073,23.39069 3.62104,32.50454 l 3.48053,0.70312 z m -42.82032,-0.42188 c 14.73545,5.6649 34.45221,-30.27487 16.12446,-29.17721 -20.33517,-6.62895 -44.48006,21.19796 -16.12446,29.17721 z"
         id="path3971"
         inkscape:connector-curvature="0"
         style="fill:#000000" />
      <path
         d="m 402.21875,444.39386 c 3.70287,21.96611 -14.45824,48.22252 -38.57082,38.09619 -10.31304,-3.70597 -14.48695,-19.05993 -13.24948,0.29443 -17.24938,5.04483 -11.27675,-12.17148 -11.81253,-23.83839 0,-26.83512 0,-53.67024 0,-80.50536 10.61173,-2.31362 15.25682,1.33939 12.65625,12.23807 1.67269,6.98773 -4.22809,37.63183 4.00782,22.17996 15.36495,-16.75499 46.22476,-5.00939 45.99972,18.13072 0.71252,4.4296 0.96588,8.92203 0.96905,13.40438 m -13.07813,0.42187 c 9.42994,-31.70262 -38.92235,-41.14705 -37.54689,-6.89059 -9.686,22.48329 20.1275,54.11104 34.94529,25.98045 2.12189,-6.12786 2.58346,-12.65699 2.6016,-19.08986 z"
         id="path3973"
         inkscape:connector-curvature="0"
         style="fill:#000000" />
      <path
         d="m 463.67187,472.80011 c 8.90625,0 17.8125,0 26.71875,0 3.84271,12.15671 -6.23211,10.39589 -14.95764,9.98437 -18.02974,0 -36.05949,0 -54.08923,0 -3.84271,-12.15671 6.23211,-10.39589 14.95764,-9.98437 9.50084,0.97001 18.2625,1.20082 14.71423,-10.87828 0,-24.49891 0,-48.99781 0,-73.49672 -6.56764,-2.01884 -22.12172,4.94876 -20.32031,-5.43914 -1.02479,-9.3388 14.20466,-2.42335 20.39678,-4.54524 10.61629,-2.34368 15.15756,1.38767 12.57978,12.23807 0,27.37377 0,54.74754 0,82.12131 z"
         id="path3975"
         inkscape:connector-curvature="0"
         style="fill:#000000" />
      <path
         d="m 520.90625,447.4173 c -4.448,30.3957 32.80633,31.83451 45.05614,16.72677 19.67407,8.30355 -23.12786,27.74112 -35.07178,18.62283 -26.85775,-8.02225 -29.19959,-46.43567 -15.24462,-66.49361 16.70336,-20.3773 57.18054,-11.69234 58.51314,16.82665 8.43144,17.77147 -6.95561,14.47906 -18.00862,14.31736 -11.74809,0 -23.49617,0 -35.24426,0 z m 20.88281,-32.76563 c -17.41105,-2.9217 -30.74547,30.34184 -7.14434,23.0625 9.15488,0 18.30977,0 27.46465,0 -0.20708,-11.37869 -7.43971,-24.04644 -20.32031,-23.0625 z"
         id="path3977"
         inkscape:connector-curvature="0"
         style="fill:#000000" />
    </g>
  </g>
</svg>
