<?xml version="1.0" encoding="UTF-8" standalone="no"?>
<!-- Created with Inkscape (http://www.inkscape.org/) -->

<svg
   xmlns:dc="http://purl.org/dc/elements/1.1/"
   xmlns:cc="http://creativecommons.org/ns#"
   xmlns:rdf="http://www.w3.org/1999/02/22-rdf-syntax-ns#"
   xmlns:svg="http://www.w3.org/2000/svg"
   xmlns="http://www.w3.org/2000/svg"
   version="1.2"
   width="600"
   height="600"
   id="svg2">
  <defs
     id="defs4" />
  <metadata
     id="metadata7">
    <rdf:RDF>
      <cc:Work
         rdf:about="">
        <dc:format>image/svg+xml</dc:format>
        <dc:type
           rdf:resource="http://purl.org/dc/dcmitype/StillImage" />
        <dc:title></dc:title>
      </cc:Work>
    </rdf:RDF>
  </metadata>
  <g
     transform="translate(0,-452.36218)"
     id="layer1">
    <g
       transform="matrix(1.1888201,0,0,1.8854271,-63.201079,361.66996)"
       id="flowRoot4702"
       style="font-size:72px;font-style:normal;font-variant:normal;font-weight:normal;font-stretch:normal;text-align:center;line-height:100%;writing-mode:lr-tb;text-anchor:middle;fill:#000000;fill-opacity:1;stroke:none;font-family:Liberation Mono;-inkscape-font-specification:Liberation Mono">
      <path
         d="m 248.30859,153.32004 0,-47.42578 6.71485,0 0,41.94141 23.625,0 0,5.48437 -30.33985,0"
         id="path4715" />
      <path
         d="m 309.33984,148.32786 13.35938,0 0,4.99218 -34.52344,0 0,-4.99218 14.83594,0 0,-28.05469 -11.21485,0 0,-4.99219 17.54297,0 0,33.04688 m -7.03125,-40.42969 0,-6.75 7.03125,0 0,6.75 -7.03125,0"
         id="path4717" />
      <path
         d="m 333,120.27317 0,-4.99219 5.97656,0 2.03906,-9.91406 4.21875,0 0,9.91406 15.1875,0 0,4.99219 -15.1875,0 0,22.92187 c -1e-5,1.85157 0.49217,3.22267 1.47657,4.11328 1.00779,0.89063 2.64841,1.33595 4.92187,1.33594 0.93748,1e-5 1.89841,-0.0352 2.88281,-0.10547 1.00779,-0.0937 1.96872,-0.19921 2.88282,-0.3164 0.93747,-0.11719 1.80465,-0.24609 2.60156,-0.38672 0.82028,-0.14062 1.51168,-0.26953 2.07422,-0.38672 l 0,4.81641 c -0.51566,0.14062 -1.18363,0.30468 -2.00391,0.49218 -0.82034,0.1875 -1.74612,0.36328 -2.77734,0.52735 -1.00784,0.16406 -2.10941,0.30468 -3.30469,0.42187 -1.19534,0.11719 -2.42581,0.17578 -3.69141,0.17578 -3.79689,0 -6.64454,-0.79687 -8.54296,-2.39062 -1.89845,-1.61719 -2.84767,-4.16015 -2.84766,-7.62891 l 0,-23.58984 -5.90625,0"
         id="path4719" />
      <path
         d="m 291.86719,219.20286 c -1.14847,2.46094 -2.67191,4.2539 -4.57032,5.3789 -1.89846,1.10156 -4.26564,1.65234 -7.10156,1.65235 -4.73439,-10e-6 -8.21485,-1.62891 -10.4414,-4.88672 -2.22657,-3.25781 -3.33985,-8.16796 -3.33985,-14.73047 0,-13.26559 4.59374,-19.8984 13.78125,-19.89844 2.83592,4e-5 5.2031,0.50394 7.10156,1.51172 1.92185,1.00785 3.45701,2.66019 4.60547,4.95703 l 0.0703,0 c -3e-5,-0.11715 -0.0118,-0.42184 -0.0352,-0.91406 -3e-5,-0.49216 -3e-5,-1.03122 0,-1.61719 -3e-5,-0.5859 -0.0118,-1.13668 -0.0352,-1.65234 -3e-5,-0.53903 -3e-5,-0.91403 0,-1.125 l 0,-14.73047 6.32813,0 0,44.33203 c -4e-5,0.91407 -4e-5,1.79297 0,2.63672 0.0234,0.84375 0.0468,1.61719 0.0703,2.32031 0.0234,0.70313 0.0468,1.3125 0.0703,1.82813 0.0234,0.49218 0.0468,0.84375 0.0703,1.05468 l -6.04688,0 c -0.0235,-0.0937 -0.0586,-0.35156 -0.10547,-0.77343 -0.0469,-0.42188 -0.0938,-0.92578 -0.14062,-1.51172 -0.0235,-0.58594 -0.0469,-1.21875 -0.0703,-1.89844 -0.0235,-0.67968 -0.0352,-1.32421 -0.0351,-1.93359 l -0.17578,0 m -18.91407,-12.79688 c -1e-5,2.62502 0.16406,4.87501 0.49219,6.75 0.35155,1.87501 0.8789,3.42188 1.58203,4.64063 0.72655,1.21875 1.65233,2.12109 2.77735,2.70703 1.12498,0.5625 2.47264,0.84375 4.04297,0.84375 1.61716,0 3.04685,-0.28125 4.28906,-0.84375 1.2656,-0.5625 2.32028,-1.45312 3.16406,-2.67188 0.86716,-1.24218 1.51169,-2.84764 1.93359,-4.8164 0.44529,-1.96874 0.66794,-4.35936 0.66797,-7.17188 -3e-5,-2.71873 -0.22268,-4.99216 -0.66797,-6.82031 -0.4219,-1.85154 -1.05471,-3.33982 -1.89843,-4.46485 -0.84378,-1.12496 -1.88675,-1.93356 -3.12891,-2.42578 -1.24221,-0.49215 -2.6719,-0.73824 -4.28906,-0.73828 -1.50002,4e-5 -2.81252,0.26957 -3.9375,0.8086 -1.12502,0.53909 -2.06252,1.40628 -2.8125,2.60156 -0.72658,1.19534 -1.27736,2.75393 -1.65235,4.67578 -0.37501,1.89846 -0.56251,4.20705 -0.5625,6.92578"
         id="path4721" />
      <path
         d="m 328.78125,195.61301 -4.95703,0 -1.44141,-22.46484 7.875,0 -1.47656,22.46484"
         id="path4723" />
      <path
         d="m 143.36719,279.63645 c -1e-5,1.9922 0.22264,3.83204 0.66797,5.51953 0.4453,1.66407 1.11326,3.10548 2.0039,4.32422 0.89061,1.19532 1.99217,2.13282 3.30469,2.8125 1.33592,0.65625 2.87107,0.98438 4.60547,0.98437 1.28904,1e-5 2.47263,-0.14062 3.55078,-0.42187 1.10154,-0.30468 2.08591,-0.71484 2.95312,-1.23047 0.86716,-0.51562 1.59372,-1.12499 2.17969,-1.82812 0.58591,-0.72656 1.0195,-1.51171 1.30078,-2.35547 l 5.55469,1.58203 c -0.37504,1.05469 -0.93754,2.1211 -1.6875,3.19922 -0.75003,1.05469 -1.74613,2.01562 -2.98828,2.88281 -1.24222,0.84375 -2.75394,1.54688 -4.53516,2.10937 -1.78127,0.53907 -3.89065,0.8086 -6.32812,0.8086 -2.69533,0 -5.10939,-0.42188 -7.24219,-1.26563 -2.13282,-0.84375 -3.93751,-2.09765 -5.41406,-3.76172 -1.47657,-1.66405 -2.61329,-3.73827 -3.41016,-6.22265 -0.77344,-2.5078 -1.16016,-5.41405 -1.16015,-8.71875 -1e-5,-3.65623 0.45702,-6.72654 1.37109,-9.21094 0.93749,-2.48434 2.1914,-4.48825 3.76172,-6.01172 1.5703,-1.5234 3.37499,-2.61324 5.41406,-3.26953 2.06248,-0.65621 4.21873,-0.98434 6.46875,-0.98437 3.07029,3e-5 5.66013,0.49222 7.76953,1.47656 2.13278,0.98441 3.86716,2.36722 5.20313,4.14844 1.3359,1.75784 2.29684,3.87893 2.88281,6.36328 0.60934,2.4844 0.91402,5.22658 0.91406,8.22656 l 0,0.84375 -27.14062,0 m 10.4414,-16.38281 c -1.07814,3e-5 -2.21486,0.17581 -3.41015,0.52734 -1.17189,0.32816 -2.26174,0.92581 -3.26953,1.79297 -1.00783,0.86722 -1.8633,2.05081 -2.56641,3.55078 -0.6797,1.47659 -1.0547,3.36331 -1.125,5.66016 l 20.53125,0 c -0.18753,-2.2031 -0.58597,-4.04295 -1.19531,-5.51953 -0.60941,-1.47654 -1.37113,-2.66013 -2.28516,-3.55079 -0.89065,-0.89059 -1.91018,-1.5234 -3.05859,-1.89843 -1.14846,-0.37497 -2.35549,-0.56247 -3.6211,-0.5625 m -3.72656,-8.15625 0,-0.70313 7.98047,-8.40234 6.92578,0 0,1.01953 -10.54687,8.08594 -4.35938,0"
         id="path4725" />
      <path
         d="m 213.53906,278.12473 c -4e-5,2.88283 -0.23441,5.54298 -0.70312,7.98047 -0.46879,2.43751 -1.24223,4.53516 -2.32032,6.29297 -1.07815,1.75781 -2.49612,3.14062 -4.2539,4.14844 -1.75784,0.98437 -3.92581,1.47656 -6.50391,1.47656 -1.28908,0 -2.51955,-0.11719 -3.6914,-0.35156 -1.1719,-0.23438 -2.26174,-0.60938 -3.26954,-1.125 -1.00782,-0.51563 -1.91017,-1.1836 -2.70703,-2.00391 -0.77345,-0.82031 -1.4297,-1.8164 -1.96875,-2.98828 l -0.17578,0 c 0.0234,0.0469 0.0351,0.25782 0.0352,0.63281 0.0234,0.35157 0.0351,0.79688 0.0352,1.33594 0.0234,0.53906 0.0351,1.14844 0.0352,1.82812 0.0234,0.67969 0.0351,1.35938 0.0352,2.03907 l 0,14.87109 -6.36328,0 0,-45.10547 c -10e-6,-0.93747 -0.0117,-1.83981 -0.0352,-2.70703 -1e-5,-0.86715 -0.0117,-1.64059 -0.0352,-2.32031 -0.0234,-0.70309 -0.0469,-1.30075 -0.0703,-1.79297 -0.0234,-0.49215 -0.0469,-0.84371 -0.0703,-1.05469 l 6.15234,0 c 0.0234,0.0704 0.0469,0.32816 0.0703,0.77344 0.0469,0.42191 0.082,0.93753 0.10547,1.54687 0.0469,0.60941 0.082,1.26566 0.10547,1.96875 0.0469,0.70316 0.0703,1.35941 0.0703,1.96875 l 0.14063,0 c 0.58592,-1.21871 1.24217,-2.2734 1.96875,-3.16406 0.74998,-0.89059 1.59373,-1.61715 2.53125,-2.17969 0.93748,-0.5859 1.99217,-1.00777 3.16406,-1.26562 1.17186,-0.28121 2.48435,-0.42184 3.9375,-0.42188 2.5781,4e-5 4.74607,0.46879 6.50391,1.40625 1.75778,0.93754 3.17575,2.27348 4.2539,4.00782 1.07809,1.71096 1.85153,3.77346 2.32032,6.1875 0.46871,2.41408 0.70308,5.08596 0.70312,8.01562 m -6.53906,0 c -3e-5,-2.34373 -0.14066,-4.42966 -0.42188,-6.25781 -0.28128,-1.8281 -0.77346,-3.36325 -1.47656,-4.60547 -0.67971,-1.26559 -1.59378,-2.22653 -2.74219,-2.88281 -1.12502,-0.65622 -2.54299,-0.98434 -4.2539,-0.98438 -1.38284,4e-5 -2.68362,0.22269 -3.90235,0.66797 -1.21876,0.42191 -2.28517,1.20706 -3.19921,2.35547 -0.89064,1.12503 -1.60549,2.69534 -2.14454,4.71094 -0.51563,2.01565 -0.77345,4.60549 -0.77343,7.76953 -2e-5,2.69533 0.21092,4.96876 0.63281,6.82031 0.4453,1.82814 1.08983,3.31642 1.93359,4.46484 0.84374,1.12501 1.88671,1.9336 3.12891,2.42579 1.24217,0.49219 2.66014,0.73828 4.25391,0.73828 1.71091,0 3.1406,-0.32812 4.28906,-0.98438 1.14841,-0.67968 2.06247,-1.66405 2.74219,-2.95312 0.70309,-1.28906 1.19528,-2.8828 1.47656,-4.78125 0.30465,-1.89843 0.457,-4.06639 0.45703,-6.50391"
         id="path4727" />
      <path
         d="m 257.09766,293.4177 c 0.35152,0 0.70308,-0.0234 1.05468,-0.0703 0.35153,-0.0469 0.69137,-0.10547 1.01953,-0.17578 l 0,3.9375 c -0.79691,0.1875 -1.59378,0.32812 -2.39062,0.42187 -0.77348,0.0937 -1.60551,0.14063 -2.49609,0.14063 -1.19535,0 -2.2266,-0.15235 -3.09375,-0.45704 -0.84379,-0.32812 -1.53519,-0.80859 -2.07422,-1.4414 -0.5391,-0.65625 -0.94925,-1.45312 -1.23047,-2.39063 -0.28128,-0.96093 -0.45706,-2.07421 -0.52735,-3.33984 l -0.21093,0 c -0.65628,1.21876 -1.38284,2.32032 -2.17969,3.30469 -0.7969,0.98437 -1.71096,1.82812 -2.74219,2.53125 -1.03127,0.67969 -2.21486,1.20703 -3.55078,1.58203 -1.33596,0.375 -2.87111,0.5625 -4.60547,0.5625 -3.70313,0 -6.49219,-1.00781 -8.36719,-3.02344 -1.875,-2.01562 -2.8125,-4.78124 -2.8125,-8.29687 0,-2.5078 0.45703,-4.55858 1.3711,-6.15235 0.93749,-1.61717 2.15624,-2.88279 3.65625,-3.79687 1.49999,-0.91404 3.1992,-1.54686 5.09765,-1.89844 1.92186,-0.37498 3.86717,-0.5742 5.83594,-0.59766 l 8.29688,-0.14062 0,-2.07422 c -3e-5,-1.57029 -0.16409,-2.90622 -0.49219,-4.00781 -0.30472,-1.10154 -0.78518,-1.99216 -1.44141,-2.67188 -0.63283,-0.67965 -1.44143,-1.17184 -2.42578,-1.47656 -0.9844,-0.32809 -2.13283,-0.49215 -3.44531,-0.49219 -1.17189,4e-5 -2.2383,0.0938 -3.19922,0.28125 -0.93752,0.1641 -1.74611,0.4805 -2.42578,0.94922 -0.6797,0.44535 -1.2422,1.06644 -1.6875,1.86328 -0.42189,0.77347 -0.70314,1.75784 -0.84375,2.95313 l -6.60938,-0.59766 c 0.23437,-1.49997 0.66797,-2.87106 1.30079,-4.11328 0.65624,-1.26559 1.5703,-2.35543 2.74218,-3.26953 1.17187,-0.91403 2.63671,-1.61715 4.39453,-2.10938 1.78124,-0.51558 3.92577,-0.7734 6.4336,-0.77343 4.68747,3e-5 8.20309,1.1016 10.54687,3.30468 2.36716,2.17972 3.55075,5.34378 3.55078,9.49219 l 0,16.38281 c -3e-5,1.87501 0.24606,3.29298 0.73829,4.25391 0.49215,0.9375 1.42965,1.40625 2.8125,1.40625 m -21.41016,-0.21094 c 1.94529,10e-6 3.63279,-0.36327 5.0625,-1.08984 1.42966,-0.75 2.61326,-1.6875 3.55078,-2.8125 0.96091,-1.12499 1.67575,-2.36718 2.14453,-3.72656 0.46872,-1.35937 0.7031,-2.66015 0.70313,-3.90235 l 0,-3.1289 -6.67969,0.14062 c -1.28908,0.0235 -2.58986,0.12893 -3.90234,0.31641 -1.28908,0.16408 -2.46096,0.52736 -3.51563,1.08984 -1.03126,0.56252 -1.87501,1.38283 -2.53125,2.46094 -0.65626,1.0547 -0.98438,2.47267 -0.98437,4.2539 -1e-5,1.92189 0.51561,3.46876 1.54687,4.64063 1.05468,1.17188 2.58983,1.75782 4.60547,1.75781"
         id="path4729" />
      <path
         d="m 292.07812,297.32004 0,-24.43359 c -3e-5,-1.87497 -0.19924,-3.41013 -0.59765,-4.60547 -0.37503,-1.21872 -0.91409,-2.17966 -1.61719,-2.88281 -0.67971,-0.72653 -1.48831,-1.23044 -2.42578,-1.51172 -0.93752,-0.28122 -1.96877,-0.42184 -3.09375,-0.42188 -1.38283,4e-5 -2.68361,0.26957 -3.90234,0.8086 -1.19533,0.51566 -2.25002,1.27737 -3.16407,2.28515 -0.89064,0.98441 -1.59376,2.21488 -2.10937,3.69141 -0.51564,1.45315 -0.77345,3.12893 -0.77344,5.02734 l 0,22.04297 -6.32812,0 0,-29.91797 c -1e-5,-0.79684 -0.0117,-1.62887 -0.0352,-2.49609 -10e-6,-0.89059 -0.0117,-1.72262 -0.0352,-2.49609 -0.0234,-0.79684 -0.0469,-1.47653 -0.0703,-2.03907 -0.0234,-0.56246 -0.0469,-0.92574 -0.0703,-1.08984 l 5.97656,0 c 0.0234,0.11723 0.0469,0.43363 0.0703,0.94922 0.0234,0.51566 0.0469,1.11332 0.0703,1.79297 0.0469,0.65628 0.082,1.33597 0.10546,2.03906 0.0234,0.67972 0.0351,1.25394 0.0352,1.72266 l 0.10547,0 c 0.56249,-1.10153 1.21874,-2.09763 1.96875,-2.98828 0.77342,-0.89059 1.65233,-1.64059 2.63672,-2.25 1.00779,-0.63278 2.13279,-1.11325 3.375,-1.44141 1.24216,-0.35152 2.63669,-0.52731 4.18359,-0.52734 1.94529,3e-5 3.66794,0.25785 5.16797,0.77343 1.49997,0.51567 2.75387,1.31254 3.76172,2.39063 1.03122,1.07816 1.80465,2.46097 2.32031,4.14844 0.53903,1.68753 0.80856,3.71487 0.8086,6.08203 l 0,25.34765 -6.36329,0"
         id="path4731" />
      <path
         d="m 335.03906,291.20286 c -1.14846,2.46094 -2.6719,4.2539 -4.57031,5.3789 -1.89846,1.10156 -4.26565,1.65234 -7.10156,1.65235 -4.73439,-10e-6 -8.21486,-1.62891 -10.44141,-4.88672 -2.22657,-3.25781 -3.33985,-8.16796 -3.33984,-14.73047 -10e-6,-13.26559 4.59374,-19.8984 13.78125,-19.89844 2.83591,4e-5 5.2031,0.50394 7.10156,1.51172 1.92185,1.00785 3.457,2.66019 4.60547,4.95703 l 0.0703,0 c -3e-5,-0.11715 -0.0117,-0.42184 -0.0352,-0.91406 -3e-5,-0.49216 -3e-5,-1.03122 0,-1.61719 -3e-5,-0.5859 -0.0117,-1.13668 -0.0351,-1.65234 -3e-5,-0.53903 -3e-5,-0.91403 0,-1.125 l 0,-14.73047 6.32812,0 0,44.33203 c -3e-5,0.91407 -3e-5,1.79297 0,2.63672 0.0234,0.84375 0.0468,1.61719 0.0703,2.32031 0.0234,0.70313 0.0468,1.3125 0.0703,1.82813 0.0234,0.49218 0.0468,0.84375 0.0703,1.05468 l -6.04687,0 c -0.0235,-0.0937 -0.0586,-0.35156 -0.10547,-0.77343 -0.0469,-0.42188 -0.0938,-0.92578 -0.14063,-1.51172 -0.0235,-0.58594 -0.0469,-1.21875 -0.0703,-1.89844 -0.0235,-0.67968 -0.0352,-1.32421 -0.0352,-1.93359 l -0.17578,0 M 316.125,278.40598 c -10e-6,2.62502 0.16405,4.87501 0.49219,6.75 0.35155,1.87501 0.87889,3.42188 1.58203,4.64063 0.72655,1.21875 1.65233,2.12109 2.77734,2.70703 1.12499,0.5625 2.47264,0.84375 4.04297,0.84375 1.61717,0 3.04685,-0.28125 4.28906,-0.84375 1.2656,-0.5625 2.32029,-1.45312 3.16407,-2.67188 0.86716,-1.24218 1.51169,-2.84764 1.93359,-4.8164 0.44528,-1.96874 0.66794,-4.35936 0.66797,-7.17188 -3e-5,-2.71873 -0.22269,-4.99216 -0.66797,-6.82031 -0.4219,-1.85154 -1.05472,-3.33982 -1.89844,-4.46485 -0.84377,-1.12496 -1.88674,-1.93356 -3.1289,-2.42578 -1.24221,-0.49215 -2.6719,-0.73824 -4.28907,-0.73828 -1.50002,4e-5 -2.81251,0.26957 -3.9375,0.8086 -1.12501,0.53909 -2.06251,1.40628 -2.8125,2.60156 -0.72657,1.19534 -1.27735,2.75393 -1.65234,4.67578 -0.37501,1.89846 -0.56251,4.20705 -0.5625,6.92578"
         id="path4733" />
      <path
         d="m 386.61328,293.4177 c 0.35152,0 0.70309,-0.0234 1.05469,-0.0703 0.35152,-0.0469 0.69136,-0.10547 1.01953,-0.17578 l 0,3.9375 c -0.79691,0.1875 -1.59379,0.32812 -2.39063,0.42187 -0.77347,0.0937 -1.6055,0.14063 -2.49609,0.14063 -1.19535,0 -2.22659,-0.15235 -3.09375,-0.45704 -0.84378,-0.32812 -1.53519,-0.80859 -2.07422,-1.4414 -0.53909,-0.65625 -0.94925,-1.45312 -1.23047,-2.39063 -0.28128,-0.96093 -0.45706,-2.07421 -0.52734,-3.33984 l -0.21094,0 c -0.65628,1.21876 -1.38284,2.32032 -2.17969,3.30469 -0.7969,0.98437 -1.71096,1.82812 -2.74218,2.53125 -1.03128,0.67969 -2.21487,1.20703 -3.55078,1.58203 -1.33596,0.375 -2.87111,0.5625 -4.60547,0.5625 -3.70314,0 -6.4922,-1.00781 -8.36719,-3.02344 -1.87501,-2.01562 -2.8125,-4.78124 -2.8125,-8.29687 0,-2.5078 0.45703,-4.55858 1.37109,-6.15235 0.9375,-1.61717 2.15625,-2.88279 3.65625,-3.79687 1.49999,-0.91404 3.19921,-1.54686 5.09766,-1.89844 1.92186,-0.37498 3.86717,-0.5742 5.83594,-0.59766 l 8.29687,-0.14062 0,-2.07422 c -3e-5,-1.57029 -0.16409,-2.90622 -0.49219,-4.00781 -0.30471,-1.10154 -0.78518,-1.99216 -1.4414,-2.67188 -0.63284,-0.67965 -1.44143,-1.17184 -2.42578,-1.47656 -0.9844,-0.32809 -2.13284,-0.49215 -3.44532,-0.49219 -1.17189,4e-5 -2.23829,0.0938 -3.19921,0.28125 -0.93752,0.1641 -1.74611,0.4805 -2.42579,0.94922 -0.6797,0.44535 -1.2422,1.06644 -1.6875,1.86328 -0.42188,0.77347 -0.70313,1.75784 -0.84375,2.95313 l -6.60937,-0.59766 c 0.23437,-1.49997 0.66796,-2.87106 1.30078,-4.11328 0.65624,-1.26559 1.5703,-2.35543 2.74219,-3.26953 1.17186,-0.91403 2.6367,-1.61715 4.39453,-2.10938 1.78123,-0.51558 3.92576,-0.7734 6.43359,-0.77343 4.68748,3e-5 8.2031,1.1016 10.54688,3.30468 2.36715,2.17972 3.55074,5.34378 3.55078,9.49219 l 0,16.38281 c -4e-5,1.87501 0.24606,3.29298 0.73828,4.25391 0.49215,0.9375 1.42965,1.40625 2.8125,1.40625 m -21.41016,-0.21094 c 1.9453,10e-6 3.6328,-0.36327 5.0625,-1.08984 1.42967,-0.75 2.61326,-1.6875 3.55079,-2.8125 0.96091,-1.12499 1.67575,-2.36718 2.14453,-3.72656 0.46872,-1.35937 0.70309,-2.66015 0.70312,-3.90235 l 0,-3.1289 -6.67969,0.14062 c -1.28908,0.0235 -2.58986,0.12893 -3.90234,0.31641 -1.28908,0.16408 -2.46095,0.52736 -3.51562,1.08984 -1.03127,0.56252 -1.87502,1.38283 -2.53125,2.46094 -0.65627,1.0547 -0.98439,2.47267 -0.98438,4.2539 -10e-6,1.92189 0.51561,3.46876 1.54688,4.64063 1.05467,1.17188 2.58982,1.75782 4.60546,1.75781"
         id="path4735" />
      <path
         d="m 412.69922,312.22629 c -2.1094,-1e-5 -3.97268,-0.22267 -5.58985,-0.66797 -1.59376,-0.44532 -2.97657,-1.08985 -4.14843,-1.93359 -1.14845,-0.82032 -2.08595,-1.8047 -2.8125,-2.95312 -0.70314,-1.14845 -1.20704,-2.42579 -1.51172,-3.83204 l 6.46875,-0.8789 c 0.39842,1.7578 1.25389,3.10546 2.5664,4.04297 1.33592,0.96092 3.08202,1.44139 5.23829,1.4414 1.33591,-1e-5 2.53122,-0.19923 3.58593,-0.59765 1.0781,-0.39845 1.99216,-1.04298 2.74219,-1.9336 0.77341,-0.86719 1.35935,-2.00391 1.75781,-3.41015 0.42185,-1.40626 0.63279,-3.11719 0.63282,-5.13282 l 0,-6.82031 -0.0703,0 c -0.44534,0.93751 -1.01956,1.85157 -1.72265,2.74219 -0.67972,0.89063 -1.51175,1.67578 -2.4961,2.35547 -0.96096,0.67969 -2.08596,1.23047 -3.375,1.65234 -1.28908,0.39844 -2.77736,0.59766 -4.46484,0.59766 -2.39064,0 -4.4297,-0.38672 -6.11719,-1.16016 -1.68751,-0.77343 -3.07032,-1.94531 -4.14844,-3.51562 -1.07813,-1.57031 -1.875,-3.53906 -2.39062,-5.90625 -0.49219,-2.36718 -0.73829,-5.1328 -0.73828,-8.29688 -10e-6,-3.07029 0.24609,-5.80075 0.73828,-8.1914 0.51562,-2.3906 1.32421,-4.40622 2.42578,-6.04688 1.12499,-1.66403 2.57812,-2.92965 4.35938,-3.79687 1.78123,-0.86715 3.96092,-1.30075 6.53906,-1.30079 2.64841,4e-5 4.94529,0.62114 6.89062,1.86329 1.96873,1.21878 3.48044,2.96487 4.53516,5.23828 l 0.10547,0 c -3e-5,-0.58591 0.0117,-1.24216 0.0351,-1.96875 0.0469,-0.72653 0.082,-1.40622 0.10547,-2.03907 0.0469,-0.65621 0.0937,-1.21871 0.14063,-1.6875 0.0703,-0.46871 0.11716,-0.73824 0.14062,-0.80859 l 6.01172,0 c -0.0235,0.21098 -0.0469,0.57426 -0.0703,1.08984 -0.0235,0.49223 -0.0469,1.08988 -0.0703,1.79297 -0.0235,0.70316 -0.0469,1.48832 -0.0703,2.35547 -3e-5,0.84378 -3e-5,1.72269 0,2.63672 l 0,29.03906 c -3e-5,5.32031 -1.24222,9.3164 -3.72656,11.98828 -2.4844,2.6953 -6.31643,4.04296 -11.49609,4.04297 m 8.92969,-34.27734 c -3e-5,-2.64842 -0.28128,-4.89841 -0.84375,-6.75 -0.56253,-1.85154 -1.31253,-3.35153 -2.25,-4.5 -0.91409,-1.17184 -1.96878,-2.01559 -3.16407,-2.53125 -1.17189,-0.51559 -2.37892,-0.7734 -3.62109,-0.77344 -1.57033,4e-5 -2.92971,0.26957 -4.07813,0.8086 -1.14845,0.51565 -2.09767,1.3594 -2.84765,2.53125 -0.75001,1.14846 -1.30079,2.64846 -1.65235,4.5 -0.35157,1.82814 -0.52735,4.06642 -0.52734,6.71484 -1e-5,2.7422 0.17577,5.02736 0.52734,6.85547 0.35156,1.82813 0.89062,3.29298 1.61719,4.39453 0.74999,1.10157 1.68749,1.88672 2.8125,2.35547 1.14842,0.44532 2.49608,0.66797 4.04297,0.66797 1.24217,0 2.46092,-0.24609 3.65625,-0.73828 1.19529,-0.51562 2.26169,-1.33593 3.19922,-2.46094 0.93747,-1.12499 1.68747,-2.58983 2.25,-4.39453 0.58591,-1.82811 0.87888,-4.05467 0.87891,-6.67969"
         id="path4737" />
      <path
         d="m 445.57031,279.63645 c -1e-5,1.9922 0.22265,3.83204 0.66797,5.51953 0.4453,1.66407 1.11327,3.10548 2.00391,4.32422 0.89061,1.19532 1.99217,2.13282 3.30468,2.8125 1.33592,0.65625 2.87108,0.98438 4.60547,0.98437 1.28904,1e-5 2.47264,-0.14062 3.55078,-0.42187 1.10154,-0.30468 2.08591,-0.71484 2.95313,-1.23047 0.86716,-0.51562 1.59372,-1.12499 2.17969,-1.82812 0.5859,-0.72656 1.0195,-1.51171 1.30078,-2.35547 l 5.55469,1.58203 c -0.37504,1.05469 -0.93754,2.1211 -1.6875,3.19922 -0.75004,1.05469 -1.74613,2.01562 -2.98829,2.88281 -1.24221,0.84375 -2.75393,1.54688 -4.53515,2.10937 -1.78128,0.53907 -3.89065,0.8086 -6.32813,0.8086 -2.69533,0 -5.10939,-0.42188 -7.24218,-1.26563 -2.13283,-0.84375 -3.93751,-2.09765 -5.41407,-3.76172 -1.47657,-1.66405 -2.61328,-3.73827 -3.41015,-6.22265 -0.77345,-2.5078 -1.16016,-5.41405 -1.16016,-8.71875 0,-3.65623 0.45703,-6.72654 1.37109,-9.21094 0.9375,-2.48434 2.1914,-4.48825 3.76172,-6.01172 1.5703,-1.5234 3.37499,-2.61324 5.41407,-3.26953 2.06248,-0.65621 4.21873,-0.98434 6.46875,-0.98437 3.07028,3e-5 5.66013,0.49222 7.76953,1.47656 2.13278,0.98441 3.86715,2.36722 5.20312,4.14844 1.3359,1.75784 2.29684,3.87893 2.88281,6.36328 0.60934,2.4844 0.91403,5.22658 0.91407,8.22656 l 0,0.84375 -27.14063,0 m 10.44141,-16.38281 c -1.07815,3e-5 -2.21486,0.17581 -3.41016,0.52734 -1.17189,0.32816 -2.26173,0.92581 -3.26953,1.79297 -1.00783,0.86722 -1.86329,2.05081 -2.56641,3.55078 -0.67969,1.47659 -1.05469,3.36331 -1.125,5.66016 l 20.53125,0 c -0.18753,-2.2031 -0.58596,-4.04295 -1.19531,-5.51953 -0.6094,-1.47654 -1.37112,-2.66013 -2.28515,-3.55079 -0.89066,-0.89059 -1.91019,-1.5234 -3.0586,-1.89843 -1.14846,-0.37497 -2.35549,-0.56247 -3.62109,-0.5625"
         id="path4739" />
    </g>
  </g>
</svg>
