<?xml version="1.0" encoding="UTF-8" standalone="no"?>
<!-- Created with Inkscape (http://www.inkscape.org/) -->

<svg
   xmlns:dc="http://purl.org/dc/elements/1.1/"
   xmlns:cc="http://creativecommons.org/ns#"
   xmlns:rdf="http://www.w3.org/1999/02/22-rdf-syntax-ns#"
   xmlns:svg="http://www.w3.org/2000/svg"
   xmlns="http://www.w3.org/2000/svg"
   version="1.1"
   width="595.27557pt"
   height="841.88977pt"
   id="svg2">
  <metadata
     id="metadata7">
    <rdf:RDF>
      <cc:Work
         rdf:about="">
        <dc:format>image/svg+xml</dc:format>
        <dc:type
           rdf:resource="http://purl.org/dc/dcmitype/StillImage" />
        <dc:title></dc:title>
      </cc:Work>
    </rdf:RDF>
  </metadata>
  <defs
     id="defs5" />
  <path
     d="m 414.35726,403.83027 c -1.1737,0.11999 -2.40229,0.53673 -3.6856,1.25646 -8.39454,4.70797 -1.49608,140.55758 -36.31154,263.26907 C 362.33001,635.11267 316.74333,591.03074 254.03368,555.90313 169.27316,508.42345 85.42341,495.27434 66.863857,526.54398 48.30433,557.81361 102.01099,621.71376 186.77149,669.19344 c 71.43348,40.01436 142.0797,55.54086 173.68387,40.751 -9.09197,23.66954 -19.90659,46.29315 -33.3798,66.38267 -88.23445,131.56375 -232.196724,98.0808 -236.087779,105.45841 -41.006637,77.74736 169.506259,54.83628 257.740669,-76.72748 21.06504,-31.40947 37.9137,-71.95317 50.84453,-115.13311 0.3144,0.55032 0.48191,1.19103 0.83763,1.71716 20.36666,30.12381 101.07915,8.79333 180.17556,-47.61962 79.09642,-56.41297 126.74649,-126.63981 106.37987,-156.76363 -20.36664,-30.12382 -101.0792,-8.79334 -180.17562,47.61962 -39.63151,28.26591 -71.3868,59.99135 -90.63225,88.41251 22.98181,-112.86803 21.08668,-221.80062 -1.80091,-219.4607 z"
     id="path2195"
     style="fill:none;stroke:#000000;stroke-width:22.79040527;stroke-linecap:round;stroke-linejoin:round;stroke-miterlimit:4;stroke-opacity:1;stroke-dasharray:none;stroke-dashoffset:0" />
  <path
     d="m 521.87211,275.23304 c -43.01606,-29.58772 2.17555,-28.10945 -47.10459,-10.86759 -26.51418,9.27664 3.60143,50.21506 11.5895,23.28462 14.8469,-50.05381 27.40597,-6.61722 -4.22043,-48.15739 -17.01594,-22.34985 -46.64446,18.94247 -18.56363,18.21761 52.19194,-1.34723 14.76226,24.01979 44.49622,-18.89531 15.99775,-23.08961 -32.42929,-38.50798 -23.06246,-12.02552 17.40949,49.22117 -18.28239,21.46227 31.7206,36.47944 26.9031,8.07969 26.60206,-42.7417 4.31025,-25.64979 -41.43228,31.7676 -26.0614,-10.75537 -24.8918,41.44086 0.62927,28.08312 48.87026,12.09215 25.72634,-3.82693 z"
     transform="matrix(5.6624103,0,0,5.6624103,-2378.899,-1143.7704)"
     id="path1549"
     style="fill:none;stroke:#000000;stroke-width:4.02476978;stroke-linecap:butt;stroke-linejoin:round;stroke-miterlimit:4;stroke-opacity:1;stroke-dashoffset:0" />
  <path
     d="m 539.80589,261.93216 a 8.8174267,8.8174267 0 1 1 -17.63485,0 8.8174267,8.8174267 0 1 1 17.63485,0 z"
     transform="matrix(5.6624103,0,0,5.6624103,-2583.6883,-1179.3119)"
     id="path1551"
     style="fill:none;stroke:#000000;stroke-width:4.02476978;stroke-linecap:butt;stroke-linejoin:round;stroke-miterlimit:4;stroke-opacity:1;stroke-dashoffset:0" />
</svg>
