<?xml version="1.0" encoding="UTF-8" standalone="no"?>
<!-- Created with Inkscape (http://www.inkscape.org/) -->

<svg
   xmlns:dc="http://purl.org/dc/elements/1.1/"
   xmlns:cc="http://creativecommons.org/ns#"
   xmlns:rdf="http://www.w3.org/1999/02/22-rdf-syntax-ns#"
   xmlns:svg="http://www.w3.org/2000/svg"
   xmlns="http://www.w3.org/2000/svg"
   version="1.2"
   width="600"
   height="600"
   id="svg2">
  <defs
     id="defs4" />
  <metadata
     id="metadata7">
    <rdf:RDF>
      <cc:Work
         rdf:about="">
        <dc:format>image/svg+xml</dc:format>
        <dc:type
           rdf:resource="http://purl.org/dc/dcmitype/StillImage" />
        <dc:title></dc:title>
      </cc:Work>
    </rdf:RDF>
  </metadata>
  <g
     transform="translate(0,-452.36218)"
     id="layer1">
    <path
       d="m 0,752.36218 300,200 300,-200"
       id="path3867"
       style="fill:none;stroke:#800080;stroke-width:4;stroke-linecap:butt;stroke-linejoin:miter;stroke-miterlimit:4;stroke-opacity:1;stroke-dasharray:none" />
    <path
       d="m 0,552.36218 300,200 300,-200"
       id="path3867-0"
       style="fill:none;stroke:#800080;stroke-width:4;stroke-linecap:butt;stroke-linejoin:miter;stroke-miterlimit:4;stroke-opacity:1;stroke-dasharray:none" />
    <g
       transform="matrix(1.5650218,0,0,3.1737587,-227.46125,345.76136)"
       id="flowRoot4007"
       style="font-size:72px;font-style:normal;font-variant:normal;font-weight:normal;font-stretch:normal;text-align:center;line-height:100%;writing-mode:lr-tb;text-anchor:middle;fill:#000000;fill-opacity:1;stroke:none;font-family:Liberation Mono;-inkscape-font-specification:Liberation Mono">
      <path
         d="m 232.44141,111.37864 0,41.9414 -6.67969,0 0,-41.9414 -15.57422,0 0,-5.48438 37.82812,0 0,5.48438 -15.57421,0"
         id="path4109"
         style="stroke:none" />
      <path
         d="m 256.38281,153.32004 0,-47.42578 32.3086,0 0,5.48438 -25.59375,0 0,14.83593 23.48437,0 0,5.41407 -23.48437,0 0,16.20703 27.03515,0 0,5.48437 -33.75,0"
         id="path4111"
         style="stroke:none" />
      <path
         d="m 327.50391,153.32004 -12.86719,-20.21484 -8.36719,0 0,20.21484 -6.71484,0 0,-47.42578 16.94531,0 c 2.81247,5e-5 5.26169,0.30474 7.34766,0.91406 2.10934,0.58599 3.85543,1.45317 5.23828,2.60157 1.40621,1.12504 2.44918,2.49613 3.1289,4.11328 0.70309,1.61722 1.05465,3.44535 1.05469,5.48437 -4e-5,1.45316 -0.23441,2.90628 -0.70312,4.35938 -0.44535,1.42971 -1.1602,2.75393 -2.14454,3.97265 -0.98441,1.19534 -2.23831,2.23831 -3.76171,3.12891 -1.52347,0.89065 -3.3516,1.51174 -5.48438,1.86328 l 14.0625,20.98828 -7.73437,0 m -0.98438,-34.20703 c -3e-5,-5.22652 -3.56253,-7.8398 -10.6875,-7.83984 l -9.5625,0 0,16.52344 9.84375,0 c 1.94529,2e-5 3.57419,-0.23435 4.88672,-0.70313 1.33591,-0.46872 2.40231,-1.08982 3.19922,-1.86328 0.82028,-0.79685 1.40622,-1.72263 1.75781,-2.77734 0.37497,-1.05466 0.56247,-2.16794 0.5625,-3.33985"
         id="path4113"
         style="stroke:none" />
      <path
         d="m 361.95703,111.37864 0,41.9414 -6.67969,0 0,-41.9414 -15.57422,0 0,-5.48438 37.82813,0 0,5.48438 -15.57422,0"
         id="path4115"
         style="stroke:none" />
      <path
         d="m 413.84766,153.32004 -12.86719,-20.21484 -8.36719,0 0,20.21484 -6.71484,0 0,-47.42578 16.94531,0 c 2.81247,5e-5 5.26169,0.30474 7.34766,0.91406 2.10934,0.58599 3.85543,1.45317 5.23828,2.60157 1.40621,1.12504 2.44918,2.49613 3.1289,4.11328 0.70309,1.61722 1.05465,3.44535 1.05469,5.48437 -4e-5,1.45316 -0.23441,2.90628 -0.70312,4.35938 -0.44535,1.42971 -1.1602,2.75393 -2.14454,3.97265 -0.98441,1.19534 -2.23831,2.23831 -3.76171,3.12891 -1.52347,0.89065 -3.3516,1.51174 -5.48438,1.86328 l 14.0625,20.98828 -7.73437,0 m -0.98438,-34.20703 c -3e-5,-5.22652 -3.56253,-7.8398 -10.6875,-7.83984 l -9.5625,0 0,16.52344 9.84375,0 c 1.94529,2e-5 3.57419,-0.23435 4.88672,-0.70313 1.33591,-0.46872 2.40231,-1.08982 3.19922,-1.86328 0.82028,-0.79685 1.40622,-1.72263 1.75781,-2.77734 0.37497,-1.05466 0.56247,-2.16794 0.5625,-3.33985"
         id="path4117"
         style="stroke:none" />
      <path
         d="m 429.07031,153.32004 0,-47.42578 32.3086,0 0,5.48438 -25.59375,0 0,14.83593 23.48437,0 0,5.41407 -23.48437,0 0,16.20703 27.03515,0 0,5.48437 -33.75,0"
         id="path4119"
         style="stroke:none" />
    </g>
  </g>
</svg>
