<?xml version="1.0" encoding="UTF-8" standalone="no"?>
<!-- Created with Inkscape (http://www.inkscape.org/) -->

<svg
   xmlns:dc="http://purl.org/dc/elements/1.1/"
   xmlns:cc="http://creativecommons.org/ns#"
   xmlns:rdf="http://www.w3.org/1999/02/22-rdf-syntax-ns#"
   xmlns:svg="http://www.w3.org/2000/svg"
   xmlns="http://www.w3.org/2000/svg"
   xmlns:sodipodi="http://sodipodi.sourceforge.net/DTD/sodipodi-0.dtd"
   xmlns:inkscape="http://www.inkscape.org/namespaces/inkscape"
   width="600"
   height="600"
   id="svg2"
   version="1.1"
   inkscape:version="0.48.2 r9819"
   sodipodi:docname="tranchee_pente_text2.svg">
  <defs
     id="defs4" />
  <sodipodi:namedview
     id="base"
     pagecolor="#e0e0e1"
     bordercolor="#666666"
     borderopacity="1.0"
     inkscape:pageopacity="1"
     inkscape:pageshadow="2"
     inkscape:zoom="1"
     inkscape:cx="151.39169"
     inkscape:cy="242.30927"
     inkscape:document-units="px"
     inkscape:current-layer="layer1"
     showgrid="true"
     showguides="true"
     inkscape:guide-bbox="true"
     inkscape:window-width="1680"
     inkscape:window-height="964"
     inkscape:window-x="0"
     inkscape:window-y="30"
     inkscape:window-maximized="1">
    <inkscape:grid
       type="xygrid"
       id="grid3753"
       empspacing="5"
       visible="true"
       enabled="true"
       snapvisiblegridlinesonly="true" />
    <sodipodi:guide
       orientation="1,0"
       position="300,620"
       id="guide3755" />
    <sodipodi:guide
       orientation="0,1"
       position="-50,300"
       id="guide3757" />
    <sodipodi:guide
       orientation="1,0"
       position="50,410"
       id="guide3910" />
    <sodipodi:guide
       orientation="0,1"
       position="650,550"
       id="guide3912" />
    <sodipodi:guide
       orientation="1,0"
       position="550,490"
       id="guide3914" />
    <sodipodi:guide
       orientation="0,1"
       position="680,50"
       id="guide3924" />
    <sodipodi:guide
       orientation="1,0"
       position="100,590"
       id="guide3124" />
    <sodipodi:guide
       orientation="0,1"
       position="650,500"
       id="guide3126" />
    <sodipodi:guide
       orientation="1,0"
       position="500,550"
       id="guide3128" />
    <sodipodi:guide
       orientation="0,1"
       position="0,100"
       id="guide3130" />
  </sodipodi:namedview>
  <metadata
     id="metadata7">
    <rdf:RDF>
      <cc:Work
         rdf:about="">
        <dc:format>image/svg+xml</dc:format>
        <dc:type
           rdf:resource="http://purl.org/dc/dcmitype/StillImage" />
        <dc:title />
      </cc:Work>
    </rdf:RDF>
  </metadata>
  <g
     inkscape:label="Calque 1"
     inkscape:groupmode="layer"
     id="layer1"
     transform="translate(0,-452.36218)">
    <path
       style="fill:none;stroke:#800080;stroke-width:4;stroke-linecap:butt;stroke-linejoin:miter;stroke-miterlimit:4;stroke-opacity:1;stroke-dasharray:none"
       d="m 0,552.36218 300,200 300,-200"
       id="path3867-1"
       inkscape:connector-curvature="0" />
    <path
       style="fill:none;stroke:#800080;stroke-width:4;stroke-linecap:butt;stroke-linejoin:miter;stroke-opacity:1;stroke-miterlimit:4;stroke-dasharray:none"
       d="M 0,300 300,500 600,300"
       id="path3867"
       inkscape:connector-curvature="0"
       transform="translate(0,452.36218)" />
    <path
       inkscape:connector-curvature="0"
       id="path3790"
       style="font-size:144px;font-style:normal;font-variant:normal;font-weight:normal;font-stretch:normal;fill:#000000;fill-opacity:1;stroke:none;stroke-width:1.00201106000000006;stroke-linejoin:round;stroke-miterlimit:4;font-family:Liberation Mono;-inkscape-font-specification:Liberation Mono"
       d="m 123.87175,579.24086 0,106.38682 -7.00627,0 0,-106.38682 -16.33568,0 0,-13.91143 39.67763,0 0,13.91143 -16.33568,0" />
    <path
       inkscape:connector-curvature="0"
       id="path3792"
       style="font-size:144px;font-style:normal;font-variant:normal;font-weight:normal;font-stretch:normal;fill:#000000;fill-opacity:1;stroke:none;stroke-width:1.00201106000000006;stroke-linejoin:round;stroke-miterlimit:4;font-family:Liberation Mono;-inkscape-font-specification:Liberation Mono"
       d="m 181.54444,603.76423 c -1.15545,-0.47553 -2.37233,-0.86194 -3.65064,-1.15928 -1.25378,-0.35663 -2.64274,-0.53497 -4.16688,-0.53506 -2.06504,9e-5 -3.92108,1.01074 -5.56815,3.03198 -1.64711,2.0214 -3.03607,4.78584 -4.16689,8.29336 -1.13085,3.4482 -2.00356,7.49083 -2.61813,12.12792 -0.59002,4.63719 -0.88502,9.57158 -0.885,14.80319 l 0,45.30134 -6.63753,0 0,-62.51229 c -1e-5,-3.32916 -0.0738,-6.71784 -0.22124,-10.16604 -0.14752,-3.44806 -0.3196,-6.68812 -0.51626,-9.72018 -0.19667,-3.09134 -0.40563,-5.85579 -0.62687,-8.29335 -0.22126,-2.43738 -0.40564,-4.36953 -0.55313,-5.79643 l 6.30564,0 c 0.17208,1.4269 0.34416,3.06179 0.51626,4.90468 0.19665,1.84305 0.38102,3.77519 0.55312,5.79642 0.17207,1.96196 0.31957,3.95355 0.4425,5.97479 0.12291,2.0214 0.20895,3.89409 0.25813,5.61807 l 0.18437,0 c 0.68832,-3.68586 1.41353,-7.01508 2.17564,-9.9877 0.76207,-2.97244 1.65936,-5.49908 2.69188,-7.57994 1.05707,-2.08068 2.29853,-3.68584 3.72439,-4.81549 1.42581,-1.12947 3.14665,-1.69425 5.16252,-1.69435 1.37664,10e-5 2.72872,0.14872 4.05626,0.44588 1.32747,0.29735 2.50747,0.65405 3.54001,1.07011 l 0,14.89237" />
    <path
       inkscape:connector-curvature="0"
       id="path3794"
       style="font-size:144px;font-style:normal;font-variant:normal;font-weight:normal;font-stretch:normal;fill:#000000;fill-opacity:1;stroke:none;stroke-width:1.00201106000000006;stroke-linejoin:round;stroke-miterlimit:4;font-family:Liberation Mono;-inkscape-font-specification:Liberation Mono"
       d="m 228.8921,675.72917 c 0.36871,0 0.73746,-0.0595 1.10626,-0.17836 0.3687,-0.11884 0.72516,-0.26752 1.06937,-0.44588 l 0,9.9877 c -0.83587,0.47561 -1.67171,0.83231 -2.5075,1.07011 -0.8113,0.2378 -1.68401,0.3567 -2.61814,0.3567 -1.25379,0 -2.33546,-0.38643 -3.24501,-1.15928 -0.88504,-0.83231 -1.61024,-2.05105 -2.17563,-3.65622 -0.56545,-1.6646 -0.99566,-3.68592 -1.29063,-6.06396 -0.29503,-2.43745 -0.47941,-5.26135 -0.55313,-8.4717 l -0.22125,0 c -0.68836,3.09145 -1.45045,5.88562 -2.28626,8.38253 -0.83586,2.49694 -1.79461,4.63714 -2.87626,6.42066 -1.08169,1.72408 -2.32315,3.0617 -3.72438,4.01291 -1.40128,0.95121 -3.01149,1.42682 -4.83065,1.42682 -3.88419,0 -6.80961,-2.55637 -8.77627,-7.66912 -1.96668,-5.11274 -2.95002,-12.12791 -2.95001,-21.04551 -1e-5,-6.36118 0.47937,-11.5631 1.43813,-15.60578 0.98332,-4.10205 2.26166,-7.31238 3.83501,-9.63099 1.57333,-2.31852 3.35562,-3.92369 5.34689,-4.81549 2.01583,-0.95116 4.05625,-1.4565 6.12127,-1.516 l 8.70253,-0.35671 0,-5.26136 c -3e-5,-3.98314 -0.17211,-7.37181 -0.51625,-10.16606 -0.31961,-2.7941 -0.82357,-5.05322 -1.51188,-6.77737 -0.66378,-1.72398 -1.51191,-2.97244 -2.54439,-3.74538 -1.03252,-0.83223 -2.23711,-1.24838 -3.61376,-1.24847 -1.22919,9e-5 -2.34773,0.2379 -3.35563,0.71341 -0.98336,0.41624 -1.83148,1.21882 -2.54439,2.40775 -0.71293,1.12965 -1.30293,2.70508 -1.77,4.72632 -0.44252,1.96195 -0.73752,4.45886 -0.885,7.49077 l -6.93253,-1.51598 c 0.24583,-3.80476 0.70062,-7.28263 1.36438,-10.43358 0.68833,-3.21025 1.64708,-5.97469 2.87626,-8.29336 1.22916,-2.31848 2.76562,-4.102 4.60939,-5.35055 1.86833,-1.30782 4.11771,-1.96177 6.74815,-1.96187 4.91666,10e-5 8.60416,2.79428 11.06254,8.38253 2.48288,5.52899 3.72435,13.55481 3.72438,24.07749 l 0,41.55595 c -3e-5,4.75607 0.25809,8.35282 0.77438,10.79029 0.51621,2.37803 1.49955,3.56704 2.95001,3.56704 m -22.45695,-0.53506 c 2.04041,10e-6 3.81041,-0.92147 5.31002,-2.76446 1.49956,-1.90241 2.74102,-4.28042 3.72439,-7.13407 1.00789,-2.8536 1.75768,-6.00448 2.24938,-9.45264 0.49164,-3.4481 0.73747,-6.74761 0.7375,-9.89852 l 0,-7.93665 -7.00627,0.3567 c -1.35211,0.0595 -2.71649,0.32703 -4.09314,0.80258 -1.35211,0.4162 -2.58127,1.33768 -3.68751,2.76446 -1.08168,1.42685 -1.96669,3.50761 -2.65501,6.2423 -0.68835,2.67532 -1.03252,6.27207 -1.03251,10.79029 -1e-5,4.87496 0.54083,8.7987 1.62251,11.77122 1.10624,2.97253 2.71645,4.4588 4.83064,4.45879" />
    <path
       inkscape:connector-curvature="0"
       id="path3796"
       style="font-size:144px;font-style:normal;font-variant:normal;font-weight:normal;font-stretch:normal;fill:#000000;fill-opacity:1;stroke:none;stroke-width:1.00201106000000006;stroke-linejoin:round;stroke-miterlimit:4;font-family:Liberation Mono;-inkscape-font-specification:Liberation Mono"
       d="m 265.58285,685.62768 0,-61.97722 c -3e-5,-4.75599 -0.20899,-8.65 -0.62688,-11.68205 -0.39336,-3.09135 -0.95878,-5.52882 -1.69626,-7.31242 -0.71294,-1.84289 -1.56107,-3.12107 -2.54438,-3.83456 -0.98336,-0.71333 -2.06503,-1.07003 -3.24501,-1.07011 -1.45044,8e-5 -2.81482,0.68376 -4.09314,2.05104 -1.25377,1.308 -2.36002,3.24013 -3.31876,5.79644 -0.93418,2.49699 -1.67169,5.61815 -2.2125,9.36346 -0.54086,3.686 -0.81127,7.93672 -0.81126,12.75216 l 0,55.91326 -6.63752,0 0,-75.88866 c -1e-5,-2.02124 -0.0123,-4.13174 -0.0369,-6.33149 -1e-5,-2.25905 -0.0123,-4.36954 -0.0369,-6.33149 -0.0246,-2.02123 -0.0492,-3.74529 -0.0737,-5.17219 -0.0246,-1.42673 -0.0492,-2.34821 -0.0737,-2.76446 l 6.26877,0 c 0.0246,0.29735 0.0491,1.09993 0.0737,2.40775 0.0246,1.308 0.0491,2.82399 0.0738,4.54796 0.0491,1.66471 0.086,3.38878 0.11063,5.17221 0.0246,1.72415 0.0369,3.18068 0.0369,4.36961 l 0.11063,0 c 0.58999,-2.79409 1.27832,-5.32073 2.06501,-7.57994 0.81123,-2.25904 1.73311,-4.16145 2.76563,-5.70726 1.05707,-1.60507 2.23707,-2.82381 3.54002,-3.65621 1.30289,-0.89166 2.7656,-1.33754 4.38813,-1.33764 2.0404,10e-5 3.84728,0.65405 5.42065,1.96187 1.5733,1.30801 2.88851,3.32933 3.94563,6.06395 1.08164,2.73482 1.89289,6.2424 2.43376,10.52276 0.56538,4.28052 0.84809,9.42299 0.84813,15.42743 l 0,64.2958 -6.6744,0" />
    <path
       inkscape:connector-curvature="0"
       id="path3798"
       style="font-size:144px;font-style:normal;font-variant:normal;font-weight:normal;font-stretch:normal;fill:#000000;fill-opacity:1;stroke:none;stroke-width:1.00201106000000006;stroke-linejoin:round;stroke-miterlimit:4;font-family:Liberation Mono;-inkscape-font-specification:Liberation Mono"
       d="m 283.65166,637.29436 c 0,-9.69039 0.52854,-17.74594 1.58563,-24.16666 1.05708,-6.42059 2.44604,-11.53333 4.16688,-15.33825 1.74542,-3.80475 3.72438,-6.48002 5.9369,-8.02583 2.21249,-1.60507 4.48646,-2.40765 6.8219,-2.40775 2.40915,10e-5 4.5602,0.74323 6.45315,2.2294 1.89289,1.48636 3.51539,3.5374 4.86751,6.15313 1.37664,2.55647 2.49518,5.58844 3.35564,9.09594 0.86038,3.50766 1.45038,7.28277 1.77,11.32534 l -7.08002,1.24846 c -0.39337,-5.40993 -1.3767,-9.66065 -2.95001,-12.75215 -1.57337,-3.1508 -3.81045,-4.72623 -6.71127,-4.72632 -2.1142,9e-5 -3.89649,0.83239 -5.34689,2.49692 -1.42586,1.60525 -2.58128,3.98327 -3.46627,7.13407 -0.86043,3.09151 -1.48731,6.95579 -1.88063,11.59287 -0.36876,4.57775 -0.55313,9.83912 -0.55312,15.78413 -10e-6,5.94509 0.18436,11.29565 0.55312,16.05166 0.39332,4.69661 1.0202,8.67981 1.88063,11.94956 0.88499,3.2698 2.04041,5.76672 3.46627,7.49077 1.4504,1.72409 3.2204,2.58611 5.31002,2.58611 2.65498,0 4.85519,-1.57543 6.60064,-4.72633 1.74539,-3.15086 2.82706,-7.96635 3.24501,-14.44649 l 7.00627,1.07011 c -0.22129,3.98321 -0.74983,7.81778 -1.58563,11.50369 -0.83587,3.68595 -1.95441,6.92601 -3.35563,9.72017 -1.40129,2.79418 -3.07296,5.0533 -5.01502,6.77736 -1.94211,1.66462 -4.14233,2.49693 -6.60064,2.49693 -3.36796,0 -6.23192,-1.27819 -8.59191,-3.83456 -2.33543,-2.55638 -4.24065,-6.06396 -5.71564,-10.52276 -1.45043,-4.51823 -2.50752,-9.80932 -3.17126,-15.87329 -0.66376,-6.12338 -0.99563,-12.75212 -0.99563,-19.88623" />
    <path
       inkscape:connector-curvature="0"
       id="path3800"
       style="font-size:144px;font-style:normal;font-variant:normal;font-weight:normal;font-stretch:normal;fill:#000000;fill-opacity:1;stroke:none;stroke-width:1.00201106000000006;stroke-linejoin:round;stroke-miterlimit:4;font-family:Liberation Mono;-inkscape-font-specification:Liberation Mono"
       d="m 330.96244,553.29068 6.6744,0 0,34.7786 c -2e-5,2.97262 -0.0369,5.97488 -0.11063,9.00676 -0.0738,2.97262 -0.14751,5.82625 -0.22125,8.56088 l 0.11063,0 c 0.58998,-2.79409 1.27832,-5.32073 2.065,-7.57994 0.78666,-2.25904 1.68395,-4.16145 2.69189,-5.70726 1.0079,-1.60507 2.15103,-2.82381 3.42938,-3.65621 1.3029,-0.89166 2.74103,-1.33754 4.3144,-1.33764 2.04039,10e-5 3.85956,0.65405 5.45751,1.96187 1.59789,1.30801 2.94998,3.32933 4.05626,6.06395 1.10622,2.73482 1.94206,6.2424 2.50751,10.52276 0.58997,4.28052 0.88497,9.42299 0.88501,15.42743 l 0,64.2958 -6.6744,0 0,-61.97722 c -3e-5,-4.75599 -0.20899,-8.65 -0.62688,-11.68205 -0.39336,-3.09135 -0.95878,-5.52882 -1.69625,-7.31242 -0.71295,-1.84289 -1.56108,-3.12107 -2.54439,-3.83456 -0.98336,-0.71333 -2.06503,-1.07003 -3.24501,-1.07011 -1.45044,8e-5 -2.81482,0.68376 -4.09314,2.05104 -1.25377,1.308 -2.36002,3.24013 -3.31876,5.79644 -0.93418,2.49699 -1.67168,5.61815 -2.2125,9.36346 -0.54085,3.686 -0.81127,7.93672 -0.81126,12.75216 l 0,55.91326 -6.63752,0 0,-132.337" />
    <path
       inkscape:connector-curvature="0"
       id="path3802"
       style="font-size:144px;font-style:normal;font-variant:normal;font-weight:normal;font-stretch:normal;fill:#000000;fill-opacity:1;stroke:none;stroke-width:1.00201106000000006;stroke-linejoin:round;stroke-miterlimit:4;font-family:Liberation Mono;-inkscape-font-specification:Liberation Mono"
       d="m 381.29698,640.77222 c -1e-5,5.05334 0.23353,9.72021 0.70063,14.00061 0.46707,4.22101 1.1677,7.87722 2.10188,10.96864 0.93416,3.03199 2.08958,5.41001 3.46626,7.13407 1.40124,1.66462 3.01145,2.49692 4.83065,2.49692 1.35206,0 2.59352,-0.3567 3.72438,-1.07011 1.15539,-0.77285 2.1879,-1.81323 3.09751,-3.12116 0.90956,-1.3079 1.67164,-2.85361 2.28626,-4.63714 0.61455,-1.84295 1.06934,-3.83454 1.36438,-5.97479 l 5.82627,4.01291 c -0.39337,2.6753 -0.98338,5.3803 -1.77001,8.11501 -0.7867,2.67528 -1.83149,5.11276 -3.13438,7.31243 -1.30296,2.14022 -2.88858,3.92374 -4.75689,5.35055 -1.86837,1.36736 -4.08087,2.05104 -6.63752,2.05104 -2.82712,0 -5.35921,-1.07011 -7.59628,-3.21033 -2.23711,-2.14021 -4.13003,-5.32082 -5.67877,-9.54181 -1.54876,-4.22099 -2.74106,-9.48236 -3.57689,-15.78414 -0.81125,-6.36118 -1.21688,-13.73304 -1.21688,-22.11562 0,-9.27423 0.47937,-17.06225 1.43813,-23.36407 0.98334,-6.30169 2.29855,-11.38471 3.94564,-15.24908 1.64708,-3.86419 3.54,-6.62865 5.67877,-8.29335 2.16333,-1.66453 4.42499,-2.49683 6.78502,-2.49693 3.22041,10e-5 5.93687,1.24856 8.1494,3.74538 2.23707,2.49703 4.05623,6.00461 5.45752,10.52276 1.40122,4.45888 2.40914,9.83915 3.02376,16.14083 0.63913,6.30183 0.95872,13.25754 0.95876,20.86716 l 0,2.14022 -28.4676,0 m 10.95192,-41.55596 c -1.13086,9e-5 -2.32316,0.44597 -3.57689,1.33764 -1.22919,0.83239 -2.37232,2.34839 -3.42939,4.54797 -1.0571,2.19975 -1.9544,5.202 -2.69188,9.00676 -0.71293,3.74546 -1.10627,8.53122 -1.18001,14.35732 l 21.53508,0 c -0.1967,-5.58829 -0.61462,-10.25516 -1.25376,-14.00061 -0.6392,-3.74532 -1.43816,-6.74756 -2.39688,-9.00676 -0.9342,-2.25905 -2.00358,-3.86421 -3.20814,-4.81551 -1.20461,-0.95112 -2.47066,-1.42672 -3.79813,-1.42681 m -3.90877,-20.6888 0,-1.78352 8.37065,-21.31304 7.2644,0 0,2.58611 -11.06253,20.51045 -4.57252,0" />
    <path
       inkscape:connector-curvature="0"
       id="path3804"
       style="font-size:144px;font-style:normal;font-variant:normal;font-weight:normal;font-stretch:normal;fill:#000000;fill-opacity:1;stroke:none;stroke-width:1.00201106000000006;stroke-linejoin:round;stroke-miterlimit:4;font-family:Liberation Mono;-inkscape-font-specification:Liberation Mono"
       d="m 426.57963,640.77222 c -1e-5,5.05334 0.23353,9.72021 0.70063,14.00061 0.46707,4.22101 1.1677,7.87722 2.10188,10.96864 0.93416,3.03199 2.08958,5.41001 3.46626,7.13407 1.40124,1.66462 3.01145,2.49692 4.83065,2.49692 1.35206,0 2.59352,-0.3567 3.72438,-1.07011 1.1554,-0.77285 2.1879,-1.81323 3.09751,-3.12116 0.90956,-1.3079 1.67164,-2.85361 2.28626,-4.63714 0.61456,-1.84295 1.06934,-3.83454 1.36438,-5.97479 l 5.82627,4.01291 c -0.39337,2.6753 -0.98337,5.3803 -1.77001,8.11501 -0.7867,2.67528 -1.83149,5.11276 -3.13438,7.31243 -1.30296,2.14022 -2.88858,3.92374 -4.75689,5.35055 -1.86837,1.36736 -4.08087,2.05104 -6.63752,2.05104 -2.82712,0 -5.35921,-1.07011 -7.59628,-3.21033 -2.2371,-2.14021 -4.13002,-5.32082 -5.67877,-9.54181 -1.54876,-4.22099 -2.74106,-9.48236 -3.57689,-15.78414 -0.81125,-6.36118 -1.21688,-13.73304 -1.21688,-22.11562 0,-9.27423 0.47937,-17.06225 1.43814,-23.36407 0.98333,-6.30169 2.29854,-11.38471 3.94564,-15.24908 1.64707,-3.86419 3.53999,-6.62865 5.67876,-8.29335 2.16333,-1.66453 4.425,-2.49683 6.78502,-2.49693 3.22041,10e-5 5.93687,1.24856 8.1494,3.74538 2.23707,2.49703 4.05623,6.00461 5.45752,10.52276 1.40122,4.45888 2.40914,9.83915 3.02377,16.14083 0.63912,6.30183 0.95871,13.25754 0.95875,20.86716 l 0,2.14022 -28.4676,0 m 10.95192,-41.55596 c -1.13086,9e-5 -2.32316,0.44597 -3.57689,1.33764 -1.22919,0.83239 -2.37232,2.34839 -3.42939,4.54797 -1.0571,2.19975 -1.95439,5.202 -2.69188,9.00676 -0.71293,3.74546 -1.10627,8.53122 -1.18001,14.35732 l 21.53508,0 c -0.1967,-5.58829 -0.61462,-10.25516 -1.25376,-14.00061 -0.6392,-3.74532 -1.43816,-6.74756 -2.39688,-9.00676 -0.9342,-2.25905 -2.00358,-3.86421 -3.20814,-4.81551 -1.20461,-0.95112 -2.47065,-1.42672 -3.79813,-1.42681" />
    <path
       inkscape:connector-curvature="0"
       id="path3806"
       style="font-size:144px;font-style:normal;font-variant:normal;font-weight:normal;font-stretch:normal;fill:#000000;fill-opacity:1;stroke:none;stroke-width:1.00201106000000006;stroke-linejoin:round;stroke-miterlimit:4;font-family:Liberation Mono;-inkscape-font-specification:Liberation Mono"
       d="m 499.07613,658.07234 c -4e-5,4.51827 -0.3688,8.59062 -1.10626,12.21709 -0.71295,3.6265 -1.75775,6.71792 -3.13439,9.27429 -1.3767,2.49694 -3.07295,4.42907 -5.08876,5.79644 -1.99128,1.36736 -4.27754,2.05104 -6.85877,2.05104 -2.31087,0 -4.40045,-0.41615 -6.26877,-1.24846 -1.84378,-0.77286 -3.46628,-2.08078 -4.86752,-3.92374 -1.40127,-1.84296 -2.58127,-4.28044 -3.54001,-7.31243 -0.93418,-3.09141 -1.62252,-6.89624 -2.06501,-11.41451 l 5.86314,-2.76444 c 0.29499,3.2698 0.76208,5.88563 1.40126,7.84748 0.66374,1.90243 1.45041,3.35896 2.36001,4.36961 0.93415,1.01067 2.00353,1.69435 3.20813,2.05105 1.20457,0.29726 2.50749,0.44589 3.90877,0.44588 1.42581,10e-6 2.74102,-0.23779 3.94563,-0.71341 1.22915,-0.53505 2.28623,-1.39709 3.17126,-2.5861 0.88498,-1.24845 1.57331,-2.82388 2.06501,-4.72633 0.51622,-1.96185 0.77434,-4.36959 0.77438,-7.22324 -4e-5,-2.97251 -0.31962,-5.35053 -0.95875,-7.13407 -0.61462,-1.84294 -1.46275,-3.38865 -2.54439,-4.63715 -1.08169,-1.24841 -2.37232,-2.31853 -3.87188,-3.21033 -1.47503,-0.89171 -3.08525,-1.90238 -4.83065,-3.03197 -1.57336,-1.01062 -3.1344,-2.11046 -4.68314,-3.29952 -1.54877,-1.18896 -2.93773,-2.73467 -4.16689,-4.63714 -1.2046,-1.96182 -2.18793,-4.42901 -2.95001,-7.40159 -0.73751,-2.97248 -1.10626,-6.74759 -1.10625,-11.32534 -1e-5,-8.73917 1.30291,-15.57597 3.90876,-20.51046 2.60583,-4.9343 6.37938,-7.4015 11.32067,-7.40159 1.94206,9e-5 3.76123,0.44597 5.45752,1.33763 1.69622,0.83241 3.2081,2.19977 4.53563,4.1021 1.32748,1.84305 2.43373,4.2508 3.31877,7.22324 0.90954,2.91316 1.53642,6.42074 1.88063,10.52276 l -5.97377,1.78352 c -0.17212,-2.67521 -0.54087,-4.84516 -1.10625,-6.50985 -0.56546,-1.66453 -1.26608,-2.97244 -2.10189,-3.92374 -0.81128,-1.01058 -1.73315,-1.69425 -2.76563,-2.05103 -1.03253,-0.35663 -2.1142,-0.53498 -3.24501,-0.53507 -6.02296,9e-5 -9.03442,4.48861 -9.03441,13.46556 -1e-5,2.73479 0.25812,4.96419 0.77438,6.6882 0.54082,1.66468 1.29061,3.06176 2.24938,4.19125 0.95874,1.12964 2.10187,2.11056 3.42939,2.94282 1.32748,0.77291 2.79019,1.66467 4.38814,2.67527 1.59789,0.95126 3.23269,2.0511 4.90439,3.2995 1.69622,1.24852 3.23268,2.91314 4.60939,4.99385 1.40122,2.08082 2.54435,4.7561 3.42939,8.02584 0.90954,3.21037 1.36434,7.28272 1.36438,12.21709" />
    <path
       inkscape:connector-curvature="0"
       id="path3808"
       style="font-size:144px;font-style:normal;font-variant:normal;font-weight:normal;font-stretch:normal;fill:#000000;fill-opacity:1;stroke:none;stroke-width:1.00201106000000006;stroke-linejoin:round;stroke-miterlimit:4;font-family:Liberation Mono;-inkscape-font-specification:Liberation Mono"
       d="m 134.55385,869.60697 c -1e-5,5.05333 0.23353,9.72021 0.70063,14.00061 0.46707,4.22101 1.1677,7.87722 2.10188,10.96864 0.93416,3.03198 2.08957,5.41001 3.46626,7.13407 1.40124,1.66461 3.01145,2.49692 4.83064,2.49692 1.35207,0 2.59353,-0.3567 3.72439,-1.07011 1.15539,-0.77285 2.18789,-1.81323 3.09751,-3.12116 0.90956,-1.3079 1.67164,-2.85361 2.28625,-4.63714 0.61456,-1.84295 1.06935,-3.83454 1.36439,-5.97479 l 5.82626,4.01291 c -0.39337,2.6753 -0.98337,5.38029 -1.77,8.11501 -0.78671,2.67528 -1.8315,5.11276 -3.13439,7.31243 -1.30295,2.14022 -2.88858,3.92374 -4.75689,5.35055 -1.86837,1.36736 -4.08087,2.05104 -6.63752,2.05104 -2.82711,0 -5.3592,-1.07012 -7.59628,-3.21034 -2.2371,-2.1402 -4.13002,-5.32081 -5.67876,-9.54181 -1.54876,-4.22098 -2.74106,-9.48235 -3.57689,-15.78413 -0.81126,-6.36119 -1.21689,-13.73304 -1.21688,-22.11562 -1e-5,-9.27423 0.47937,-17.06225 1.43813,-23.36407 0.98333,-6.30169 2.29854,-11.38471 3.94564,-15.24908 1.64708,-3.86419 3.54,-6.62865 5.67877,-8.29335 2.16332,-1.66453 4.42499,-2.49683 6.78502,-2.49693 3.2204,1e-4 5.93687,1.24856 8.1494,3.74538 2.23706,2.49703 4.05623,6.0046 5.45752,10.52276 1.40122,4.45888 2.40914,9.83914 3.02376,16.14083 0.63913,6.30183 0.95871,13.25754 0.95875,20.86716 l 0,2.14022 -28.46759,0 m 10.95191,-41.55596 c -1.13086,9e-5 -2.32315,0.44596 -3.57689,1.33764 -1.22919,0.83238 -2.37231,2.34838 -3.42938,4.54797 -1.0571,2.19974 -1.9544,5.202 -2.69189,9.00676 -0.71293,3.74546 -1.10626,8.53122 -1.18,14.35732 l 21.53507,0 c -0.1967,-5.5883 -0.61462,-10.25516 -1.25376,-14.00061 -0.6392,-3.74532 -1.43815,-6.74757 -2.39688,-9.00676 -0.93419,-2.25905 -2.00357,-3.86421 -3.20813,-4.81551 -1.20462,-0.95112 -2.47066,-1.42672 -3.79814,-1.42681 m -3.90876,-20.6888 0,-1.78352 8.37065,-21.31304 7.2644,0 0,2.58611 -11.06254,20.51045 -4.57251,0" />
    <path
       inkscape:connector-curvature="0"
       id="path3810"
       style="font-size:144px;font-style:normal;font-variant:normal;font-weight:normal;font-stretch:normal;fill:#000000;fill-opacity:1;stroke:none;stroke-width:1.00201106000000006;stroke-linejoin:round;stroke-miterlimit:4;font-family:Liberation Mono;-inkscape-font-specification:Liberation Mono"
       d="m 208.15659,865.77241 c -4e-5,7.31246 -0.24587,14.06009 -0.7375,20.24292 -0.49171,6.18288 -1.30296,11.5037 -2.43376,15.96248 -1.13087,4.4588 -2.61816,7.96639 -4.46189,10.52275 -1.84379,2.49693 -4.11775,3.74539 -6.8219,3.74539 -1.35211,0 -2.64273,-0.29725 -3.87188,-0.89176 -1.22919,-0.5945 -2.37232,-1.54571 -3.42939,-2.85363 -1.0571,-1.30791 -2.00356,-3.00225 -2.83938,-5.08302 -0.81127,-2.08076 -1.4996,-4.60741 -2.06501,-7.57996 l -0.18438,0 c 0.0246,0.11897 0.0369,0.65398 0.0369,1.60518 0.0246,0.89176 0.0369,2.02133 0.0369,3.38867 0.0246,1.36737 0.0369,2.91309 0.0369,4.63715 0.0246,1.72407 0.0369,3.44813 0.0369,5.17221 l 0,37.72139 -6.6744,0 0,-114.41265 c 0,-2.37794 -0.0123,-4.66679 -0.0369,-6.86654 0,-2.19958 -0.0123,-4.16146 -0.0369,-5.88561 -0.0246,-1.78343 -0.0492,-3.29941 -0.0737,-4.54797 -0.0246,-1.24837 -0.0492,-2.14012 -0.0738,-2.67527 l 6.45315,0 c 0.0246,0.17844 0.0491,0.83239 0.0738,1.96186 0.0491,1.07021 0.086,2.37813 0.11062,3.92374 0.0491,1.5458 0.086,3.21042 0.11063,4.99385 0.0491,1.7836 0.0737,3.44822 0.0737,4.99385 l 0.1475,0 c 0.61457,-3.09134 1.30291,-5.76661 2.06501,-8.02583 0.78665,-2.25903 1.67165,-4.10199 2.65501,-5.52891 0.98331,-1.48617 2.08957,-2.55628 3.31875,-3.21033 1.22915,-0.7133 2.60582,-1.07001 4.13002,-1.07011 2.70415,10e-5 4.97811,1.18912 6.8219,3.56704 1.84372,2.37812 3.33101,5.7668 4.46189,10.16605 1.1308,4.33998 1.94205,9.57162 2.43375,15.69496 0.49163,6.12346 0.73747,12.90083 0.73751,20.3321 m -6.85877,0 c -4e-5,-5.94501 -0.14754,-11.23611 -0.44251,-15.87332 -0.29503,-4.63706 -0.81128,-8.53107 -1.54875,-11.68203 -0.71295,-3.21025 -1.6717,-5.64773 -2.87626,-7.31242 -1.18003,-1.66453 -2.66733,-2.49684 -4.46189,-2.49693 -1.45044,9e-5 -2.81482,0.56487 -4.09314,1.69435 -1.27836,1.07018 -2.3969,3.06177 -3.35564,5.97478 -0.93418,2.8537 -1.68397,6.83689 -2.24938,11.94956 -0.54085,5.11282 -0.81126,11.6821 -0.81125,19.70787 -1e-5,6.83686 0.22123,12.60356 0.66375,17.30013 0.46707,4.63717 1.14312,8.41228 2.02813,11.32533 0.88499,2.85365 1.97895,4.90468 3.28189,6.15314 1.3029,1.24847 2.79019,1.8727 4.46189,1.87269 1.79456,10e-6 3.29415,-0.8323 4.49877,-2.49693 1.20455,-1.72405 2.1633,-4.22097 2.87625,-7.49077 0.73747,-3.26976 1.25373,-7.31239 1.54876,-12.12792 0.31955,-4.81547 0.47934,-10.31463 0.47938,-16.49753" />
    <path
       inkscape:connector-curvature="0"
       id="path3812"
       style="font-size:144px;font-style:normal;font-variant:normal;font-weight:normal;font-stretch:normal;fill:#000000;fill-opacity:1;stroke:none;stroke-width:1.00201106000000006;stroke-linejoin:round;stroke-miterlimit:4;font-family:Liberation Mono;-inkscape-font-specification:Liberation Mono"
       d="m 253.84487,904.56392 c 0.36871,0 0.73746,-0.0595 1.10626,-0.17836 0.3687,-0.11884 0.72516,-0.26752 1.06937,-0.44588 l 0,9.9877 c -0.83587,0.4756 -1.67171,0.83231 -2.5075,1.07011 -0.8113,0.2378 -1.68401,0.3567 -2.61814,0.3567 -1.25379,0 -2.33546,-0.38643 -3.24501,-1.15928 -0.88504,-0.83231 -1.61024,-2.05105 -2.17563,-3.65622 -0.56545,-1.6646 -0.99566,-3.68592 -1.29063,-6.06396 -0.29503,-2.43746 -0.47941,-5.26135 -0.55313,-8.4717 l -0.22125,0 c -0.68836,3.09144 -1.45045,5.88562 -2.28626,8.38253 -0.83586,2.49693 -1.79461,4.63714 -2.87626,6.42066 -1.08169,1.72407 -2.32315,3.0617 -3.72438,4.01291 -1.40128,0.95121 -3.01149,1.42682 -4.83065,1.42682 -3.88419,0 -6.80961,-2.55637 -8.77627,-7.66912 -1.96668,-5.11274 -2.95002,-12.12791 -2.95001,-21.04551 -1e-5,-6.36118 0.47937,-11.5631 1.43813,-15.60578 0.98332,-4.10205 2.26166,-7.31238 3.83501,-9.631 1.57333,-2.31851 3.35562,-3.92368 5.34689,-4.81549 2.01583,-0.95116 4.05625,-1.45649 6.12127,-1.516 l 8.70253,-0.3567 0,-5.26137 c -3e-5,-3.98313 -0.17211,-7.37181 -0.51625,-10.16605 -0.31961,-2.7941 -0.82357,-5.05322 -1.51188,-6.77737 -0.66378,-1.72398 -1.51191,-2.97244 -2.54439,-3.74538 -1.03252,-0.83223 -2.23711,-1.24838 -3.61376,-1.24847 -1.22919,9e-5 -2.34773,0.23789 -3.35563,0.71341 -0.98336,0.41624 -1.83148,1.21882 -2.54439,2.40775 -0.71293,1.12964 -1.30293,2.70508 -1.77,4.72632 -0.44252,1.96195 -0.73752,4.45886 -0.885,7.49077 l -6.93253,-1.51598 c 0.24583,-3.80477 0.70062,-7.28263 1.36438,-10.43358 0.68833,-3.21025 1.64708,-5.9747 2.87626,-8.29336 1.22916,-2.31848 2.76562,-4.102 4.60939,-5.35056 1.86833,-1.30781 4.11771,-1.96176 6.74815,-1.96186 4.91666,1e-4 8.60416,2.79427 11.06254,8.38253 2.48288,5.52898 3.72435,13.55481 3.72438,24.07749 l 0,41.55595 c -3e-5,4.75607 0.25809,8.35282 0.77438,10.79029 0.51621,2.37802 1.49955,3.56704 2.95001,3.56704 m -22.45695,-0.53507 c 2.04041,2e-5 3.81041,-0.92146 5.31002,-2.76445 1.49956,-1.90241 2.74102,-4.28042 3.72439,-7.13407 1.00789,-2.8536 1.75768,-6.00448 2.24938,-9.45264 0.49164,-3.44811 0.73747,-6.74761 0.7375,-9.89852 l 0,-7.93665 -7.00627,0.3567 c -1.35211,0.0595 -2.71649,0.32703 -4.09314,0.80258 -1.35211,0.4162 -2.58127,1.33768 -3.68751,2.76446 -1.08168,1.42685 -1.96669,3.50761 -2.65501,6.2423 -0.68835,2.67532 -1.03252,6.27207 -1.03251,10.79029 -10e-6,4.87496 0.54083,8.7987 1.62251,11.77122 1.10624,2.97253 2.71645,4.4588 4.83064,4.45878" />
    <path
       inkscape:connector-curvature="0"
       id="path3814"
       style="font-size:144px;font-style:normal;font-variant:normal;font-weight:normal;font-stretch:normal;fill:#000000;fill-opacity:1;stroke:none;stroke-width:1.00201106000000006;stroke-linejoin:round;stroke-miterlimit:4;font-family:Liberation Mono;-inkscape-font-specification:Liberation Mono"
       d="m 290.53562,914.46243 0,-61.97723 c -3e-5,-4.75598 -0.20899,-8.64999 -0.62688,-11.68204 -0.39336,-3.09135 -0.95878,-5.52882 -1.69626,-7.31243 -0.71294,-1.84288 -1.56107,-3.12107 -2.54438,-3.83455 -0.98336,-0.71333 -2.06503,-1.07003 -3.24501,-1.07011 -1.45044,8e-5 -2.81482,0.68375 -4.09314,2.05104 -1.25377,1.308 -2.36002,3.24013 -3.31876,5.79644 -0.93418,2.49699 -1.67169,5.61814 -2.2125,9.36346 -0.54086,3.686 -0.81127,7.93671 -0.81126,12.75215 l 0,55.91327 -6.63752,0 0,-75.88866 c -1e-5,-2.02125 -0.0123,-4.13174 -0.0369,-6.33149 -1e-5,-2.25905 -0.0123,-4.36954 -0.0369,-6.33149 -0.0246,-2.02123 -0.0492,-3.74529 -0.0737,-5.1722 -0.0246,-1.42672 -0.0492,-2.3482 -0.0737,-2.76445 l 6.26877,0 c 0.0246,0.29735 0.0491,1.09993 0.0737,2.40775 0.0246,1.308 0.0491,2.82399 0.0738,4.54796 0.0491,1.66471 0.086,3.38878 0.11063,5.17221 0.0246,1.72415 0.0369,3.18068 0.0369,4.36961 l 0.11063,0 c 0.58999,-2.79409 1.27832,-5.32073 2.06501,-7.57994 0.81123,-2.25904 1.73311,-4.16146 2.76563,-5.70726 1.05707,-1.60507 2.23707,-2.82381 3.54002,-3.65621 1.30289,-0.89166 2.7656,-1.33754 4.38813,-1.33764 2.0404,1e-4 3.84728,0.65405 5.42065,1.96186 1.5733,1.30802 2.88851,3.32934 3.94563,6.06396 1.08164,2.73482 1.89289,6.2424 2.43376,10.52276 0.56538,4.28052 0.84809,9.42299 0.84813,15.42743 l 0,64.2958 -6.6744,0" />
    <path
       inkscape:connector-curvature="0"
       id="path3816"
       style="font-size:144px;font-style:normal;font-variant:normal;font-weight:normal;font-stretch:normal;fill:#000000;fill-opacity:1;stroke:none;stroke-width:1.00201106000000006;stroke-linejoin:round;stroke-miterlimit:4;font-family:Liberation Mono;-inkscape-font-specification:Liberation Mono"
       d="m 335.59702,898.94583 c -1.20462,6.24232 -2.80254,10.79028 -4.79377,13.64391 -1.99128,2.79417 -4.4742,4.19127 -7.44878,4.19127 -4.96586,0 -8.61649,-4.13182 -10.95191,-12.39545 -2.33542,-8.26361 -3.50313,-20.7185 -3.50313,-37.3647 0,-33.64894 4.81834,-50.47345 14.45504,-50.47354 2.97458,9e-5 5.4575,1.27829 7.44878,3.83457 2.01581,2.55646 3.62602,6.74773 4.83064,12.57379 l 0.0737,0 c -3e-5,-0.29717 -0.0123,-1.07003 -0.0369,-2.31857 -3e-5,-1.24838 -3e-5,-2.61574 0,-4.10209 -3e-5,-1.48618 -0.0123,-2.88327 -0.0369,-4.19127 -4e-5,-1.36727 -4e-5,-2.31847 0,-2.85363 l 0,-37.36469 6.63752,0 0,112.45079 c -4e-5,2.31858 -4e-5,4.54797 0,6.68818 0.0245,2.14023 0.0491,4.10209 0.0737,5.88561 0.0245,1.78352 0.0491,3.32923 0.0738,4.63715 0.0245,1.24845 0.0491,2.14022 0.0738,2.67527 l -6.34253,0 c -0.0246,-0.2378 -0.0615,-0.89175 -0.11062,-1.96187 -0.0492,-1.07011 -0.0984,-2.34829 -0.1475,-3.83456 -0.0246,-1.48626 -0.0492,-3.09142 -0.0738,-4.81549 -0.0246,-1.72406 -0.0369,-3.35895 -0.0369,-4.90468 l -0.18438,0 m -19.83866,-32.46002 c -10e-6,6.65851 0.17207,12.36576 0.51625,17.12177 0.36874,4.75607 0.92186,8.67981 1.65938,11.77122 0.76207,3.09144 1.73311,5.38029 2.91313,6.86654 1.17999,1.42682 2.59354,2.14023 4.24064,2.14022 1.69623,10e-6 3.19583,-0.7134 4.49877,-2.14022 1.32748,-1.42681 2.43373,-3.68593 3.31876,-6.77737 0.90956,-3.15086 1.5856,-7.22322 2.02813,-12.21709 0.46705,-4.99381 0.7006,-11.05777 0.70063,-18.19188 -3e-5,-6.89622 -0.23358,-12.66292 -0.70063,-17.30013 -0.44253,-4.69652 -1.10628,-8.47163 -1.99126,-11.32532 -0.88503,-2.85355 -1.97898,-4.9046 -3.28188,-6.15315 -1.30295,-1.24836 -2.80253,-1.8726 -4.49876,-1.87269 -1.57336,9e-5 -2.95004,0.68377 -4.13002,2.05105 -1.18002,1.36745 -2.16335,3.56711 -2.95001,6.59901 -0.7621,3.03206 -1.33981,6.98552 -1.73313,11.8604 -0.39335,4.81555 -0.59001,10.67143 -0.59,17.56764" />
    <path
       inkscape:connector-curvature="0"
       id="path3818"
       style="font-size:144px;font-style:normal;font-variant:normal;font-weight:normal;font-stretch:normal;fill:#000000;fill-opacity:1;stroke:none;stroke-width:1.00201106000000006;stroke-linejoin:round;stroke-miterlimit:4;font-family:Liberation Mono;-inkscape-font-specification:Liberation Mono"
       d="m 389.69282,904.56392 c 0.36871,0 0.73746,-0.0595 1.10626,-0.17836 0.3687,-0.11884 0.72517,-0.26752 1.06938,-0.44588 l 0,9.9877 c -0.83588,0.4756 -1.67172,0.83231 -2.50751,1.07011 -0.81129,0.2378 -1.684,0.3567 -2.61814,0.3567 -1.25379,0 -2.33546,-0.38643 -3.24501,-1.15928 -0.88503,-0.83231 -1.61024,-2.05105 -2.17563,-3.65622 -0.56545,-1.6646 -0.99566,-3.68592 -1.29063,-6.06396 -0.29503,-2.43746 -0.4794,-5.26135 -0.55313,-8.4717 l -0.22125,0 c -0.68836,3.09144 -1.45044,5.88562 -2.28625,8.38253 -0.83587,2.49693 -1.79462,4.63714 -2.87627,6.42066 -1.08169,1.72407 -2.32315,3.0617 -3.72438,4.01291 -1.40128,0.95121 -3.01149,1.42682 -4.83064,1.42682 -3.88419,0 -6.80962,-2.55637 -8.77628,-7.66912 -1.96668,-5.11274 -2.95002,-12.12791 -2.95001,-21.04551 -1e-5,-6.36118 0.47937,-11.5631 1.43813,-15.60578 0.98333,-4.10205 2.26166,-7.31238 3.83501,-9.631 1.57333,-2.31851 3.35562,-3.92368 5.34689,-4.81549 2.01583,-0.95116 4.05625,-1.45649 6.12127,-1.516 l 8.70253,-0.3567 0,-5.26137 c -3e-5,-3.98313 -0.17211,-7.37181 -0.51625,-10.16605 -0.31961,-2.7941 -0.82357,-5.05322 -1.51188,-6.77737 -0.66378,-1.72398 -1.51191,-2.97244 -2.54438,-3.74538 -1.03253,-0.83223 -2.23711,-1.24838 -3.61376,-1.24847 -1.2292,9e-5 -2.34774,0.23789 -3.35564,0.71341 -0.98335,0.41624 -1.83148,1.21882 -2.54438,2.40775 -0.71294,1.12964 -1.30294,2.70508 -1.77001,4.72632 -0.44252,1.96195 -0.73752,4.45886 -0.885,7.49077 l -6.93253,-1.51598 c 0.24583,-3.80477 0.70062,-7.28263 1.36438,-10.43358 0.68833,-3.21025 1.64708,-5.9747 2.87627,-8.29336 1.22915,-2.31848 2.76561,-4.102 4.60938,-5.35056 1.86833,-1.30781 4.11771,-1.96176 6.74815,-1.96186 4.91666,1e-4 8.60417,2.79427 11.06254,8.38253 2.48289,5.52898 3.72435,13.55481 3.72439,24.07749 l 0,41.55595 c -4e-5,4.75607 0.25809,8.35282 0.77437,10.79029 0.51621,2.37802 1.49955,3.56704 2.95001,3.56704 m -22.45695,-0.53507 c 2.04041,2e-5 3.81041,-0.92146 5.31002,-2.76445 1.49957,-1.90241 2.74102,-4.28042 3.72439,-7.13407 1.00789,-2.8536 1.75768,-6.00448 2.24938,-9.45264 0.49164,-3.44811 0.73747,-6.74761 0.7375,-9.89852 l 0,-7.93665 -7.00627,0.3567 c -1.35211,0.0595 -2.71649,0.32703 -4.09314,0.80258 -1.35211,0.4162 -2.58127,1.33768 -3.68751,2.76446 -1.08168,1.42685 -1.96669,3.50761 -2.65501,6.2423 -0.68835,2.67532 -1.03251,6.27207 -1.0325,10.79029 -1e-5,4.87496 0.54082,8.7987 1.6225,11.77122 1.10624,2.97253 2.71645,4.4588 4.83064,4.45878" />
    <path
       inkscape:connector-curvature="0"
       id="path3820"
       style="font-size:144px;font-style:normal;font-variant:normal;font-weight:normal;font-stretch:normal;fill:#000000;fill-opacity:1;stroke:none;stroke-width:1.00201106000000006;stroke-linejoin:round;stroke-miterlimit:4;font-family:Liberation Mono;-inkscape-font-specification:Liberation Mono"
       d="m 417.05417,952.273 c -2.21253,-4e-5 -4.16691,-0.56482 -5.86315,-1.69433 -1.67169,-1.12961 -3.12211,-2.7645 -4.35127,-4.90468 -1.20459,-2.0808 -2.18793,-4.57773 -2.95001,-7.49077 -0.7375,-2.9131 -1.26605,-6.15316 -1.58562,-9.72017 l 6.78502,-2.22941 c 0.4179,4.45878 1.31519,7.87718 2.69188,10.25523 1.40124,2.43746 3.2327,3.65618 5.49439,3.65621 1.40123,-3e-5 2.65499,-0.50535 3.76127,-1.51599 1.1308,-1.01068 2.08956,-2.64556 2.87626,-4.90467 0.81122,-2.19969 1.4258,-5.08304 1.84375,-8.65006 0.44247,-3.56705 0.66372,-7.90693 0.66375,-13.01967 l 0,-17.30013 -0.0737,0 c -0.46712,2.37804 -1.06941,4.69662 -1.80689,6.95573 -0.71295,2.25912 -1.58566,4.25071 -2.61813,5.97477 -1.00795,1.72407 -2.18795,3.12116 -3.54001,4.19127 -1.35211,1.01067 -2.91316,1.51599 -4.68314,1.51599 -2.50753,0 -4.64628,-0.98093 -6.41628,-2.9428 -1.77001,-1.96187 -3.22043,-4.9344 -4.35126,-8.91759 -1.13084,-3.98317 -1.96668,-8.97702 -2.50751,-14.98155 -0.51626,-6.00447 -0.77438,-13.01963 -0.77437,-21.0455 -1e-5,-7.78797 0.25811,-14.71396 0.77437,-20.77798 0.54083,-6.06388 1.38896,-11.17663 2.54439,-15.33825 1.17999,-4.22091 2.70416,-7.43123 4.57251,-9.63099 1.86833,-2.19958 4.15458,-3.29942 6.85878,-3.29951 2.7779,9e-5 5.18707,1.57553 7.22752,4.72632 2.06498,3.09152 3.65061,7.52058 4.75689,13.2872 l 0.11063,0 c -3e-5,-1.48618 0.0123,-3.1508 0.0369,-4.99385 0.0491,-1.84288 0.086,-3.56694 0.11062,-5.17219 0.0491,-1.66453 0.0983,-3.09134 0.1475,-4.28044 0.0737,-1.18893 0.12289,-1.87261 0.1475,-2.05105 l 6.30565,0 c -0.0246,0.53515 -0.0492,1.45663 -0.0738,2.76445 -0.0247,1.24855 -0.0492,2.76453 -0.0738,4.54796 -0.0246,1.78361 -0.0492,3.7752 -0.0737,5.97479 -4e-5,2.1403 -4e-5,4.36969 0,6.68819 l 0,73.65927 c -4e-5,13.49528 -1.30296,23.63159 -3.90877,30.40898 -2.60587,6.83677 -6.62525,10.25518 -12.05816,10.25522 m 9.36628,-86.94647 c -3e-5,-6.71787 -0.29503,-12.42511 -0.885,-17.12177 -0.59004,-4.69652 -1.3767,-8.50136 -2.36001,-11.41451 -0.95878,-2.97245 -2.06503,-5.11267 -3.31876,-6.42066 -1.2292,-1.30784 -2.49524,-1.96179 -3.79814,-1.96188 -1.64711,9e-5 -3.07294,0.68377 -4.27751,2.05105 -1.20461,1.30799 -2.20023,3.44821 -2.98689,6.42066 -0.78668,2.91315 -1.36439,6.71799 -1.73313,11.41452 -0.36876,4.6372 -0.55314,10.31472 -0.55313,17.03259 -10e-6,6.95575 0.18437,12.75218 0.55313,17.38929 0.36874,4.63717 0.93415,8.35283 1.69625,11.14699 0.78666,2.79418 1.76999,4.78579 2.95001,5.97477 1.20457,1.12958 2.61812,1.69436 4.24064,1.69435 1.3029,10e-6 2.58124,-0.62422 3.83502,-1.87269 1.25373,-1.3079 2.37227,-3.38867 3.35563,-6.24232 0.98331,-2.8536 1.76998,-6.56925 2.36001,-11.14698 0.61455,-4.63711 0.92185,-10.28491 0.92188,-16.94341" />
    <path
       inkscape:connector-curvature="0"
       id="path3822"
       style="font-size:144px;font-style:normal;font-variant:normal;font-weight:normal;font-stretch:normal;fill:#000000;fill-opacity:1;stroke:none;stroke-width:1.00201106000000006;stroke-linejoin:round;stroke-miterlimit:4;font-family:Liberation Mono;-inkscape-font-specification:Liberation Mono"
       d="m 451.5324,869.60697 c -10e-6,5.05333 0.23353,9.72021 0.70063,14.00061 0.46707,4.22101 1.1677,7.87722 2.10188,10.96864 0.93416,3.03198 2.08958,5.41001 3.46626,7.13407 1.40124,1.66461 3.01145,2.49692 4.83065,2.49692 1.35206,0 2.59352,-0.3567 3.72438,-1.07011 1.1554,-0.77285 2.1879,-1.81323 3.09751,-3.12116 0.90956,-1.3079 1.67164,-2.85361 2.28626,-4.63714 0.61456,-1.84295 1.06934,-3.83454 1.36438,-5.97479 l 5.82627,4.01291 c -0.39337,2.6753 -0.98337,5.38029 -1.77001,8.11501 -0.7867,2.67528 -1.83149,5.11276 -3.13438,7.31243 -1.30296,2.14022 -2.88858,3.92374 -4.75689,5.35055 -1.86837,1.36736 -4.08087,2.05104 -6.63752,2.05104 -2.82712,0 -5.35921,-1.07012 -7.59628,-3.21034 -2.2371,-2.1402 -4.13002,-5.32081 -5.67877,-9.54181 -1.54876,-4.22098 -2.74106,-9.48235 -3.57689,-15.78413 -0.81125,-6.36119 -1.21688,-13.73304 -1.21688,-22.11562 0,-9.27423 0.47937,-17.06225 1.43814,-23.36407 0.98333,-6.30169 2.29854,-11.38471 3.94564,-15.24908 1.64707,-3.86419 3.53999,-6.62865 5.67876,-8.29335 2.16333,-1.66453 4.425,-2.49683 6.78502,-2.49693 3.22041,1e-4 5.93687,1.24856 8.1494,3.74538 2.23707,2.49703 4.05623,6.0046 5.45752,10.52276 1.40122,4.45888 2.40914,9.83914 3.02377,16.14083 0.63912,6.30183 0.95871,13.25754 0.95875,20.86716 l 0,2.14022 -28.4676,0 m 10.95192,-41.55596 c -1.13086,9e-5 -2.32316,0.44596 -3.57689,1.33764 -1.22919,0.83238 -2.37232,2.34838 -3.42939,4.54797 -1.0571,2.19974 -1.95439,5.202 -2.69188,9.00676 -0.71293,3.74546 -1.10627,8.53122 -1.18001,14.35732 l 21.53508,0 c -0.1967,-5.5883 -0.61462,-10.25516 -1.25376,-14.00061 -0.6392,-3.74532 -1.43816,-6.74757 -2.39688,-9.00676 -0.9342,-2.25905 -2.00358,-3.86421 -3.20814,-4.81551 -1.20461,-0.95112 -2.47065,-1.42672 -3.79813,-1.42681" />
  </g>
</svg>
