<?xml version="1.0" encoding="UTF-8" standalone="no"?>
<!-- Created with Inkscape (http://www.inkscape.org/) -->

<svg
   xmlns:dc="http://purl.org/dc/elements/1.1/"
   xmlns:cc="http://creativecommons.org/ns#"
   xmlns:rdf="http://www.w3.org/1999/02/22-rdf-syntax-ns#"
   xmlns:svg="http://www.w3.org/2000/svg"
   xmlns="http://www.w3.org/2000/svg"
   xmlns:sodipodi="http://sodipodi.sourceforge.net/DTD/sodipodi-0.dtd"
   xmlns:inkscape="http://www.inkscape.org/namespaces/inkscape"
   width="600"
   height="600"
   id="svg2"
   version="1.1"
   inkscape:version="0.48.2 r9819"
   sodipodi:docname="doc_base.svg">
  <defs
     id="defs4" />
  <sodipodi:namedview
     id="base"
     pagecolor="#e0e0e1"
     bordercolor="#666666"
     borderopacity="1.0"
     inkscape:pageopacity="1"
     inkscape:pageshadow="2"
     inkscape:zoom="1.2483333"
     inkscape:cx="288.34933"
     inkscape:cy="300"
     inkscape:document-units="px"
     inkscape:current-layer="layer1"
     showgrid="true"
     showguides="true"
     inkscape:guide-bbox="true"
     inkscape:window-width="1680"
     inkscape:window-height="964"
     inkscape:window-x="0"
     inkscape:window-y="30"
     inkscape:window-maximized="1">
    <inkscape:grid
       type="xygrid"
       id="grid3753"
       empspacing="5"
       visible="true"
       enabled="true"
       snapvisiblegridlinesonly="true" />
    <sodipodi:guide
       orientation="1,0"
       position="300,620"
       id="guide3755" />
    <sodipodi:guide
       orientation="0,1"
       position="-50,300"
       id="guide3757" />
  </sodipodi:namedview>
  <metadata
     id="metadata7">
    <rdf:RDF>
      <cc:Work
         rdf:about="">
        <dc:format>image/svg+xml</dc:format>
        <dc:type
           rdf:resource="http://purl.org/dc/dcmitype/StillImage" />
        <dc:title></dc:title>
      </cc:Work>
    </rdf:RDF>
  </metadata>
  <g
     inkscape:label="Calque 1"
     inkscape:groupmode="layer"
     id="layer1"
     transform="translate(0,-452.36218)">
    <path
       style="fill:#000000"
       d="m 431.53526,963.37902 c -18.6238,18.09818 1.13139,43.03478 1.67273,61.76668 -10.80031,21.6474 -93.56981,26.2721 -85.08099,-1.2054 -2.98711,-9.5474 9.6486,-34.23579 -20.50332,-25.01033 -53.23295,5.64503 -108.74738,4.10803 -161.47895,-2.2638 -0.71542,21.56073 6.44065,53.47213 -51.64332,45.69603 -32.169575,-5.7855 -51.401392,-21.2386 -33.524241,-37.5389 C 76.411766,993.02431 101.98631,960.15643 70.90428,960.85582 23.499036,974.67857 15.893398,939.15151 13.456632,921.28669 2.5394273,902.65527 44.166714,887.52328 53.335069,911.73572 c 15.267547,11.8612 9.25323,44.80254 -1.248707,45.78455 10.314138,-16.71591 8.176529,-53.64884 -27.787864,-56.5877 -14.03783,19.27535 -5.204355,43.33536 18.24367,59.1423 31.272726,-3.61586 58.802102,-6.46698 48.249184,15.02782 6.241652,21.29707 -32.079762,48.04601 11.487828,60.15761 17.5211,6.2987 31.94861,4.5847 18.63544,1.0962 33.79122,1.1343 44.35853,-10.289 39.09726,-27.9363 -5.61675,-14.41923 4.86494,-18.6744 31.03551,-11.51354 43.2751,3.11914 88.09461,3.63704 131.34781,0.33713 54.30535,-16.19025 12.9524,32.80011 40.6126,37.00051 9.03616,6.2771 36.06039,-0.5003 32.55746,-0.5807 1.25469,12.8665 51.41407,-13.0163 27.13526,-21.2358 -2.47592,-20.88768 -13.43288,-43.29515 9.36937,-62.07099 17.22861,-15.64107 -17.22017,-30.47841 -19.34333,-41.0012 5.27249,8.11468 22.81998,19.26106 19.33138,13.23416 17.03267,15.03308 52.66192,26.01425 87.21189,22.5713 39.58062,-4.02099 67.82192,-26.81072 70.73017,-48.01585 -2.07704,-29.30311 -42.88668,-55.46771 -95.2983,-60.76056 -6.2026,-14.15564 -29.20079,-23.74211 -42.26213,-34.53267 -4.31811,-5.26462 -9.56233,-8.31232 -10.78898,-14.58484 -5.94287,-3.84648 -6.85611,-10.01288 -12.07021,-13.77184 -3.81698,-6.3384 -5.36186,-10.58816 -11.98282,-13.88555 -1.66679,-5.90961 -6.36697,-11.14445 -9.76315,-15.4294 -1.67267,-5.93867 -9.76957,-7.99562 -10.05784,-15.31268 -5.51737,-4.32379 -7.89301,-9.36853 -11.60534,-14.6149 -4.45942,-4.03213 -6.65434,-8.85702 -12.32908,-14.80542 -5.89482,-12.78575 -1.99064,-7.58169 -12.83008,-18.65127 -11.92835,-16.96443 13.00708,24.28686 18.73183,32.97011 -19.82178,-24.54416 -39.51288,-49.90996 -50.08935,-76.32144 13.51861,12.60067 0.77418,-7.51135 1.09687,-10.7912 -6.44065,-8.77974 2.30867,-34.07223 3.43769,-41.25162 0.62617,-18.64955 1.36109,1.82063 8.49814,1.19531 10.96867,-6.31554 -18.75649,14.23097 -8.45223,23.72584 -9.26811,19.5388 60.27145,-5.36308 13.53798,10.24939 -17.53301,-3.57409 -11.1735,33.52006 18.56831,17.48815 19.46348,-9.32081 12.69432,-39.38657 -1.72381,-51.42485 -21.53461,18.24362 -2.77374,-20.62977 -22.29094,-21.98425 -3.82519,-20.5391 10.56519,-41.1977 6.05324,-62.04799 9.46241,-17.89179 -30.89941,-45.8377 -29.72328,-16.02659 2.92869,22.4423 -15.50192,12.9675 -26.70388,-1.99646 -15.85568,-21.26081 -85.01138,-32.0671 -85.82019,-0.68678 2.73942,11.84057 -2.97609,38.77055 22.75134,40.16147 -6.90373,-14.77889 -29.83875,-63.0981 23.43571,-50.9988 36.02722,14.3583 57.32579,39.50128 49.60756,63.92178 -9.35121,14.28386 40.72732,11.20274 18.39698,28.3219 -2.05722,9.66788 -12.74236,28.75645 -6.51685,7.9102 25.05251,-20.0641 -30.94421,-38.2767 -54.23465,-29.07763 -22.93248,0.87589 -15.44572,-9.83054 4.01546,-6.52376 -15.0099,-8.83437 -60.53244,-14.26072 -67.95493,-5.75174 17.20371,4.00627 73.49164,25.03111 27.67571,10.75384 -11.00614,-0.87157 -40.43486,-17.32655 -34.39102,-3.51008 -1.66234,11.86311 9.47696,32.36348 4.1436,37.21203 -4.47319,-18.41179 -2.56673,6.4415 -20.5019,5.30484 31.74486,3.2587 -49.59472,-3.30531 -34.15857,17.49824 -0.10153,21.70719 -8.88615,46.14446 7.49412,65.47697 9.94342,10.49598 -6.34684,-0.0358 -6.89272,-2.65248 -11.32804,22.77343 -2.84478,48.56291 -5.53937,72.48065 0.17163,28.61312 0.35749,57.22624 0.53498,85.83936 -18.2332,4.33663 -38.612728,13.6951 -40.868732,19.12139 -35.515605,12.1549 5.807905,51.13073 -39.134439,54.00911 C 12.29511,892.13767 9.5024351,914.73336 10,931.85311 c -0.8582021,0.50327 -10.42477024,-32.88072 13.484344,-37.15285 18.474014,-5.17142 56.233321,-0.0713 45.6413,-17.84415 -0.639247,-21.95126 14.189745,-47.77829 54.590856,-56.51181 14.87151,-3.2808 3.96266,-15.06848 7.29268,-22.15772 0.29924,-49.8961 -1.18167,-100.20321 2.4553,-149.7496 -4.12365,-19.42506 0.5855,-39.08367 1.10028,-58.60205 27.27735,-11.04786 63.37,-16.65123 49.14013,-40.69735 -2.16353,-12.09598 -2.41219,-24.69312 25.53876,-24.68391 -2.90043,-20.0111 -24.17926,-46.66857 10.10946,-62.09149 35.58521,-10.53546 66.98342,11.61315 84.26793,26.29561 16.23842,15.58776 -1.15903,-21.36893 22.74238,-20.20882 42.2361,9.18736 24.59214,44.31086 24.96457,64.63084 1.48563,9.46357 -10.50162,21.12642 -3.13016,29.45972 18.95796,19.43971 39.54178,37.82781 33.3773,62.16631 -3.34716,20.58769 -0.71577,39.61856 1.1323,60.29255 -1.97447,10.0649 1.27263,19.56364 10.13917,28.45301 24.89646,31.0514 43.47087,63.89614 74.15447,93.37239 23.42589,16.25145 38.9814,31.85699 77.72705,37.44368 47.01273,18.10912 69.75873,58.06232 30.09138,84.01259 -27.46155,26.11004 -99.33974,26.70068 -134.3831,5.13047 9.63377,9.36706 -4.10206,20.75926 -8.90114,29.96849 z m -44.20944,75.87948 c -34.59466,-3.6444 17.59873,3.8837 0,0 z m -246.50273,-2.1104 c -14.36938,-1.2593 -0.17915,2.1967 0,0 z m 11.40151,-1.296 c -13.3247,-0.8005 4.3801,2.2366 0,0 z M 374.52663,659.03137 c -6.80261,-10.71682 14.38412,-28.57137 -17.44298,-14.09219 -23.67976,-0.83402 3.28057,15.104 9.45983,9.51513 -18.50842,4.04088 -7.29206,14.10761 6.06927,8.33636 -4.37698,4.93937 0.71362,2.736 -9.28924,9.64445 4.0969,4.07851 12.28691,21.37752 13.74471,16.93208 0.13081,-10.10416 2.58887,-20.47934 -2.54159,-30.33583 z m -20.4527,10.17081 c -4.13977,-10.02572 -11.26484,-12.91255 -11.29895,-21.71601 -8.88,3.27224 14.05716,33.36458 11.29895,21.71601 z m -13.00204,-25.4096 c -8.05434,0.9231 -2.24364,8.19182 0,0 z m 21.16893,-1.99289 c 26.41507,-9.47585 -32.38736,8.199 0,0 z M 294.95946,532.32578 c 9.37211,-21.89983 -15.31898,-43.95216 -46.17417,-57.05082 -45.27372,-3.25888 -18.07014,37.03727 -9.22286,51.60427 15.59237,1.51307 63.01475,28.56394 55.39703,5.44655 z m -31.71918,8.37406 c -32.96237,-0.39033 -1.47545,1.41458 0,0 z M 99.280467,1030.689 c 2.406283,1.0248 5.436413,-1.3963 -8.681561,-8.4336 10.918794,2.6439 36.427044,24.3693 8.681561,8.4336 z m 292.845963,-12.2723 c 0.98688,-5.5163 2.13312,4.7516 0,0 z m -258.4156,-18.51435 c 1.04608,-10.15241 7.73464,-6.28098 0.48679,0.70345 l -0.48679,-0.70345 z m 256.41672,-7.61734 c -2.79021,-8.69179 -3.89602,6.11384 -12.32914,-3.28382 26.8507,-15.9153 29.49748,-3.10816 12.28724,5.9737 l 0.0416,-2.68988 z m 7.65057,-9.91122 c -7.49079,0.0605 -6.78334,4.78965 0,0 z m -143.83316,10.3085 c 22.34208,-0.61198 0.95667,1.70957 0,0 z m 39.28262,-1.27242 c 19.80032,-1.23514 0.85023,2.04449 0,0 z M 118.69369,990.1691 c -4.48104,-7.15222 13.10719,3.37866 0,0 z m 106.41374,0.005 c 14.3694,-1.25937 0.17942,2.19666 0,0 z m 83.08575,0.008 c 32.40132,-0.72961 -5.79238,1.6146 0,0 z m -196.63176,-6.98843 c -42.809628,-17.50094 20.05633,2.4809 20.86538,6.11271 -7.75341,-1.12206 -14.41485,-3.61953 -20.86538,-6.11271 z m 134.32843,5.61658 c 47.50063,-0.44148 14.84136,1.25441 0,0 z m -70.38126,-1.10058 c 11.39116,-2.16806 1.6499,2.6122 0,0 z m 40.45033,-0.83989 c -48.10071,-4.56891 29.9616,-0.61972 48.21514,-1.16407 21.9219,1.77768 81.9506,-6.93591 78.13072,-4.12857 -16.08079,3.51335 -7.37371,4.92275 -27.98042,3.44368 -8.79528,5.12426 -70.79376,2.02869 -98.36544,1.84896 z m 88.81445,-0.50344 c -14.36938,-1.25941 -0.17942,2.1966 0,0 z m -122.33731,-3.7349 c 11.39117,-2.16805 1.64988,2.61224 0,0 z m -9.23663,-1.26957 c 11.39114,-2.16803 1.6499,2.61224 0,0 z m -9.23663,-1.26954 c 11.39116,-2.16803 1.6499,2.61223 0,0 z m -57.83205,-26.62208 c 14.34934,-5.29179 -9.033176,6.28497 0,0 z m 10.52672,-24.66276 c 4.68246,-13.54445 -19.252548,-34.12437 -22.047184,-38.66201 25.269474,10.85241 30.404584,39.9752 23.317384,50.65986 -0.42341,-3.99929 -0.84679,-7.99858 -1.2702,-11.99785 z M 546.63721,934.1 c 44.68582,-24.11501 10.60763,-66.88771 -40.10056,-79.4693 -35.59035,-11.15725 -85.85902,0.53505 -92.99,23.23716 -7.2568,9.26787 7.3429,44.21677 -4.04104,17.04004 -9.233,-22.86302 23.06161,-48.79365 67.98475,-46.10086 72.5513,0.67453 124.6011,55.07319 74.50218,86.0116 -12.66525,5.89538 -26.73351,10.64468 -5.35533,-0.71864 z m -86.43694,2.91907 c -14.0348,-7.17172 18.75423,6.86121 0,0 z m -36.93404,-20.53513 c -1.53065,-5.32242 6.44702,5.46253 0,0 z m -4.86171,-4.26524 c -2.39242,-6.84676 7.5888,5.0897 0,0 z m -194.40358,-5.76078 c 11.39116,-2.16805 1.64988,2.61221 0,0 z m -30.64447,-1.36829 c -40.28914,-4.92265 -87.93451,-8.70569 -113.148787,-28.8323 19.998027,9.83797 59.034407,22.73778 78.318997,22.0575 -17.16694,-0.39139 -65.722185,-17.32969 -61.676935,-18.94751 22.316985,7.25887 51.820285,10.83841 80.979875,15.42968 44.67677,6.96405 91.30376,3.67071 136.9193,4.5102 -32.24153,1.88258 -64.76625,1.78568 -97.14627,2.59726 41.13774,-1.04795 83.21129,1.24419 123.39809,-4.42496 -42.09259,3.23224 45.61313,-10.35532 5.99313,-0.66449 19.39125,0.43707 76.79214,-22.08758 36.89581,-1.30261 -12.09967,5.76098 -66.98905,9.89362 -24.6208,3.51499 15.89205,-1.76033 37.44503,-10.49083 8.00804,-2.77502 -65.52651,11.27442 -136.10997,9.45974 -203.15979,3.77291 9.62644,3.00418 77.64036,6.90235 29.23934,5.06435 z m 22.89919,-4.69091 c -15.26906,-2.06557 -41.33459,-1.24658 -8.80066,0.27354 l 8.80066,-0.27354 z m -36.32117,-2.92792 c -13.3247,-0.80059 4.3801,2.23657 0,0 z m -9.23663,-1.26955 c -13.32467,-0.80058 4.3801,2.23655 0,0 z m -9.23663,-1.26954 c -13.3247,-0.80061 4.38007,2.23655 0,0 z m -9.6696,-1.67187 c -22.20676,-4.7675 6.88122,4.15668 0,0 z m -24.06316,-5.14725 c -40.746894,-9.7107 33.45724,10.53057 0,0 z m 265.58962,1.15386 c 11.34899,-8.08941 -22.1366,9.07633 0,0 z m -72.33251,14.65234 c 11.39116,-2.16804 1.6499,2.61225 0,0 z m -135.71118,-9.3894 c -10.37954,-4.56773 17.33975,3.4236 0,0 z m 54.84254,-5.95335 c 19.80031,-1.23516 0.85023,2.0445 0,0 z m -59.46083,-3.009 c -27.43042,-0.93763 -89.406784,-16.65588 -86.584161,-23.28923 32.337211,17.20092 78.772971,21.21893 120.969791,25.54336 -11.55603,0.3563 -23.0654,-1.18997 -34.38563,-2.25413 z m 121.85621,1.84758 c 11.39116,-2.16806 1.6499,2.61221 0,0 z m -90.68257,-1.7813 c -17.73874,-0.21311 -76.87212,-8.3168 -68.54306,-10.10624 23.93461,6.8976 66.64619,5.40905 63.44969,5.26997 23.36101,-0.3263 56.34761,8.29222 88.45987,3.13393 23.26401,0.80913 63.78449,-9.33535 74.85922,-7.72412 -49.02995,12.12061 -105.75334,10.53435 -158.22572,9.42646 z m 12.45558,-2.31214 c -16.09764,-3.92738 -24.81495,4.54989 0,0 z m 118.01188,-0.18299 c 24.55354,-2.17526 84.67778,-20.25306 69.50255,-29.85649 -30.42664,2.11182 34.17856,-0.34555 10.75723,-12.30052 -5.24008,-14.66232 -50.32894,-12.74492 -47.18191,-26.98897 0.0424,-27.91523 2.5752,-56.0818 1.07896,-83.84176 -16.34645,-21.36012 -29.18828,-43.98871 -48.20823,-64.35313 -15.22554,1.87303 -76.21201,3.43266 -66.45028,1.91202 22.32596,-0.96002 25.87386,-1.55527 0.76938,-1.78776 -18.60736,-4.0379 56.24586,2.07764 29.03603,-2.02918 25.33681,3.20216 30.86632,-14.3525 3.19847,-12.65489 23.23003,-1.17298 -15.86044,-1.88423 12.3214,-4.90548 13.09566,-29.2015 -43.92248,-18.05623 -76.36604,-20.77282 -26.12981,1.47202 -87.87798,-8.23861 -85.16886,-14.89752 41.20149,14.11261 93.41544,13.53452 140.24411,12.57262 22.60941,-10.84485 29.622,14.80638 33.28015,25.08662 23.7929,16.48829 30.89246,42.58072 49.03033,62.48344 22.7379,33.2158 52.35245,65.16478 71.2774,99.04898 0.0242,22.85381 4.85006,45.5558 -36.48342,59.0103 -15.21826,10.83774 -55.46013,16.10351 -70.69655,15.9575 l 4.14748,-0.76138 5.9118,-0.92163 0,5e-5 z m 90.05247,-45.74867 c 2.93509,-23.51058 -6.59887,-46.31543 -26.68245,-67.66511 -8.66977,-10.21163 -27.16803,-42.60651 -23.56953,-14.03145 -1.03241,20.72598 -1.53403,41.45837 -2.26895,62.18787 23.0764,6.16676 45.97583,16.95745 54.23771,28.56621 0.86221,-3.06097 -0.4421,-6.10545 -1.71678,-9.05752 z M 315.12065,663.86049 c -19.71914,-1.09353 3.27896,2.08217 0,0 z m 11.78336,-1.50208 c 2.51444,-6.81657 -14.9469,3.9997 0,0 z m -1.12502,-8.7679 c -12.42378,-7.3439 2.74216,9.69035 0,0 z M 204.48951,876.12439 c -39.37886,-2.93979 -90.57145,-14.72368 -94.09397,-35.51117 -2.16949,1.1171 16.55238,-12.99311 8.92652,0.59499 0.83905,12.39016 44.22996,31.81162 81.02403,31.80426 60.20012,5.88267 130.13639,2.29332 180.3468,-14.91301 3.18575,2.29919 19.81672,-22.62459 13.77372,-2.10147 -15.87797,6.12699 -52.17134,16.11978 -81.10359,19.18599 -35.83198,3.58994 -72.80989,3.3129 -108.87351,0.94041 z m -71.17117,-15.08264 c -13.9178,-9.15197 -4.43995,0.85232 0,0 z m -14.57236,-16.97703 c -3.59826,0.0798 2.13133,11.23566 0,0 z m 271.2148,-4.93423 c -6.0968,-9.2427 10.71305,7.97987 0,0 z m 98.96801,1.51788 c 2.99568,-6.0339 4.84949,4.71855 0,0 z m -385.71072,-3.93739 c -3.621525,-13.82424 15.77674,8.47331 0,0 z m 379.52636,-6.37973 c -10.42864,-19.07519 16.7868,19.92591 0,0 z m -36.53507,-3.08812 c 0.60943,-4.65587 6.9312,4.27685 0,0 z m 8.90812,-17.48151 c -11.16434,-6.02569 8.36744,-0.77495 0,0 l 0,0 z m -10.6368,-8.18155 c -21.3091,-28.49308 -45.89826,-56.41415 -63.15537,-85.72094 23.46409,27.52888 43.53522,56.69718 64.99463,85.02212 l 2.50031,4.40198 -4.33957,-3.70316 z M 313.43272,678.8819 c 9.93747,-1.48177 -11.64412,-3.60906 14.05588,-3.68532 9.85982,1.77824 -6.50783,1.42796 -5.76815,3.66391 0.43654,-0.31503 -18.90967,1.92649 -8.28773,0.0206 z m -94.86793,-10.81962 c -22.55322,-0.53086 -84.49665,-11.99167 -29.59428,-4.4088 21.41218,2.31916 59.03382,0.88953 44.98119,3.21675 29.65204,2.05057 -6.95565,1.67779 -15.38691,1.19205 z m -14.8171,-4.65647 c 3.81292,-2.09017 37.65414,2.90577 6.64414,0.70214 l -6.64414,-0.70214 0,0 z m -27.70989,-3.1568 c -22.19954,-5.19526 36.75727,5.35572 0,0 z m 105.6921,-7.70186 c 11.39116,-2.16803 1.64987,2.61226 0,0 z m -91.92109,-4.19477 c -2.16718,-2.88044 -24.06041,-4.32312 0.2763,-2.406 24.66902,-0.29073 -5.41324,5.72732 -0.2763,2.40621 l 0,-2.1e-4 z m 135.2148,-18.40558 c -4.77131,-20.51324 2.44571,-5.69422 3.70048,6.49666 l -1.51311,-1.67414 -2.18737,-4.82252 z m -71.0036,2.2875 c 11.39113,-2.16803 1.64987,2.61223 0,0 z m -9.32609,-2.67922 c 29.41834,-1.0357 7.34652,1.7376 0,0 z m 110.49609,-8.41913 c 10.15693,-5.09161 34.22481,-3.63908 0,0 z M 242.31066,609.89544 c -7.62251,-7.25163 44.73385,2.19519 3.78007,1.07003 l -3.78007,-1.07003 0,0 z m 14.34154,-0.83224 c -2.42164,-2.21397 -16.42232,1.75655 -5.53597,1.06254 l 5.53597,-1.06254 z m 21.56587,1.51492 c 14.36941,-1.2594 0.17942,2.19661 0,0 z m -5.90003,-4.87219 c 1.00281,-7.95509 1.6946,7.38271 0,0 z m 12.2502,1.90433 c 0.60946,-4.65588 6.93123,4.27684 0,0 z m 30.04029,-4.23667 c 5.23194,-7.95421 -28.4761,-11.74876 0.57242,-8.31482 6.83524,2.23256 -0.13214,19.48328 -0.57242,8.31482 z m 6.20185,-0.20667 c 1.00281,-7.95511 1.69457,7.38271 0,0 z m -37.0321,-0.63476 c 1.73145,-7.01887 1.73145,7.01884 0,0 z m 41.56482,0 c 1.73149,-7.01887 1.73149,7.01884 0,0 z m -49.52408,-8.06004 c 14.32103,-15.70981 -61.56351,-7.89811 -18.17991,-10.879 13.58885,3.5992 27.20712,-6.77915 14.28504,-9.03634 -21.29351,6.4544 -52.8814,-12.39124 -31.70361,-12.72739 2.53216,14.90212 31.66469,11.34033 11.15404,-0.54872 -41.15468,-14.86511 43.20673,1.097 28.51018,15.5535 4.96021,3.77914 -5.48095,34.18707 -4.06574,17.63795 z m -3.66079,-25.1885 c -25.42608,-21.82681 -1.38529,12.90476 0,0 z m -53.53585,29.50559 c -25.521,-4.27903 -11.38929,-15.1239 3.59858,-2.87074 4.73083,2.44729 17.85035,5.97618 -3.59858,2.87074 z m 2.44402,-1.82199 c -12.14562,-4.16919 -8.60761,2.25005 0,0 z m 21.74564,-3.49222 c -1.93555,-7.40343 30.19526,2.30153 0,0 z m 21.50124,0.67187 c 4.32743,-4.06759 1.2371,-0.0257 9.31809,-4.74454 1.84683,2.7925 -4.01278,7.12393 -9.31809,4.74454 z m 19.79236,-6.84936 c 1.31849,-14.2156 1.24592,14.24793 0,0 z m -114.41806,-2.11038 c 14.36943,-1.25937 0.17915,2.19665 0,0 z m 81.94824,-3.8401 c 22.34209,-0.61201 0.95668,1.70957 0,0 z m 87.19766,-2.30164 c 7.94885,-9.8477 1.864,9.04445 0,0 z m -55.41984,-8.69009 c 9.54001,-13.44807 -49.65806,-23.46211 -5.19557,-13.95821 15.24569,3.65704 3.85238,35.91096 5.19557,13.95821 z M 221.0664,547.94139 c -6.6136,-4.59148 12.83526,4.15825 0,0 z m -12.1616,-2.69665 c 13.48374,-4.09763 -6.13271,4.36623 0,0 z"
       id="path4412"
       inkscape:connector-curvature="0" />
    <path
       style="fill:#ffffff;fill-opacity:1;stroke:none;stroke-width:8.01068114999999992;stroke-linecap:round;stroke-linejoin:round;stroke-miterlimit:4;stroke-opacity:1;stroke-dasharray:none;stroke-dashoffset:0"
       d="m 113.19092,585.42057 c -2.42323,-0.56199 -3.60611,-1.06226 -2.62861,-1.1117 2.78786,-0.14102 1.47605,-2.00817 -4.54898,-6.4747 -5.34513,-3.96251 -14.179445,-8.57326 -14.950063,-7.80264 -0.217914,0.21792 1.787815,1.72293 4.457175,3.34449 4.831858,2.9352 5.732098,4.00799 3.881088,4.625 -0.534761,0.17825 0.90896,1.348 3.20829,2.59945 2.29932,1.25145 4.0214,2.43455 3.82683,2.6291 -0.7602,0.76021 -13.507786,-4.09733 -17.035732,-6.49155 -6.00052,-4.07224 -7.053285,-6.04754 -7.037942,-13.2053 0.01189,-5.54586 0.435958,-7.21113 4.319957,-16.96395 3.626423,-9.10604 4.413844,-12.01662 4.984544,-18.42457 0.372772,-4.18558 0.894353,-9.46598 1.159068,-11.73423 0.600562,-5.14599 -0.335987,-6.98517 -4.68747,-9.20513 -4.689959,-2.39264 -17.342246,-2.83844 -32.975479,-1.16188 l -11.965904,1.28325 -3.049305,-2.11316 c -4.45573,-3.08783 -12.648729,-11.72285 -15.671592,-16.5171 -7.532689,-11.94683 -8.36552,-23.98877 -2.435366,-35.21308 2.285567,-4.32601 2.546371,-4.54487 4.92561,-4.13337 9.229326,1.59623 18.195987,6.26108 22.223113,11.56142 5.577412,7.34078 8.353162,16.92084 7.643062,26.37881 -0.4422,5.88975 -2.813281,14.36124 -4.633384,16.55433 -1.539017,1.8544 -0.118321,2.15101 2.625993,0.54824 5.258461,-3.0711 8.357041,-13.22531 7.69262,-25.20911 -0.438332,-7.90594 -2.522081,-13.34411 -7.282277,-19.0053 -1.609534,-1.91418 -2.926426,-3.73557 -2.926426,-4.04752 0,-0.31196 -1.452533,-2.03424 -3.22785,-3.82731 -5.344929,-5.39835 -14.517174,-7.16325 -24.008466,-4.61964 -1.963929,0.52633 -1.970673,0.51283 -0.348627,-0.69777 3.860981,-2.88161 11.763651,-4.67545 23.760067,-5.39333 13.11457,-0.7848 17.109348,-1.64809 21.804464,-4.71205 5.59777,-3.65303 6.375094,-5.93224 6.986413,-20.48507 0.296123,-7.0494 0.952074,-14.19441 1.457669,-15.87779 1.229524,-4.09373 5.674928,-8.86402 10.276123,-11.02715 2.06478,-0.97071 5.015829,-2.9101 6.557885,-4.30977 1.542056,-1.39967 3.772694,-3.14354 4.956972,-3.87527 l 2.15324,-1.33042 0.24996,2.58937 c 0.21741,2.25208 0.64047,2.68584 3.24774,3.32993 1.64877,0.4073 3.24143,0.49689 3.53926,0.19906 0.87208,-0.87209 -1.4957,-4.58004 -3.64317,-5.70521 -1.88378,-0.987 -1.9037,-1.07273 -0.43172,-1.85728 3.50705,-1.86924 15.60609,-6.42064 21.83593,-8.21422 l 6.67455,-1.92161 -0.16374,-70.12532 c -0.17381,-74.4352 -0.13002,-75.45662 3.61799,-84.38846 l 1.27909,-3.04819 2.97479,2.33148 c 7.71303,6.04503 9.68719,5.28898 4.19643,-1.60713 -4.31201,-5.41565 -6.95259,-11.10061 -8.41254,-18.11159 -1.56678,-7.52393 -1.54645,-14.10601 0.0967,-31.29581 1.03644,-10.84292 1.12665,-14.49018 0.40757,-16.47877 -1.358,-3.75548 -1.14024,-5.56197 0.90173,-7.48031 3.72869,-3.50292 15.03992,-5.94263 32.62072,-7.03592 5.06675,-0.31509 8.76168,-0.73086 8.21095,-0.92393 -1.59422,-0.5589 -1.17638,-1.3511 1.28798,-2.44192 1.25912,-0.55734 3.69236,-2.97117 5.40721,-5.36406 1.71484,-2.39288 3.37378,-4.368 3.68654,-4.38914 0.31275,-0.0212 0.99988,1.4009 1.52695,3.1601 0.76115,2.54049 1.17979,3.01474 2.03483,2.30513 1.6829,-1.39669 1.29543,-5.63038 -1.67017,-18.24906 -1.51067,-6.427952 -2.86248,-14.210553 -3.00401,-17.294665 l -0.25732,-5.607477 2.80374,-0.270753 c 1.80683,-0.174482 7.21865,1.171355 15.2203,3.785053 22.56918,7.372112 42.07648,12.064665 31.56491,7.593063 -5.55062,-2.361222 -26.13252,-9.552216 -34.17424,-11.939943 -7.07737,-2.101395 -7.64532,-2.410008 -6.00801,-3.264603 8.54332,-4.459172 35.13674,-2.782116 55.07929,3.473457 l 6.80907,2.135871 -5.68775,0.553393 c -3.12826,0.304366 -6.4627,0.968138 -7.40988,1.47505 -2.16586,1.159136 -2.22713,3.742917 -0.11556,4.872997 2.96162,1.585011 11.29964,1.823425 16.3855,0.46851 15.19915,-4.049164 41.15109,1.474362 51.42585,10.945307 6.01341,5.54296 6.10969,10.49879 0.33181,17.07943 -2.26038,2.57443 -3.9088,8.413 -3.07852,10.90385 0.5095,1.5285 4.61396,-5.27486 6.8232,-11.30981 1.03784,-2.83508 3.13044,-6.53104 4.65023,-8.21326 3.43298,-3.7999 3.67537,-7.02661 0.70347,-9.36431 -1.13287,-0.89112 -5.36852,-2.902652 -9.41255,-4.47007 -8.3345,-3.230347 -12.39854,-5.490948 -13.08433,-7.278093 -0.25895,-0.674798 0.11364,-3.309868 0.82797,-5.855711 2.48523,-8.857292 1.21287,-18.324856 -3.72123,-27.689424 -3.15756,-5.992823 -15.64541,-18.802278 -23.01738,-23.610149 -8.80678,-5.743633 -22.28106,-11.904781 -28.31805,-12.948501 -8.62826,-1.491716 -17.92112,-0.707451 -22.34635,1.885905 -7.30745,4.282448 -9.13784,13.747195 -5.37619,27.799582 1.5306,5.717843 2.94589,9.500002 7.7184,20.626337 0.649,1.513039 -3.58608,1.221272 -7.39675,-0.509581 -4.4928,-2.040697 -8.6804,-7.210201 -10.31095,-12.728684 -0.74518,-2.522025 -1.75105,-9.897424 -2.23526,-16.389775 -0.9768,-13.096954 -0.42324,-15.832286 4.07465,-20.134508 11.30777,-10.8158528 42.56135,-9.808723 66.19317,2.133039 5.24801,2.651951 7.93176,4.789062 14.81976,11.801211 9.12534,9.2898 11.85625,11.445954 16.63062,13.130448 6.9913,2.466672 9.80463,-0.461919 9.80463,-10.206295 0,-7.928888 0.60791,-10.542702 3.01083,-12.945626 7.31577,-7.315771 26.93496,7.014774 26.85357,19.61479 -0.12181,18.856013 -0.77978,25.476501 -3.78161,38.050735 -3.79577,15.899913 -4.89334,30.49751 -2.35131,31.27226 6.34546,1.93393 8.1214,4.88582 9.22593,15.33499 0.9832,9.30136 2.2211,11.86064 5.35832,11.07788 1.17602,-0.29342 3.28178,-1.40363 4.67948,-2.46712 l 2.54127,-1.93363 3.29466,3.74294 c 6.22588,7.07297 9.7623,16.82377 9.73699,26.84729 -0.0267,10.56873 -5.38004,17.7788 -16.17003,21.77827 -6.68736,2.47877 -10.94206,2.64162 -14.99343,0.57389 -3.70625,-1.8916 -5.35696,-3.6935 -7.01174,-7.65394 -2.46853,-5.90804 0.67855,-11.65694 6.3813,-11.65694 2.78846,0 19.4522,-5.4588 16.88398,-5.53094 -0.88117,-0.0248 -4.48598,0.47604 -8.01068,1.11288 -14.57731,2.63383 -21.06017,1.17331 -20.56002,-4.63196 0.13288,-1.54231 -0.14337,-3.04212 -0.61387,-3.33291 -2.90924,-1.798 0.76114,-10.26388 7.88453,-18.18604 4.39111,-4.88349 4.99631,-6.02743 2.47494,-4.67803 -2.29189,1.22659 -4.18483,-0.049 -6.47286,-4.36204 -2.26144,-4.26285 -3.13995,-4.59915 -3.13995,-1.202 0,1.34565 -1.31372,8.2849 -2.91939,15.42056 -2.12968,9.46441 -2.93138,14.92417 -2.96376,20.18354 -0.0411,6.67587 0.20623,7.82768 3.34077,15.55825 1.86184,4.59176 3.26809,8.69986 3.125,9.12911 -0.4782,1.4346 -6.1901,-4.34309 -6.1901,-6.2614 0,-2.72197 -3.17312,-12.63909 -4.47676,-13.99148 -0.98305,-1.01979 -1.12948,-0.86286 -1.12121,1.2016 0.0185,4.62368 3.54663,14.91685 5.38827,15.72011 0.3438,0.14996 1.99249,3.36479 3.66377,7.14407 4.37059,9.8833 13.47978,24.98753 23.38457,38.77466 9.80672,13.65062 23.58412,31.16747 24.10456,30.64703 0.19237,-0.19236 -3.46563,-6.56765 -8.12889,-14.16729 -4.66327,-7.59965 -8.68722,-14.41321 -8.94212,-15.14124 -1.18224,-3.37667 6.18814,5.33055 8.23289,9.72614 1.27195,2.73434 5.02559,8.33972 8.34143,12.45641 3.31584,4.11669 7.5388,9.66637 9.38435,12.33262 1.84556,2.66625 4.63928,6.16239 6.20828,7.76919 1.569,1.60679 2.85272,3.51837 2.85272,4.24795 0,0.72957 1.89252,3.54782 4.2056,6.26276 2.31309,2.71494 4.56609,5.52738 5.00668,6.24987 0.44059,0.72248 2.29116,3.29625 4.11237,5.71948 3.49198,4.64627 6.24572,9.5351 5.68609,10.09473 -0.18317,0.18317 -4.24399,-4.80694 -9.02405,-11.08913 -9.35425,-12.29381 -25.86817,-32.65046 -26.48704,-32.65046 -1.21809,0 10.86715,18.35611 21.3622,32.44676 13.169,17.6807 41.20175,53.42893 43.92998,56.02087 1.83686,1.74511 2.47653,2.0196 2.47653,1.06276 0,-1.17508 -4.70342,-7.78615 -25.08418,-35.25803 -3.84063,-5.1769 -6.74113,-9.41255 -6.44557,-9.41255 1.58592,0 6.45538,4.83577 9.56635,9.50016 4.09889,6.1456 8.17455,11.41119 11.73613,15.16262 1.37508,1.44838 3.10087,3.97175 3.83509,5.60748 2.45428,5.46775 10.92841,13.14412 23.61514,21.39199 15.33775,9.97136 21.75316,15.14765 25.47967,20.55839 l 2.98189,4.32957 9.42029,1.36567 c 40.04071,5.80473 73.99966,25.74391 82.92748,48.69131 3.16621,8.1382 3.08127,12.02334 -0.42177,19.29162 -4.75186,9.85939 -12.41633,17.56698 -25.18779,25.3295 -8.80408,5.35113 -10.93455,5.42492 -3.94908,0.13678 14.5903,-11.04514 18.47282,-25.26755 11.00846,-40.32602 -10.02651,-20.22732 -37.27558,-35.99137 -71.41803,-41.31654 -9.38224,-1.46334 -31.03115,-1.92074 -38.8518,-0.82085 -17.34801,2.43979 -31.56702,8.71325 -40.9396,18.06262 -10.21363,10.18833 -11.86426,19.57988 -5.81211,33.06899 1.28088,2.85484 2.52217,4.99732 2.75842,4.76107 0.23625,-0.23624 -0.13243,-3.39203 -0.81929,-7.01285 -2.02294,-10.66405 -1.71117,-14.87974 1.58811,-21.47463 3.64087,-7.27765 8.86876,-12.00814 18.33659,-16.59196 17.96794,-8.69913 44.62479,-11.46922 65.56248,-6.81305 9.21911,2.05017 24.71974,7.2614 31.12744,10.46489 12.29182,6.1452 25.00228,16.34392 30.59615,24.54996 6.13375,8.99804 7.6866,18.5078 4.43934,27.18687 -2.40065,6.41631 -9.27432,12.92988 -20.60893,19.52926 -4.97164,2.89465 -8.78561,5.61738 -8.58849,6.13118 0.58022,1.51241 -12.38652,3.55739 -25.57068,4.03272 -8.70113,0.31372 -14.50325,0.0828 -21.03188,-0.83716 -11.10314,-1.5645 -23.57569,-4.4334 -23.0403,-5.29966 0.59951,-0.97004 -8.0665,-4.24019 -9.78839,-3.69368 -1.84537,0.5857 -14.05674,-5.51126 -19.95008,-9.96077 -2.32727,-1.75711 -4.30384,-2.75814 -4.46881,-2.26324 -0.64874,1.94622 -10.4609,-4.68014 -16.04415,-10.83496 -2.27097,-2.50346 -3.00236,-2.94726 -3.00401,-1.82279 -0.002,0.82515 4.58432,6.18805 10.30803,12.05554 10.81025,11.08182 12.90661,14.0224 13.06861,18.3314 0.13605,3.61896 -1.12268,5.70675 -7.34661,12.18545 -6.03535,6.28242 -8.26261,10.10869 -10.14271,17.4244 -1.57098,6.11292 -1.14751,16.28098 1.19266,28.63702 0.87617,4.62617 1.81345,9.72631 2.08285,11.33365 0.37448,2.23426 0.95407,3.03895 2.46136,3.41726 2.76876,0.69491 4.70875,3.91669 4.01732,6.67161 -1.40903,5.61402 -16.37235,15.03884 -25.34702,15.96511 -3.82633,0.39491 -4.68798,0.22552 -5.99628,-1.17877 -1.48125,-1.58994 -1.68654,-1.60173 -6.73253,-0.38674 -7.64542,1.8409 -21.12981,1.8156 -25.65431,-0.0481 -11.36178,-4.68015 -11.95081,-5.74156 -11.97605,-21.58077 -0.0202,-12.68583 -0.86174,-15.74907 -4.90029,-17.83749 -3.57016,-1.8462 -12.16085,-1.73722 -21.15201,0.26834 -20.04582,4.4714 -123.67184,4.23517 -140.58746,-0.32049 -2.42323,-0.65261 -8.01068,-1.37512 -12.41655,-1.60557 -6.7406,-0.35257 -8.45264,-0.18774 -10.79819,1.03962 -4.47285,2.34052 -5.38172,4.75043 -4.07824,10.81367 2.00513,9.32702 2.19092,11.65275 1.23245,15.4276 -2.29448,9.03659 -11.86397,13.77595 -29.82654,14.77183 L 120,583.88505 l 2.80373,1.30321 2.80374,1.3032 -4.00534,-0.0245 c -2.20294,-0.0135 -5.98798,-0.48438 -8.41121,-1.04638 z M 393.56476,565.7944 c 0,-0.88117 -0.36049,-1.60213 -0.80107,-1.60213 -0.44059,0 -0.80107,0.72096 -0.80107,1.60213 0,0.88118 0.36048,1.60214 0.80107,1.60214 0.44058,0 0.80107,-0.72096 0.80107,-1.60214 z M 136.7195,545.72622 c 1.45167,-2.45747 1.29993,-4.76493 -0.31334,-4.76493 -0.8389,0 -3.18854,4.7035 -3.18854,6.38282 0,1.71085 2.11191,0.73515 3.50188,-1.61789 z m 258.67316,-6.01267 c 4.67516,-3.42978 7.00132,-7.61516 5.34294,-9.6134 -1.83467,-2.21064 -8.34532,-1.14314 -16.29622,2.67198 -3.79279,1.81991 -6.89599,3.53811 -6.89599,3.81824 0,0.28012 0.81108,1.18594 1.80241,2.01293 2.22499,1.85616 5.22174,1.97308 7.09606,0.27685 1.76142,-1.59407 3.11755,-0.84244 3.11755,1.72789 0,2.63597 1.29059,2.43806 5.83325,-0.89449 l 0,0 z m -133.40334,0.66419 c -1.6522,-0.17282 -4.35581,-0.17282 -6.00801,0 -1.65221,0.17283 -0.3004,0.31423 3.004,0.31423 3.30441,0 4.65621,-0.1414 3.00401,-0.31423 z m 39.4526,-1.01858 c 0.8461,-0.5468 -0.29365,-0.78016 -3.85235,-0.78881 -3.16814,-0.008 -4.86921,0.28665 -4.55886,0.78881 0.63218,1.02289 6.8284,1.02289 8.41121,0 z M 123.6048,537.91723 c 0,-0.35247 -0.4506,-1.11997 -1.00133,-1.70556 -0.82141,-0.87339 -0.64149,-0.98103 1.00133,-0.59905 5.68555,1.32198 9.04569,1.56886 8.46024,0.62159 -0.87752,-1.41986 -7.676,-4.25456 -21.18877,-8.8349 -12.699902,-4.3048 -15.753894,-4.95302 -13.67811,-2.9032 1.276566,1.2606 16.57034,7.9679 20.299,8.90242 1.81509,0.45492 2.04323,0.72305 1.07584,1.26443 -0.73681,0.41234 -1.06001,1.32847 -0.80828,2.2911 0.31536,1.20595 1.0921,1.60403 3.12977,1.60403 1.49067,0 2.71031,-0.28839 2.71031,-0.64086 z m 108.1442,-0.16021 c 0,-0.96227 -3.76871,-0.96227 -6.00801,0 -1.20548,0.51801 -0.66005,0.7024 2.20293,0.74476 2.09279,0.031 3.80508,-0.30417 3.80508,-0.74476 z m 89.264,0.0891 c 0.40843,-0.66085 -13.13647,-0.25421 -13.89685,0.4172 -0.18357,0.1621 2.76912,0.29473 6.56154,0.29473 3.79242,0 7.09332,-0.32037 7.33531,-0.71193 z m -37.88571,-1.72481 c 11.17451,-0.45903 22.48019,-1.25474 25.12371,-1.76825 2.64353,-0.51351 7.96836,-0.84798 11.83296,-0.74327 5.44814,0.14762 8.6662,-0.25891 14.32564,-1.80972 7.52253,-2.06133 8.51256,-2.4961 7.64948,-3.35918 -0.27739,-0.27739 -11.78273,0.53369 -25.56743,1.8024 -24.52462,2.25719 -26.04405,2.30303 -70.72396,2.13388 -26.3143,-0.0996 -45.15176,0.12355 -44.45928,0.52672 2.11074,1.22886 21.1252,2.44511 40.69784,2.60323 13.76156,0.11116 16.88886,0.28929 11.37159,0.64772 l -7.61015,0.4944 8.52114,0.15333 c 4.68663,0.0843 17.66393,-0.22223 28.83846,-0.68126 l 0,0 z m -101.84558,-0.76753 c 0,-0.44059 -1.24041,-0.80107 -2.75646,-0.80107 -1.51606,0 -2.97926,0.36048 -3.25156,0.80107 -0.29899,0.48378 0.79276,0.80106 2.75646,0.80106 1.78836,0 3.25156,-0.36048 3.25156,-0.80106 z m 6.40854,-4.80641 c 0.87856,-0.56778 0.27362,-0.77983 -2.25022,-0.78881 -2.0999,-0.007 -3.25791,0.30148 -2.95672,0.78881 0.62802,1.01615 3.63455,1.01615 5.20694,0 z m -8.81175,-1.69553 c 0,-0.38922 -1.26168,-0.70768 -2.80374,-0.70768 -2.69654,0 -3.84373,1.12196 -1.83263,1.79233 1.43823,0.47941 4.63637,-0.26877 4.63637,-1.08465 z m -10.06652,-0.62579 c 0.85193,-0.33362 1.21241,-0.80608 0.80106,-1.04992 -1.14878,-0.68097 -5.99706,0.25164 -5.49885,1.05775 0.52017,0.84167 2.53709,0.8383 4.69779,-0.008 l 0,1.8e-4 z m -60.85519,-26.26497 c 2.42455,-1.15619 3.78218,-2.65537 2.40466,-2.65537 -1.10468,0 -5.84806,2.33902 -6.3323,3.12254 -0.78023,1.26242 0.65985,1.09114 3.92764,-0.46717 l 0,0 z m 11.61102,-15.67273 c 4.2444,-11.93126 -0.77654,-29.43143 -11.34742,-39.55076 -5.0474,-4.83181 -11.983435,-9.4925 -13.369971,-8.98401 -0.405553,0.14873 1.963789,3.33451 5.265211,7.0795 11.65718,13.22343 16.16294,20.63096 16.35172,26.88244 0.28583,9.46537 0.97568,17.17631 1.53666,17.17631 0.3507,0 1.05442,-1.17157 1.5638,-2.60348 l 0,0 z m 306.03967,-22.22964 c -0.82962,-1.55016 -3.20427,-2.26256 -3.20427,-0.96128 0,1.00874 1.8147,2.56342 2.99213,2.56342 0.82134,0 0.87058,-0.37183 0.21214,-1.60214 z m -4.00534,-3.44459 c 0,-1.33963 -1.62432,-2.96395 -2.96395,-2.96395 -1.52307,0 -1.27172,2.18944 0.36048,3.14011 1.90234,1.10801 2.60347,1.06057 2.60347,-0.17616 l 0,0 z m -192.37109,-6.08035 c 0.59777,-0.37877 0.77801,-0.87105 0.40053,-1.09396 -1.10679,-0.65357 -5.91906,0.31627 -5.43728,1.09581 0.55783,0.90259 3.61112,0.90147 5.03675,-0.002 l 0,-2.4e-4 z m -18.50941,-1.35556 c -0.25664,-0.25663 -4.55237,-0.96554 -9.54606,-1.57534 l -9.07945,-1.10874 9.61281,0.40594 c 58.2544,2.46003 97.09896,1.73627 136.11839,-2.53618 6.13346,-0.67159 12.94168,-1.56052 15.12936,-1.97541 2.18769,-0.41488 4.91973,-0.71484 6.07121,-0.66656 2.30621,0.0967 0.0572,0.60599 -10.19785,2.30942 -3.95235,0.65651 -5.61797,1.24212 -5.07557,1.78452 1.02869,1.02869 24.48361,-1.90425 33.3377,-4.16875 8.16948,-2.0894 21.92098,-9.54107 20.83877,-11.29211 -0.53538,-0.86627 0.70177,-1.10441 -20.78809,4.00156 -9.25234,2.19833 -18.26435,4.20097 -20.0267,4.4503 -2.94936,0.41725 -3.04495,0.37522 -1.20161,-0.52831 1.97348,-0.9673 1.95785,-0.9858 -1.07227,-1.2688 -3.26595,-0.30502 -18.11464,1.66101 -23.18054,3.06922 -1.66349,0.46241 -2.83441,1.14833 -2.60206,1.52427 0.71626,1.15896 -6.96521,1.2492 -62.86475,0.73857 -50.94238,-0.46535 -77.76596,-1.58707 -75.2427,-3.14653 0.88,-0.54387 -1.58634,-1.57005 -6.32926,-2.63342 -1.38766,-0.31111 -1.75328,-0.1254 -1.42701,0.72486 0.63362,1.65121 -0.42078,1.55045 -25.93085,-2.47795 -31.67279,-5.00156 -51.82133,-9.08915 -59.694541,-12.11039 -0.661146,-0.2537 -1.202083,-0.0683 -1.202083,0.412 0,1.17239 5.964624,4.05576 15.220294,7.35768 4.18558,1.49319 7.04286,2.82819 6.34951,2.96668 -1.56853,0.3133 -19.311561,-5.93838 -29.355186,-10.34316 -4.1246,-1.80892 -7.704404,-3.0838 -7.955119,-2.83309 -0.570954,0.57096 6.493234,5.11368 13.237016,8.51225 9.753029,4.9151 28.980229,10.33982 48.238639,13.60994 10.25973,1.74213 45.86517,6.25411 52.79622,6.69042 8.26478,0.52028 16.28927,0.57461 15.82178,0.10711 l 0,0 z m 115.09969,-1.05363 c 2.27485,-0.89085 0.29502,-1.77245 -2.65529,-1.18239 -1.35986,0.27197 -2.27681,0.81109 -2.03767,1.19803 0.51582,0.83461 2.53897,0.82787 4.69296,-0.0156 l 0,-2e-5 z m -78.09102,-15.29125 c 1.10896,-0.006 1.6316,-0.29731 1.2016,-0.66933 -0.41856,-0.36212 -2.74366,-0.49539 -5.16689,-0.29615 -3.29234,0.27068 -4.00095,0.52891 -2.80374,1.02169 0.88118,0.3627 2.3231,0.5009 3.20427,0.30709 0.88118,-0.19379 2.48532,-0.35728 3.56476,-0.3633 z m -33.03981,-1.31509 c -0.2767,-0.2767 -2.58978,-0.77715 -5.14019,-1.1121 -2.5504,-0.33497 11.76477,-0.42434 31.8115,-0.19861 37.4506,0.4217 60.48718,-0.30305 84.39074,-2.65497 6.98232,-0.68701 12.90021,-1.04402 13.15087,-0.79337 0.25065,0.25065 -0.59568,0.48107 -1.88072,0.51204 -1.28505,0.031 -3.05741,0.3661 -3.93859,0.74476 -2.63622,1.13282 5.22736,0.94039 16.77614,-0.41055 21.09184,-2.46724 38.48464,-6.95751 50.61935,-13.06832 3.46653,-1.74568 7.20398,-3.43399 8.30545,-3.75182 4.76592,-1.37517 15.01805,-7.4403 19.33945,-11.44116 8.84289,-8.18695 11.8543,-17.41304 11.88634,-36.41617 l 0.0159,-9.41378 -5.40721,-8.80412 c -8.1031,-13.1936 -16.75923,-25.29915 -35.51778,-49.67139 -9.32542,-12.11615 -20.52236,-26.89586 -24.88209,-32.84379 -4.35975,-5.94793 -9.73053,-13.13204 -11.93509,-15.96469 -2.20458,-2.83265 -7.69389,-11.05902 -12.19849,-18.28084 -9.86407,-15.81414 -16.59459,-24.39537 -24.60619,-31.37223 -5.61732,-4.89181 -6.18557,-5.69332 -8.86366,-12.50202 -3.2317,-8.21621 -6.79463,-13.83776 -10.59009,-16.70893 -5.06069,-3.82828 -11.96337,-4.42253 -18.69583,-1.60953 -2.08342,0.8705 -8.25971,1.10862 -28.5195,1.0995 -48.49281,-0.0218 -79.65613,-3.14371 -104.30455,-10.4491 -9.16406,-2.71607 -9.27259,-2.73042 -9.27259,-1.22622 0,2.67289 14.50707,7.11669 32.84379,10.06072 21.63956,3.47431 30.59267,4.0425 70.494,4.4737 39.80098,0.43012 46.54002,0.89591 52.84878,3.65279 6.16388,2.69358 8.54649,8.02707 6.1491,13.76483 -1.1092,2.65468 -1.55872,2.97427 -4.28411,3.04574 -6.04698,0.15858 -8.97066,2.09683 -4.89456,3.24484 1.54985,0.4365 1.39519,0.54812 -0.95406,0.68857 -1.76328,0.10542 -0.2696,0.5366 4.02506,1.16191 7.14535,1.04038 10.11687,2.30198 10.84803,4.60567 1.27869,4.0288 -5.26453,7.36078 -14.55336,7.41095 -3.1753,0.0171 -5.58911,0.32949 -5.36403,0.69411 0.22508,0.3646 -7.19941,0.40267 -16.49886,0.0846 -12.10517,-0.41405 -16.90811,-0.32823 -16.90811,0.30211 0,0.82592 1.89322,1.32928 7.61015,2.02337 1.32917,0.16138 0.52365,0.34541 -1.8024,0.4118 -6.99787,0.19971 -4.84218,1.72432 2.4032,1.69966 8.28736,-0.0282 41.46623,-1.31642 52.69665,-2.04603 l 8.43762,-0.54816 6.56457,7.94434 c 6.90024,8.35057 14.02377,18.00467 30.72955,41.64595 l 10.11064,14.30811 0.42342,8.01068 c 0.23288,4.40587 0.028,23.91681 -0.45541,43.35763 -1.0042,40.38896 -1.36247,37.92333 6.01722,41.41022 2.32875,1.10033 9.39419,3.49053 15.70099,5.31155 15.5164,4.4802 18.81296,6.11401 24.79373,12.28801 5.61075,5.79204 5.75321,6.98134 1.06115,8.85873 -3.26624,1.3069 -13.86083,3.64751 -17.46157,3.85771 -1.2302,0.0718 -0.29073,0.34217 2.08769,0.6008 5.46314,0.59405 6.77621,2.2137 4.41678,5.44804 -2.26481,3.10463 -15.84583,9.79518 -27.73048,13.66113 -12.3287,4.01039 -15.48512,4.73268 -14.62909,3.34759 0.91023,-1.47278 -7.66154,-0.67264 -34.21993,3.19429 -38.45081,5.59849 -68.15519,6.59605 -97.18171,3.26365 -10.51051,-1.20665 -23.52439,-1.94975 -42.05608,-2.40141 -26.10691,-0.63628 -37.73352,-1.66128 -49.08091,-4.32699 -4.62423,-1.08632 -7.15965,-0.34092 -3.64078,1.07036 3.6765,1.47451 -1.06798,0.91143 -9.46807,-1.12369 -11.49186,-2.78416 -25.19517,-7.32542 -33.0638,-10.95729 -6.787771,-3.133 -8.331189,-3.33372 -6.784946,-0.88242 2.794057,4.4295 30.250296,13.00455 58.120366,18.15196 9.10867,1.68231 21.38047,3.0821 48.32401,5.51209 5.88483,0.53074 14.29184,0.56442 13.78263,0.0552 l 0,3e-5 z m 93.5605,-0.29798 c 0.299,-0.48379 -0.79275,-0.80107 -2.75646,-0.80107 -1.78835,0 -3.25155,0.36048 -3.25155,0.80107 0,0.44059 1.24041,0.80107 2.75646,0.80107 1.51605,0 2.97925,-0.36048 3.25155,-0.80107 z m -0.49227,-11.5257 c 25.21491,-2.45843 51.753,-8.14094 77.50201,-16.59521 9.2839,-3.04822 9.74217,-3.30215 10.21362,-5.65942 0.81521,-4.07608 0.58342,-6.27307 -0.66186,-6.27307 -0.6355,0 -3.60947,2.16125 -6.60881,4.80278 -2.99935,2.64153 -6.5348,5.12594 -7.85656,5.52091 -31.39685,9.382 -55.01394,13.60281 -90.17076,16.11517 -27.78959,1.98588 -82.10705,0.51875 -106.89199,-2.88719 -21.04249,-2.89165 -42.88229,-10.83373 -55.72572,-20.26476 -6.27471,-4.60755 -8.14572,-7.79802 -6.91834,-11.79721 1.2631,-4.11554 -0.0478,-4.93043 -4.48,-2.78485 -1.95731,0.94751 -4.16806,2.39604 -4.91278,3.21895 -1.25508,1.38684 -1.25985,1.72199 -0.0653,4.58593 3.27463,7.85068 13.5246,14.80901 29.77426,20.21268 23.2128,7.71917 44.18209,11.18618 79.97804,13.22339 13.61377,0.77477 74.53912,-0.22031 86.82416,-1.4181 l 2e-5,0 z m 83.98541,-37.92205 c -1.10647,-1.10647 -2.49955,-1.84917 -3.09573,-1.65045 -0.75007,0.25002 -0.24168,1.20361 1.65045,3.09573 1.89213,1.89213 2.84572,2.40052 3.09574,1.65046 0.19872,-0.59618 -0.54398,-1.98926 -1.65046,-3.09574 z m 100.35199,2.18473 c 0,-1.65846 -1.93258,-2.21062 -2.80374,-0.80106 -0.67052,1.08493 0.23426,2.4032 1.64942,2.4032 0.63488,0 1.15432,-0.72096 1.15432,-1.60214 z m -4.0763,-5.80774 c -1.81284,-3.51942 -7.43714,-10.51973 -7.73472,-9.62702 -0.44782,1.34347 2.03262,5.85899 4.84824,8.82595 2.8648,3.01879 4.22296,3.39572 2.88648,0.80107 z m -38.38031,-6.56153 c 0,-1.55511 -1.37816,-2.30852 -3.04237,-1.66319 -1.24813,0.48399 -1.23193,0.62556 0.19148,1.67312 1.97589,1.45417 2.85089,1.45112 2.85089,-0.01 l 0,0 z m 8.01068,-18.8442 c 0,-1.04298 -2.71454,-2.43139 -4.75374,-2.43139 -2.02168,0 -2.15483,1.23129 -0.25293,2.33904 1.79074,1.04301 5.00667,1.10233 5.00667,0.0924 z M 323.07076,226.143 c 0.66088,-0.33907 2.73365,-0.87027 4.60614,-1.18046 1.8725,-0.31019 3.40454,-0.85075 3.40454,-1.20125 0,-1.05723 -3.47642,-1.39078 -10.34893,-0.99294 -5.91628,0.34249 -6.47164,0.51492 -6.03991,1.87518 0.34472,1.08612 0.0751,1.50137 -0.9804,1.51026 -0.80073,0.006 -1.99658,0.38804 -2.65746,0.84732 -1.40629,0.9773 10.03053,0.16055 12.01602,-0.85811 z m -77.70361,-10.41536 c 0,-0.44059 -1.40071,-0.80107 -3.1127,-0.80107 -1.71198,0 -4.14523,-0.5385 -5.40721,-1.19667 -1.32452,-0.69078 -4.43332,-1.19875 -7.35384,-1.2016 -2.78264,-0.002 -5.69401,-0.3446 -6.46973,-0.75975 -2.4643,-1.31885 -17.50402,-2.01545 -18.8789,-0.8744 -1.33828,1.11068 -9.06551,0.73094 -25.26627,-1.24165 -5.06675,-0.61692 -9.93324,-1.11359 -10.81442,-1.10371 -8.51784,0.0955 27.52134,5.9201 43.99047,7.1097 13.41215,0.96878 33.3126,1.01009 33.3126,0.0692 z m -56.94258,-6.72336 c -0.42066,-0.39675 -14.99655,-2.89795 -16.69658,-2.8651 -0.99313,0.0192 -0.93593,0.2129 0.2695,0.91269 0.84161,0.48859 4.8069,1.31084 8.81175,1.82725 6.79472,0.87613 8.44021,0.90318 7.61533,0.12516 z m 98.12748,-8.18034 c 2.14808,-0.8243 0.71728,-1.62581 -2.27803,-1.27613 -1.56528,0.18274 -2.64733,0.65363 -2.40456,1.04643 0.50801,0.82198 2.8409,0.93642 4.68259,0.2297 z m -87.38019,-5.26571 c 1.27407,-0.68187 1.36631,-0.97197 0.46224,-1.45389 -1.28227,-0.68354 -20.7556,-1.91466 -20.7556,-1.31219 0,0.2156 1.99463,0.80608 4.43251,1.31218 2.43788,0.5061 4.87113,1.44238 5.40721,2.08061 1.08738,1.29458 7.59237,0.90459 10.45364,-0.62671 l 0,0 z M 259.71799,180.015 c 0.88358,-0.88359 -0.95919,-1.27231 -3.64391,-0.76864 -2.2325,0.41881 -2.69672,0.74828 -1.83975,1.30573 1.0287,0.66915 4.63015,0.31641 5.48366,-0.53709 z m 0.0684,-2.73863 c 0,-0.47817 -3.08652,-0.80107 -7.65743,-0.80107 -4.90095,0 -7.4792,0.28836 -7.16233,0.80107 0.2723,0.44059 3.71814,0.80107 7.65743,0.80107 4.24084,0 7.16233,-0.32676 7.16233,-0.80107 z m 106.54002,-9.62986 c 3.3033,-0.47304 6.34936,-1.20344 6.76903,-1.62311 1.225,-1.225 -6.66892,-0.9095 -12.0059,0.47986 -5.49779,1.43122 -7.99859,3.14274 -3.57284,2.44521 1.54206,-0.24303 5.50643,-0.82892 8.80971,-1.30196 l 0,0 z m -81.77366,-9.28882 c 0.73535,-0.67626 -0.48443,-0.86186 -3.33136,-0.50691 -1.64867,0.20555 -2.78592,0.71622 -2.52721,1.13482 0.41453,0.67073 4.97833,0.1816 5.85857,-0.62791 l 0,0 z m -23.63028,0.008 c 0.69692,-0.26757 1.26713,-0.78273 1.26713,-1.14494 0,-1.2935 -12.62099,-2.95285 -19.02537,-2.50136 -2.14134,0.15096 -2.38188,2.11314 -0.40054,3.26717 1.50853,0.87863 16.06502,1.18245 18.15878,0.37899 l 0,1.4e-4 z m 26.9013,-2.62009 c 0,-1.00975 -2.35151,-2.82 -2.92205,-2.24945 -0.82034,0.82034 0.40393,2.95244 1.69532,2.95244 0.6747,0 1.22673,-0.31634 1.22673,-0.70299 z m -14.63705,-3.90315 c -0.31933,-1.33512 -0.36436,-1.33512 -0.94551,0 -0.33561,0.77103 -0.33561,2.03271 0,2.80374 0.58115,1.33511 0.62618,1.33511 0.94551,0 0.18442,-0.77103 0.18442,-2.03271 0,-2.80374 z m 44.24839,1.45453 c 1.36042,-2.54197 1.0176,-8.44824 -0.57262,-9.86546 -1.62622,-1.44931 -14.37571,-2.95194 -13.53738,-1.5955 0.27769,0.44931 1.49961,1.05904 2.71539,1.35496 1.21579,0.29592 3.56231,1.42241 5.21452,2.50332 2.60386,1.70349 3.004,2.37279 3.004,5.02467 0,4.30288 1.57066,5.57777 3.17609,2.57801 z m 4.83459,-2.45587 c 0,-1.32176 -0.36048,-2.4032 -0.80106,-2.4032 -0.44059,0 -0.80107,1.08144 -0.80107,2.4032 0,1.32176 0.36048,2.40321 0.80107,2.40321 0.44058,0 0.80106,-1.08145 0.80106,-2.40321 z m -36.84913,-0.80107 c 0,-2.60453 -1.18941,-3.27406 -1.77886,-1.00133 -0.44907,1.73146 0.0642,3.40454 1.04455,3.40454 0.40387,0 0.73431,-1.08144 0.73431,-2.40321 z m 41.65554,0 c 0,-1.32176 -0.32192,-2.4032 -0.71536,-2.4032 -1.01269,0 -1.72372,2.17867 -1.17646,3.60481 0.78123,2.03585 1.89182,1.33045 1.89182,-1.20161 z m -96.19492,-2.71735 c -1.70134,-1.60128 -16.95951,-8.73372 -19.8316,-9.27029 -6.70733,-1.25307 -9.19454,2.59648 -3.53289,5.468 2.60098,1.31918 4.88831,1.93544 13.41789,3.6151 2.16644,0.42662 10.36491,0.58091 9.9466,0.18719 z m 48.53278,-5.69386 c 0.81304,-2.31325 1.50118,-6.93768 1.62888,-10.94648 0.12162,-3.81763 0.46529,-7.71045 0.76372,-8.65071 0.55861,-1.76006 -1.11287,-5.09723 -3.53542,-7.05855 -5.61765,-4.54811 -27.99818,-12.19606 -35.68984,-12.19606 -4.47356,0 -3.17126,1.62702 3.64878,4.55859 6.31509,2.71453 11.95416,6.80724 11.95416,8.67608 0,0.6205 -0.69726,1.50135 -1.54947,1.95744 -4.24586,2.27231 -12.23189,-0.82997 -14.87242,-5.7774 -1.82753,-3.42416 -4.5936,-4.00777 -7.57042,-1.59728 -2.2377,1.81197 -1.59604,3.48589 2.33294,6.08596 7.64894,5.06184 16.38384,7.09857 29.02786,6.76848 10.05549,-0.2625 12.27032,0.40346 10.58235,3.18195 -1.69914,2.79685 -6.78795,4.57 -12.74389,4.44049 -3.08411,-0.067 -8.67157,0.10559 -12.41656,0.3837 l -6.80908,0.50565 11.21496,0.50209 c 17.58302,0.78719 23.56838,3.2286 20.82246,8.49343 -1.26126,2.41825 -1.55686,5.25197 -0.64317,6.16565 0.88675,0.88677 2.33961,-1.18387 3.85416,-5.49303 l 0,0 z m -8.1597,0.28061 c 2.09414,-1.10227 2.92256,-2.22867 2.93908,-3.99626 0.0109,-1.16288 -0.46699,-1.11595 -4.19334,0.4119 -5.35633,2.19615 -6.34281,2.83853 -5.77353,3.75964 0.6422,1.0391 4.92352,0.93233 7.02779,-0.17528 z m -16.28098,-0.66005 c 1.95806,-1.23793 -0.094,-2.46777 -4.95474,-2.96944 -4.26382,-0.44007 -7.85566,0.52914 -7.85566,2.11974 0,1.45468 10.72797,2.16624 12.8104,0.8497 z m 30.44728,-6.02911 c 0,-2.42323 -0.36048,-4.40587 -0.80107,-4.40587 -0.8825,0 -1.12194,7.42278 -0.26702,8.2777 0.96332,0.96332 1.06809,0.58353 1.06809,-3.87183 z m -109.74633,-2.00267 c 0.86792,-0.5609 0.13184,-0.77994 -2.65075,-0.7888 -2.36697,-0.007 -3.66145,0.29661 -3.35726,0.7888 0.62957,1.01867 4.43173,1.01867 6.00801,0 z m 86.11482,-4.00534 c 0.31084,-0.50294 -1.46031,-0.80107 -4.75913,-0.80107 -2.96877,0 -5.25422,0.34845 -5.25422,0.80107 0,0.44416 2.12042,0.80107 4.75913,0.80107 2.61752,0 4.98192,-0.36048 5.25422,-0.80107 z m 80.47916,-1.54947 c 1.95395,-3.65097 0.005,-5.52799 -2.67071,-2.57172 -1.46463,1.6184 -1.00688,4.12119 0.75375,4.12119 0.59824,0 1.46088,-0.69726 1.91696,-1.54947 z m -56.04658,-9.84432 c 0,-5.85885 -1.22207,-9.78147 -3.74729,-12.02813 -1.60197,-1.42526 -11.4261,-4.17695 -17.88155,-5.00855 l -3.60481,-0.46437 4.80641,1.86565 c 7.54932,2.93034 12.48191,5.59218 15.34547,8.28111 2.59916,2.44065 2.63346,2.56424 2.14946,7.74725 -0.27051,2.89688 -0.23639,5.92631 0.0759,6.73207 0.54345,1.40248 0.61654,1.39864 1.71207,-0.09 0.72874,-0.99021 1.14438,-3.54534 1.14438,-7.03508 z M 226.14152,96.789596 c 0,-0.542972 -4.55124,-2.82431 -5.63445,-2.82431 -1.62142,0 -0.30986,1.943087 1.6885,2.501527 2.46276,0.688214 3.94595,0.809544 3.94595,0.322783 z m -14.59376,-3.345445 c 1.92461,-0.854435 2.53084,-1.432678 1.71357,-1.634459 -1.65976,-0.409792 -5.54438,1.086617 -5.54438,2.135768 0,1.092456 0.34151,1.047765 3.83081,-0.501309 l 0,0 z"
       id="path4441"
       inkscape:connector-curvature="0"
       transform="translate(0,452.36218)" />
    <path
       style="fill:#ffffff;fill-opacity:1;stroke:none"
       d="m 374.96515,235.83255 c -0.84527,-0.93736 -3.5711,-4.80737 -6.05739,-8.60004 l -4.52053,-6.89575 4.25498,-4.25499 c 4.81142,-4.81142 5.44595,-6.49997 2.05205,-5.46074 -1.21161,0.37101 -4.0856,0.68045 -6.38664,0.68765 -3.20783,0.01 -4.58025,-0.38354 -5.88375,-1.68731 l -1.70004,-1.70039 1.84398,-1.71793 c 1.01419,-0.94486 3.21128,-2.0861 4.88241,-2.53609 3.6592,-0.98532 4.06985,-1.96403 0.52676,-1.25541 -3.1722,0.63444 -8.02227,-0.65314 -12.05887,-3.20133 -5.47651,-3.45717 -4.87397,-5.87679 1.46931,-5.90022 1.8674,-0.007 5.76504,-1.05245 8.90603,-2.38906 3.07196,-1.30723 7.12802,-2.62347 9.01348,-2.92496 l 3.42809,-0.54818 -0.55627,3.9263 c -1.5507,10.9451 -1.5273,12.22488 0.3012,16.47534 2.39752,5.57319 3.08722,11.45658 2.50706,21.38627 -0.48234,8.25548 -0.49346,8.29175 -2.02186,6.59684 z"
       id="path4951"
       inkscape:connector-curvature="0"
       transform="translate(0,452.36218)" />
  </g>
</svg>
