<?xml version="1.0" encoding="UTF-8" standalone="no"?>
<!-- Created with Inkscape (http://www.inkscape.org/) -->

<svg
   xmlns:dc="http://purl.org/dc/elements/1.1/"
   xmlns:cc="http://creativecommons.org/ns#"
   xmlns:rdf="http://www.w3.org/1999/02/22-rdf-syntax-ns#"
   xmlns:svg="http://www.w3.org/2000/svg"
   xmlns="http://www.w3.org/2000/svg"
   xmlns:sodipodi="http://sodipodi.sourceforge.net/DTD/sodipodi-0.dtd"
   xmlns:inkscape="http://www.inkscape.org/namespaces/inkscape"
   width="600"
   height="600"
   id="svg2"
   version="1.1"
   inkscape:version="0.48.2 r9819"
   sodipodi:docname="destinat_inconnue.svg">
  <defs
     id="defs4">
    <filter
       id="filter4487"
       inkscape:label="Drop shadow"
       width="1.5"
       height="1.5"
       x="-.25"
       y="-.25">
      <feGaussianBlur
         id="feGaussianBlur4489"
         in="SourceAlpha"
         stdDeviation="2"
         result="blur" />
      <feColorMatrix
         id="feColorMatrix4491"
         result="bluralpha"
         type="matrix"
         values="1 0 0 0 0 0 1 0 0 0 0 0 1 0 0 0 0 0 0.5 0 " />
      <feOffset
         id="feOffset4493"
         in="bluralpha"
         dx="4"
         dy="4"
         result="offsetBlur" />
      <feMerge
         id="feMerge4495">
        <feMergeNode
           id="feMergeNode4497"
           in="offsetBlur" />
        <feMergeNode
           id="feMergeNode4499"
           in="SourceGraphic" />
      </feMerge>
    </filter>
  </defs>
  <sodipodi:namedview
     id="base"
     pagecolor="#e0e0e1"
     bordercolor="#666666"
     borderopacity="1.0"
     inkscape:pageopacity="1"
     inkscape:pageshadow="2"
     inkscape:zoom="1.2483333"
     inkscape:cx="299.19893"
     inkscape:cy="302.45617"
     inkscape:document-units="px"
     inkscape:current-layer="layer1"
     showgrid="true"
     showguides="true"
     inkscape:guide-bbox="true"
     inkscape:window-width="1680"
     inkscape:window-height="964"
     inkscape:window-x="0"
     inkscape:window-y="30"
     inkscape:window-maximized="1">
    <inkscape:grid
       type="xygrid"
       id="grid3753"
       empspacing="5"
       visible="true"
       enabled="true"
       snapvisiblegridlinesonly="true" />
    <sodipodi:guide
       orientation="1,0"
       position="300,620"
       id="guide3755" />
    <sodipodi:guide
       orientation="0,1"
       position="-50,300"
       id="guide3757" />
  </sodipodi:namedview>
  <metadata
     id="metadata7">
    <rdf:RDF>
      <cc:Work
         rdf:about="">
        <dc:format>image/svg+xml</dc:format>
        <dc:type
           rdf:resource="http://purl.org/dc/dcmitype/StillImage" />
        <dc:title></dc:title>
      </cc:Work>
    </rdf:RDF>
  </metadata>
  <g
     inkscape:label="Calque 1"
     inkscape:groupmode="layer"
     id="layer1"
     transform="translate(0,-452.36218)">
    <rect
       style="fill:#ffffff;fill-opacity:1;stroke:#808080;stroke-width:10;stroke-linecap:round;stroke-linejoin:round;stroke-miterlimit:4;stroke-opacity:1;stroke-dasharray:none;stroke-dashoffset:0"
       id="rect4527"
       width="580"
       height="580"
       x="10"
       y="10"
       transform="translate(0,452.36218)"
       ry="100" />
    <path
       style="fill:#000000;fill-opacity:1;stroke:#ffffff;stroke-opacity:1;filter:url(#filter4487)"
       d="m 269.4375,658.79968 0.5625,53.5625 -239.59375,0 0,80 240.40625,0 0.5625,53.5625 49.78125,-48.125 49.8125,-48.125 -50.78125,-45.4375 -50.75,-45.4375 z"
       id="rect3946"
       inkscape:connector-curvature="0" />
    <g
       transform="matrix(0.79509977,0,0,1.2577038,11.389953,7.971367)"
       style="font-size:497.2543335px;font-style:normal;font-variant:normal;font-weight:normal;font-stretch:normal;fill:#000000;fill-opacity:1;stroke:#ffffff;stroke-opacity:1;font-family:Liberation Mono;-inkscape-font-specification:Liberation Mono"
       id="text4501">
      <path
         d="m 650.41255,513.93739 c -2.6e-4,11.16903 -1.53799,20.96196 -4.6132,29.3788 -2.91385,8.41727 -6.87958,15.94406 -11.8972,22.5804 -5.0181,6.63671 -10.76436,12.62577 -17.2388,17.96719 -6.31302,5.34177 -12.78768,10.44057 -19.42399,15.2964 -6.63674,4.69429 -13.19233,9.46935 -19.6668,14.3252 -6.31298,4.69427 -12.05924,9.79307 -17.2388,15.2964 -5.01803,5.50359 -9.14563,11.65451 -12.3828,18.4528 -3.07562,6.63663 -4.69428,14.40622 -4.856,23.30879 l -42.48999,0 c 0.32362,-10.84496 2.02322,-20.39509 5.0988,-28.65039 3.23721,-8.25508 7.36481,-15.62 12.3828,-22.0948 5.01773,-6.63639 10.68306,-12.54452 16.99599,-17.7244 6.31265,-5.34144 12.70638,-10.3593 19.1812,-15.0536 6.4745,-4.85582 12.78729,-9.63088 18.9384,-14.32519 6.31261,-4.85581 11.897,-10.03554 16.7532,-15.5392 4.85579,-5.50326 8.74059,-11.57326 11.6544,-18.21 3.07525,-6.79817 4.61298,-14.48683 4.61319,-23.066 -2.1e-4,-8.90241 -1.69981,-16.75294 -5.09879,-23.55159 -3.23755,-6.79813 -8.01261,-12.46346 -14.3252,-16.996 -6.15113,-4.69385 -13.67792,-8.25491 -22.5804,-10.6832 -8.74096,-2.4277 -18.61482,-3.6417 -29.6216,-3.642 -11.00706,3e-4 -21.04278,1.53803 -30.10719,4.6132 -8.90277,3.07576 -16.67236,7.52708 -23.3088,13.354 -6.63662,5.6656 -11.97821,12.62586 -16.0248,20.8808 -4.04673,8.09358 -6.6366,17.1581 -7.7696,27.19359 l -44.67519,-2.9136 c 1.94238,-14.56775 5.9081,-27.92173 11.8972,-40.06199 5.98902,-12.30158 14.08235,-22.8229 24.28,-31.564 10.19753,-8.74048 22.41844,-15.53888 36.66279,-20.3952 14.24416,-5.01753 30.4308,-7.52646 48.55999,-7.52679 17.48144,3.3e-4 33.34436,1.94273 47.5888,5.8272 14.40592,3.88512 26.70778,9.63138 36.90559,17.23879 10.19736,7.44617 18.04789,16.75349 23.5516,27.922 5.50321,11.0072 8.25494,23.79465 8.2552,38.36239 m -151.74998,243.28557 0,-48.80279 47.34599,0 0,48.80279 -47.34599,0"
         style="fill:#000000"
         id="path4506"
         inkscape:connector-curvature="0" />
    </g>
  </g>
</svg>
