<?xml version="1.0" encoding="UTF-8" standalone="no"?>
<!-- Created with Inkscape (http://www.inkscape.org/) -->

<svg
   xmlns:dc="http://purl.org/dc/elements/1.1/"
   xmlns:cc="http://creativecommons.org/ns#"
   xmlns:rdf="http://www.w3.org/1999/02/22-rdf-syntax-ns#"
   xmlns:svg="http://www.w3.org/2000/svg"
   xmlns="http://www.w3.org/2000/svg"
   version="1.1"
   width="600"
   height="600"
   id="svg2">
  <defs
     id="defs4" />
  <metadata
     id="metadata7">
    <rdf:RDF>
      <cc:Work
         rdf:about="">
        <dc:format>image/svg+xml</dc:format>
        <dc:type
           rdf:resource="http://purl.org/dc/dcmitype/StillImage" />
        <dc:title></dc:title>
      </cc:Work>
    </rdf:RDF>
  </metadata>
  <g
     transform="translate(0,-452.36218)"
     id="layer1">
    <path
       d="m 570,290 a 280,280 0 1 1 -560,0 280,280 0 1 1 560,0 z"
       transform="matrix(1.0357143,0,0,1.0357143,-0.35714286,452.00504)"
       id="path2993"
       style="fill:#ffffff;fill-opacity:1;stroke:#000000;stroke-width:9.65517235;stroke-linecap:round;stroke-linejoin:round;stroke-miterlimit:4;stroke-opacity:1;stroke-dasharray:28.96551684, 28.96551684;stroke-dashoffset:0" />
    <path
       d="M 567.80494,480.62365 C 30,1023.614 30,1024.3538 30,1024.3538 m 0,-542.02284 c 540,540.03124 540,540.03124 540,540.03124"
       id="path3009"
       style="fill:#000080;stroke:#808000;stroke-width:39.2714386;stroke-linecap:round;stroke-linejoin:miter;stroke-miterlimit:3;stroke-opacity:1;stroke-dasharray:none;stroke-dashoffset:0" />
    <g
       transform="matrix(0.66139824,0,0,0.62022652,51.337944,291.67186)"
       id="text3765"
       style="font-size:417.07211304px;font-style:normal;font-variant:normal;font-weight:normal;font-stretch:normal;fill:#808080;fill-opacity:1;stroke:none;font-family:Liberation Mono;-inkscape-font-specification:Liberation Mono">
      <path
         d="m 354.11297,551.43523 c -2.3e-4,11.4045 -2.03671,22.40151 -6.10945,32.99106 -3.93742,10.4541 -10.04687,19.75404 -18.32837,27.89984 -8.14613,8.14606 -18.39643,14.66281 -30.75092,19.55026 -12.35484,4.88767 -26.88175,7.33145 -43.58078,7.33134 l -57.22522,0 0,104.67533 -38.89687,0 0,-274.72182 93.67831,0 c 16.97057,2.7e-4 31.76901,1.96887 44.39537,5.90581 12.62603,3.93747 23.14785,9.50385 31.56552,16.69917 8.41726,7.19583 14.73036,15.88482 18.93931,26.06701 4.20851,10.04687 6.31287,21.24753 6.3131,33.602 m -39.10051,0.61095 c -1.9e-4,-16.9705 -5.56657,-29.80034 -16.69918,-38.48957 -11.13294,-8.82453 -27.8321,-13.23691 -50.09752,-13.23715 l -50.09753,0 0,108.13735 51.72671,0 c 11.13265,1.3e-4 20.77201,-1.4254 28.91809,-4.27662 8.28154,-2.9867 15.06982,-6.99178 20.36485,-12.01526 5.43045,-5.02317 9.43553,-10.99686 12.01526,-17.92107 2.57936,-6.92387 3.86913,-14.32309 3.86932,-22.19768"
         id="path3819" />
      <path
         d="m 417.44766,469.16124 167.60271,0 0,31.76916 -64.35293,0 0,211.18349 64.35293,0 0,31.76917 -167.60271,0 0,-31.76917 64.35292,0 0,-211.18349 -64.35292,0 0,-31.76916"
         id="path3821" />
    </g>
  </g>
</svg>
