<?xml version="1.0" encoding="UTF-8" standalone="no"?>
<!-- Created with Inkscape (http://www.inkscape.org/) -->

<svg
   xmlns:dc="http://purl.org/dc/elements/1.1/"
   xmlns:cc="http://creativecommons.org/ns#"
   xmlns:rdf="http://www.w3.org/1999/02/22-rdf-syntax-ns#"
   xmlns:svg="http://www.w3.org/2000/svg"
   xmlns="http://www.w3.org/2000/svg"
   xmlns:sodipodi="http://sodipodi.sourceforge.net/DTD/sodipodi-0.dtd"
   xmlns:inkscape="http://www.inkscape.org/namespaces/inkscape"
   width="600"
   height="600"
   id="svg2"
   version="1.1"
   inkscape:version="0.48.2 r9819"
   sodipodi:docname="puits_perdu_non_vu.svg">
  <defs
     id="defs4" />
  <sodipodi:namedview
     id="base"
     pagecolor="#e0e0e1"
     bordercolor="#666666"
     borderopacity="1.0"
     inkscape:pageopacity="1"
     inkscape:pageshadow="2"
     inkscape:zoom="0.70406752"
     inkscape:cx="410.14686"
     inkscape:cy="275.56742"
     inkscape:document-units="px"
     inkscape:current-layer="layer1"
     showgrid="false"
     showguides="true"
     inkscape:guide-bbox="true"
     inkscape:window-width="1680"
     inkscape:window-height="964"
     inkscape:window-x="0"
     inkscape:window-y="30"
     inkscape:window-maximized="1"
     inkscape:snap-grids="true"
     inkscape:snap-to-guides="true">
    <inkscape:grid
       type="xygrid"
       id="grid3753"
       empspacing="5"
       visible="true"
       enabled="true"
       snapvisiblegridlinesonly="true" />
    <sodipodi:guide
       orientation="1,0"
       position="300,620"
       id="guide3755" />
    <sodipodi:guide
       orientation="0,1"
       position="-50,300"
       id="guide3757" />
  </sodipodi:namedview>
  <metadata
     id="metadata7">
    <rdf:RDF>
      <cc:Work
         rdf:about="">
        <dc:format>image/svg+xml</dc:format>
        <dc:type
           rdf:resource="http://purl.org/dc/dcmitype/StillImage" />
        <dc:title></dc:title>
      </cc:Work>
    </rdf:RDF>
  </metadata>
  <g
     inkscape:label="Calque 1"
     inkscape:groupmode="layer"
     id="layer1"
     transform="translate(0,-452.36218)">
    <path
       sodipodi:type="star"
       style="fill:#ffffff;fill-opacity:1;stroke:#000000;stroke-width:4.69742823;stroke-miterlimit:4;stroke-opacity:1;stroke-dasharray:none"
       id="path2993"
       sodipodi:sides="7"
       sodipodi:cx="10"
       sodipodi:cy="10"
       sodipodi:r1="142.12669"
       sodipodi:r2="128.05174"
       sodipodi:arg1="0.68572951"
       sodipodi:arg2="1.1345285"
       inkscape:flatsided="true"
       inkscape:rounded="0"
       inkscape:randomized="0"
       d="M 119.99999,99.999993 8.219045,152.11553 -102.22081,97.21518 -128.1561,-23.359984 l 78.099065,-95.454416 123.32324,1.54545 75.682495,97.381571 z"
       transform="matrix(2.024701,-0.27049044,0.27366531,2.0551059,283.86591,732.99841)"
       inkscape:transform-center-x="7.8519233"
       inkscape:transform-center-y="6.9400695" />
    <path
       inkscape:connector-curvature="0"
       style="fill:#000080;stroke:#808000;stroke-width:39.27143860000000331;stroke-linecap:round;stroke-linejoin:miter;stroke-miterlimit:3;stroke-opacity:1;stroke-dasharray:none;stroke-dashoffset:0"
       id="path3009"
       d="M 567.80494,480.65487 C 30,1023.6452 30,1024.385 30,1024.385 m 0,-542.02282 c 540,540.03122 540,540.03122 540,540.03122" />
    <g
       transform="scale(0.97992267,1.0204887)"
       style="font-size:369.92175293px;font-style:normal;font-variant:normal;font-weight:normal;font-stretch:normal;fill:#808080;fill-opacity:1;stroke:#9f9f9f;stroke-opacity:1;font-family:Liberation Mono;-inkscape-font-specification:Liberation Mono"
       id="text3763">
      <path
         d="m 304.1692,684.15604 c -2e-4,10.11521 -1.80646,19.86899 -5.41878,29.26139 -3.49229,9.27226 -8.91106,17.52083 -16.25632,24.74574 -7.22521,7.22514 -16.3167,13.00517 -27.27451,17.34008 -10.95811,4.33512 -23.84274,6.50263 -38.65393,6.50253 l -50.75587,0 0,92.84169 -34.49954,0 0,-243.66428 83.0879,0 c 15.05203,2.5e-4 28.17749,1.7463 39.37644,5.23815 11.19864,3.49234 20.53096,8.42944 27.997,14.81132 7.46568,6.38233 13.06508,14.08903 16.79821,23.12011 3.73273,8.91107 5.5992,18.84548 5.5994,29.80327 m -34.68017,0.54188 c -1.6e-4,-15.05197 -4.93726,-26.43139 -14.81132,-34.13829 -9.87435,-7.82691 -24.68566,-11.74046 -44.43396,-11.74068 l -44.43396,0 0,95.91233 45.87897,0 c 9.87409,1.2e-4 18.42371,-1.26426 25.64887,-3.79314 7.34531,-2.64906 13.36617,-6.20136 18.06259,-10.65693 4.81653,-4.4553 8.36883,-9.75365 10.65692,-15.89507 2.28776,-6.14113 3.43173,-12.70386 3.43189,-19.68822"
         style=""
         id="path3923" />
      <path
         d="m 525.97775,684.15604 c -2.1e-4,10.11521 -1.80646,19.86899 -5.41878,29.26139 -3.49229,9.27226 -8.91106,17.52083 -16.25633,24.74574 -7.2252,7.22514 -16.3167,13.00517 -27.2745,17.34008 -10.95811,4.33512 -23.84274,6.50263 -38.65393,6.50253 l -50.75587,0 0,92.84169 -34.49954,0 0,-243.66428 83.0879,0 c 15.05202,2.5e-4 28.17749,1.7463 39.37643,5.23815 11.19864,3.49234 20.53097,8.42944 27.99701,14.81132 7.46568,6.38233 13.06508,14.08903 16.79821,23.12011 3.73273,8.91107 5.59919,18.84548 5.5994,29.80327 m -34.68017,0.54188 c -1.6e-4,-15.05197 -4.93727,-26.43139 -14.81132,-34.13829 -9.87435,-7.82691 -24.68566,-11.74046 -44.43396,-11.74068 l -44.43396,0 0,95.91233 45.87897,0 c 9.87409,1.2e-4 18.42371,-1.26426 25.64887,-3.79314 7.34531,-2.64906 13.36617,-6.20136 18.06259,-10.65693 4.81653,-4.4553 8.36883,-9.75365 10.65692,-15.89507 2.28776,-6.14113 3.43173,-12.70386 3.43189,-19.68822"
         style=""
         id="path3925" />
    </g>
  </g>
</svg>
