<?xml version="1.0" encoding="UTF-8" standalone="no"?>
<!-- Created with Inkscape (http://www.inkscape.org/) -->

<svg
   xmlns:dc="http://purl.org/dc/elements/1.1/"
   xmlns:cc="http://creativecommons.org/ns#"
   xmlns:rdf="http://www.w3.org/1999/02/22-rdf-syntax-ns#"
   xmlns:svg="http://www.w3.org/2000/svg"
   xmlns="http://www.w3.org/2000/svg"
   xmlns:sodipodi="http://sodipodi.sourceforge.net/DTD/sodipodi-0.dtd"
   xmlns:inkscape="http://www.inkscape.org/namespaces/inkscape"
   width="600"
   height="600"
   id="svg2"
   version="1.1"
   inkscape:version="0.48.2 r9819"
   sodipodi:docname="puits_infiltration_1a.svg">
  <defs
     id="defs4" />
  <sodipodi:namedview
     id="base"
     pagecolor="#e0e0e1"
     bordercolor="#666666"
     borderopacity="1.0"
     inkscape:pageopacity="1"
     inkscape:pageshadow="2"
     inkscape:zoom="0.88270494"
     inkscape:cx="330.49036"
     inkscape:cy="304.98649"
     inkscape:document-units="px"
     inkscape:current-layer="layer1"
     showgrid="true"
     showguides="true"
     inkscape:guide-bbox="true"
     inkscape:window-width="1680"
     inkscape:window-height="964"
     inkscape:window-x="0"
     inkscape:window-y="30"
     inkscape:window-maximized="1">
    <inkscape:grid
       type="xygrid"
       id="grid3753"
       empspacing="5"
       visible="true"
       enabled="true"
       snapvisiblegridlinesonly="true" />
    <sodipodi:guide
       orientation="1,0"
       position="300,620"
       id="guide3755" />
    <sodipodi:guide
       orientation="0,1"
       position="-50,300"
       id="guide3757" />
  </sodipodi:namedview>
  <metadata
     id="metadata7">
    <rdf:RDF>
      <cc:Work
         rdf:about="">
        <dc:format>image/svg+xml</dc:format>
        <dc:type
           rdf:resource="http://purl.org/dc/dcmitype/StillImage" />
        <dc:title />
      </cc:Work>
    </rdf:RDF>
  </metadata>
  <g
     inkscape:label="Calque 1"
     inkscape:groupmode="layer"
     id="layer1"
     transform="translate(0,-452.36218)">
    <path
       sodipodi:type="arc"
       style="fill:#ffffff;fill-opacity:1;stroke:#000000;stroke-width:9.65517228;stroke-linecap:round;stroke-linejoin:round;stroke-miterlimit:4;stroke-opacity:1;stroke-dasharray:28.96551684,28.96551684;stroke-dashoffset:0"
       id="path2993"
       sodipodi:cx="290"
       sodipodi:cy="290"
       sodipodi:rx="280"
       sodipodi:ry="280"
       d="M 570,290 C 570,444.63973 444.63973,570 290,570 135.36027,570 10,444.63973 10,290 10,135.36027 135.36027,10 290,10 444.63973,10 570,135.36027 570,290 z"
       transform="matrix(1.0357143,0,0,1.0357143,-0.35714286,452.00504)" />
    <path
       sodipodi:type="arc"
       style="fill:none;stroke:#000000;stroke-width:8.60828495;stroke-miterlimit:4;stroke-dasharray:none"
       id="path3769"
       sodipodi:cx="335"
       sodipodi:cy="315"
       sodipodi:rx="85"
       sodipodi:ry="85"
       d="m 420,315 c 0,46.9442 -38.0558,85 -85,85 -46.9442,0 -85,-38.0558 -85,-85 0,-46.9442 38.0558,-85 85,-85 46.9442,0 85,38.0558 85,85 z"
       transform="matrix(1.1470588,0,0,1.1764706,-81.764696,381.77394)" />
    <g
       transform="scale(0.80615718,1.2404529)"
       style="font-size:417.07211303999997654px;font-style:normal;font-variant:normal;font-weight:normal;font-stretch:normal;fill:#808080;fill-opacity:1;stroke:#ffffff;font-family:Liberation Mono;-inkscape-font-specification:Liberation Mono"
       id="text3765">
      <path
         d="m 354.11297,551.43523 c -2.3e-4,11.4045 -2.03671,22.40151 -6.10945,32.99106 -3.93742,10.4541 -10.04687,19.75404 -18.32837,27.89984 -8.14613,8.14606 -18.39643,14.66281 -30.75092,19.55026 -12.35484,4.88767 -26.88175,7.33145 -43.58078,7.33134 l -57.22522,0 0,104.67533 -38.89687,0 0,-274.72182 93.67831,0 c 16.97057,2.7e-4 31.76901,1.96887 44.39537,5.90581 12.62603,3.93747 23.14785,9.50385 31.56552,16.69917 8.41726,7.19583 14.73036,15.88482 18.93931,26.06701 4.20851,10.04687 6.31287,21.24753 6.3131,33.602 m -39.10051,0.61095 c -1.9e-4,-16.9705 -5.56657,-29.80034 -16.69918,-38.48957 -11.13294,-8.82453 -27.8321,-13.23691 -50.09752,-13.23715 l -50.09753,0 0,108.13735 51.72671,0 c 11.13265,1.3e-4 20.77201,-1.4254 28.91809,-4.27662 8.28154,-2.9867 15.06982,-6.99178 20.36485,-12.01526 5.43045,-5.02317 9.43553,-10.99686 12.01526,-17.92107 2.57936,-6.92387 3.86913,-14.32309 3.86932,-22.19768"
         style="stroke:#ffffff"
         id="path3819" />
      <path
         d="m 417.44766,469.16124 167.60271,0 0,31.76916 -64.35293,0 0,211.18349 64.35293,0 0,31.76917 -167.60271,0 0,-31.76917 64.35292,0 0,-211.18349 -64.35292,0 0,-31.76916"
         style="stroke:#ffffff"
         id="path3821" />
    </g>
  </g>
</svg>
