<?xml version="1.0" encoding="UTF-8" standalone="no"?>
<!-- Created with Inkscape (http://www.inkscape.org/) -->

<svg
   xmlns:dc="http://purl.org/dc/elements/1.1/"
   xmlns:cc="http://creativecommons.org/ns#"
   xmlns:rdf="http://www.w3.org/1999/02/22-rdf-syntax-ns#"
   xmlns:svg="http://www.w3.org/2000/svg"
   xmlns="http://www.w3.org/2000/svg"
   xmlns:xlink="http://www.w3.org/1999/xlink"
   xmlns:sodipodi="http://sodipodi.sourceforge.net/DTD/sodipodi-0.dtd"
   xmlns:inkscape="http://www.inkscape.org/namespaces/inkscape"
   width="600"
   height="600"
   id="svg2"
   version="1.1"
   inkscape:version="0.48.2 r9819"
   sodipodi:docname="rejet_autoris_inconnue.svg">
  <defs
     id="defs4">
    <linearGradient
       id="linearGradient5908">
      <stop
         style="stop-color:#333333;stop-opacity:1;"
         offset="0"
         id="stop5910" />
      <stop
         id="stop5912"
         offset="0.17333333"
         style="stop-color:#ffffff;stop-opacity:1;" />
      <stop
         style="stop-color:#7f7f7f;stop-opacity:1;"
         offset="0.38060158"
         id="stop5914" />
      <stop
         style="stop-color:#000000;stop-opacity:1;"
         offset="1"
         id="stop5916" />
    </linearGradient>
    <linearGradient
       id="linearGradient5867">
      <stop
         style="stop-color:#c2c2c2;stop-opacity:1;"
         offset="0"
         id="stop5869" />
      <stop
         id="stop5902"
         offset="0.25"
         style="stop-color:#919191;stop-opacity:1;" />
      <stop
         id="stop5900"
         offset="0.5"
         style="stop-color:#616161;stop-opacity:1;" />
      <stop
         style="stop-color:#000000;stop-opacity:1;"
         offset="1"
         id="stop5871" />
    </linearGradient>
    <linearGradient
       inkscape:collect="always"
       xlink:href="#linearGradient5908"
       id="linearGradient5922"
       gradientUnits="userSpaceOnUse"
       gradientTransform="matrix(1.1920717,-0.19441786,0.16531863,1.401899,-25.315513,73.95936)"
       x1="298.41882"
       y1="253.6259"
       x2="293.68359"
       y2="162.78001" />
    <radialGradient
       inkscape:collect="always"
       xlink:href="#linearGradient5867"
       id="radialGradient5924"
       gradientUnits="userSpaceOnUse"
       gradientTransform="matrix(-0.01280777,0.50296943,-1.7511757,-0.03428132,594.47564,83.526903)"
       spreadMethod="pad"
       cx="664.04565"
       cy="227.8261"
       fx="664.04565"
       fy="227.8261"
       r="70.287048" />
    <linearGradient
       inkscape:collect="always"
       xlink:href="#linearGradient5908"
       id="linearGradient6510"
       gradientUnits="userSpaceOnUse"
       gradientTransform="matrix(1.1920717,-0.19441786,0.16531863,1.401899,-25.315513,73.95936)"
       x1="298.41882"
       y1="253.6259"
       x2="293.68359"
       y2="162.78001" />
    <radialGradient
       inkscape:collect="always"
       xlink:href="#linearGradient5867"
       id="radialGradient6513"
       gradientUnits="userSpaceOnUse"
       gradientTransform="matrix(0.15207777,0.51994948,-1.5872827,0.46425874,472.11984,-40.092525)"
       spreadMethod="pad"
       cx="664.04565"
       cy="227.8261"
       fx="664.04565"
       fy="227.8261"
       r="70.287048" />
  </defs>
  <sodipodi:namedview
     id="base"
     pagecolor="#e0e0e1"
     bordercolor="#666666"
     borderopacity="1.0"
     inkscape:pageopacity="1"
     inkscape:pageshadow="2"
     inkscape:zoom="0.88270494"
     inkscape:cx="500.82407"
     inkscape:cy="314.74208"
     inkscape:document-units="px"
     inkscape:current-layer="layer2"
     showgrid="true"
     showguides="true"
     inkscape:guide-bbox="true"
     inkscape:window-width="1680"
     inkscape:window-height="964"
     inkscape:window-x="0"
     inkscape:window-y="30"
     inkscape:window-maximized="1"
     inkscape:snap-global="true">
    <inkscape:grid
       type="xygrid"
       id="grid3753"
       empspacing="5"
       visible="true"
       enabled="true"
       snapvisiblegridlinesonly="true" />
    <sodipodi:guide
       orientation="1,0"
       position="300,620"
       id="guide3755" />
    <sodipodi:guide
       orientation="0,1"
       position="-50,300"
       id="guide3757" />
  </sodipodi:namedview>
  <metadata
     id="metadata7">
    <rdf:RDF>
      <cc:Work
         rdf:about="">
        <dc:format>image/svg+xml</dc:format>
        <dc:type
           rdf:resource="http://purl.org/dc/dcmitype/StillImage" />
        <dc:title />
      </cc:Work>
    </rdf:RDF>
  </metadata>
  <g
     inkscape:label="Calque 1"
     inkscape:groupmode="layer"
     id="layer1"
     transform="translate(0,-452.36218)"
     sodipodi:insensitive="true"
     style="display:none" />
  <g
     inkscape:groupmode="layer"
     id="layer2"
     inkscape:label="Calque">
    <path
       style="fill:#cccccc;fill-opacity:1;stroke:#000000;stroke-width:10;stroke-linejoin:round;stroke-miterlimit:4;stroke-opacity:1;stroke-dasharray:none"
       d="m 110,10 c 128.38649,0.0861 256.7773,-0.1724081 385.16108,0.129633 C 550.10664,11.325025 595.2632,64.012851 590,118.34386 c -0.0861,125.6052 0.17239,251.21473 -0.12963,376.81722 C 588.67498,550.10664 535.98715,595.2632 481.65614,590 356.05094,589.91392 230.44141,590.17239 104.83892,589.87037 49.893355,588.67498 4.7368,535.98715 10,481.65614 10.086082,356.05094 9.827611,230.44141 10.129633,104.83892 11.683585,52.939962 58.058871,8.8915393 110,10 z"
       id="rect5954"
       inkscape:connector-curvature="0" />
    <g
       id="g5918"
       transform="matrix(1.301012,0,0,1.4132102,-43.589487,-185.10545)">
      <path
         style="fill:url(#linearGradient6510);fill-opacity:1;stroke:none"
         d="m 171.2647,242.17503 c 105.24424,-15.836 210.48848,-31.67199 315.73272,-47.50799 0.072,57.84784 0.14391,115.69568 0.21587,173.54352 C 395.85423,389.93048 304.49518,411.6504 213.13612,433.37032 199.17898,369.63856 185.22184,305.90679 171.2647,242.17503 z"
         id="rect5865"
         inkscape:connector-curvature="0" />
      <path
         style="fill:url(#radialGradient6513);fill-opacity:1;stroke:#808080;stroke-width:10.08296776;stroke-linecap:round;stroke-linejoin:round;stroke-miterlimit:4;stroke-opacity:1;stroke-dasharray:none;stroke-dashoffset:0"
         d="m 251.81851,319.02983 c 12.37875,37.39567 9.21828,88.44301 -24.23834,106.70188 -30.66583,15.07909 -66.04648,-12.4455 -82.11863,-43.40054 -21.40419,-38.52421 -27.1165,-94.86802 2.748,-125.52964 21.97334,-21.87456 58.07083,-9.59294 77.54788,14.8356 11.7898,13.45404 20.53929,29.98178 26.06109,47.3927 z"
         id="path5861"
         inkscape:connector-curvature="0" />
    </g>
    <g
       id="g5946"
       transform="matrix(1.1740359,0,0,0.81290673,-41.469215,84.228001)"
       style="fill:#6c5d53;stroke:#6c5353">
      <path
         style="fill:#6c5d53;fill-opacity:1;stroke:#6c5353"
         d="m 243.06883,367.36082 c -16.7472,16.04308 -27.97594,36.02886 -8.69161,55.34961 4.50824,28.9349 -28.42175,54.65232 -1.63537,82.30448 12.82622,25.74205 -7.27123,50.05009 -10.79179,74.76496 15.34518,23.92543 -24.50795,12.84126 -7.85444,-7.88973 14.61058,-26.43776 16.11347,-57.52995 -1.77836,-82.86985 -6.53461,-28.00562 30.3772,-55.68316 0.049,-81.17684 -1.87465,-16.14415 16.97664,-34.50772 30.70252,-40.48263 z"
         id="path5938"
         inkscape:connector-curvature="0" />
      <g
         id="g5942"
         style="fill:#6c5d53;stroke:#6c5353">
        <path
           style="fill:#6c5d53;fill-opacity:1;stroke:#6c5353"
           d="m 224.6374,369.92667 c -12.57565,5.93184 -19.40315,9.00801 -13.89475,6.22647 -19.07765,10.88148 5.40546,-2.97492 -7.93847,4.58741 17.22122,-11.9069 -31.64254,22.80141 -7.98828,37.34784 11.09759,24.23996 -11.21898,45.17352 -11.7148,68.48849 9.13314,23.41267 25.18657,53.03122 5.57115,76.35061 -7.43336,9.19974 6.53329,41.21223 -10.46504,31.1567 -9.95103,-26.56859 22.33559,-51.0525 3.99434,-78.68441 -24.3051,-26.87096 7.71587,-54.57769 4.2048,-83.33923 -12.37818,-22.50364 -3.51526,-47.56735 21.38587,-56.18694 -10.69684,6.183 9.31545,-6.47255 26.23366,-13.2408 l -4.69425,3.64695 -4.69427,3.64691 4e-5,0 z"
           id="path5936"
           inkscape:connector-curvature="0" />
        <path
           style="fill:#6c5d53;fill-opacity:1;stroke:#6c5353"
           d="m 254.3211,368.94254 c -14.09131,25.41452 14.58541,43.38164 13.55721,67.6967 -12.99039,22.37615 -3.52161,40.74471 3.22391,63.21054 -18.3814,27.47349 6.85377,60.64802 -1.49244,85.85364 -17.97045,9.32075 -3.17057,-32.29445 -15.53353,-40.26359 -1.4466,-26.11066 14.33409,-52.12393 -6.00111,-76.01682 21.8325,-27.69281 -3.59127,-53.21648 -7.2743,-80.14126 -1.12904,-10.32181 3.40393,-17.8016 13.52026,-20.33921 z"
           id="path5940"
           inkscape:connector-curvature="0" />
      </g>
    </g>
  </g>
</svg>
