<?xml version="1.0" encoding="UTF-8" standalone="no"?>
<!-- Created with Inkscape (http://www.inkscape.org/) -->

<svg
   xmlns:dc="http://purl.org/dc/elements/1.1/"
   xmlns:cc="http://creativecommons.org/ns#"
   xmlns:rdf="http://www.w3.org/1999/02/22-rdf-syntax-ns#"
   xmlns:svg="http://www.w3.org/2000/svg"
   xmlns="http://www.w3.org/2000/svg"
   xmlns:sodipodi="http://sodipodi.sourceforge.net/DTD/sodipodi-0.dtd"
   xmlns:inkscape="http://www.inkscape.org/namespaces/inkscape"
   width="600"
   height="600"
   id="svg2"
   version="1.1"
   inkscape:version="0.48.2 r9819"
   sodipodi:docname="rejet_autorise2.svg">
  <defs
     id="defs4" />
  <sodipodi:namedview
     id="base"
     pagecolor="#e0e0e1"
     bordercolor="#666666"
     borderopacity="1.0"
     inkscape:pageopacity="1"
     inkscape:pageshadow="2"
     inkscape:zoom="0.88270494"
     inkscape:cx="500.82407"
     inkscape:cy="314.74208"
     inkscape:document-units="px"
     inkscape:current-layer="layer2"
     showgrid="true"
     showguides="true"
     inkscape:guide-bbox="true"
     inkscape:window-width="1680"
     inkscape:window-height="964"
     inkscape:window-x="0"
     inkscape:window-y="30"
     inkscape:window-maximized="1"
     inkscape:snap-global="true">
    <inkscape:grid
       type="xygrid"
       id="grid3753"
       empspacing="5"
       visible="true"
       enabled="true"
       snapvisiblegridlinesonly="true" />
    <sodipodi:guide
       orientation="1,0"
       position="300,620"
       id="guide3755" />
    <sodipodi:guide
       orientation="0,1"
       position="-50,300"
       id="guide3757" />
  </sodipodi:namedview>
  <metadata
     id="metadata7">
    <rdf:RDF>
      <cc:Work
         rdf:about="">
        <dc:format>image/svg+xml</dc:format>
        <dc:type
           rdf:resource="http://purl.org/dc/dcmitype/StillImage" />
        <dc:title />
      </cc:Work>
    </rdf:RDF>
  </metadata>
  <g
     inkscape:label="Calque 1"
     inkscape:groupmode="layer"
     id="layer1"
     transform="translate(0,-452.36218)"
     sodipodi:insensitive="true"
     style="display:none" />
  <g
     inkscape:groupmode="layer"
     id="layer2"
     inkscape:label="Calque">
    <rect
       style="fill:#ffffff;fill-opacity:1;stroke:#808080;stroke-width:10;stroke-linejoin:round;stroke-miterlimit:4;stroke-opacity:1;stroke-dasharray:none"
       id="rect5954"
       width="580"
       height="580"
       x="10"
       y="10"
       ry="100" />
    <g
       id="g6278"
       style="stroke:#008000;fill:#00ff00">
      <rect
         y="40"
         x="230"
         height="320"
         width="140"
         id="rect6264"
         style="fill:#00ff00;fill-opacity:1;stroke:#008000;stroke-width:6.89260148999999966;stroke-linecap:round;stroke-linejoin:round;stroke-miterlimit:4;stroke-opacity:1;stroke-dasharray:none;stroke-dashoffset:0" />
      <path
         transform="matrix(0.78867513,0,0,0.70619653,220.84937,81.518171)"
         inkscape:transform-center-y="28.24786"
         inkscape:transform-center-x="-0.28312085"
         d="M 239.99999,310 169.64101,430.62178 99.282032,551.24355 30.000003,430 -39.282026,308.75645 100.35898,309.37823 z"
         inkscape:randomized="0"
         inkscape:rounded="0"
         inkscape:flatsided="false"
         sodipodi:arg2="0.52805144"
         sodipodi:arg1="-0.51914611"
         sodipodi:r2="80.622574"
         sodipodi:r1="161.24515"
         sodipodi:cy="390"
         sodipodi:cx="100"
         sodipodi:sides="3"
         id="path6268"
         style="fill:#00ff00;fill-opacity:1;stroke:#008000;stroke-width:10;stroke-linecap:round;stroke-linejoin:round;stroke-miterlimit:4;stroke-opacity:1;stroke-dasharray:none;stroke-dashoffset:0"
         sodipodi:type="star" />
    </g>
    <path
       style="fill:#0000ff;fill-opacity:1;stroke:none"
       d="m 56.342695,500.44583 c 13.924158,-8.60811 26.74096,-18.87575 41.373658,-26.35263 -6.976981,4.06463 -18.42656,10.78053 -5.00284,2.34721 14.600537,-10.58927 32.017537,-15.95392 50.050517,-14.11635 24.39379,-1.68092 47.18625,8.71178 70.42485,14.37138 16.51201,6.7238 32.10627,16.59235 50.59692,16.7031 19.33526,4.32096 37.78674,-3.54915 56.57931,-6.93879 7.56615,-0.53168 24.1474,-10.97701 26.55643,-11.43857 -7.10351,4.0581 -22.89139,13.215 -6.96441,4.03405 5.13297,-2.94686 17.26159,-9.94944 4.56845,-2.68971 -15.8326,9.37981 13.8365,-8.232 18.72218,-10.01501 6.90762,-3.20923 15.1939,-7.28124 3.46534,-0.88499 -17.97563,10.3832 24.6193,-14.09682 3.01761,-1.72279 -20.07822,12.27007 10.687,-7.95694 17.6395,-10.27024 21.76289,-11.20461 47.20143,-12.85512 70.92714,-8.26475 19.12439,8.89428 39.63612,14.42291 58.39009,24.23195 4.62539,4.52196 34.91182,10.3402 21.89826,17.09748 -7.37887,8.58358 -14.5335,3.24372 -22.54056,-1.81972 -20.35117,-9.99202 -41.00791,-19.26378 -62.58416,-26.30015 -17.4739,-8.48627 -38.45165,-6.53639 -56.91799,-2.8818 -7.11968,0.65982 -33.68119,14.35062 -14.91068,3.96706 13.52004,-7.66935 -31.37512,18.69588 -10.46137,6.43107 9.66266,-5.5898 12.58479,-7.38798 1.41781,-0.90255 -7.54184,5.08953 -28.12884,14.52641 -29.41485,15.18905 7.65512,-4.43218 15.35803,-8.88906 3.19876,-1.85759 -13.91474,8.0577 -2.62882,1.40684 5.15931,-3.01601 -18.06966,10.85474 -36.78688,21.60839 -58.08597,24.07021 -20.91457,8.0028 -43.52608,4.61049 -64.68768,-0.38003 -15.17188,-6.21517 -29.46599,-14.71778 -45.87087,-17.68407 -18.22983,-5.14032 -36.54776,-11.12841 -55.77766,-9.21929 -8.48925,-1.61973 -31.798747,3.56623 -30.61309,5.18598 6.51071,-3.6638 21.00921,-12.46329 6.67362,-3.59484 -6.123193,3.83209 -27.319328,16.02871 -10.592435,6.33974 12.183735,-7.55155 -15.093508,10.88065 -20.535713,14.32561 -5.232912,2.0183 -10.467796,4.03948 -15.699477,6.05599 z"
       id="path6270"
       inkscape:connector-curvature="0" />
    <path
       style="fill:#0000ff;fill-opacity:1;stroke:none"
       d="m 56.342695,531.03974 c 13.924158,-8.60811 26.74096,-18.87575 41.373658,-26.35263 -6.976981,4.06463 -18.42656,10.78053 -5.00284,2.34721 14.600537,-10.58927 32.017537,-15.95392 50.050517,-14.11635 24.39379,-1.68092 47.18625,8.71178 70.42485,14.37138 16.51201,6.7238 32.10627,16.59235 50.59692,16.7031 19.33526,4.32096 37.78674,-3.54915 56.57931,-6.93879 7.56615,-0.53168 24.1474,-10.97701 26.55643,-11.43857 -7.10351,4.0581 -22.89139,13.215 -6.96441,4.03405 5.13297,-2.94686 17.26159,-9.94944 4.56845,-2.68971 -15.8326,9.37981 13.8365,-8.232 18.72218,-10.01501 6.90762,-3.20923 15.1939,-7.28124 3.46534,-0.88499 -17.97563,10.3832 24.6193,-14.09682 3.01761,-1.72279 -20.07822,12.27007 10.687,-7.95694 17.6395,-10.27024 21.76289,-11.20461 47.20143,-12.85512 70.92714,-8.26475 19.12439,8.89428 39.63612,14.42291 58.39009,24.23195 4.62539,4.52196 34.91182,10.3402 21.89826,17.09748 -7.37887,8.58358 -14.5335,3.24372 -22.54056,-1.81972 -20.35117,-9.99202 -41.00791,-19.26378 -62.58416,-26.30015 -17.4739,-8.48627 -38.45165,-6.53639 -56.91799,-2.8818 -7.11968,0.65982 -33.68119,14.35062 -14.91068,3.96706 13.52004,-7.66935 -31.37512,18.69588 -10.46137,6.43107 9.66266,-5.5898 12.58479,-7.38798 1.41781,-0.90255 -7.54184,5.08953 -28.12884,14.52641 -29.41485,15.18905 7.65512,-4.43218 15.35803,-8.88906 3.19876,-1.85759 -13.91474,8.0577 -2.62882,1.40684 5.15931,-3.01601 -18.06966,10.85474 -36.78688,21.60839 -58.08597,24.07021 -20.91457,8.0028 -43.52608,4.61049 -64.68768,-0.38003 -15.17188,-6.21517 -29.46599,-14.71778 -45.87087,-17.68407 -18.22983,-5.14032 -36.54776,-11.12841 -55.77766,-9.21929 -8.48925,-1.61973 -31.798747,3.56623 -30.61309,5.18598 6.51071,-3.6638 21.00921,-12.46329 6.67362,-3.59484 -6.123193,3.83209 -27.319328,16.02871 -10.592435,6.33974 12.183735,-7.55155 -15.093508,10.88065 -20.535713,14.32561 -5.232912,2.0183 -10.467796,4.03948 -15.699477,6.05599 z"
       id="path6274"
       inkscape:connector-curvature="0" />
    <path
       style="fill:#0000ff;fill-opacity:1;stroke:none"
       d="m 56.342695,563.92491 c 13.924158,-8.60811 26.74096,-18.87575 41.373658,-26.35263 -6.976981,4.06463 -18.42656,10.78053 -5.00284,2.34721 14.600537,-10.58927 32.017537,-15.95392 50.050517,-14.11635 24.39379,-1.68092 47.18625,8.71178 70.42485,14.37138 16.51201,6.7238 32.10627,16.59235 50.59692,16.7031 19.33526,4.32096 37.78674,-3.54915 56.57931,-6.93879 7.56615,-0.53168 24.1474,-10.97701 26.55643,-11.43857 -7.10351,4.0581 -22.89139,13.215 -6.96441,4.03405 5.13297,-2.94686 17.26159,-9.94944 4.56845,-2.68971 -15.8326,9.37981 13.8365,-8.232 18.72218,-10.01501 6.90762,-3.20923 15.1939,-7.28124 3.46534,-0.88499 -17.97563,10.3832 24.6193,-14.09682 3.01761,-1.72279 -20.07822,12.27007 10.687,-7.95694 17.6395,-10.27024 21.76289,-11.20461 47.20143,-12.85512 70.92714,-8.26475 19.12439,8.89428 39.63612,14.42291 58.39009,24.23195 4.62539,4.52196 34.91182,10.3402 21.89826,17.09748 -7.37887,8.58358 -14.5335,3.24372 -22.54056,-1.81972 -20.35117,-9.99202 -41.00791,-19.26378 -62.58416,-26.30015 -17.4739,-8.48627 -38.45165,-6.53639 -56.91799,-2.8818 -7.11968,0.65982 -33.68119,14.35062 -14.91068,3.96706 13.52004,-7.66935 -31.37512,18.69588 -10.46137,6.43107 9.66266,-5.5898 12.58479,-7.38798 1.41781,-0.90255 -7.54184,5.08953 -28.12884,14.52641 -29.41485,15.18905 7.65512,-4.43218 15.35803,-8.88906 3.19876,-1.85759 -13.91474,8.0577 -2.62882,1.40684 5.15931,-3.01601 -18.06966,10.85474 -36.78688,21.60839 -58.08597,24.07021 -20.91457,8.0028 -43.52608,4.61049 -64.68768,-0.38003 -15.17188,-6.21517 -29.46599,-14.71778 -45.87087,-17.68407 -18.22983,-5.14032 -36.54776,-11.12841 -55.77766,-9.21929 -8.48925,-1.61973 -31.798747,3.56623 -30.61309,5.18598 6.51071,-3.6638 21.00921,-12.46329 6.67362,-3.59484 -6.123193,3.83209 -27.319328,16.02871 -10.592435,6.33974 12.183735,-7.55155 -15.093508,10.88065 -20.535713,14.32561 -5.232912,2.0183 -10.467796,4.03948 -15.699477,6.05599 z"
       id="path6276"
       inkscape:connector-curvature="0" />
  </g>
</svg>
