<?xml version="1.0" encoding="UTF-8" standalone="no"?>
<!-- Created with Inkscape (http://www.inkscape.org/) -->

<svg
   xmlns:dc="http://purl.org/dc/elements/1.1/"
   xmlns:cc="http://creativecommons.org/ns#"
   xmlns:rdf="http://www.w3.org/1999/02/22-rdf-syntax-ns#"
   xmlns:svg="http://www.w3.org/2000/svg"
   xmlns="http://www.w3.org/2000/svg"
   xmlns:xlink="http://www.w3.org/1999/xlink"
   xmlns:sodipodi="http://sodipodi.sourceforge.net/DTD/sodipodi-0.dtd"
   xmlns:inkscape="http://www.inkscape.org/namespaces/inkscape"
   width="600"
   height="600"
   id="svg2"
   version="1.1"
   inkscape:version="0.48.2 r9819"
   sodipodi:docname="rejet_autorise.svg">
  <defs
     id="defs4">
    <linearGradient
       id="linearGradient5908">
      <stop
         style="stop-color:#333333;stop-opacity:1;"
         offset="0"
         id="stop5910" />
      <stop
         id="stop5912"
         offset="0.17333333"
         style="stop-color:#ffffff;stop-opacity:1;" />
      <stop
         style="stop-color:#7f7f7f;stop-opacity:1;"
         offset="0.38060158"
         id="stop5914" />
      <stop
         style="stop-color:#000000;stop-opacity:1;"
         offset="1"
         id="stop5916" />
    </linearGradient>
    <linearGradient
       id="linearGradient5867">
      <stop
         style="stop-color:#c2c2c2;stop-opacity:1;"
         offset="0"
         id="stop5869" />
      <stop
         id="stop5902"
         offset="0.25"
         style="stop-color:#919191;stop-opacity:1;" />
      <stop
         id="stop5900"
         offset="0.5"
         style="stop-color:#616161;stop-opacity:1;" />
      <stop
         style="stop-color:#000000;stop-opacity:1;"
         offset="1"
         id="stop5871" />
    </linearGradient>
    <linearGradient
       inkscape:collect="always"
       xlink:href="#linearGradient5908"
       id="linearGradient5922"
       gradientUnits="userSpaceOnUse"
       gradientTransform="matrix(1.1920717,-0.19441786,0.16531863,1.401899,-25.315513,73.95936)"
       x1="298.41882"
       y1="253.6259"
       x2="293.68359"
       y2="162.78001" />
    <radialGradient
       inkscape:collect="always"
       xlink:href="#linearGradient5867"
       id="radialGradient5924"
       gradientUnits="userSpaceOnUse"
       gradientTransform="matrix(-0.01280777,0.50296943,-1.7511757,-0.03428132,594.47564,83.526903)"
       spreadMethod="pad"
       cx="664.04565"
       cy="227.8261"
       fx="664.04565"
       fy="227.8261"
       r="70.287048" />
    <linearGradient
       inkscape:collect="always"
       xlink:href="#linearGradient5908"
       id="linearGradient3011"
       gradientUnits="userSpaceOnUse"
       gradientTransform="matrix(1.1920717,-0.19441786,0.16531863,1.401899,-25.315513,73.95936)"
       x1="298.41882"
       y1="253.6259"
       x2="293.68359"
       y2="162.78001" />
    <radialGradient
       inkscape:collect="always"
       xlink:href="#linearGradient5867"
       id="radialGradient3014"
       gradientUnits="userSpaceOnUse"
       gradientTransform="matrix(0.15207777,0.51994948,-1.5872827,0.46425874,472.11984,-40.092525)"
       spreadMethod="pad"
       cx="664.04565"
       cy="227.8261"
       fx="664.04565"
       fy="227.8261"
       r="70.287048" />
  </defs>
  <sodipodi:namedview
     id="base"
     pagecolor="#e0e0e1"
     bordercolor="#666666"
     borderopacity="1.0"
     inkscape:pageopacity="1"
     inkscape:pageshadow="2"
     inkscape:zoom="0.88270494"
     inkscape:cx="331.27055"
     inkscape:cy="314.74208"
     inkscape:document-units="px"
     inkscape:current-layer="layer2"
     showgrid="true"
     showguides="true"
     inkscape:guide-bbox="true"
     inkscape:window-width="1680"
     inkscape:window-height="964"
     inkscape:window-x="0"
     inkscape:window-y="30"
     inkscape:window-maximized="1"
     inkscape:snap-global="true">
    <inkscape:grid
       type="xygrid"
       id="grid3753"
       empspacing="5"
       visible="true"
       enabled="true"
       snapvisiblegridlinesonly="true" />
    <sodipodi:guide
       orientation="1,0"
       position="300,620"
       id="guide3755" />
    <sodipodi:guide
       orientation="0,1"
       position="-50,300"
       id="guide3757" />
  </sodipodi:namedview>
  <metadata
     id="metadata7">
    <rdf:RDF>
      <cc:Work
         rdf:about="">
        <dc:format>image/svg+xml</dc:format>
        <dc:type
           rdf:resource="http://purl.org/dc/dcmitype/StillImage" />
        <dc:title />
      </cc:Work>
    </rdf:RDF>
  </metadata>
  <g
     inkscape:label="Calque 1"
     inkscape:groupmode="layer"
     id="layer1"
     transform="translate(0,-452.36218)"
     sodipodi:insensitive="true"
     style="display:none" />
  <g
     inkscape:groupmode="layer"
     id="layer2"
     inkscape:label="Calque">
    <path
       style="fill:#aaffaa;fill-opacity:1;stroke:#000000;stroke-width:10;stroke-linejoin:round;stroke-miterlimit:4;stroke-opacity:1;stroke-dasharray:none"
       d="m 110,10 c 128.38649,0.0861 256.7773,-0.1724081 385.16108,0.129633 C 550.10664,11.325025 595.2632,64.012851 590,118.34386 c -0.0861,125.6052 0.17239,251.21473 -0.12963,376.81722 C 588.67498,550.10664 535.98715,595.2632 481.65614,590 356.05094,589.91392 230.44141,590.17239 104.83892,589.87037 49.893355,588.67498 4.7368,535.98715 10,481.65614 10.086082,356.05094 9.827611,230.44141 10.129633,104.83892 11.683585,52.939962 58.058871,8.8915393 110,10 z"
       id="rect5954"
       inkscape:connector-curvature="0" />
    <g
       id="g5918"
       transform="matrix(1.301012,0,0,1.4132102,-43.589487,-185.10545)">
      <path
         style="fill:url(#linearGradient3011);fill-opacity:1;stroke:none"
         d="m 171.2647,242.17503 c 105.24424,-15.836 210.48848,-31.67199 315.73272,-47.50799 0.072,57.84784 0.14391,115.69568 0.21587,173.54352 C 395.85423,389.93048 304.49518,411.6504 213.13612,433.37032 199.17898,369.63856 185.22184,305.90679 171.2647,242.17503 z"
         id="rect5865"
         inkscape:connector-curvature="0" />
      <path
         style="fill:url(#radialGradient3014);fill-opacity:1;stroke:#808080;stroke-width:10.08296776;stroke-linecap:round;stroke-linejoin:round;stroke-miterlimit:4;stroke-opacity:1;stroke-dasharray:none;stroke-dashoffset:0"
         d="m 251.81851,319.02983 c 12.37875,37.39567 9.21828,88.44301 -24.23834,106.70188 -30.66583,15.07909 -66.04648,-12.4455 -82.11863,-43.40054 -21.40419,-38.52421 -27.1165,-94.86802 2.748,-125.52964 21.97334,-21.87456 58.07083,-9.59294 77.54788,14.8356 11.7898,13.45404 20.53929,29.98178 26.06109,47.3927 z"
         id="path5861"
         inkscape:connector-curvature="0" />
    </g>
    <g
       id="g5946"
       transform="matrix(1.1740359,0,0,0.81290673,-41.469215,84.228001)"
       style="fill:#0066ff">
      <path
         style="fill:#0066ff;fill-opacity:1;stroke:none"
         d="m 243.06883,367.36082 c -19.82717,16.59343 -25.79608,37.55657 -8.04531,57.9073 3.04815,26.81434 -28.8495,50.54932 -3.69169,76.34751 18.06421,27.89631 -11.5806,55.92364 -7.62836,82.45858 10.85116,18.81528 -24.79138,7.85582 -10.4236,-9.73659 13.86554,-26.99618 18.53027,-58.55169 -0.64548,-84.56189 -8.39209,-27.44535 31.20581,-54.93415 0.3943,-80.10365 -4.0255,-16.77183 15.41861,-36.56867 30.04014,-42.31126 z"
         id="path5938"
         inkscape:connector-curvature="0" />
      <g
         id="g5942"
         style="fill:#0066ff">
        <path
           style="fill:#0066ff;fill-opacity:1;stroke:none"
           d="m 224.6374,369.92667 c -21.37095,10.60492 -10.83508,4.23738 -16.64516,7.80312 -22.35834,12.78622 20.41966,-11.60589 -7.03721,4.09117 11.8699,-7.0533 9.17025,-5.00807 -1.14659,0.71896 27.33186,-16.97587 -26.42914,14.94039 -6.57844,30.98376 18.9658,30.85665 -24.86363,60.46187 -3.7169,89.66849 23.89132,29.39273 -10.70611,58.04208 -0.0729,86.89504 -13.69229,22.31147 -20.77555,-20.20892 -6.89717,-30.48892 20.9349,-30.67076 -24.644,-60.30755 -4.41363,-90.47935 24.04362,-25.63109 -13.70762,-61.03884 13.28027,-82.38342 22.25681,-14.94909 10.2965,-7.07923 15.41843,-10.36726 18.14244,-10.67106 -16.82148,9.70812 1.53828,-0.94615 16.09601,-9.38258 -15.16872,8.82084 2.75287,-1.65987 7.79966,-3.89947 35.65511,-19.3024 13.51817,-3.83557 z"
           id="path5936"
           inkscape:connector-curvature="0" />
        <path
           style="fill:#0066ff;fill-opacity:1;stroke:none"
           d="m 254.3211,368.94254 c -15.11502,32.44664 31.7742,60.11137 5.20513,91.80096 5.24172,20.97653 18.55212,44.19395 3.79842,66.77079 -1.76717,18.97598 21.13924,50.44281 1.52245,60.82373 -4.26959,-20.17763 -19.74212,-53.57705 -4.98728,-77.3276 2.43059,-23.79988 -22.78633,-43.02794 -2.99416,-65.53254 5.24926,-24.60354 -34.9758,-54.99245 -7.12065,-74.38607 1.52535,-0.71642 3.05178,-1.43308 4.57609,-2.14927 z"
           id="path5940"
           inkscape:connector-curvature="0" />
      </g>
    </g>
  </g>
</svg>
