<?xml version="1.0" encoding="UTF-8" standalone="no"?>
<!-- Created with Inkscape (http://www.inkscape.org/) -->

<svg
   xmlns:dc="http://purl.org/dc/elements/1.1/"
   xmlns:cc="http://creativecommons.org/ns#"
   xmlns:rdf="http://www.w3.org/1999/02/22-rdf-syntax-ns#"
   xmlns:svg="http://www.w3.org/2000/svg"
   xmlns="http://www.w3.org/2000/svg"
   version="1.1"
   width="600"
   height="600"
   id="svg2">
  <defs
     id="defs4" />
  <metadata
     id="metadata7">
    <rdf:RDF>
      <cc:Work
         rdf:about="">
        <dc:format>image/svg+xml</dc:format>
        <dc:type
           rdf:resource="http://purl.org/dc/dcmitype/StillImage" />
        <dc:title></dc:title>
      </cc:Work>
    </rdf:RDF>
  </metadata>
  <g
     transform="translate(0,-452.36218)"
     id="layer1">
    <path
       d="m 85.193591,572.36218 c 0,0 139.629629,-11.07143 139.629629,44.28571 0,147.61905 0,177.14286 0,265.71429 0,88.57143 150.37037,88.57143 150.37037,0 0,-88.57143 0,-210.35714 0,-265.71429 0,-55.35714 139.62963,-44.28571 139.62963,-44.28571"
       id="path3003-0"
       style="fill:none;stroke:#000000;stroke-width:109.04830933;stroke-linecap:butt;stroke-linejoin:round;stroke-miterlimit:4;stroke-opacity:1;stroke-dasharray:none" />
    <path
       d="m 85.193591,572.36218 c 0,0 139.629629,-11.07143 139.629629,44.28571 0,147.61905 0,177.14286 0,265.71429 0,88.57143 150.37037,88.57143 150.37037,0 0,-88.57143 0,-210.35714 0,-265.71429 0,-55.35714 139.62963,-44.28571 139.62963,-44.28571"
       id="path3003-0-9"
       style="fill:none;stroke:#a0a0a0;stroke-width:54.52399826;stroke-linecap:square;stroke-linejoin:round;stroke-miterlimit:4;stroke-opacity:1;stroke-dasharray:none" />
  </g>
</svg>
